<?xml version="1.0" encoding="utf-8"?>
<!-- Generator: Adobe Illustrator 13.0.0, SVG Export Plug-In  -->
<!DOCTYPE svg PUBLIC "-//W3C//DTD SVG 1.1//EN" "http://www.w3.org/Graphics/SVG/1.1/DTD/svg11.dtd" [
	<!ENTITY ns_flows "http://ns.adobe.com/Flows/1.0/">
]>
<svg version="1.1"
	 xmlns="http://www.w3.org/2000/svg" xmlns:xlink="http://www.w3.org/1999/xlink" xmlns:a="http://ns.adobe.com/AdobeSVGViewerExtensions/3.0/"
	 x="0px" y="0px" width="1359px" height="340px" viewBox="-0.091 -0.418 1359 340" enable-background="new -0.091 -0.418 1359 340"
	 xml:space="preserve">
<defs>
</defs>
<polygon fill="#00AA4F" stroke="#000000" points="187.909,77.692 1215.909,75.692 1333.909,169.692 1223.909,265.692 
	187.909,263.692 "/>
<path fill="#FFFFFF" d="M237.563,126.021h35.6c7.047,0,12.302,0.294,15.765,0.881c3.463,0.587,6.561,1.813,9.295,3.675
	c2.734,1.863,5.012,4.344,6.834,7.442c1.822,3.098,2.733,6.572,2.733,10.419c0,4.171-1.124,7.999-3.372,11.481
	c-2.248,3.484-5.295,6.096-9.143,7.837c5.426,1.58,9.598,4.273,12.514,8.08c2.916,3.808,4.374,8.283,4.374,13.426
	c0,4.05-0.941,7.989-2.825,11.816s-4.456,6.886-7.715,9.173c-3.261,2.289-7.28,3.696-12.059,4.222
	c-2.998,0.325-10.227,0.527-21.688,0.607h-30.314V126.021z M255.546,140.844v20.594h11.785c7.006,0,11.36-0.101,13.062-0.304
	c3.077-0.365,5.498-1.428,7.259-3.189s2.643-4.08,2.643-6.956c0-2.754-0.759-4.991-2.278-6.713
	c-1.519-1.721-3.777-2.764-6.773-3.128c-1.783-0.202-6.906-0.304-15.37-0.304H255.546z M255.546,176.261v23.814h16.646
	c6.479,0,10.59-0.182,12.332-0.547c2.673-0.486,4.85-1.67,6.531-3.554c1.68-1.883,2.521-4.404,2.521-7.563
	c0-2.673-0.648-4.94-1.944-6.804c-1.297-1.862-3.169-3.22-5.62-4.07c-2.451-0.851-7.767-1.276-15.947-1.276H255.546z"/>
<path fill="#FFFFFF" d="M327.352,215.081v-89.06h66.035v15.066h-48.053v19.744h44.712v15.005h-44.712v24.239h49.754v15.005H327.352z
	"/>
<path fill="#FFFFFF" d="M490.648,215.081h-19.561l-7.776-20.23h-35.599l-7.351,20.23h-19.075l34.688-89.06h19.015L490.648,215.081z
	 M457.54,179.846l-12.271-33.048l-12.029,33.048H457.54z"/>
<path fill="#FFFFFF" d="M500.064,126.021h17.982v48.236c0,7.654,0.222,12.616,0.668,14.883c0.769,3.645,2.602,6.572,5.498,8.779
	c2.896,2.208,6.854,3.311,11.877,3.311c5.103,0,8.95-1.042,11.542-3.128c2.591-2.085,4.151-4.647,4.678-7.685
	c0.526-3.038,0.79-8.08,0.79-15.127v-49.268h17.982v46.778c0,10.692-0.486,18.246-1.458,22.66c-0.972,4.415-2.764,8.14-5.376,11.178
	c-2.612,3.038-6.105,5.458-10.479,7.26s-10.084,2.703-17.132,2.703c-8.505,0-14.955-0.982-19.349-2.946
	c-4.395-1.964-7.867-4.515-10.418-7.654c-2.552-3.138-4.233-6.429-5.042-9.872c-1.175-5.103-1.762-12.636-1.762-22.599V126.021z"/>
<path fill="#FFFFFF" d="M612.756,215.081l-31.833-89.06h19.5l22.538,65.914l21.81-65.914h19.075l-31.894,89.06H612.756z"/>
<path fill="#FFFFFF" d="M744.125,215.081h-19.562l-7.776-20.23h-35.6l-7.351,20.23h-19.075l34.688-89.06h19.015L744.125,215.081z
	 M711.016,179.846l-12.271-33.048l-12.029,33.048H711.016z"/>
<path fill="#FFFFFF" d="M753.116,215.081v-89.06h17.981v89.06H753.116z"/>
<path fill="#FFFFFF" d="M783.672,186.103l17.496-1.701c1.053,5.873,3.189,10.186,6.409,12.94c3.22,2.754,7.563,4.131,13.031,4.131
	c5.791,0,10.154-1.225,13.092-3.675c2.936-2.45,4.404-5.316,4.404-8.596c0-2.105-0.618-3.897-1.854-5.376
	c-1.235-1.478-3.393-2.764-6.47-3.858c-2.106-0.729-6.905-2.024-14.397-3.888c-9.64-2.389-16.402-5.325-20.291-8.809
	c-5.467-4.9-8.201-10.875-8.201-17.921c0-4.536,1.285-8.778,3.858-12.727c2.571-3.949,6.276-6.956,11.117-9.021
	c4.839-2.065,10.682-3.098,17.526-3.098c11.178,0,19.592,2.451,25.241,7.351c5.649,4.901,8.616,11.442,8.9,19.623l-17.982,0.79
	c-0.77-4.576-2.421-7.867-4.951-9.872c-2.531-2.004-6.328-3.007-11.391-3.007c-5.225,0-9.315,1.073-12.271,3.22
	c-1.904,1.377-2.855,3.22-2.855,5.528c0,2.106,0.891,3.909,2.673,5.407c2.268,1.904,7.776,3.888,16.524,5.953
	s15.218,4.202,19.409,6.409c4.192,2.208,7.473,5.225,9.842,9.052s3.554,8.557,3.554,14.185c0,5.103-1.418,9.882-4.252,14.337
	c-2.836,4.456-6.845,7.766-12.029,9.933c-5.185,2.166-11.644,3.25-19.379,3.25c-11.26,0-19.906-2.602-25.94-7.807
	C788.451,203.65,784.847,196.066,783.672,186.103z"/>
<line fill="none" stroke="#0398D6" x1="855.82" y1="16.359" x2="855.82" y2="154.683"/>
<line fill="none" stroke="#0398D6" x1="192.343" y1="15.232" x2="192.343" y2="104.838"/>
<line fill="none" stroke="#0398D6" x1="239.565" y1="16.771" x2="239.565" y2="92.904"/>
<line fill="none" stroke="#0398D6" x1="122.576" y1="44.916" x2="246.575" y2="44.916"/>
<line fill="none" stroke="#0398D6" x1="842.575" y1="44.249" x2="1046.566" y2="44.249"/>
<line fill="none" stroke="#0398D6" x1="1154.909" y1="44.249" x2="1288.962" y2="44.249"/>
<path fill="#007AC2" d="M160.409,17.666l-3.146,0.246c-0.281-1.242-0.68-2.145-1.195-2.707c-0.855-0.902-1.91-1.354-3.164-1.354
	c-1.008,0-1.893,0.281-2.654,0.844c-0.996,0.727-1.781,1.787-2.355,3.182s-0.873,3.381-0.896,5.959
	c0.762-1.16,1.693-2.021,2.795-2.584s2.256-0.844,3.463-0.844c2.109,0,3.905,0.776,5.388,2.329s2.224,3.56,2.224,6.021
	c0,1.617-0.349,3.12-1.046,4.509s-1.655,2.452-2.874,3.19s-2.602,1.107-4.148,1.107c-2.637,0-4.787-0.97-6.451-2.909
	s-2.496-5.136-2.496-9.589c0-4.98,0.92-8.602,2.76-10.863c1.605-1.969,3.768-2.953,6.486-2.953c2.027,0,3.688,0.568,4.983,1.705
	S160.151,15.662,160.409,17.666z M147.489,28.775c0,1.09,0.231,2.133,0.694,3.129s1.11,1.755,1.942,2.276s1.705,0.782,2.619,0.782
	c1.336,0,2.484-0.539,3.445-1.617s1.441-2.543,1.441-4.395c0-1.781-0.475-3.185-1.424-4.21s-2.145-1.538-3.586-1.538
	c-1.43,0-2.643,0.513-3.639,1.538S147.489,27.111,147.489,28.775z"/>
<path fill="#007AC2" d="M180.642,34.083v3.041h-17.033c-0.023-0.762,0.1-1.494,0.369-2.197c0.434-1.16,1.128-2.303,2.083-3.428
	s2.335-2.426,4.14-3.902c2.801-2.297,4.693-4.116,5.678-5.458s1.477-2.61,1.477-3.806c0-1.254-0.448-2.312-1.345-3.173
	s-2.065-1.292-3.507-1.292c-1.523,0-2.742,0.457-3.656,1.371s-1.377,2.18-1.389,3.797l-3.252-0.334
	c0.223-2.426,1.061-4.274,2.514-5.546s3.404-1.907,5.854-1.907c2.473,0,4.43,0.686,5.871,2.057s2.162,3.07,2.162,5.098
	c0,1.031-0.211,2.045-0.633,3.041s-1.122,2.045-2.101,3.146s-2.604,2.613-4.878,4.535c-1.898,1.594-3.117,2.675-3.656,3.243
	s-0.984,1.14-1.336,1.714H180.642z"/>
<path fill="#007AC2" d="M185.739,37.125v-3.604h3.604v3.604c0,1.324-0.234,2.394-0.703,3.208s-1.213,1.444-2.232,1.89l-0.879-1.354
	c0.668-0.293,1.16-0.724,1.477-1.292s0.492-1.386,0.527-2.452H185.739z"/>
<path fill="#007AC2" d="M194.036,30.375l3.322-0.281c0.246,1.617,0.817,2.833,1.714,3.647s1.978,1.222,3.243,1.222
	c1.523,0,2.813-0.574,3.867-1.723s1.582-2.672,1.582-4.57c0-1.805-0.507-3.229-1.521-4.271s-2.341-1.564-3.981-1.564
	c-1.02,0-1.939,0.231-2.76,0.694s-1.465,1.063-1.934,1.802l-2.971-0.387l2.496-13.236h12.814v3.023h-10.283l-1.389,6.926
	c1.547-1.078,3.17-1.617,4.869-1.617c2.25,0,4.148,0.779,5.695,2.338s2.32,3.563,2.32,6.012c0,2.332-0.68,4.348-2.039,6.047
	c-1.652,2.086-3.908,3.129-6.768,3.129c-2.344,0-4.257-0.656-5.739-1.969S194.247,32.542,194.036,30.375z"/>
<path fill="#007AC2" d="M936.531,23.137v3.041h-17.033c-0.023-0.762,0.1-1.494,0.369-2.197c0.434-1.16,1.128-2.303,2.083-3.428
	s2.335-2.426,4.14-3.902c2.801-2.297,4.693-4.116,5.678-5.458s1.477-2.61,1.477-3.806c0-1.254-0.448-2.312-1.345-3.173
	s-2.065-1.292-3.507-1.292c-1.523,0-2.742,0.457-3.656,1.371s-1.377,2.18-1.389,3.797l-3.252-0.334
	c0.223-2.426,1.061-4.274,2.514-5.546s3.404-1.907,5.854-1.907c2.473,0,4.43,0.686,5.871,2.057s2.162,3.07,2.162,5.098
	c0,1.031-0.211,2.045-0.633,3.041s-1.122,2.045-2.101,3.146s-2.604,2.613-4.878,4.535c-1.898,1.594-3.117,2.675-3.656,3.243
	s-0.984,1.14-1.336,1.714H936.531z"/>
<path fill="#007AC2" d="M939.923,19.428l3.322-0.281c0.246,1.617,0.817,2.833,1.714,3.647s1.978,1.222,3.243,1.222
	c1.523,0,2.813-0.574,3.867-1.723s1.582-2.672,1.582-4.57c0-1.805-0.507-3.229-1.521-4.271s-2.341-1.564-3.981-1.564
	c-1.02,0-1.939,0.231-2.76,0.694s-1.465,1.063-1.934,1.802l-2.971-0.387l2.496-13.236h12.814v3.023h-10.283l-1.389,6.926
	c1.547-1.078,3.17-1.617,4.869-1.617c2.25,0,4.148,0.779,5.695,2.338s2.32,3.563,2.32,6.012c0,2.332-0.68,4.348-2.039,6.047
	c-1.652,2.086-3.908,3.129-6.768,3.129c-2.344,0-4.257-0.656-5.739-1.969S940.134,21.596,939.923,19.428z"/>
<path fill="#007AC2" d="M962.494,23.946c-1.699-2.145-2.549-5.637-2.549-10.477c0-3.047,0.313-5.499,0.94-7.356
	s1.559-3.29,2.795-4.298s2.792-1.512,4.667-1.512c1.383,0,2.596,0.278,3.639,0.835s1.904,1.359,2.584,2.408s1.213,2.326,1.6,3.832
	s0.58,3.536,0.58,6.091c0,3.023-0.311,5.464-0.932,7.321s-1.55,3.293-2.786,4.307s-2.798,1.521-4.685,1.521
	C965.863,26.618,963.912,25.727,962.494,23.946L962.494,23.946z M964.832,4.768c-1.09,1.57-1.635,4.471-1.635,8.701
	s0.495,7.046,1.485,8.446s2.212,2.101,3.665,2.101s2.675-0.703,3.665-2.109s1.485-4.219,1.485-8.438
	c0-4.242-0.495-7.061-1.485-8.455s-2.224-2.092-3.7-2.092C966.859,2.922,965.699,3.538,964.832,4.768L964.832,4.768z"/>
<ellipse fill="#343895" stroke="#005FAD" cx="1037.232" cy="44.087" rx="4.057" ry="3.605"/>
<ellipse fill="#343895" stroke="#005FAD" cx="854.566" cy="44.087" rx="4.057" ry="3.605"/>
<line fill="none" stroke="#0398D6" x1="1173.428" y1="17.795" x2="1173.428" y2="115.026"/>
<line fill="none" stroke="#0398D6" x1="1217.908" y1="17.706" x2="1217.908" y2="72.359"/>
<path fill="#007AC2" d="M1251.597,8.87l-3.146,0.246c-0.281-1.242-0.68-2.145-1.195-2.707c-0.855-0.902-1.91-1.354-3.164-1.354
	c-1.008,0-1.893,0.281-2.654,0.844c-0.996,0.727-1.781,1.787-2.355,3.182s-0.873,3.381-0.896,5.959
	c0.762-1.16,1.693-2.021,2.795-2.584s2.256-0.844,3.463-0.844c2.109,0,3.905,0.776,5.388,2.329s2.224,3.56,2.224,6.021
	c0,1.617-0.349,3.12-1.046,4.509s-1.655,2.452-2.874,3.19s-2.602,1.107-4.148,1.107c-2.637,0-4.787-0.97-6.451-2.909
	s-2.496-5.136-2.496-9.589c0-4.98,0.92-8.602,2.76-10.863c1.605-1.969,3.768-2.953,6.486-2.953c2.027,0,3.688,0.568,4.983,1.705
	S1251.339,6.866,1251.597,8.87z M1238.677,19.979c0,1.09,0.231,2.133,0.694,3.129s1.11,1.755,1.942,2.276s1.705,0.782,2.619,0.782
	c1.336,0,2.484-0.539,3.445-1.617s1.441-2.543,1.441-4.395c0-1.781-0.475-3.185-1.424-4.21s-2.145-1.538-3.586-1.538
	c-1.43,0-2.643,0.513-3.639,1.538S1238.677,18.315,1238.677,19.979z"/>
<path fill="#007AC2" d="M1271.83,25.288v3.041h-17.033c-0.023-0.762,0.1-1.494,0.369-2.197c0.434-1.16,1.128-2.303,2.083-3.428
	s2.335-2.426,4.14-3.902c2.801-2.297,4.693-4.116,5.678-5.458s1.477-2.61,1.477-3.806c0-1.254-0.448-2.312-1.345-3.173
	s-2.065-1.292-3.507-1.292c-1.523,0-2.742,0.457-3.656,1.371s-1.377,2.18-1.389,3.797l-3.252-0.334
	c0.223-2.426,1.061-4.274,2.514-5.546s3.404-1.907,5.854-1.907c2.473,0,4.43,0.686,5.871,2.057s2.162,3.07,2.162,5.098
	c0,1.031-0.211,2.045-0.633,3.041s-1.122,2.045-2.101,3.146s-2.604,2.613-4.878,4.535c-1.898,1.594-3.117,2.675-3.656,3.243
	s-0.984,1.14-1.336,1.714H1271.83z"/>
<path fill="#007AC2" d="M1276.927,28.329v-3.604h3.604v3.604c0,1.324-0.234,2.394-0.703,3.208s-1.213,1.444-2.232,1.89l-0.879-1.354
	c0.668-0.293,1.16-0.724,1.477-1.292s0.492-1.386,0.527-2.452H1276.927z"/>
<path fill="#007AC2" d="M1285.224,21.579l3.322-0.281c0.246,1.617,0.817,2.833,1.714,3.647s1.978,1.222,3.243,1.222
	c1.523,0,2.813-0.574,3.867-1.723s1.582-2.672,1.582-4.57c0-1.805-0.507-3.229-1.521-4.271s-2.341-1.564-3.981-1.564
	c-1.02,0-1.939,0.231-2.76,0.694s-1.465,1.063-1.934,1.802l-2.971-0.387l2.496-13.236h12.814v3.023h-10.283l-1.389,6.926
	c1.547-1.078,3.17-1.617,4.869-1.617c2.25,0,4.148,0.779,5.695,2.338s2.32,3.563,2.32,6.012c0,2.332-0.68,4.348-2.039,6.047
	c-1.652,2.086-3.908,3.129-6.768,3.129c-2.344,0-4.257-0.656-5.739-1.969S1285.435,23.747,1285.224,21.579z"/>
<ellipse fill="#343895" stroke="#005FAD" cx="1173.176" cy="43.692" rx="4.057" ry="3.605"/>
<ellipse fill="#343895" stroke="#005FAD" cx="1217.241" cy="43.753" rx="4.057" ry="3.605"/>
<ellipse fill="#343895" stroke="#005FAD" cx="239.242" cy="45.025" rx="4.057" ry="3.605"/>
<ellipse fill="#343895" stroke="#005FAD" cx="191.909" cy="44.359" rx="4.057" ry="3.605"/>
<path fill="#FFFFFF" d="M1039.06,188.897l17.906-1.733c0.512,3.786,2.024,6.784,4.541,8.995c2.515,2.211,5.413,3.317,8.697,3.317
	c3.751,0,6.927-1.424,9.528-4.273c2.6-2.848,3.901-7.142,3.901-12.88c0-5.379-1.29-9.414-3.869-12.103
	c-2.58-2.689-5.938-4.034-10.072-4.034c-5.159,0-9.785,2.132-13.878,6.395l-14.58-1.972l9.209-45.603h47.515v15.719h-33.894
	l-2.813,14.882c4.007-1.873,8.1-2.809,12.278-2.809c7.972,0,14.729,2.71,20.272,8.128c5.542,5.419,8.313,12.452,8.313,21.098
	c0,7.212-2.238,13.647-6.715,19.305c-6.098,7.73-14.56,11.595-25.389,11.595c-8.655,0-15.711-2.171-21.168-6.515
	C1043.387,202.067,1040.125,196.229,1039.06,188.897z"/>
<path fill="#FFFFFF" d="M1172.333,195.831v15.6h-62.991c0.682-5.896,2.728-11.485,6.139-16.765
	c3.41-5.279,10.146-12.282,20.209-21.008c8.1-7.052,13.066-11.834,14.9-14.344c2.472-3.466,3.709-6.893,3.709-10.28
	c0-3.745-1.077-6.624-3.229-8.636c-2.153-2.012-5.127-3.018-8.921-3.018c-3.752,0-6.737,1.056-8.953,3.167
	c-2.218,2.112-3.496,5.618-3.837,10.519l-17.906-1.673c1.065-9.244,4.412-15.878,10.04-19.903
	c5.628-4.024,12.662-6.037,21.104-6.037c9.251,0,16.521,2.331,21.808,6.993c5.286,4.662,7.93,10.459,7.93,17.392
	c0,3.945-0.758,7.701-2.271,11.267c-1.514,3.566-3.912,7.302-7.194,11.207c-2.174,2.59-6.098,6.315-11.767,11.176
	c-5.671,4.862-9.263,8.089-10.776,9.683c-1.514,1.594-2.739,3.148-3.677,4.662H1172.333z"/>
<path fill="#FFFFFF" stroke="#000000" d="M1339.743,146.989c-25.836-17.254-51.671-34.51-77.505-51.762
	c-8.832-5.897-26.713-23.864-38.412-23.864c-0.791,0-1.583,0-2.376,0v-1.432c-71.953,0-143.905,0-215.854,0
	c-237.387,0-474.775,0-712.164,0c-33.477,0-66.959,0-100.441,0c-12.974,7.291-21.874,9.482-21.762,20.808
	c0.079,7.833,0.16,15.666,0.238,23.499c0.33,32.747,0.658,65.495,0.988,98.241c0.083,8.42-10.608,48.128,8.816,53.343
	c15.951,4.284,29.135,3.588,47.309,3.576c212.164-0.167,424.335-0.327,636.497-0.493c117.059-0.088,234.115-0.182,351.173-0.269
	c1.176-0.001,2.352-0.002,3.527-0.003l0.039,2.006c1.316-0.139,2.551-0.361,3.667-0.688c5.993-1.76,13.08-9.117,17.964-12.523
	c14.64-10.204,29.278-20.405,43.919-30.609c20.519-14.303,42.271-27.839,61.881-43.133
	C1365.868,169.164,1357.469,158.829,1339.743,146.989z M1220.027,257.733H204.711l-8.373-0.898l-5.02-3.595V88.804l5.02-1.798
	l5.024-3.595l10.046-0.9l1005.187-0.786l-0.04,0.366l85.528,88.06L1220.027,257.733z"/>
<line fill="none" stroke="#0398D6" x1="29.909" y1="84.916" x2="178.575" y2="84.916"/>
<line fill="none" stroke="#0398D6" x1="29.576" y1="126.916" x2="203.575" y2="126.916"/>
<line fill="none" stroke="#0398D6" x1="24.909" y1="214.916" x2="205.575" y2="214.916"/>
<line fill="none" stroke="#0398D6" x1="30.909" y1="256.916" x2="202.575" y2="256.916"/>
<line fill="none" stroke="#0398D6" x1="53.565" y1="27.296" x2="53.565" y2="306.282"/>
<ellipse fill="#343895" stroke="#005FAD" cx="52.909" cy="85.087" rx="4.057" ry="3.605"/>
<ellipse fill="#343895" stroke="#005FAD" cx="53.909" cy="127.087" rx="4.057" ry="3.605"/>
<ellipse fill="#343895" stroke="#005FAD" cx="52.909" cy="214.087" rx="4.057" ry="3.605"/>
<ellipse fill="#343895" stroke="#005FAD" cx="53.909" cy="256.087" rx="4.057" ry="3.605"/>
<path fill="#007AC2" d="M15.542,50.713l0.246,3.146c-1.242,0.281-2.145,0.68-2.707,1.195c-0.902,0.855-1.354,1.91-1.354,3.164
	c0,1.008,0.281,1.893,0.844,2.654c0.727,0.996,1.787,1.781,3.182,2.355s3.381,0.873,5.959,0.896
	c-1.16-0.762-2.021-1.693-2.584-2.795s-0.844-2.256-0.844-3.463c0-2.109,0.776-3.905,2.329-5.388s3.56-2.224,6.021-2.224
	c1.617,0,3.12,0.349,4.509,1.046s2.452,1.655,3.19,2.874s1.107,2.602,1.107,4.148c0,2.637-0.97,4.787-2.909,6.451
	s-5.136,2.496-9.589,2.496c-4.98,0-8.602-0.92-10.863-2.76c-1.969-1.605-2.953-3.768-2.953-6.486c0-2.027,0.568-3.688,1.705-4.983
	S13.538,50.971,15.542,50.713z M26.651,63.633c1.09,0,2.133-0.231,3.129-0.694s1.755-1.11,2.276-1.942s0.782-1.705,0.782-2.619
	c0-1.336-0.539-2.484-1.617-3.445s-2.543-1.441-4.395-1.441c-1.781,0-3.185,0.475-4.21,1.424s-1.538,2.145-1.538,3.586
	c0,1.43,0.513,2.643,1.538,3.639S24.987,63.633,26.651,63.633z"/>
<path fill="#007AC2" d="M31.959,30.48H35v17.033c-0.762,0.023-1.494-0.1-2.197-0.369c-1.16-0.434-2.303-1.128-3.428-2.083
	s-2.426-2.335-3.902-4.14c-2.297-2.801-4.116-4.693-5.458-5.678s-2.61-1.477-3.806-1.477c-1.254,0-2.312,0.448-3.173,1.345
	s-1.292,2.065-1.292,3.507c0,1.523,0.457,2.742,1.371,3.656s2.18,1.377,3.797,1.389l-0.334,3.252
	c-2.426-0.223-4.274-1.061-5.546-2.514s-1.907-3.404-1.907-5.854c0-2.473,0.686-4.43,2.057-5.871s3.07-2.162,5.098-2.162
	c1.031,0,2.045,0.211,3.041,0.633s2.045,1.122,3.146,2.101s2.613,2.604,4.535,4.878c1.594,1.898,2.675,3.117,3.243,3.656
	s1.14,0.984,1.714,1.336V30.48z"/>
<path fill="#007AC2" d="M35,25.383h-3.604v-3.604H35c1.324,0,2.394,0.234,3.208,0.703s1.444,1.213,1.89,2.232l-1.354,0.879
	c-0.293-0.668-0.724-1.16-1.292-1.477S36.067,23.625,35,23.59V25.383z"/>
<path fill="#007AC2" d="M28.25,17.086l-0.281-3.322c1.617-0.246,2.833-0.817,3.647-1.714s1.222-1.978,1.222-3.243
	c0-1.523-0.574-2.813-1.723-3.867s-2.672-1.582-4.57-1.582c-1.805,0-3.229,0.507-4.271,1.521s-1.564,2.341-1.564,3.981
	c0,1.02,0.231,1.939,0.694,2.76s1.063,1.465,1.802,1.934l-0.387,2.971L9.583,14.027V1.213h3.023v10.283l6.926,1.389
	c-1.078-1.547-1.617-3.17-1.617-4.869c0-2.25,0.779-4.148,2.338-5.695S23.815,0,26.264,0c2.332,0,4.348,0.68,6.047,2.039
	c2.086,1.652,3.129,3.908,3.129,6.768c0,2.344-0.656,4.257-1.969,5.739S30.418,16.875,28.25,17.086z"/>
<path fill="#007AC2" d="M20.042,322.214l0.246,3.146c-1.242,0.281-2.145,0.68-2.707,1.195c-0.902,0.855-1.354,1.91-1.354,3.164
	c0,1.008,0.281,1.893,0.844,2.654c0.727,0.996,1.787,1.781,3.182,2.355s3.381,0.873,5.959,0.896
	c-1.16-0.762-2.021-1.693-2.584-2.795s-0.844-2.256-0.844-3.463c0-2.109,0.776-3.905,2.329-5.388s3.56-2.224,6.021-2.224
	c1.617,0,3.12,0.349,4.509,1.046s2.452,1.655,3.19,2.874s1.107,2.602,1.107,4.148c0,2.637-0.97,4.787-2.909,6.451
	s-5.136,2.496-9.589,2.496c-4.98,0-8.602-0.92-10.863-2.76c-1.969-1.605-2.953-3.768-2.953-6.486c0-2.027,0.568-3.688,1.705-4.983
	S18.038,322.472,20.042,322.214z M31.151,335.134c1.09,0,2.133-0.231,3.129-0.694s1.755-1.11,2.276-1.942s0.782-1.705,0.782-2.619
	c0-1.336-0.539-2.484-1.617-3.445s-2.543-1.441-4.395-1.441c-1.781,0-3.185,0.475-4.21,1.424s-1.538,2.145-1.538,3.586
	c0,1.43,0.513,2.643,1.538,3.639S29.487,335.134,31.151,335.134z"/>
<path fill="#007AC2" d="M36.459,301.981H39.5v17.033c-0.762,0.023-1.494-0.1-2.197-0.369c-1.16-0.434-2.303-1.128-3.428-2.083
	s-2.426-2.335-3.902-4.14c-2.297-2.801-4.116-4.693-5.458-5.678s-2.61-1.477-3.806-1.477c-1.254,0-2.312,0.448-3.173,1.345
	s-1.292,2.065-1.292,3.507c0,1.523,0.457,2.742,1.371,3.656s2.18,1.377,3.797,1.389l-0.334,3.252
	c-2.426-0.223-4.274-1.061-5.546-2.514s-1.907-3.404-1.907-5.854c0-2.473,0.686-4.43,2.057-5.871s3.07-2.162,5.098-2.162
	c1.031,0,2.045,0.211,3.041,0.633s2.045,1.122,3.146,2.101s2.613,2.604,4.535,4.878c1.594,1.898,2.675,3.117,3.243,3.656
	s1.14,0.984,1.714,1.336V301.981z"/>
<path fill="#007AC2" d="M39.5,296.884h-3.604v-3.604H39.5c1.324,0,2.394,0.234,3.208,0.703s1.444,1.213,1.89,2.232l-1.354,0.879
	c-0.293-0.668-0.724-1.16-1.292-1.477s-1.386-0.492-2.452-0.527V296.884z"/>
<path fill="#007AC2" d="M32.75,288.587l-0.281-3.322c1.617-0.246,2.833-0.817,3.647-1.714s1.222-1.978,1.222-3.243
	c0-1.523-0.574-2.813-1.723-3.867s-2.672-1.582-4.57-1.582c-1.805,0-3.229,0.507-4.271,1.521s-1.564,2.341-1.564,3.981
	c0,1.02,0.231,1.939,0.694,2.76s1.063,1.465,1.802,1.934l-0.387,2.971l-13.236-2.496v-12.814h3.023v10.283l6.926,1.389
	c-1.078-1.547-1.617-3.17-1.617-4.869c0-2.25,0.779-4.148,2.338-5.695s3.563-2.32,6.012-2.32c2.332,0,4.348,0.68,6.047,2.039
	c2.086,1.652,3.129,3.908,3.129,6.768c0,2.344-0.656,4.257-1.969,5.739S34.918,288.376,32.75,288.587z"/>
<path fill="#007AC2" d="M34.5,199.742v4.219H7.617c0.969,1.016,1.938,2.348,2.906,3.996c0.969,1.649,1.696,3.129,2.18,4.441H8.625
	c-1.109-2.359-2.453-4.421-4.031-6.188c-1.578-1.766-3.109-3.015-4.594-3.75v-2.719H34.5z"/>
<path fill="#007AC2" d="M30.445,166.765H34.5v22.711c-1.016,0.032-1.992-0.132-2.93-0.492c-1.547-0.578-3.07-1.503-4.57-2.777
	c-1.5-1.273-3.234-3.113-5.203-5.52c-3.062-3.734-5.488-6.258-7.277-7.57c-1.789-1.313-3.48-1.969-5.074-1.969
	c-1.672,0-3.082,0.598-4.23,1.793s-1.723,2.754-1.723,4.676c0,2.031,0.609,3.656,1.828,4.875s2.906,1.836,5.063,1.852l-0.445,4.336
	c-3.234-0.296-5.699-1.414-7.395-3.352C0.848,183.391,0,180.789,0,177.523c0-3.296,0.914-5.906,2.742-7.828s4.094-2.883,6.797-2.883
	c1.375,0,2.727,0.281,4.055,0.844c1.328,0.563,2.727,1.497,4.195,2.801c1.469,1.305,3.484,3.473,6.047,6.504
	c2.125,2.531,3.566,4.157,4.324,4.875c0.758,0.719,1.52,1.313,2.285,1.781V166.765z"/>
<path fill="#007AC2" d="M25.5,162.242l-0.375-4.43c2.156-0.328,3.777-1.09,4.863-2.285c1.086-1.195,1.629-2.637,1.629-4.324
	c0-2.031-0.765-3.75-2.297-5.156c-1.531-1.406-3.563-2.109-6.094-2.109c-2.406,0-4.304,0.676-5.695,2.027
	c-1.391,1.352-2.086,3.121-2.086,5.309c0,1.359,0.309,2.586,0.926,3.68c0.618,1.094,1.418,1.954,2.402,2.578l-0.516,3.961
	l-17.648-3.328v-17.086h4.031v13.711l9.234,1.852c-1.438-2.063-2.156-4.227-2.156-6.492c0-3,1.04-5.531,3.117-7.594
	c2.078-2.063,4.75-3.094,8.016-3.094c3.109,0,5.797,0.906,8.063,2.719c2.781,2.203,4.172,5.211,4.172,9.023
	c0,3.125-0.875,5.676-2.625,7.652C30.711,160.832,28.391,161.96,25.5,162.242z"/>
<line fill="none" stroke="#0398D6" x1="1037.583" y1="17.629" x2="1037.583" y2="116.285"/>
</svg>
