<?xml version="1.0" encoding="utf-8"?>
<!-- Generator: Adobe Illustrator 13.0.0, SVG Export Plug-In  -->
<!DOCTYPE svg PUBLIC "-//W3C//DTD SVG 1.1//EN" "http://www.w3.org/Graphics/SVG/1.1/DTD/svg11.dtd" [
	<!ENTITY ns_flows "http://ns.adobe.com/Flows/1.0/">
]>
<svg version="1.1"
	 xmlns="http://www.w3.org/2000/svg" xmlns:xlink="http://www.w3.org/1999/xlink" xmlns:a="http://ns.adobe.com/AdobeSVGViewerExtensions/3.0/"
	 x="0px" y="0px" width="938px" height="274px" viewBox="-0.716 -0.167 938 274" enable-background="new -0.716 -0.167 938 274"
	 xml:space="preserve">
<defs>
</defs>
<path stroke="#000000" stroke-linecap="round" stroke-linejoin="round" d="M894.98,180.533c0,15.812-13.825,28.632-30.879,28.632
	H189.898c-17.055,0-30.879-12.82-30.879-28.632v-78.736c0-15.813,13.824-28.632,30.879-28.632h674.203
	c17.054,0,30.879,12.818,30.879,28.632V180.533z"/>
<path fill="#FFFFFF" d="M887.63,176.404c0,14.154-13.486,25.63-30.124,25.63H199.859c-16.636,0-30.121-11.476-30.121-25.63v-70.48
	c0-14.156,13.485-25.629,30.121-25.629h657.647c16.638,0,30.124,11.473,30.124,25.629V176.404z"/>
<path stroke="#000000" d="M196.753,103.448h29.666c5.873,0,10.252,0.245,13.137,0.734c2.886,0.489,5.468,1.511,7.746,3.063
	c2.278,1.553,4.177,3.62,5.695,6.202c1.519,2.582,2.278,5.476,2.278,8.682c0,3.477-0.937,6.666-2.81,9.568
	c-1.873,2.903-4.413,5.08-7.619,6.53c4.522,1.316,7.999,3.562,10.429,6.733c2.43,3.173,3.645,6.902,3.645,11.188
	c0,3.375-0.785,6.657-2.354,9.847s-3.713,5.738-6.429,7.644c-2.717,1.907-6.067,3.081-10.049,3.519
	c-2.498,0.271-8.522,0.439-18.073,0.506h-25.262V103.448z M211.738,115.8v17.162h9.821c5.838,0,9.467-0.084,10.884-0.253
	c2.564-0.304,4.582-1.189,6.05-2.658s2.202-3.4,2.202-5.796c0-2.295-0.633-4.159-1.898-5.594c-1.266-1.434-3.147-2.304-5.645-2.607
	c-1.485-0.168-5.755-0.253-12.808-0.253H211.738z M211.738,145.315v19.845h13.872c5.399,0,8.825-0.152,10.277-0.456
	c2.228-0.405,4.041-1.392,5.442-2.961c1.4-1.569,2.101-3.67,2.101-6.303c0-2.228-0.54-4.118-1.62-5.67
	c-1.081-1.552-2.641-2.683-4.683-3.392c-2.042-0.709-6.472-1.063-13.289-1.063H211.738z"/>
<path stroke="#000000" d="M271.577,177.664v-74.216h55.029v12.555h-40.044v16.453h37.26v12.504h-37.26v20.199h41.462v12.504H271.577
	z"/>
<path stroke="#000000" d="M407.657,177.664h-16.301l-6.48-16.858h-29.667l-6.125,16.858h-15.896l28.907-74.216h15.846
	L407.657,177.664z M380.066,148.302l-10.226-27.54l-10.024,27.54H380.066z"/>
<path stroke="#000000" d="M415.503,103.448h14.985v40.196c0,6.379,0.185,10.514,0.557,12.403c0.641,3.037,2.168,5.476,4.582,7.315
	c2.413,1.84,5.712,2.759,9.897,2.759c4.253,0,7.459-0.869,9.619-2.607c2.159-1.738,3.459-3.873,3.898-6.404
	c0.438-2.531,0.658-6.733,0.658-12.605v-41.057h14.985v38.981c0,8.91-0.405,15.205-1.215,18.883c-0.81,3.679-2.304,6.784-4.48,9.315
	s-5.088,4.548-8.733,6.049s-8.404,2.253-14.276,2.253c-7.088,0-12.462-0.819-16.124-2.456c-3.663-1.636-6.556-3.763-8.683-6.378
	c-2.126-2.615-3.527-5.357-4.202-8.227c-0.979-4.252-1.468-10.53-1.468-18.833V103.448z"/>
<path stroke="#000000" d="M509.413,177.664l-26.528-74.216h16.251l18.782,54.928l18.174-54.928h15.896l-26.578,74.216H509.413z"/>
<path stroke="#000000" d="M618.887,177.664h-16.302l-6.479-16.858h-29.667l-6.126,16.858h-15.896l28.907-74.216h15.846
	L618.887,177.664z M591.296,148.302l-10.227-27.54l-10.023,27.54H591.296z"/>
<path stroke="#000000" d="M626.379,177.664v-74.216h14.985v74.216H626.379z"/>
<path stroke="#000000" d="M651.843,153.516l14.58-1.417c0.878,4.894,2.658,8.488,5.341,10.783c2.684,2.296,6.304,3.443,10.859,3.443
	c4.826,0,8.463-1.021,10.91-3.063c2.446-2.042,3.67-4.43,3.67-7.164c0-1.754-0.515-3.248-1.544-4.48
	c-1.03-1.232-2.827-2.304-5.392-3.215c-1.755-0.607-5.755-1.688-11.998-3.24c-8.033-1.991-13.669-4.438-16.909-7.34
	c-4.556-4.083-6.834-9.062-6.834-14.935c0-3.779,1.071-7.315,3.215-10.606c2.143-3.291,5.23-5.796,9.265-7.518
	c4.032-1.721,8.9-2.582,14.604-2.582c9.315,0,16.327,2.042,21.035,6.125c4.708,4.084,7.18,9.535,7.416,16.352l-14.984,0.658
	c-0.642-3.813-2.018-6.556-4.126-8.227c-2.109-1.671-5.273-2.506-9.492-2.506c-4.354,0-7.764,0.895-10.227,2.683
	c-1.587,1.147-2.379,2.683-2.379,4.607c0,1.755,0.741,3.257,2.228,4.505c1.89,1.587,6.479,3.24,13.77,4.961
	s12.682,3.502,16.175,5.341c3.493,1.84,6.227,4.354,8.201,7.543s2.962,7.13,2.962,11.821c0,4.252-1.182,8.235-3.544,11.947
	c-2.363,3.713-5.704,6.472-10.023,8.277c-4.321,1.805-9.704,2.708-16.149,2.708c-9.384,0-16.589-2.168-21.617-6.505
	C655.826,168.139,652.822,161.818,651.843,153.516z"/>
<polygon points="823.901,131.599 771.266,131.744 771.266,153.031 824.047,153.324 800.135,177.964 831.045,178.109 
	866.182,142.388 830.461,106.812 799.844,106.958 "/>
<line fill="none" stroke="#0398D6" x1="712.959" y1="31.943" x2="712.959" y2="131.535"/>
<line fill="none" stroke="#0398D6" x1="768.199" y1="32.943" x2="768.199" y2="125.267"/>
<line fill="none" stroke="#0398D6" x1="861.804" y1="32.943" x2="861.804" y2="130.633"/>
<line fill="none" stroke="#0398D6" x1="888.284" y1="37.956" x2="888.284" y2="119.366"/>
<line fill="none" stroke="#0398D6" x1="167.719" y1="11.816" x2="167.719" y2="101.422"/>
<line fill="none" stroke="#0398D6" x1="195.607" y1="11.816" x2="195.607" y2="90.154"/>
<line fill="none" stroke="#0398D6" x1="107.284" y1="44.833" x2="206.284" y2="44.833"/>
<line fill="none" stroke="#0398D6" x1="683.284" y1="44.833" x2="782.284" y2="44.833"/>
<line fill="none" stroke="#0398D6" x1="854.284" y1="44.833" x2="935.284" y2="44.833"/>
<path fill="#007AC2" d="M119.369,30.125l3.322-0.281c0.246,1.617,0.817,2.833,1.714,3.647s1.978,1.222,3.243,1.222
	c1.523,0,2.813-0.574,3.867-1.723s1.582-2.672,1.582-4.57c0-1.805-0.507-3.229-1.521-4.271s-2.341-1.564-3.981-1.564
	c-1.02,0-1.939,0.231-2.76,0.694s-1.465,1.063-1.934,1.802l-2.971-0.387l2.496-13.236h12.814v3.023h-10.283l-1.389,6.926
	c1.547-1.078,3.17-1.617,4.869-1.617c2.25,0,4.148,0.779,5.695,2.338s2.32,3.563,2.32,6.012c0,2.332-0.68,4.348-2.039,6.047
	c-1.652,2.086-3.908,3.129-6.768,3.129c-2.344,0-4.257-0.656-5.739-1.969S119.58,32.293,119.369,30.125z"/>
<path fill="#007AC2" d="M141.939,34.643c-1.699-2.145-2.549-5.637-2.549-10.477c0-3.047,0.313-5.499,0.94-7.356
	s1.559-3.29,2.795-4.298S145.918,11,147.793,11c1.383,0,2.596,0.278,3.639,0.835s1.904,1.359,2.584,2.408s1.213,2.326,1.6,3.832
	s0.58,3.536,0.58,6.091c0,3.023-0.311,5.464-0.932,7.321s-1.55,3.293-2.786,4.307s-2.798,1.521-4.685,1.521
	C145.309,37.314,143.357,36.424,141.939,34.643L141.939,34.643z M144.277,15.465c-1.09,1.57-1.635,4.471-1.635,8.701
	s0.495,7.046,1.485,8.446s2.212,2.101,3.665,2.101s2.675-0.703,3.665-2.109s1.485-4.219,1.485-8.438
	c0-4.242-0.495-7.061-1.485-8.455s-2.224-2.092-3.7-2.092C146.305,13.619,145.145,14.234,144.277,15.465L144.277,15.465z"/>
<ellipse fill="#343895" stroke="#005FAD" cx="712.284" cy="44.337" rx="4.057" ry="3.605"/>
<ellipse fill="#343895" stroke="#005FAD" cx="768.227" cy="45.943" rx="4.057" ry="3.605"/>
<ellipse fill="#343895" stroke="#005FAD" cx="861.284" cy="44.943" rx="4.057" ry="3.605"/>
<ellipse fill="#343895" stroke="#005FAD" cx="888.284" cy="44.337" rx="4.057" ry="3.605"/>
<ellipse fill="#343895" stroke="#005FAD" cx="195.284" cy="44.943" rx="4.057" ry="3.605"/>
<ellipse fill="#343895" stroke="#005FAD" cx="167.284" cy="44.943" rx="4.057" ry="3.605"/>
<line fill="none" stroke="#0398D6" x1="10.284" y1="104.833" x2="183.284" y2="104.833"/>
<line fill="none" stroke="#0398D6" x1="11.284" y1="80.833" x2="189.284" y2="80.833"/>
<line fill="none" stroke="#0398D6" x1="10.284" y1="177.833" x2="183.284" y2="177.833"/>
<line fill="none" stroke="#0398D6" x1="11.284" y1="201.833" x2="189.284" y2="201.833"/>
<line fill="none" stroke="#0398D6" x1="34.719" y1="33.816" x2="34.719" y2="272.943"/>
<ellipse fill="#343895" stroke="#005FAD" cx="34.284" cy="177.943" rx="4.057" ry="3.605"/>
<ellipse fill="#343895" stroke="#005FAD" cx="34.284" cy="201.943" rx="4.057" ry="3.605"/>
<ellipse fill="#343895" stroke="#005FAD" cx="34.284" cy="103.943" rx="4.057" ry="3.605"/>
<ellipse fill="#343895" stroke="#005FAD" cx="34.284" cy="80.943" rx="4.057" ry="3.605"/>
<path fill="#007AC2" d="M719.288,25.875h-3.164V5.713c-0.762,0.727-1.761,1.453-2.997,2.18s-2.347,1.271-3.331,1.635V6.469
	c1.77-0.832,3.316-1.84,4.641-3.023s2.262-2.332,2.813-3.445h2.039V25.875z"/>
<path fill="#007AC2" d="M729.94,23.643c-1.699-2.145-2.549-5.637-2.549-10.477c0-3.047,0.313-5.499,0.94-7.356
	s1.559-3.29,2.795-4.298S733.918,0,735.793,0c1.383,0,2.596,0.278,3.639,0.835s1.904,1.359,2.584,2.408s1.213,2.326,1.6,3.832
	s0.58,3.536,0.58,6.091c0,3.023-0.311,5.464-0.932,7.321s-1.55,3.293-2.786,4.307s-2.798,1.521-4.685,1.521
	C733.309,26.314,731.358,25.424,729.94,23.643L729.94,23.643z M732.278,4.465c-1.09,1.57-1.635,4.471-1.635,8.701
	s0.495,7.046,1.485,8.446s2.212,2.101,3.665,2.101s2.675-0.703,3.665-2.109s1.485-4.219,1.485-8.438
	c0-4.242-0.495-7.061-1.485-8.455s-2.224-2.092-3.7-2.092C734.305,2.619,733.145,3.234,732.278,4.465L732.278,4.465z"/>
<path fill="#007AC2" d="M749.961,23.643c-1.699-2.145-2.549-5.637-2.549-10.477c0-3.047,0.313-5.499,0.94-7.356
	s1.559-3.29,2.795-4.298S753.94,0,755.815,0c1.383,0,2.596,0.278,3.639,0.835s1.904,1.359,2.584,2.408s1.213,2.326,1.6,3.832
	s0.58,3.536,0.58,6.091c0,3.023-0.311,5.464-0.932,7.321s-1.55,3.293-2.786,4.307s-2.798,1.521-4.685,1.521
	C753.331,26.314,751.379,25.424,749.961,23.643L749.961,23.643z M752.299,4.465c-1.09,1.57-1.635,4.471-1.635,8.701
	s0.495,7.046,1.485,8.446s2.212,2.101,3.665,2.101s2.675-0.703,3.665-2.109s1.485-4.219,1.485-8.438
	c0-4.242-0.495-7.061-1.485-8.455s-2.224-2.092-3.7-2.092C754.327,2.619,753.167,3.234,752.299,4.465L752.299,4.465z"/>
<path fill="#007AC2" d="M900.37,31.125l3.322-0.281c0.246,1.617,0.817,2.833,1.714,3.647s1.978,1.222,3.243,1.222
	c1.523,0,2.813-0.574,3.867-1.723s1.582-2.672,1.582-4.57c0-1.805-0.507-3.229-1.521-4.271s-2.341-1.564-3.981-1.564
	c-1.02,0-1.939,0.231-2.76,0.694s-1.465,1.063-1.934,1.802l-2.971-0.387l2.496-13.236h12.814v3.023h-10.283l-1.389,6.926
	c1.547-1.078,3.17-1.617,4.869-1.617c2.25,0,4.148,0.779,5.695,2.338s2.32,3.563,2.32,6.012c0,2.332-0.68,4.348-2.039,6.047
	c-1.652,2.086-3.908,3.129-6.768,3.129c-2.344,0-4.257-0.656-5.739-1.969S900.581,33.293,900.37,31.125z"/>
<path fill="#007AC2" d="M922.94,35.643c-1.699-2.145-2.549-5.637-2.549-10.477c0-3.047,0.313-5.499,0.94-7.356
	s1.559-3.29,2.795-4.298S926.918,12,928.793,12c1.383,0,2.596,0.278,3.639,0.835s1.904,1.359,2.584,2.408s1.213,2.326,1.6,3.832
	s0.58,3.536,0.58,6.091c0,3.023-0.311,5.464-0.932,7.321s-1.55,3.293-2.786,4.307s-2.798,1.521-4.685,1.521
	C926.309,38.314,924.358,37.424,922.94,35.643L922.94,35.643z M925.278,16.465c-1.09,1.57-1.635,4.471-1.635,8.701
	s0.495,7.046,1.485,8.446s2.212,2.101,3.665,2.101s2.675-0.703,3.665-2.109s1.485-4.219,1.485-8.438
	c0-4.242-0.495-7.061-1.485-8.455s-2.224-2.092-3.7-2.092C927.305,14.619,926.145,15.234,925.278,16.465L925.278,16.465z"/>
<path fill="#007AC2" d="M22.125,71.381l-0.281-3.322c1.617-0.246,2.833-0.817,3.647-1.714s1.222-1.978,1.222-3.243
	c0-1.523-0.574-2.813-1.723-3.867s-2.672-1.582-4.57-1.582c-1.805,0-3.229,0.507-4.271,1.521s-1.564,2.341-1.564,3.981
	c0,1.02,0.231,1.939,0.694,2.76s1.063,1.465,1.802,1.934l-0.387,2.971L3.457,68.322V55.508H6.48v10.283l6.926,1.389
	c-1.078-1.547-1.617-3.17-1.617-4.869c0-2.25,0.779-4.148,2.338-5.695s3.563-2.32,6.012-2.32c2.332,0,4.348,0.68,6.047,2.039
	c2.086,1.652,3.129,3.908,3.129,6.768c0,2.344-0.656,4.257-1.969,5.739S24.293,71.17,22.125,71.381z"/>
<path fill="#007AC2" d="M26.643,48.811c-2.145,1.699-5.637,2.549-10.477,2.549c-3.047,0-5.499-0.313-7.356-0.94
	s-3.29-1.559-4.298-2.795S3,44.832,3,42.957c0-1.383,0.278-2.596,0.835-3.639s1.359-1.904,2.408-2.584s2.326-1.213,3.832-1.6
	s3.536-0.58,6.091-0.58c3.023,0,5.464,0.311,7.321,0.932s3.293,1.55,4.307,2.786s1.521,2.798,1.521,4.685
	C29.314,45.441,28.424,47.393,26.643,48.811L26.643,48.811z M7.465,46.473c1.57,1.09,4.471,1.635,8.701,1.635
	s7.046-0.495,8.446-1.485s2.101-2.212,2.101-3.665s-0.703-2.675-2.109-3.665s-4.219-1.485-8.438-1.485
	c-4.242,0-7.061,0.495-8.455,1.485s-2.092,2.224-2.092,3.7C5.619,44.445,6.234,45.605,7.465,46.473L7.465,46.473z"/>
<path fill="#007AC2" d="M21.125,254.381l-0.281-3.322c1.617-0.246,2.833-0.817,3.647-1.714s1.222-1.978,1.222-3.243
	c0-1.523-0.574-2.813-1.723-3.867s-2.672-1.582-4.57-1.582c-1.805,0-3.229,0.507-4.271,1.521s-1.564,2.341-1.564,3.981
	c0,1.02,0.231,1.939,0.694,2.76s1.063,1.465,1.802,1.934l-0.387,2.971l-13.236-2.496v-12.814H5.48v10.283l6.926,1.389
	c-1.078-1.547-1.617-3.17-1.617-4.869c0-2.25,0.779-4.148,2.338-5.695s3.563-2.32,6.012-2.32c2.332,0,4.348,0.68,6.047,2.039
	c2.086,1.652,3.129,3.908,3.129,6.768c0,2.344-0.656,4.257-1.969,5.739S23.293,254.17,21.125,254.381z"/>
<path fill="#007AC2" d="M25.643,231.811c-2.145,1.699-5.637,2.549-10.477,2.549c-3.047,0-5.499-0.313-7.356-0.94
	s-3.29-1.559-4.298-2.795S2,227.832,2,225.957c0-1.383,0.278-2.596,0.835-3.639s1.359-1.904,2.408-2.584s2.326-1.213,3.832-1.6
	s3.536-0.58,6.091-0.58c3.023,0,5.464,0.311,7.321,0.932s3.293,1.55,4.307,2.786s1.521,2.798,1.521,4.685
	C28.314,228.441,27.424,230.393,25.643,231.811L25.643,231.811z M6.465,229.473c1.57,1.09,4.471,1.635,8.701,1.635
	s7.046-0.495,8.446-1.485s2.101-2.212,2.101-3.665s-0.703-2.675-2.109-3.665s-4.219-1.485-8.438-1.485
	c-4.242,0-7.061,0.495-8.455,1.485s-2.092,2.224-2.092,3.7C4.619,227.445,5.234,228.605,6.465,229.473L6.465,229.473z"/>
<path fill="#007AC2" d="M25.875,161.463v3.164H5.713c0.727,0.762,1.453,1.761,2.18,2.997s1.271,2.347,1.635,3.331H6.469
	c-0.832-1.77-1.84-3.316-3.023-4.641S1.113,164.053,0,163.502v-2.039H25.875z"/>
<path fill="#007AC2" d="M23.643,150.811c-2.145,1.699-5.637,2.549-10.477,2.549c-3.047,0-5.499-0.313-7.356-0.94
	s-3.29-1.559-4.298-2.795S0,146.832,0,144.957c0-1.383,0.278-2.596,0.835-3.639s1.359-1.904,2.408-2.584s2.326-1.213,3.832-1.6
	s3.536-0.58,6.091-0.58c3.023,0,5.464,0.311,7.321,0.932s3.293,1.55,4.307,2.786s1.521,2.798,1.521,4.685
	C26.314,147.441,25.424,149.393,23.643,150.811L23.643,150.811z M4.465,148.473c1.57,1.09,4.471,1.635,8.701,1.635
	s7.046-0.495,8.446-1.485s2.101-2.212,2.101-3.665s-0.703-2.675-2.109-3.665s-4.219-1.485-8.438-1.485
	c-4.242,0-7.061,0.495-8.455,1.485s-2.092,2.224-2.092,3.7C2.619,146.445,3.234,147.605,4.465,148.473L4.465,148.473z"/>
<path fill="#007AC2" d="M23.643,130.789c-2.145,1.699-5.637,2.549-10.477,2.549c-3.047,0-5.499-0.313-7.356-0.94
	s-3.29-1.559-4.298-2.795S0,126.811,0,124.936c0-1.383,0.278-2.596,0.835-3.639s1.359-1.904,2.408-2.584s2.326-1.213,3.832-1.6
	s3.536-0.58,6.091-0.58c3.023,0,5.464,0.311,7.321,0.932s3.293,1.55,4.307,2.786s1.521,2.798,1.521,4.685
	C26.314,127.42,25.424,129.371,23.643,130.789L23.643,130.789z M4.465,128.451c1.57,1.09,4.471,1.635,8.701,1.635
	s7.046-0.495,8.446-1.485s2.101-2.212,2.101-3.665s-0.703-2.675-2.109-3.665s-4.219-1.485-8.438-1.485
	c-4.242,0-7.061,0.495-8.455,1.485s-2.092,2.224-2.092,3.7C2.619,126.424,3.234,127.584,4.465,128.451L4.465,128.451z"/>
</svg>
