<?xml version="1.0" encoding="utf-8"?>
<!-- Generator: Adobe Illustrator 13.0.0, SVG Export Plug-In  -->
<!DOCTYPE svg PUBLIC "-//W3C//DTD SVG 1.1//EN" "http://www.w3.org/Graphics/SVG/1.1/DTD/svg11.dtd" [
	<!ENTITY ns_flows "http://ns.adobe.com/Flows/1.0/">
]>
<svg version="1.1"
	 xmlns="http://www.w3.org/2000/svg" xmlns:xlink="http://www.w3.org/1999/xlink" xmlns:a="http://ns.adobe.com/AdobeSVGViewerExtensions/3.0/"
	 x="0px" y="0px" width="1166px" height="361px" viewBox="-0.091 -0.417 1166 361" enable-background="new -0.091 -0.417 1166 361"
	 xml:space="preserve">
<defs>
</defs>
<path fill="#FFFFFF" stroke="#000000" stroke-linecap="round" stroke-linejoin="round" d="M1150.605,248.81
	c0,25.461-18.296,46.105-40.865,46.105h-892.23c-22.571,0-40.866-20.644-40.866-46.105V122.02c0-25.463,18.294-46.105,40.866-46.105
	h892.23c22.569,0,40.865,20.642,40.865,46.105V248.81z"/>
<path fill="#00AA4F" d="M1137.255,241.364c0,22.875-17.788,41.42-39.733,41.42h-867.43c-21.941,0-39.729-18.545-39.729-41.42
	V127.462c0-22.877,17.787-41.417,39.729-41.417h867.43c21.945,0,39.733,18.541,39.733,41.417V241.364z"/>
<path fill="#FFFFFF" d="M239.313,127.168h37.229c7.369,0,12.865,0.351,16.486,1.05c3.622,0.701,6.861,2.163,9.72,4.384
	c2.859,2.222,5.241,5.181,7.147,8.876c1.906,3.695,2.859,7.838,2.859,12.426c0,4.976-1.175,9.541-3.526,13.694
	c-2.351,4.155-5.538,7.271-9.561,9.347c5.675,1.884,10.038,5.097,13.087,9.637c3.05,4.541,4.574,9.879,4.574,16.013
	c0,4.831-0.984,9.528-2.954,14.093c-1.969,4.565-4.66,8.212-8.068,10.941c-3.41,2.729-7.614,4.409-12.611,5.036
	c-3.135,0.387-10.695,0.628-22.68,0.725h-31.702V127.168z M258.119,144.847v24.563h12.325c7.327,0,11.88-0.12,13.659-0.362
	c3.218-0.435,5.75-1.703,7.592-3.804c1.842-2.102,2.764-4.866,2.764-8.296c0-3.284-0.794-5.953-2.382-8.006
	c-1.588-2.053-3.95-3.297-7.084-3.731c-1.864-0.241-7.221-0.362-16.073-0.362H258.119z M258.119,187.089v28.403h17.407
	c6.776,0,11.075-0.218,12.896-0.652c2.795-0.58,5.072-1.993,6.83-4.239c1.757-2.246,2.637-5.253,2.637-9.021
	c0-3.188-0.678-5.893-2.033-8.115c-1.356-2.221-3.314-3.84-5.876-4.854c-2.563-1.015-8.122-1.521-16.677-1.521H258.119z"/>
<path fill="#FFFFFF" d="M333.211,233.389V127.168h69.057v17.969h-50.252v23.548h46.758v17.897h-46.758v28.91h52.031v17.896H333.211z
	"/>
<path fill="#FFFFFF" d="M503.98,233.389h-20.457l-8.132-24.128h-37.229l-7.687,24.128h-19.949l36.276-106.221h19.885L503.98,233.389
	z M469.356,191.364l-12.833-39.417l-12.579,39.417H469.356z"/>
<path fill="#FFFFFF" d="M513.828,127.168h18.805v57.53c0,9.129,0.232,15.047,0.699,17.751c0.804,4.348,2.721,7.838,5.75,10.47
	c3.028,2.633,7.168,3.949,12.42,3.949c5.336,0,9.36-1.243,12.071-3.731c2.71-2.487,4.341-5.543,4.892-9.166
	c0.55-3.623,0.826-9.636,0.826-18.042v-58.762h18.805v55.791c0,12.752-0.508,21.762-1.525,27.026
	c-1.016,5.266-2.891,9.709-5.622,13.332c-2.732,3.623-6.385,6.51-10.959,8.658c-4.574,2.149-10.546,3.225-17.916,3.225
	c-8.895,0-15.64-1.172-20.234-3.514c-4.596-2.342-8.228-5.386-10.896-9.129c-2.668-3.743-4.426-7.668-5.273-11.774
	c-1.229-6.086-1.842-15.071-1.842-26.954V127.168z"/>
<path fill="#FFFFFF" d="M631.676,233.389l-33.29-106.221h20.393l23.57,78.615l22.808-78.615h19.948l-33.354,106.221H631.676z"/>
<path fill="#FFFFFF" d="M769.056,233.389H748.6l-8.132-24.128h-37.229l-7.687,24.128h-19.948l36.275-106.221h19.885L769.056,233.389
	z M734.432,191.364l-12.833-39.417l-12.579,39.417H734.432z"/>
<path fill="#FFFFFF" d="M778.458,233.389V127.168h18.806v106.221H778.458z"/>
<path fill="#FFFFFF" d="M810.415,198.827l18.297-2.029c1.101,7.004,3.335,12.149,6.702,15.433c3.367,3.286,7.909,4.927,13.627,4.927
	c6.057,0,10.62-1.461,13.691-4.384c3.07-2.922,4.605-6.34,4.605-10.252c0-2.511-0.646-4.649-1.938-6.413
	c-1.292-1.763-3.548-3.297-6.766-4.601c-2.203-0.869-7.222-2.415-15.057-4.637c-10.081-2.85-17.153-6.351-21.22-10.506
	c-5.718-5.844-8.576-12.97-8.576-21.375c0-5.41,1.344-10.47,4.034-15.18c2.689-4.71,6.564-8.296,11.626-10.76
	c5.061-2.463,11.17-3.695,18.328-3.695c11.689,0,20.488,2.923,26.397,8.767c5.908,5.845,9.01,13.646,9.307,23.403l-18.805,0.942
	c-0.806-5.458-2.531-9.383-5.178-11.774c-2.647-2.391-6.618-3.587-11.912-3.587c-5.464,0-9.742,1.281-12.833,3.84
	c-1.991,1.643-2.986,3.84-2.986,6.594c0,2.512,0.932,4.662,2.796,6.449c2.371,2.271,8.132,4.637,17.28,7.101
	c9.148,2.463,15.914,5.012,20.298,7.644c4.384,2.633,7.814,6.231,10.292,10.796s3.716,10.205,3.716,16.918
	c0,6.086-1.482,11.787-4.446,17.1c-2.966,5.314-7.158,9.263-12.579,11.847c-5.422,2.583-12.177,3.876-20.267,3.876
	c-11.774,0-20.816-3.103-27.127-9.311C815.412,219.755,811.642,210.71,810.415,198.827z"/>
<polygon fill="#FFFFFF" points="1040.561,166.177 977.4,166.351 977.4,191.895 1040.737,192.247 1012.042,221.815 1049.134,221.989 
	1091.298,179.124 1048.434,136.433 1011.693,136.608 "/>
<line fill="none" stroke="#0398D6" x1="190.344" y1="12.566" x2="190.344" y2="102.172"/>
<line fill="none" stroke="#0398D6" x1="239.232" y1="21.566" x2="239.232" y2="99.904"/>
<line fill="none" stroke="#0398D6" x1="175.909" y1="46.583" x2="274.909" y2="46.583"/>
<path fill="#007AC2" d="M213.412,14.166l-3.146,0.246c-0.281-1.242-0.68-2.145-1.195-2.707c-0.855-0.902-1.91-1.354-3.164-1.354
	c-1.008,0-1.893,0.281-2.654,0.844c-0.996,0.727-1.781,1.787-2.355,3.182s-0.873,3.381-0.896,5.959
	c0.762-1.16,1.693-2.021,2.795-2.584s2.256-0.844,3.463-0.844c2.109,0,3.905,0.776,5.388,2.329s2.224,3.56,2.224,6.021
	c0,1.617-0.349,3.12-1.046,4.509s-1.655,2.452-2.874,3.19s-2.602,1.107-4.148,1.107c-2.637,0-4.787-0.97-6.451-2.909
	s-2.496-5.136-2.496-9.589c0-4.98,0.92-8.602,2.76-10.863c1.605-1.969,3.768-2.953,6.486-2.953c2.027,0,3.688,0.568,4.983,1.705
	S213.154,12.162,213.412,14.166z M200.492,25.275c0,1.09,0.231,2.133,0.694,3.129s1.11,1.755,1.942,2.276s1.705,0.782,2.619,0.782
	c1.336,0,2.484-0.539,3.445-1.617s1.441-2.543,1.441-4.395c0-1.781-0.475-3.185-1.424-4.21s-2.145-1.538-3.586-1.538
	c-1.43,0-2.643,0.513-3.639,1.538S200.492,23.611,200.492,25.275z"/>
<path fill="#007AC2" d="M233.645,30.584v3.041h-17.033c-0.023-0.762,0.1-1.494,0.369-2.197c0.434-1.16,1.128-2.303,2.083-3.428
	s2.335-2.426,4.14-3.902c2.801-2.297,4.693-4.116,5.678-5.458s1.477-2.61,1.477-3.806c0-1.254-0.448-2.312-1.345-3.173
	s-2.065-1.292-3.507-1.292c-1.523,0-2.742,0.457-3.656,1.371s-1.377,2.18-1.389,3.797l-3.252-0.334
	c0.223-2.426,1.061-4.274,2.514-5.546s3.404-1.907,5.854-1.907c2.473,0,4.43,0.686,5.871,2.057s2.162,3.07,2.162,5.098
	c0,1.031-0.211,2.045-0.633,3.041s-1.122,2.045-2.101,3.146s-2.604,2.613-4.878,4.535c-1.898,1.594-3.117,2.675-3.656,3.243
	s-0.984,1.14-1.336,1.714H233.645z"/>
<path fill="#007AC2" d="M238.742,33.625v-3.604h3.604v3.604c0,1.324-0.234,2.394-0.703,3.208s-1.213,1.444-2.232,1.89l-0.879-1.354
	c0.668-0.293,1.16-0.724,1.477-1.292s0.492-1.386,0.527-2.452H238.742z"/>
<path fill="#007AC2" d="M247.039,26.875l3.322-0.281c0.246,1.617,0.817,2.833,1.714,3.647s1.978,1.222,3.243,1.222
	c1.523,0,2.813-0.574,3.867-1.723s1.582-2.672,1.582-4.57c0-1.805-0.507-3.229-1.521-4.271s-2.341-1.564-3.981-1.564
	c-1.02,0-1.939,0.231-2.76,0.694s-1.465,1.063-1.934,1.802l-2.971-0.387l2.496-13.236h12.814v3.023h-10.283l-1.389,6.926
	c1.547-1.078,3.17-1.617,4.869-1.617c2.25,0,4.148,0.779,5.695,2.338s2.32,3.563,2.32,6.012c0,2.332-0.68,4.348-2.039,6.047
	c-1.652,2.086-3.908,3.129-6.768,3.129c-2.344,0-4.257-0.656-5.739-1.969S247.25,29.043,247.039,26.875z"/>
<ellipse fill="#343895" stroke="#005FAD" cx="1134.909" cy="39.087" rx="4.057" ry="3.605"/>
<ellipse fill="#343895" stroke="#005FAD" cx="238.909" cy="46.087" rx="4.057" ry="3.605"/>
<ellipse fill="#343895" stroke="#005FAD" cx="189.909" cy="47.087" rx="4.057" ry="3.605"/>
<line fill="none" stroke="#0398D6" x1="34.909" y1="129.583" x2="207.909" y2="129.583"/>
<line fill="none" stroke="#0398D6" x1="32.909" y1="85.583" x2="210.909" y2="85.583"/>
<line fill="none" stroke="#0398D6" x1="29.909" y1="282.583" x2="202.909" y2="282.583"/>
<line fill="none" stroke="#0398D6" x1="29.909" y1="237.583" x2="207.909" y2="237.583"/>
<line fill="none" stroke="#0398D6" x1="55.344" y1="66.566" x2="55.344" y2="322.693"/>
<ellipse fill="#343895" stroke="#005FAD" cx="54.852" cy="236.693" rx="4.057" ry="3.605"/>
<ellipse fill="#343895" stroke="#005FAD" cx="53.852" cy="282.693" rx="4.057" ry="3.605"/>
<ellipse fill="#343895" stroke="#005FAD" cx="55.344" cy="83.566" rx="4.057" ry="3.605"/>
<ellipse fill="#343895" stroke="#005FAD" cx="54.909" cy="130.693" rx="4.057" ry="3.605"/>
<line fill="none" stroke="#0398D6" x1="882.584" y1="28.693" x2="882.584" y2="155.285"/>
<line fill="none" stroke="#0398D6" x1="975.344" y1="26.796" x2="975.344" y2="151.693"/>
<line fill="none" stroke="#0398D6" x1="862.909" y1="40.583" x2="986.909" y2="40.583"/>
<ellipse fill="#343895" stroke="#005FAD" cx="1089.909" cy="39.087" rx="4.057" ry="3.605"/>
<ellipse transform="matrix(0.9997 -0.0252 0.0252 0.9997 -0.7471 22.1955)" fill="#343895" stroke="#005FAD" cx="881.853" cy="40.795" rx="4.057" ry="3.606"/>
<path fill="#007AC2" d="M912.913,30.625h-3.164V10.463c-0.762,0.727-1.761,1.453-2.997,2.18s-2.347,1.271-3.331,1.635v-3.059
	c1.77-0.832,3.316-1.84,4.641-3.023s2.262-2.332,2.813-3.445h2.039V30.625z"/>
<path fill="#007AC2" d="M937.645,27.584v3.041h-17.033c-0.023-0.762,0.1-1.494,0.369-2.197c0.434-1.16,1.128-2.303,2.083-3.428
	s2.335-2.426,4.14-3.902c2.801-2.297,4.693-4.116,5.678-5.458s1.477-2.61,1.477-3.806c0-1.254-0.448-2.312-1.345-3.173
	s-2.065-1.292-3.507-1.292c-1.523,0-2.742,0.457-3.656,1.371s-1.377,2.18-1.389,3.797l-3.252-0.334
	c0.223-2.426,1.061-4.274,2.514-5.546s3.404-1.907,5.854-1.907c2.473,0,4.43,0.686,5.871,2.057s2.162,3.07,2.162,5.098
	c0,1.031-0.211,2.045-0.633,3.041s-1.122,2.045-2.101,3.146s-2.604,2.613-4.878,4.535c-1.898,1.594-3.117,2.675-3.656,3.243
	s-0.984,1.14-1.336,1.714H937.645z"/>
<path fill="#007AC2" d="M941.038,23.875l3.322-0.281c0.246,1.617,0.817,2.833,1.714,3.647s1.978,1.222,3.243,1.222
	c1.523,0,2.813-0.574,3.867-1.723s1.582-2.672,1.582-4.57c0-1.805-0.507-3.229-1.521-4.271s-2.341-1.564-3.981-1.564
	c-1.02,0-1.939,0.231-2.76,0.694s-1.465,1.063-1.934,1.802l-2.971-0.387l2.496-13.236h12.814V8.23h-10.283l-1.389,6.926
	c1.547-1.078,3.17-1.617,4.869-1.617c2.25,0,4.148,0.779,5.695,2.338s2.32,3.563,2.32,6.012c0,2.332-0.68,4.348-2.039,6.047
	c-1.652,2.086-3.908,3.129-6.768,3.129c-2.344,0-4.257-0.656-5.739-1.969S941.249,26.043,941.038,23.875z"/>
<line fill="none" stroke="#0398D6" x1="1090.994" y1="27.369" x2="1090.994" y2="138.956"/>
<line fill="none" stroke="#0398D6" x1="1135.909" y1="29.706" x2="1135.909" y2="132.116"/>
<line fill="none" stroke="#0398D6" x1="1075.909" y1="39.583" x2="1156.909" y2="39.583"/>
<ellipse fill="#343895" stroke="#005FAD" cx="974.852" cy="40.693" rx="4.057" ry="3.605"/>
<path fill="#007AC2" d="M1114.413,10.166l-3.146,0.246c-0.281-1.242-0.68-2.145-1.195-2.707c-0.855-0.902-1.91-1.354-3.164-1.354
	c-1.008,0-1.893,0.281-2.654,0.844c-0.996,0.727-1.781,1.787-2.355,3.182s-0.873,3.381-0.896,5.959
	c0.762-1.16,1.693-2.021,2.795-2.584s2.256-0.844,3.463-0.844c2.109,0,3.905,0.776,5.388,2.329s2.224,3.56,2.224,6.021
	c0,1.617-0.349,3.12-1.046,4.509s-1.655,2.452-2.874,3.19s-2.602,1.107-4.148,1.107c-2.637,0-4.787-0.97-6.451-2.909
	s-2.496-5.136-2.496-9.589c0-4.98,0.92-8.602,2.76-10.863c1.605-1.969,3.768-2.953,6.486-2.953c2.027,0,3.688,0.568,4.983,1.705
	S1114.155,8.162,1114.413,10.166z M1101.493,21.275c0,1.09,0.231,2.133,0.694,3.129s1.11,1.755,1.942,2.276s1.705,0.782,2.619,0.782
	c1.336,0,2.484-0.539,3.445-1.617s1.441-2.543,1.441-4.395c0-1.781-0.475-3.185-1.424-4.21s-2.145-1.538-3.586-1.538
	c-1.43,0-2.643,0.513-3.639,1.538S1101.493,19.611,1101.493,21.275z"/>
<path fill="#007AC2" d="M1134.645,26.584v3.041h-17.033c-0.023-0.762,0.1-1.494,0.369-2.197c0.434-1.16,1.128-2.303,2.083-3.428
	s2.335-2.426,4.14-3.902c2.801-2.297,4.693-4.116,5.678-5.458s1.477-2.61,1.477-3.806c0-1.254-0.448-2.312-1.345-3.173
	s-2.065-1.292-3.507-1.292c-1.523,0-2.742,0.457-3.656,1.371s-1.377,2.18-1.389,3.797l-3.252-0.334
	c0.223-2.426,1.061-4.274,2.514-5.546s3.404-1.907,5.854-1.907c2.473,0,4.43,0.686,5.871,2.057s2.162,3.07,2.162,5.098
	c0,1.031-0.211,2.045-0.633,3.041s-1.122,2.045-2.101,3.146s-2.604,2.613-4.878,4.535c-1.898,1.594-3.117,2.675-3.656,3.243
	s-0.984,1.14-1.336,1.714H1134.645z"/>
<path fill="#007AC2" d="M1139.743,29.625v-3.604h3.604v3.604c0,1.324-0.234,2.394-0.703,3.208s-1.213,1.444-2.232,1.89l-0.879-1.354
	c0.668-0.293,1.16-0.724,1.477-1.292s0.492-1.386,0.527-2.452H1139.743z"/>
<path fill="#007AC2" d="M1148.04,22.875l3.322-0.281c0.246,1.617,0.817,2.833,1.714,3.647s1.978,1.222,3.243,1.222
	c1.523,0,2.813-0.574,3.867-1.723s1.582-2.672,1.582-4.57c0-1.805-0.507-3.229-1.521-4.271s-2.341-1.564-3.981-1.564
	c-1.02,0-1.939,0.231-2.76,0.694s-1.465,1.063-1.934,1.802l-2.971-0.387l2.496-13.236h12.814V7.23h-10.283l-1.389,6.926
	c1.547-1.078,3.17-1.617,4.869-1.617c2.25,0,4.148,0.779,5.695,2.338s2.32,3.563,2.32,6.012c0,2.332-0.68,4.348-2.039,6.047
	c-1.652,2.086-3.908,3.129-6.768,3.129c-2.344,0-4.257-0.656-5.739-1.969S1148.25,25.043,1148.04,22.875z"/>
<path fill="#007AC2" d="M25.041,50.713l0.246,3.146c-1.242,0.281-2.145,0.68-2.707,1.195c-0.902,0.855-1.354,1.91-1.354,3.164
	c0,1.008,0.281,1.893,0.844,2.654c0.727,0.996,1.787,1.781,3.182,2.355s3.381,0.873,5.959,0.896
	c-1.16-0.762-2.021-1.693-2.584-2.795s-0.844-2.256-0.844-3.463c0-2.109,0.776-3.905,2.329-5.388s3.56-2.224,6.021-2.224
	c1.617,0,3.12,0.349,4.509,1.046s2.452,1.655,3.19,2.874s1.107,2.602,1.107,4.148c0,2.637-0.97,4.787-2.909,6.451
	s-5.136,2.496-9.589,2.496c-4.98,0-8.602-0.92-10.863-2.76c-1.969-1.605-2.953-3.768-2.953-6.486c0-2.027,0.568-3.688,1.705-4.983
	S23.037,50.971,25.041,50.713z M36.15,63.633c1.09,0,2.133-0.231,3.129-0.694s1.755-1.11,2.276-1.942s0.782-1.705,0.782-2.619
	c0-1.336-0.539-2.484-1.617-3.445s-2.543-1.441-4.395-1.441c-1.781,0-3.185,0.475-4.21,1.424s-1.538,2.145-1.538,3.586
	c0,1.43,0.513,2.643,1.538,3.639S34.486,63.633,36.15,63.633z"/>
<path fill="#007AC2" d="M41.459,30.48H44.5v17.033c-0.762,0.023-1.494-0.1-2.197-0.369c-1.16-0.434-2.303-1.128-3.428-2.083
	s-2.426-2.335-3.902-4.14c-2.297-2.801-4.116-4.693-5.458-5.678s-2.61-1.477-3.806-1.477c-1.254,0-2.312,0.448-3.173,1.345
	s-1.292,2.065-1.292,3.507c0,1.523,0.457,2.742,1.371,3.656s2.18,1.377,3.797,1.389l-0.334,3.252
	c-2.426-0.223-4.274-1.061-5.546-2.514s-1.907-3.404-1.907-5.854c0-2.473,0.686-4.43,2.057-5.871s3.07-2.162,5.098-2.162
	c1.031,0,2.045,0.211,3.041,0.633s2.045,1.122,3.146,2.101s2.613,2.604,4.535,4.878c1.594,1.898,2.675,3.117,3.243,3.656
	s1.14,0.984,1.714,1.336V30.48z"/>
<path fill="#007AC2" d="M44.5,25.383h-3.604v-3.604H44.5c1.324,0,2.394,0.234,3.208,0.703s1.444,1.213,1.89,2.232l-1.354,0.879
	c-0.293-0.668-0.724-1.16-1.292-1.477s-1.386-0.492-2.452-0.527V25.383z"/>
<path fill="#007AC2" d="M37.75,17.086l-0.281-3.322c1.617-0.246,2.833-0.817,3.647-1.714s1.222-1.978,1.222-3.243
	c0-1.523-0.574-2.813-1.723-3.867s-2.672-1.582-4.57-1.582c-1.805,0-3.229,0.507-4.271,1.521s-1.564,2.341-1.564,3.981
	c0,1.02,0.231,1.939,0.694,2.76s1.063,1.465,1.802,1.934l-0.387,2.971l-13.236-2.496V1.213h3.023v10.283l6.926,1.389
	c-1.078-1.547-1.617-3.17-1.617-4.869c0-2.25,0.779-4.148,2.338-5.695S33.314,0,35.764,0c2.332,0,4.348,0.68,6.047,2.039
	c2.086,1.652,3.129,3.908,3.129,6.768c0,2.344-0.656,4.257-1.969,5.739S39.918,16.875,37.75,17.086z"/>
<path fill="#007AC2" d="M25.041,343.824l0.246,3.146c-1.242,0.281-2.145,0.68-2.707,1.195c-0.902,0.855-1.354,1.91-1.354,3.164
	c0,1.008,0.281,1.893,0.844,2.654c0.727,0.996,1.787,1.781,3.182,2.355s3.381,0.873,5.959,0.896
	c-1.16-0.762-2.021-1.693-2.584-2.795s-0.844-2.256-0.844-3.463c0-2.109,0.776-3.905,2.329-5.388s3.56-2.224,6.021-2.224
	c1.617,0,3.12,0.349,4.509,1.046s2.452,1.655,3.19,2.874s1.107,2.602,1.107,4.148c0,2.637-0.97,4.787-2.909,6.451
	s-5.136,2.496-9.589,2.496c-4.98,0-8.602-0.92-10.863-2.76c-1.969-1.605-2.953-3.768-2.953-6.486c0-2.027,0.568-3.688,1.705-4.983
	S23.037,344.082,25.041,343.824z M36.15,356.744c1.09,0,2.133-0.231,3.129-0.694s1.755-1.11,2.276-1.942s0.782-1.705,0.782-2.619
	c0-1.336-0.539-2.484-1.617-3.445s-2.543-1.441-4.395-1.441c-1.781,0-3.185,0.475-4.21,1.424s-1.538,2.145-1.538,3.586
	c0,1.43,0.513,2.643,1.538,3.639S34.486,356.744,36.15,356.744z"/>
<path fill="#007AC2" d="M41.459,323.591H44.5v17.033c-0.762,0.023-1.494-0.1-2.197-0.369c-1.16-0.434-2.303-1.128-3.428-2.083
	s-2.426-2.335-3.902-4.14c-2.297-2.801-4.116-4.693-5.458-5.678s-2.61-1.477-3.806-1.477c-1.254,0-2.312,0.448-3.173,1.345
	s-1.292,2.065-1.292,3.507c0,1.523,0.457,2.742,1.371,3.656s2.18,1.377,3.797,1.389l-0.334,3.252
	c-2.426-0.223-4.274-1.061-5.546-2.514s-1.907-3.404-1.907-5.854c0-2.473,0.686-4.43,2.057-5.871s3.07-2.162,5.098-2.162
	c1.031,0,2.045,0.211,3.041,0.633s2.045,1.122,3.146,2.101s2.613,2.604,4.535,4.878c1.594,1.898,2.675,3.117,3.243,3.656
	s1.14,0.984,1.714,1.336V323.591z"/>
<path fill="#007AC2" d="M44.5,318.494h-3.604v-3.604H44.5c1.324,0,2.394,0.234,3.208,0.703s1.444,1.213,1.89,2.232l-1.354,0.879
	c-0.293-0.668-0.724-1.16-1.292-1.477s-1.386-0.492-2.452-0.527V318.494z"/>
<path fill="#007AC2" d="M37.75,310.197l-0.281-3.322c1.617-0.246,2.833-0.817,3.647-1.714s1.222-1.978,1.222-3.243
	c0-1.523-0.574-2.813-1.723-3.867s-2.672-1.582-4.57-1.582c-1.805,0-3.229,0.507-4.271,1.521s-1.564,2.341-1.564,3.981
	c0,1.02,0.231,1.939,0.694,2.76s1.063,1.465,1.802,1.934l-0.387,2.971l-13.236-2.496v-12.814h3.023v10.283l6.926,1.389
	c-1.078-1.547-1.617-3.17-1.617-4.869c0-2.25,0.779-4.148,2.338-5.695s3.563-2.32,6.012-2.32c2.332,0,4.348,0.68,6.047,2.039
	c2.086,1.652,3.129,3.908,3.129,6.768c0,2.344-0.656,4.257-1.969,5.739S39.918,309.986,37.75,310.197z"/>
<path fill="#007AC2" d="M34.5,206.742v4.219H7.617c0.969,1.016,1.938,2.348,2.906,3.996c0.969,1.649,1.696,3.129,2.18,4.441H8.625
	c-1.109-2.359-2.453-4.421-4.031-6.188c-1.578-1.766-3.109-3.015-4.594-3.75v-2.719H34.5z"/>
<path fill="#007AC2" d="M30.445,173.766H34.5v22.711c-1.016,0.032-1.992-0.132-2.93-0.492c-1.547-0.578-3.07-1.503-4.57-2.777
	c-1.5-1.273-3.234-3.113-5.203-5.52c-3.062-3.734-5.488-6.258-7.277-7.57c-1.789-1.313-3.48-1.969-5.074-1.969
	c-1.672,0-3.082,0.598-4.23,1.793s-1.723,2.754-1.723,4.676c0,2.031,0.609,3.656,1.828,4.875s2.906,1.836,5.063,1.852l-0.445,4.336
	c-3.234-0.296-5.699-1.414-7.395-3.352C0.848,190.391,0,187.79,0,184.523c0-3.296,0.914-5.906,2.742-7.828s4.094-2.883,6.797-2.883
	c1.375,0,2.727,0.281,4.055,0.844c1.328,0.563,2.727,1.497,4.195,2.801c1.469,1.305,3.484,3.473,6.047,6.504
	c2.125,2.531,3.566,4.157,4.324,4.875c0.758,0.719,1.52,1.313,2.285,1.781V173.766z"/>
<path fill="#007AC2" d="M25.5,169.242l-0.375-4.43c2.156-0.328,3.777-1.09,4.863-2.285c1.086-1.195,1.629-2.637,1.629-4.324
	c0-2.031-0.765-3.75-2.297-5.156c-1.531-1.406-3.563-2.109-6.094-2.109c-2.406,0-4.304,0.676-5.695,2.027
	c-1.391,1.352-2.086,3.121-2.086,5.309c0,1.359,0.309,2.586,0.926,3.68c0.618,1.094,1.418,1.954,2.402,2.578l-0.516,3.961
	l-17.648-3.328v-17.086h4.031v13.711l9.234,1.852c-1.438-2.063-2.156-4.227-2.156-6.492c0-3,1.04-5.531,3.117-7.594
	c2.078-2.063,4.75-3.094,8.016-3.094c3.109,0,5.797,0.906,8.063,2.719c2.781,2.203,4.172,5.211,4.172,9.023
	c0,3.125-0.875,5.676-2.625,7.652C30.711,167.833,28.391,168.961,25.5,169.242z"/>
</svg>
