<?xml version="1.0" encoding="utf-8"?>
<!-- Generator: Adobe Illustrator 13.0.0, SVG Export Plug-In  -->
<!DOCTYPE svg PUBLIC "-//W3C//DTD SVG 1.1//EN" "http://www.w3.org/Graphics/SVG/1.1/DTD/svg11.dtd" [
	<!ENTITY ns_flows "http://ns.adobe.com/Flows/1.0/">
]>
<svg version="1.1"
	 xmlns="http://www.w3.org/2000/svg" xmlns:xlink="http://www.w3.org/1999/xlink" xmlns:a="http://ns.adobe.com/AdobeSVGViewerExtensions/3.0/"
	 x="0px" y="0px" width="751px" height="304px" viewBox="-0.341 -0.222 751 304" enable-background="new -0.341 -0.222 751 304"
	 xml:space="preserve">
<defs>
</defs>
<line fill="none" stroke="#0398D6" x1="158.659" y1="55.778" x2="273.659" y2="55.778"/>
<path stroke="#000000" d="M237.934,76.854c-4.745,5.606-7.999,7.289-7.958,15.997c0.029,6.021,0.058,12.044,0.086,18.065
	c0.122,25.173,0.241,50.35,0.362,75.525c0.029,6.473-3.879,36.998,3.223,41.008c5.833,3.29,10.653,2.757,17.299,2.746
	c77.578-0.127,155.158-0.252,232.737-0.377c42.802-0.068,85.604-0.141,128.406-0.208c13.628-0.021,27.255-0.044,40.881-0.065
	c4.286-0.007,11.156,1.511,15.297-0.024c3.646-1.353,7.957-7.009,10.928-9.628c8.906-7.844,17.813-15.687,26.719-23.53
	c12.482-10.995,25.716-21.401,37.646-33.159c11.326-11.163,6.22-19.109-4.565-28.211c-15.719-13.264-31.436-26.527-47.154-39.794
	c-5.37-4.533-16.25-18.345-23.365-18.345c-7.987,0-15.976,0-23.963,0c-36.483,0-72.967,0-109.45,0c-86.801,0-173.603,0-260.403,0
	C262.418,76.854,250.175,76.854,237.934,76.854"/>
<polygon fill="#FFFFFF" stroke="#000000" points="664.82,84.718 716.659,153.034 666.65,221.349 244.016,221.349 240.966,220.651 
	239.137,217.864 239.137,90.296 240.966,88.901 242.796,86.112 246.456,85.417 "/>
<path d="M395.557,178.012v-35.761h-12.771v-7.281h34.204v7.281h-12.742v35.761H395.557z"/>
<path d="M419.753,156.755c0-4.384,0.656-8.063,1.967-11.039c0.979-2.191,2.314-4.159,4.007-5.901
	c1.693-1.741,3.548-3.033,5.564-3.875c2.681-1.136,5.774-1.703,9.278-1.703c6.341,0,11.416,1.967,15.223,5.901
	c3.807,3.934,5.71,9.405,5.71,16.412c0,6.948-1.889,12.385-5.666,16.31c-3.778,3.924-8.828,5.887-15.15,5.887
	c-6.4,0-11.49-1.953-15.267-5.857C421.642,168.983,419.753,163.606,419.753,156.755z M428.708,156.462
	c0,4.873,1.125,8.568,3.376,11.083c2.251,2.516,5.109,3.772,8.573,3.772s6.307-1.247,8.529-3.743
	c2.221-2.495,3.333-6.239,3.333-11.23c0-4.932-1.082-8.611-3.244-11.039c-2.163-2.427-5.035-3.641-8.617-3.641
	s-6.469,1.229-8.661,3.685C429.804,147.806,428.708,151.51,428.708,156.462z"/>
<path d="M468.226,134.97h8.69v23.313c0,3.699,0.107,6.097,0.323,7.192c0.372,1.762,1.257,3.177,2.657,4.243s3.313,1.6,5.74,1.6
	c2.466,0,4.326-0.504,5.579-1.512c1.252-1.008,2.006-2.246,2.261-3.714c0.254-1.468,0.381-3.905,0.381-7.311V134.97h8.691v22.607
	c0,5.168-0.235,8.818-0.705,10.951c-0.47,2.134-1.336,3.935-2.599,5.402c-1.262,1.468-2.951,2.638-5.064,3.509
	c-2.114,0.87-4.874,1.307-8.279,1.307c-4.111,0-7.228-0.476-9.351-1.425c-2.124-0.948-3.802-2.182-5.036-3.699
	c-1.233-1.517-2.045-3.106-2.437-4.771c-0.568-2.467-0.852-6.106-0.852-10.922V134.97z"/>
<path d="M511.943,178.012v-42.689h8.69v35.438h21.609v7.252H511.943z"/>
<path d="M546.675,156.755c0-4.384,0.656-8.063,1.967-11.039c0.979-2.191,2.314-4.159,4.008-5.901
	c1.692-1.741,3.547-3.033,5.563-3.875c2.681-1.136,5.774-1.703,9.278-1.703c6.342,0,11.416,1.967,15.223,5.901
	c3.807,3.934,5.71,9.405,5.71,16.412c0,6.948-1.889,12.385-5.667,16.31c-3.778,3.924-8.828,5.887-15.15,5.887
	c-6.4,0-11.49-1.953-15.267-5.857C548.564,168.983,546.675,163.606,546.675,156.755z M555.63,156.462
	c0,4.873,1.125,8.568,3.376,11.083c2.251,2.516,5.109,3.772,8.573,3.772s6.307-1.247,8.529-3.743
	c2.221-2.495,3.332-6.239,3.332-11.23c0-4.932-1.082-8.611-3.244-11.039c-2.163-2.427-5.035-3.641-8.617-3.641
	s-6.469,1.229-8.661,3.685C556.726,147.806,555.63,151.51,555.63,156.462z"/>
<path d="M595.295,178.012V134.97h8.456l17.616,28.744V134.97h8.074v43.042h-8.72l-17.352-28.068v28.068H595.295z"/>
<line fill="none" stroke="#0398D6" x1="239.094" y1="35.889" x2="239.094" y2="122.367"/>
<line fill="none" stroke="#0398D6" x1="260.482" y1="37.762" x2="260.482" y2="111.1"/>
<path fill="#007AC2" d="M171.945,46.333c-1.133-1.43-1.699-3.758-1.699-6.984c0-2.031,0.209-3.666,0.627-4.904
	s1.039-2.193,1.863-2.865s1.861-1.008,3.111-1.008c0.922,0,1.73,0.186,2.426,0.557s1.27,0.906,1.723,1.605s0.809,1.551,1.066,2.555
	s0.387,2.357,0.387,4.061c0,2.016-0.207,3.643-0.621,4.881s-1.033,2.195-1.857,2.871s-1.865,1.014-3.123,1.014
	C174.191,48.114,172.891,47.52,171.945,46.333L171.945,46.333z M173.504,33.547c-0.727,1.047-1.09,2.98-1.09,5.801
	s0.33,4.697,0.99,5.631s1.475,1.4,2.443,1.4s1.783-0.469,2.443-1.406s0.99-2.813,0.99-5.625c0-2.828-0.33-4.707-0.99-5.637
	s-1.482-1.395-2.467-1.395C174.855,32.317,174.082,32.727,173.504,33.547L173.504,33.547z"/>
<path fill="#007AC2" d="M184.73,47.821v-2.402h2.402v2.402c0,0.883-0.156,1.596-0.469,2.139s-0.809,0.963-1.488,1.26l-0.586-0.902
	c0.445-0.195,0.773-0.482,0.984-0.861s0.328-0.924,0.352-1.635H184.73z"/>
<path fill="#007AC2" d="M190.262,43.321l2.215-0.188c0.164,1.078,0.545,1.889,1.143,2.432s1.318,0.814,2.162,0.814
	c1.016,0,1.875-0.383,2.578-1.148s1.055-1.781,1.055-3.047c0-1.203-0.338-2.152-1.014-2.848s-1.561-1.043-2.654-1.043
	c-0.68,0-1.293,0.154-1.84,0.463s-0.977,0.709-1.289,1.201l-1.98-0.258l1.664-8.824h8.543v2.016h-6.855l-0.926,4.617
	c1.031-0.719,2.113-1.078,3.246-1.078c1.5,0,2.766,0.52,3.797,1.559s1.547,2.375,1.547,4.008c0,1.555-0.453,2.898-1.359,4.031
	c-1.102,1.391-2.605,2.086-4.512,2.086c-1.563,0-2.838-0.438-3.826-1.313S190.402,44.766,190.262,43.321z"/>
<path fill="#007AC2" d="M204.535,47.821v-17.18h2.273v7.055h8.93v-7.055h2.273v17.18h-2.273v-8.098h-8.93v8.098H204.535z"/>
<path fill="#007AC2" d="M229.648,43.262l2.074,0.27c-0.227,1.43-0.807,2.549-1.74,3.357s-2.08,1.213-3.439,1.213
	c-1.703,0-3.072-0.557-4.107-1.67s-1.553-2.709-1.553-4.787c0-1.344,0.223-2.52,0.668-3.527s1.123-1.764,2.033-2.268
	s1.9-0.756,2.971-0.756c1.352,0,2.457,0.342,3.316,1.025s1.41,1.654,1.652,2.912l-2.051,0.316c-0.195-0.836-0.541-1.465-1.037-1.887
	s-1.096-0.633-1.799-0.633c-1.063,0-1.926,0.381-2.59,1.143s-0.996,1.967-0.996,3.615c0,1.672,0.32,2.887,0.961,3.645
	s1.477,1.137,2.508,1.137c0.828,0,1.52-0.254,2.074-0.762S229.5,44.317,229.648,43.262z"/>
<ellipse fill="#343895" stroke="#005FAD" cx="260.659" cy="56.889" rx="4.057" ry="3.605"/>
<ellipse fill="#343895" stroke="#005FAD" cx="239.159" cy="56.889" rx="4.057" ry="3.605"/>
<line fill="none" stroke="#0398D6" x1="273.659" y1="55.278" x2="460.103" y2="55.278"/>
<line fill="none" stroke="#0398D6" x1="359.037" y1="38.262" x2="359.037" y2="116.867"/>
<line fill="none" stroke="#0398D6" x1="380.425" y1="35.889" x2="380.425" y2="105.6"/>
<path fill="#007AC2" d="M395.055,46.833c-1.133-1.43-1.699-3.758-1.699-6.984c0-2.031,0.209-3.666,0.627-4.904
	s1.039-2.193,1.863-2.865s1.861-1.008,3.111-1.008c0.922,0,1.73,0.186,2.426,0.557s1.27,0.906,1.723,1.605s0.809,1.551,1.066,2.555
	s0.387,2.357,0.387,4.061c0,2.016-0.207,3.643-0.621,4.881s-1.033,2.195-1.857,2.871s-1.865,1.014-3.123,1.014
	C397.301,48.614,396,48.02,395.055,46.833L395.055,46.833z M396.614,34.047c-0.727,1.047-1.09,2.98-1.09,5.801
	s0.33,4.697,0.99,5.631s1.475,1.4,2.443,1.4s1.783-0.469,2.443-1.406s0.99-2.813,0.99-5.625c0-2.828-0.33-4.707-0.99-5.637
	s-1.482-1.395-2.467-1.395C397.965,32.817,397.192,33.227,396.614,34.047L396.614,34.047z"/>
<path fill="#007AC2" d="M407.84,48.321v-2.402h2.402v2.402c0,0.883-0.156,1.596-0.469,2.139s-0.809,0.963-1.488,1.26l-0.586-0.902
	c0.445-0.195,0.773-0.482,0.984-0.861s0.328-0.924,0.352-1.635H407.84z"/>
<path fill="#007AC2" d="M413.372,43.821l2.215-0.188c0.164,1.078,0.545,1.889,1.143,2.432s1.318,0.814,2.162,0.814
	c1.016,0,1.875-0.383,2.578-1.148s1.055-1.781,1.055-3.047c0-1.203-0.338-2.152-1.014-2.848s-1.561-1.043-2.654-1.043
	c-0.68,0-1.293,0.154-1.84,0.463s-0.977,0.709-1.289,1.201l-1.98-0.258l1.664-8.824h8.543v2.016h-6.855l-0.926,4.617
	c1.031-0.719,2.113-1.078,3.246-1.078c1.5,0,2.766,0.52,3.797,1.559s1.547,2.375,1.547,4.008c0,1.555-0.453,2.898-1.359,4.031
	c-1.102,1.391-2.605,2.086-4.512,2.086c-1.563,0-2.838-0.438-3.826-1.313S413.512,45.266,413.372,43.821z"/>
<path fill="#007AC2" d="M427.645,48.321v-17.18h2.273v7.055h8.93v-7.055h2.273v17.18h-2.273v-8.098h-8.93v8.098H427.645z"/>
<path fill="#007AC2" d="M452.758,43.762l2.074,0.27c-0.227,1.43-0.807,2.549-1.74,3.357s-2.08,1.213-3.439,1.213
	c-1.703,0-3.072-0.557-4.107-1.67s-1.553-2.709-1.553-4.787c0-1.344,0.223-2.52,0.668-3.527s1.123-1.764,2.033-2.268
	s1.9-0.756,2.971-0.756c1.352,0,2.457,0.342,3.316,1.025s1.41,1.654,1.652,2.912l-2.051,0.316c-0.195-0.836-0.541-1.465-1.037-1.887
	s-1.096-0.633-1.799-0.633c-1.063,0-1.926,0.381-2.59,1.143s-0.996,1.967-0.996,3.615c0,1.672,0.32,2.887,0.961,3.645
	s1.477,1.137,2.508,1.137c0.828,0,1.52-0.254,2.074-0.762S452.61,44.817,452.758,43.762z"/>
<ellipse fill="#343895" stroke="#005FAD" cx="380.602" cy="54.994" rx="4.057" ry="3.605"/>
<ellipse fill="#343895" stroke="#005FAD" cx="359.102" cy="54.994" rx="4.057" ry="3.605"/>
<line fill="none" stroke="#0398D6" x1="621.905" y1="55.523" x2="726.688" y2="55.523"/>
<line fill="none" stroke="#0398D6" x1="632.653" y1="42.042" x2="632.653" y2="122.003"/>
<line fill="none" stroke="#0398D6" x1="658.54" y1="46.542" x2="658.54" y2="124.879"/>
<path fill="#007AC2" d="M671.342,44.9c-1.133-1.43-1.699-3.758-1.699-6.984c0-2.031,0.209-3.666,0.627-4.904
	s1.039-2.193,1.863-2.865s1.861-1.008,3.111-1.008c0.922,0,1.73,0.186,2.426,0.557s1.27,0.906,1.723,1.605s0.809,1.551,1.066,2.555
	s0.387,2.357,0.387,4.061c0,2.016-0.207,3.643-0.621,4.881s-1.033,2.195-1.857,2.871s-1.865,1.014-3.123,1.014
	C673.588,46.682,672.288,46.088,671.342,44.9L671.342,44.9z M672.901,32.115c-0.727,1.047-1.09,2.98-1.09,5.801
	s0.33,4.697,0.99,5.631s1.475,1.4,2.443,1.4s1.783-0.469,2.443-1.406s0.99-2.813,0.99-5.625c0-2.828-0.33-4.707-0.99-5.637
	s-1.482-1.395-2.467-1.395C674.252,30.885,673.479,31.295,672.901,32.115L672.901,32.115z"/>
<path fill="#007AC2" d="M684.127,46.389v-2.402h2.402v2.402c0,0.883-0.156,1.596-0.469,2.139s-0.809,0.963-1.488,1.26l-0.586-0.902
	c0.445-0.195,0.773-0.482,0.984-0.861s0.328-0.924,0.352-1.635H684.127z"/>
<path fill="#007AC2" d="M689.659,41.889l2.215-0.188c0.164,1.078,0.545,1.889,1.143,2.432s1.318,0.814,2.162,0.814
	c1.016,0,1.875-0.383,2.578-1.148s1.055-1.781,1.055-3.047c0-1.203-0.338-2.152-1.014-2.848s-1.561-1.043-2.654-1.043
	c-0.68,0-1.293,0.154-1.84,0.463s-0.977,0.709-1.289,1.201l-1.98-0.258l1.664-8.824h8.543v2.016h-6.855l-0.926,4.617
	c1.031-0.719,2.113-1.078,3.246-1.078c1.5,0,2.766,0.52,3.797,1.559s1.547,2.375,1.547,4.008c0,1.555-0.453,2.898-1.359,4.031
	c-1.102,1.391-2.605,2.086-4.512,2.086c-1.563,0-2.838-0.438-3.826-1.313S689.799,43.334,689.659,41.889z"/>
<path fill="#007AC2" d="M703.932,46.389v-17.18h2.273v7.055h8.93v-7.055h2.273v17.18h-2.273v-8.098h-8.93v8.098H703.932z"/>
<path fill="#007AC2" d="M729.045,41.83l2.074,0.27c-0.227,1.43-0.807,2.549-1.74,3.357s-2.08,1.213-3.439,1.213
	c-1.703,0-3.072-0.557-4.107-1.67s-1.553-2.709-1.553-4.787c0-1.344,0.223-2.52,0.668-3.527s1.123-1.764,2.033-2.268
	s1.9-0.756,2.971-0.756c1.352,0,2.457,0.342,3.316,1.025s1.41,1.654,1.652,2.912l-2.051,0.316c-0.195-0.836-0.541-1.465-1.037-1.887
	s-1.096-0.633-1.799-0.633c-1.063,0-1.926,0.381-2.59,1.143s-0.996,1.967-0.996,3.615c0,1.672,0.32,2.887,0.961,3.645
	s1.477,1.137,2.508,1.137c0.828,0,1.52-0.254,2.074-0.762S728.897,42.885,729.045,41.83z"/>
<ellipse fill="#343895" stroke="#005FAD" cx="657.692" cy="55.989" rx="4.057" ry="3.605"/>
<ellipse fill="#343895" stroke="#005FAD" cx="632.193" cy="54.49" rx="4.057" ry="3.605"/>
<line fill="none" stroke="#0398D6" x1="83.659" y1="105.778" x2="256.659" y2="105.778"/>
<line fill="none" stroke="#0398D6" x1="82.659" y1="200.778" x2="254.659" y2="200.778"/>
<line fill="none" stroke="#0398D6" x1="14.659" y1="84.778" x2="255.659" y2="84.778"/>
<line fill="none" stroke="#0398D6" x1="14.659" y1="219.778" x2="253.659" y2="219.778"/>
<line fill="none" stroke="#0398D6" x1="103.482" y1="16.889" x2="103.482" y2="272.889"/>
<line fill="none" stroke="#0398D6" x1="27.482" y1="72.889" x2="27.482" y2="227.889"/>
<path fill="#007AC2" d="M93.223,172.07h2.027v11.355c-0.508,0.016-0.996-0.066-1.465-0.246c-0.773-0.289-1.535-0.752-2.285-1.389
	s-1.617-1.557-2.602-2.76c-1.531-1.867-2.744-3.129-3.639-3.785s-1.74-0.984-2.537-0.984c-0.836,0-1.541,0.299-2.115,0.896
	s-0.861,1.377-0.861,2.338c0,1.016,0.305,1.828,0.914,2.438s1.453,0.918,2.531,0.926l-0.223,2.168
	c-1.617-0.148-2.85-0.707-3.697-1.676S78,179.082,78,177.449c0-1.648,0.457-2.953,1.371-3.914s2.047-1.441,3.398-1.441
	c0.688,0,1.363,0.141,2.027,0.422s1.363,0.748,2.098,1.4s1.742,1.736,3.023,3.252c1.063,1.266,1.783,2.078,2.162,2.438
	s0.76,0.656,1.143,0.891V172.07z"/>
<path fill="#007AC2" d="M95.25,168.672h-2.402v-2.402h2.402c0.883,0,1.596,0.156,2.139,0.469s0.963,0.809,1.26,1.488l-0.902,0.586
	c-0.195-0.445-0.482-0.773-0.861-0.984s-0.924-0.328-1.635-0.352V168.672z"/>
<path fill="#007AC2" d="M90.75,163.141l-0.188-2.215c1.078-0.164,1.889-0.545,2.432-1.143s0.814-1.318,0.814-2.162
	c0-1.016-0.383-1.875-1.148-2.578s-1.781-1.055-3.047-1.055c-1.203,0-2.152,0.338-2.848,1.014s-1.043,1.561-1.043,2.654
	c0,0.68,0.154,1.293,0.463,1.84s0.709,0.977,1.201,1.289l-0.258,1.98l-8.824-1.664v-8.543h2.016v6.855l4.617,0.926
	c-0.719-1.031-1.078-2.113-1.078-3.246c0-1.5,0.52-2.766,1.559-3.797s2.375-1.547,4.008-1.547c1.555,0,2.898,0.453,4.031,1.359
	c1.391,1.102,2.086,2.605,2.086,4.512c0,1.563-0.438,2.838-1.313,3.826S92.195,163,90.75,163.141z"/>
<path fill="#007AC2" d="M95.25,142.199H78.07v-2.273h7.055v-8.93H78.07v-2.273h17.18v2.273h-8.098v8.93h8.098V142.199z"/>
<path fill="#007AC2" d="M90.691,117.086l0.27-2.074c1.43,0.227,2.549,0.807,3.357,1.74s1.213,2.08,1.213,3.439
	c0,1.703-0.557,3.072-1.67,4.107s-2.709,1.553-4.787,1.553c-1.344,0-2.52-0.223-3.527-0.668s-1.764-1.123-2.268-2.033
	s-0.756-1.9-0.756-2.971c0-1.352,0.342-2.457,1.025-3.316s1.654-1.41,2.912-1.652l0.316,2.051c-0.836,0.195-1.465,0.541-1.887,1.037
	s-0.633,1.096-0.633,1.799c0,1.063,0.381,1.926,1.143,2.59s1.967,0.996,3.615,0.996c1.672,0,2.887-0.32,3.645-0.961
	s1.137-1.477,1.137-2.508c0-0.828-0.254-1.52-0.762-2.074S91.746,117.234,90.691,117.086z"/>
<path fill="#007AC2" d="M12.715,170.813l-0.281-2.109c1.195-0.242,2.057-0.654,2.584-1.236s0.791-1.291,0.791-2.127
	c0-0.992-0.344-1.83-1.031-2.514s-1.539-1.025-2.555-1.025c-0.969,0-1.768,0.316-2.396,0.949s-0.943,1.438-0.943,2.414
	c0,0.398,0.078,0.895,0.234,1.488l-1.852-0.234c0.016-0.141,0.023-0.254,0.023-0.34c0-0.898-0.234-1.707-0.703-2.426
	s-1.191-1.078-2.168-1.078c-0.773,0-1.414,0.262-1.922,0.785s-0.762,1.199-0.762,2.027c0,0.82,0.258,1.504,0.773,2.051
	s1.289,0.898,2.32,1.055l-0.375,2.109c-1.414-0.258-2.51-0.844-3.287-1.758S0,166.793,0,165.434c0-0.938,0.201-1.801,0.604-2.59
	s0.951-1.393,1.646-1.811s1.434-0.627,2.215-0.627c0.742,0,1.418,0.199,2.027,0.598s1.094,0.988,1.453,1.77
	c0.234-1.016,0.721-1.805,1.459-2.367s1.662-0.844,2.771-0.844c1.5,0,2.771,0.547,3.814,1.641s1.564,2.477,1.564,4.148
	c0,1.508-0.449,2.76-1.348,3.756S14.145,170.672,12.715,170.813z"/>
<path fill="#007AC2" d="M17.25,149.883H0.07v-2.273h7.055v-8.93H0.07v-2.273h17.18v2.273H9.152v8.93h8.098V149.883z"/>
<path fill="#007AC2" d="M12.691,124.77l0.27-2.074c1.43,0.227,2.549,0.807,3.357,1.74s1.213,2.08,1.213,3.439
	c0,1.703-0.557,3.072-1.67,4.107s-2.709,1.553-4.787,1.553c-1.344,0-2.52-0.223-3.527-0.668s-1.764-1.123-2.268-2.033
	s-0.756-1.9-0.756-2.971c0-1.352,0.342-2.457,1.025-3.316s1.654-1.41,2.912-1.652l0.316,2.051c-0.836,0.195-1.465,0.541-1.887,1.037
	s-0.633,1.096-0.633,1.799c0,1.063,0.381,1.926,1.143,2.59s1.967,0.996,3.615,0.996c1.672,0,2.887-0.32,3.645-0.961
	s1.137-1.477,1.137-2.508c0-0.828-0.254-1.52-0.762-2.074S13.746,124.918,12.691,124.77z"/>
<path fill="#007AC2" d="M91.762,73.125c-1.43,1.133-3.758,1.699-6.984,1.699c-2.031,0-3.666-0.209-4.904-0.627
	s-2.193-1.039-2.865-1.863S76,70.473,76,69.223c0-0.922,0.186-1.73,0.557-2.426s0.906-1.27,1.605-1.723s1.551-0.809,2.555-1.066
	s2.357-0.387,4.061-0.387c2.016,0,3.643,0.207,4.881,0.621s2.195,1.033,2.871,1.857s1.014,1.865,1.014,3.123
	C93.543,70.879,92.949,72.18,91.762,73.125L91.762,73.125z M78.977,71.566c1.047,0.727,2.98,1.09,5.801,1.09s4.697-0.33,5.631-0.99
	s1.4-1.475,1.4-2.443s-0.469-1.783-1.406-2.443s-2.813-0.99-5.625-0.99c-2.828,0-4.707,0.33-5.637,0.99s-1.395,1.482-1.395,2.467
	C77.746,70.215,78.156,70.988,78.977,71.566L78.977,71.566z"/>
<path fill="#007AC2" d="M93.25,60.34h-2.402v-2.402h2.402c0.883,0,1.596,0.156,2.139,0.469s0.963,0.809,1.26,1.488l-0.902,0.586
	c-0.195-0.445-0.482-0.773-0.861-0.984s-0.924-0.328-1.635-0.352V60.34z"/>
<path fill="#007AC2" d="M91.223,43.723h2.027v11.355c-0.508,0.016-0.996-0.066-1.465-0.246c-0.773-0.289-1.535-0.752-2.285-1.389
	s-1.617-1.557-2.602-2.76c-1.531-1.867-2.744-3.129-3.639-3.785s-1.74-0.984-2.537-0.984c-0.836,0-1.541,0.299-2.115,0.896
	s-0.861,1.377-0.861,2.338c0,1.016,0.305,1.828,0.914,2.438s1.453,0.918,2.531,0.926l-0.223,2.168
	c-1.617-0.148-2.85-0.707-3.697-1.676S76,50.734,76,49.102c0-1.648,0.457-2.953,1.371-3.914s2.047-1.441,3.398-1.441
	c0.688,0,1.363,0.141,2.027,0.422s1.363,0.748,2.098,1.4s1.742,1.736,3.023,3.252c1.063,1.266,1.783,2.078,2.162,2.438
	s0.76,0.656,1.143,0.891V43.723z"/>
<path fill="#007AC2" d="M88.75,41.461l-0.188-2.215c1.078-0.164,1.889-0.545,2.432-1.143s0.814-1.318,0.814-2.162
	c0-1.016-0.383-1.875-1.148-2.578s-1.781-1.055-3.047-1.055c-1.203,0-2.152,0.338-2.848,1.014s-1.043,1.561-1.043,2.654
	c0,0.68,0.154,1.293,0.463,1.84s0.709,0.977,1.201,1.289l-0.258,1.98l-8.824-1.664v-8.543h2.016v6.855l4.617,0.926
	c-0.719-1.031-1.078-2.113-1.078-3.246c0-1.5,0.52-2.766,1.559-3.797s2.375-1.547,4.008-1.547c1.555,0,2.898,0.453,4.031,1.359
	c1.391,1.102,2.086,2.605,2.086,4.512c0,1.563-0.438,2.838-1.313,3.826S90.195,41.32,88.75,41.461z"/>
<path fill="#007AC2" d="M93.25,27.188H76.07v-2.273h7.055v-8.93H76.07v-2.273h17.18v2.273h-8.098v8.93h8.098V27.188z"/>
<path fill="#007AC2" d="M88.691,2.074L88.961,0c1.43,0.227,2.549,0.807,3.357,1.74s1.213,2.08,1.213,3.439
	c0,1.703-0.557,3.072-1.67,4.107s-2.709,1.553-4.787,1.553c-1.344,0-2.52-0.223-3.527-0.668s-1.764-1.123-2.268-2.033
	s-0.756-1.9-0.756-2.971c0-1.352,0.342-2.457,1.025-3.316s1.654-1.41,2.912-1.652l0.316,2.051c-0.836,0.195-1.465,0.541-1.887,1.037
	s-0.633,1.096-0.633,1.799c0,1.063,0.381,1.926,1.143,2.59s1.967,0.996,3.615,0.996c1.672,0,2.887-0.32,3.645-0.961
	s1.137-1.477,1.137-2.508c0-0.828-0.254-1.52-0.762-2.074S89.746,2.223,88.691,2.074z"/>
<path fill="#007AC2" d="M92.762,301.125c-1.43,1.133-3.758,1.699-6.984,1.699c-2.031,0-3.666-0.209-4.904-0.627
	s-2.193-1.039-2.865-1.863S77,298.473,77,297.223c0-0.922,0.186-1.73,0.557-2.426s0.906-1.27,1.605-1.723s1.551-0.809,2.555-1.066
	s2.357-0.387,4.061-0.387c2.016,0,3.643,0.207,4.881,0.621s2.195,1.033,2.871,1.857s1.014,1.865,1.014,3.123
	C94.543,298.879,93.949,300.18,92.762,301.125L92.762,301.125z M79.977,299.566c1.047,0.727,2.98,1.09,5.801,1.09
	s4.697-0.33,5.631-0.99s1.4-1.475,1.4-2.443s-0.469-1.783-1.406-2.443s-2.813-0.99-5.625-0.99c-2.828,0-4.707,0.33-5.637,0.99
	s-1.395,1.482-1.395,2.467C78.746,298.215,79.156,298.988,79.977,299.566L79.977,299.566z"/>
<path fill="#007AC2" d="M94.25,288.34h-2.402v-2.402h2.402c0.883,0,1.596,0.156,2.139,0.469s0.963,0.809,1.26,1.488l-0.902,0.586
	c-0.195-0.445-0.482-0.773-0.861-0.984s-0.924-0.328-1.635-0.352V288.34z"/>
<path fill="#007AC2" d="M92.223,271.723h2.027v11.355c-0.508,0.016-0.996-0.066-1.465-0.246c-0.773-0.289-1.535-0.752-2.285-1.389
	s-1.617-1.557-2.602-2.76c-1.531-1.867-2.744-3.129-3.639-3.785s-1.74-0.984-2.537-0.984c-0.836,0-1.541,0.299-2.115,0.896
	s-0.861,1.377-0.861,2.338c0,1.016,0.305,1.828,0.914,2.438s1.453,0.918,2.531,0.926l-0.223,2.168
	c-1.617-0.148-2.85-0.707-3.697-1.676S77,278.734,77,277.102c0-1.648,0.457-2.953,1.371-3.914s2.047-1.441,3.398-1.441
	c0.688,0,1.363,0.141,2.027,0.422s1.363,0.748,2.098,1.4s1.742,1.736,3.023,3.252c1.063,1.266,1.783,2.078,2.162,2.438
	s0.76,0.656,1.143,0.891V271.723z"/>
<path fill="#007AC2" d="M89.75,269.461l-0.188-2.215c1.078-0.164,1.889-0.545,2.432-1.143s0.814-1.318,0.814-2.162
	c0-1.016-0.383-1.875-1.148-2.578s-1.781-1.055-3.047-1.055c-1.203,0-2.152,0.338-2.848,1.014s-1.043,1.561-1.043,2.654
	c0,0.68,0.154,1.293,0.463,1.84s0.709,0.977,1.201,1.289l-0.258,1.98l-8.824-1.664v-8.543h2.016v6.855l4.617,0.926
	c-0.719-1.031-1.078-2.113-1.078-3.246c0-1.5,0.52-2.766,1.559-3.797s2.375-1.547,4.008-1.547c1.555,0,2.898,0.453,4.031,1.359
	c1.391,1.102,2.086,2.605,2.086,4.512c0,1.563-0.438,2.838-1.313,3.826S91.195,269.32,89.75,269.461z"/>
<path fill="#007AC2" d="M94.25,255.188H77.07v-2.273h7.055v-8.93H77.07v-2.273h17.18v2.273h-8.098v8.93h8.098V255.188z"/>
<path fill="#007AC2" d="M89.691,230.074l0.27-2.074c1.43,0.227,2.549,0.807,3.357,1.74s1.213,2.08,1.213,3.439
	c0,1.703-0.557,3.072-1.67,4.107s-2.709,1.553-4.787,1.553c-1.344,0-2.52-0.223-3.527-0.668s-1.764-1.123-2.268-2.033
	s-0.756-1.9-0.756-2.971c0-1.352,0.342-2.457,1.025-3.316s1.654-1.41,2.912-1.652l0.316,2.051c-0.836,0.195-1.465,0.541-1.887,1.037
	s-0.633,1.096-0.633,1.799c0,1.063,0.381,1.926,1.143,2.59s1.967,0.996,3.615,0.996c1.672,0,2.887-0.32,3.645-0.961
	s1.137-1.477,1.137-2.508c0-0.828-0.254-1.52-0.762-2.074S90.746,230.223,89.691,230.074z"/>
<ellipse fill="#343895" stroke="#005FAD" cx="103.159" cy="105.889" rx="4.057" ry="3.605"/>
<ellipse fill="#343895" stroke="#005FAD" cx="102.659" cy="84.283" rx="4.057" ry="3.605"/>
<ellipse fill="#343895" stroke="#005FAD" cx="102.659" cy="199.283" rx="4.057" ry="3.605"/>
<ellipse fill="#343895" stroke="#005FAD" cx="102.659" cy="219.283" rx="4.057" ry="3.605"/>
<ellipse fill="#343895" stroke="#005FAD" cx="26.659" cy="84.889" rx="4.057" ry="3.605"/>
<ellipse fill="#343895" stroke="#005FAD" cx="25.659" cy="219.283" rx="4.057" ry="3.605"/>
<circle fill="#ED2224" stroke="#ED2224" stroke-width="0.1764" stroke-linecap="round" stroke-linejoin="round" cx="311.858" cy="153.94" r="49.317"/>
<circle fill="#FFFFFF" stroke="#ED2224" stroke-width="0.1764" stroke-linecap="round" stroke-linejoin="round" cx="311.858" cy="153.939" r="34.639"/>
<path fill="#010101" d="M284.237,159.04l2.883-0.385c0.331,1.634,0.895,2.811,1.69,3.532c0.795,0.72,1.764,1.081,2.906,1.081
	c1.356,0,2.501-0.47,3.436-1.41c0.934-0.939,1.401-2.104,1.401-3.492c0-1.323-0.432-2.416-1.297-3.274
	c-0.865-0.859-1.965-1.29-3.3-1.29c-0.545,0-1.223,0.107-2.034,0.32l0.32-2.531c0.192,0.022,0.347,0.033,0.464,0.033
	c1.228,0,2.333-0.321,3.316-0.962c0.982-0.64,1.474-1.628,1.474-2.964c0-1.057-0.358-1.932-1.074-2.626
	c-0.715-0.693-1.639-1.041-2.771-1.041c-1.121,0-2.056,0.352-2.803,1.058c-0.747,0.704-1.228,1.763-1.441,3.171l-2.883-0.512
	c0.352-1.934,1.153-3.432,2.403-4.493c1.249-1.063,2.802-1.595,4.661-1.595c1.281,0,2.461,0.276,3.54,0.825
	c1.078,0.551,1.903,1.3,2.475,2.25c0.571,0.951,0.857,1.961,0.857,3.028c0,1.014-0.272,1.938-0.817,2.771
	c-0.544,0.834-1.351,1.495-2.418,1.986c1.388,0.32,2.467,0.985,3.236,1.995c0.769,1.008,1.153,2.271,1.153,3.788
	c0,2.05-0.748,3.788-2.242,5.212c-1.496,1.427-3.385,2.14-5.67,2.14c-2.061,0-3.772-0.614-5.134-1.842
	C285.207,162.585,284.43,160.993,284.237,159.04z"/>
<path fill="#010101" d="M306.952,160.383l2.403-0.204c0.178,1.171,0.592,2.051,1.24,2.641c0.649,0.589,1.431,0.883,2.346,0.883
	c1.103,0,2.035-0.415,2.799-1.246c0.763-0.831,1.144-1.934,1.144-3.308c0-1.305-0.366-2.335-1.1-3.09
	c-0.733-0.755-1.693-1.132-2.88-1.132c-0.738,0-1.404,0.168-1.997,0.503c-0.594,0.334-1.06,0.769-1.399,1.303l-2.149-0.28
	l1.806-9.576h9.272v2.187h-7.44l-1.005,5.013c1.12-0.781,2.294-1.171,3.523-1.171c1.628,0,3.002,0.564,4.121,1.691
	c1.12,1.128,1.679,2.577,1.679,4.35c0,1.688-0.492,3.146-1.475,4.376c-1.196,1.509-2.828,2.264-4.896,2.264
	c-1.696,0-3.08-0.476-4.153-1.425C307.717,163.211,307.105,161.951,306.952,160.383z"/>
<path fill="#010101" d="M322.074,165.267V151.76h2.047v1.895c0.424-0.661,0.988-1.192,1.692-1.596
	c0.704-0.402,1.505-0.604,2.404-0.604c1.001,0,1.82,0.207,2.461,0.623c0.641,0.416,1.092,0.996,1.354,1.742
	c1.069-1.577,2.459-2.365,4.171-2.365c1.34,0,2.371,0.371,3.091,1.112c0.721,0.742,1.081,1.885,1.081,3.428v9.271H338.1v-8.509
	c0-0.915-0.075-1.574-0.223-1.978c-0.148-0.402-0.418-0.727-0.808-0.973s-0.848-0.368-1.374-0.368c-0.949,0-1.738,0.315-2.366,0.946
	c-0.627,0.632-0.941,1.644-0.941,3.034v7.847h-2.29v-8.775c0-1.018-0.187-1.781-0.56-2.289c-0.373-0.509-0.983-0.763-1.831-0.763
	c-0.645,0-1.24,0.169-1.787,0.508c-0.546,0.34-0.943,0.835-1.189,1.489c-0.246,0.652-0.368,1.593-0.368,2.823v7.007H322.074
	L322.074,165.267z"/>
<path fill="#010101" d="M302.143,165.557v-3.283h3.284v3.283c0,1.207-0.213,2.181-0.641,2.924c-0.427,0.741-1.105,1.316-2.034,1.722
	l-0.801-1.233c0.608-0.268,1.057-0.659,1.345-1.178c0.289-0.518,0.449-1.263,0.48-2.234H302.143z"/>
<path fill="#010101" d="M308.024,119.786h7.667l-3.833,5.476L308.024,119.786z M311.858,182.619l3.833,5.474h-3.833h-3.833
	L311.858,182.619z"/>
<path fill="#007AC2" d="M287.887,45.25v2.027h-11.355c-0.016-0.508,0.066-0.996,0.246-1.465c0.289-0.773,0.752-1.535,1.389-2.285
	s1.557-1.617,2.76-2.602c1.867-1.531,3.129-2.744,3.785-3.639s0.984-1.74,0.984-2.537c0-0.836-0.299-1.541-0.896-2.115
	s-1.377-0.861-2.338-0.861c-1.016,0-1.828,0.305-2.438,0.914s-0.918,1.453-0.926,2.531l-2.168-0.223
	c0.148-1.617,0.707-2.85,1.676-3.697s2.27-1.271,3.902-1.271c1.648,0,2.953,0.457,3.914,1.371s1.441,2.047,1.441,3.398
	c0,0.688-0.141,1.363-0.422,2.027s-0.748,1.363-1.4,2.098s-1.736,1.742-3.252,3.023c-1.266,1.063-2.078,1.783-2.438,2.162
	s-0.656,0.76-0.891,1.143H287.887z"/>
<path fill="#007AC2" d="M291.286,47.277v-2.402h2.402v2.402c0,0.883-0.156,1.596-0.469,2.139s-0.809,0.963-1.488,1.26l-0.586-0.902
	c0.445-0.195,0.773-0.482,0.984-0.861s0.328-0.924,0.352-1.635H291.286z"/>
<path fill="#007AC2" d="M296.817,42.777l2.215-0.188c0.164,1.078,0.545,1.889,1.143,2.432s1.318,0.814,2.162,0.814
	c1.016,0,1.875-0.383,2.578-1.148s1.055-1.781,1.055-3.047c0-1.203-0.338-2.152-1.014-2.848s-1.561-1.043-2.654-1.043
	c-0.68,0-1.293,0.154-1.84,0.463s-0.977,0.709-1.289,1.201l-1.98-0.258l1.664-8.824h8.543v2.016h-6.855l-0.926,4.617
	c1.031-0.719,2.113-1.078,3.246-1.078c1.5,0,2.766,0.52,3.797,1.559s1.547,2.375,1.547,4.008c0,1.555-0.453,2.898-1.359,4.031
	c-1.102,1.391-2.605,2.086-4.512,2.086c-1.563,0-2.838-0.438-3.826-1.313S296.958,44.223,296.817,42.777z"/>
<path fill="#007AC2" d="M317.758,47.277v-17.18h2.273v7.055h8.93v-7.055h2.273v17.18h-2.273V39.18h-8.93v8.098H317.758z"/>
<path fill="#007AC2" d="M342.872,42.719l2.074,0.27c-0.227,1.43-0.807,2.549-1.74,3.357s-2.08,1.213-3.439,1.213
	c-1.703,0-3.072-0.557-4.107-1.67s-1.553-2.709-1.553-4.787c0-1.344,0.223-2.52,0.668-3.527s1.123-1.764,2.033-2.268
	s1.9-0.756,2.971-0.756c1.352,0,2.457,0.342,3.316,1.025s1.41,1.654,1.652,2.912l-2.051,0.316c-0.195-0.836-0.541-1.465-1.037-1.887
	s-1.096-0.633-1.799-0.633c-1.063,0-1.926,0.381-2.59,1.143s-0.996,1.967-0.996,3.615c0,1.672,0.32,2.887,0.961,3.645
	s1.477,1.137,2.508,1.137c0.828,0,1.52-0.254,2.074-0.762S342.723,43.773,342.872,42.719z"/>
</svg>
