<?xml version="1.0" encoding="utf-8"?>
<!-- Generator: Adobe Illustrator 16.0.2, SVG Export Plug-In . SVG Version: 6.00 Build 0)  -->
<!DOCTYPE svg PUBLIC "-//W3C//DTD SVG 1.1//EN" "http://www.w3.org/Graphics/SVG/1.1/DTD/svg11.dtd">
<svg version="1.1" id="Ebene_1" xmlns="http://www.w3.org/2000/svg" xmlns:xlink="http://www.w3.org/1999/xlink" x="0px" y="0px"
	 width="870px" height="304px" viewBox="0 0 870 304" style="enable-background:new 0 0 870 304;" xml:space="preserve">
<line style="fill:none;stroke:#0398D6;" x1="158.659" y1="55.778" x2="273.659" y2="55.778"/>
<path style="fill:#FFFFFF;stroke:#000000;" d="M239.889,76.854c-5.829,5.606-9.827,7.289-9.776,15.997
	c0.035,6.021,0.071,12.044,0.106,18.065c0.148,25.173,0.296,50.35,0.444,75.525c0.037,6.473-4.767,36.998,3.96,41.008
	c7.166,3.29,13.089,2.757,21.253,2.746c95.312-0.127,190.625-0.252,285.937-0.377c52.586-0.068,105.172-0.142,157.758-0.209
	c16.743-0.021,33.484-0.043,50.227-0.064c5.266-0.007,13.706,1.512,18.794-0.023c4.479-1.354,9.775-7.01,13.427-9.629
	c10.942-7.844,21.884-15.687,32.826-23.529c15.336-10.995,31.595-21.401,46.251-33.159c13.916-11.163,7.642-19.109-5.608-28.211
	c-19.312-13.264-38.621-26.527-57.932-39.794c-6.6-4.533-19.966-18.345-28.708-18.345c-9.813,0-19.627,0-29.439,0
	c-44.822,0-89.646,0-134.469,0c-106.643,0-213.285,0-319.928,0C269.971,76.854,254.929,76.854,239.889,76.854"/>
<polygon style="fill:#333B97;stroke:#000000;" points="764.077,84.718 828.003,153.034 766.334,221.35 245.154,221.35 
	241.392,220.65 239.137,217.864 239.137,90.296 241.392,88.901 243.649,86.112 248.163,85.417 "/>
<polygon style="fill:#333B97;stroke:#FFFFFF;stroke-width:2;" points="261.909,106.077 357.788,105.837 358.149,201.598 
	262.509,201.956 "/>
<polygon style="fill:#FFFFFF;" points="268.268,151.197 274.989,151.317 275.829,151.317 276.428,151.797 277.148,152.518 
	277.628,153.236 277.628,165.357 283.628,165.236 285.668,153.718 286.148,152.518 286.869,151.917 287.829,151.558 
	288.668,151.438 331.989,151.077 333.069,151.197 333.908,151.677 334.628,152.757 336.668,165.118 342.788,165.357 
	342.908,152.757 343.268,152.038 343.868,151.677 344.588,151.438 345.549,151.438 351.788,151.197 351.668,143.997 
	268.268,144.356 "/>
<polygon style="fill:#FFFFFF;" points="290.229,156.837 304.389,156.837 304.628,195.837 282.548,195.837 "/>
<polygon style="fill:#FFFFFF;" points="315.668,156.717 329.948,156.837 337.989,195.718 315.908,196.077 "/>
<polygon style="fill:#FFFFFF;" points="298.868,112.077 304.389,111.957 304.508,138.598 293.589,138.598 "/>
<polygon style="fill:#FFFFFF;" points="315.548,111.957 320.948,112.077 326.229,138.598 315.548,138.717 "/>
<line style="fill:none;stroke:#0398D6;" x1="239.094" y1="35.889" x2="239.094" y2="122.367"/>
<line style="fill:none;stroke:#0398D6;" x1="260.482" y1="37.762" x2="260.482" y2="111.1"/>
<path style="fill:#007AC2;" d="M171.945,46.333c-1.133-1.43-1.698-3.758-1.698-6.984c0-2.031,0.209-3.666,0.627-4.904
	c0.418-1.238,1.039-2.193,1.862-2.865c0.824-0.672,1.861-1.008,3.111-1.008c0.922,0,1.73,0.186,2.426,0.557
	c0.696,0.371,1.271,0.906,1.724,1.605c0.453,0.699,0.809,1.551,1.065,2.555s0.388,2.357,0.388,4.061
	c0,2.016-0.207,3.643-0.621,4.881s-1.033,2.195-1.857,2.871c-0.824,0.676-1.865,1.014-3.123,1.014
	C174.191,48.114,172.891,47.52,171.945,46.333L171.945,46.333z M173.504,33.547c-0.728,1.047-1.09,2.98-1.09,5.801
	c0,2.821,0.33,4.697,0.989,5.631c0.66,0.934,1.476,1.4,2.443,1.4s1.783-0.469,2.443-1.406s0.989-2.813,0.989-5.625
	c0-2.828-0.329-4.707-0.989-5.637c-0.66-0.93-1.482-1.395-2.468-1.395C174.855,32.317,174.082,32.727,173.504,33.547L173.504,33.547
	z"/>
<path style="fill:#007AC2;" d="M184.73,47.821v-2.402h2.402v2.402c0,0.883-0.156,1.596-0.469,2.139
	c-0.313,0.543-0.81,0.963-1.488,1.26l-0.586-0.902c0.445-0.195,0.772-0.482,0.983-0.861c0.212-0.379,0.328-0.924,0.353-1.635h-1.195
	V47.821z"/>
<path style="fill:#007AC2;" d="M190.262,43.321l2.215-0.188c0.164,1.078,0.545,1.889,1.144,2.432
	c0.598,0.543,1.317,0.814,2.162,0.814c1.016,0,1.875-0.383,2.577-1.148c0.703-0.765,1.056-1.781,1.056-3.047
	c0-1.203-0.338-2.152-1.015-2.848c-0.676-0.696-1.561-1.043-2.653-1.043c-0.681,0-1.293,0.154-1.841,0.463
	c-0.547,0.309-0.977,0.709-1.288,1.201l-1.98-0.258l1.664-8.824h8.543v2.016h-6.855l-0.926,4.617
	c1.031-0.719,2.113-1.078,3.246-1.078c1.5,0,2.767,0.52,3.797,1.559c1.031,1.039,1.547,2.375,1.547,4.008
	c0,1.555-0.452,2.898-1.358,4.031c-1.103,1.391-2.605,2.086-4.512,2.086c-1.563,0-2.839-0.438-3.826-1.313
	C190.969,45.926,190.402,44.766,190.262,43.321z"/>
<path style="fill:#007AC2;" d="M204.535,47.821v-17.18h2.272v7.055h8.93v-7.055h2.273v17.18h-2.273v-8.098h-8.93v8.098H204.535z"/>
<path style="fill:#007AC2;" d="M229.648,43.262l2.074,0.27c-0.227,1.43-0.807,2.549-1.74,3.357c-0.933,0.808-2.08,1.213-3.438,1.213
	c-1.703,0-3.072-0.557-4.107-1.67c-1.035-1.113-1.553-2.709-1.553-4.787c0-1.344,0.223-2.52,0.668-3.527
	c0.445-1.007,1.123-1.764,2.033-2.268s1.899-0.756,2.971-0.756c1.353,0,2.457,0.342,3.316,1.025
	c0.858,0.683,1.409,1.654,1.651,2.912l-2.051,0.316c-0.195-0.836-0.541-1.465-1.037-1.887s-1.096-0.633-1.799-0.633
	c-1.063,0-1.926,0.381-2.59,1.143c-0.664,0.762-0.996,1.967-0.996,3.615c0,1.672,0.32,2.887,0.961,3.645
	c0.641,0.758,1.477,1.137,2.508,1.137c0.828,0,1.521-0.254,2.074-0.762C229.147,45.097,229.5,44.317,229.648,43.262z"/>
<ellipse style="fill:#343895;stroke:#005FAD;" cx="260.659" cy="56.889" rx="4.057" ry="3.605"/>
<ellipse style="fill:#343895;stroke:#005FAD;" cx="239.159" cy="56.889" rx="4.057" ry="3.605"/>
<line style="fill:none;stroke:#0398D6;" x1="325.603" y1="55.278" x2="460.103" y2="55.278"/>
<line style="fill:none;stroke:#0398D6;" x1="359.036" y1="38.262" x2="359.036" y2="116.867"/>
<line style="fill:none;stroke:#0398D6;" x1="380.425" y1="35.889" x2="380.425" y2="105.6"/>
<path style="fill:#007AC2;" d="M395.055,46.833c-1.133-1.43-1.699-3.758-1.699-6.984c0-2.031,0.209-3.666,0.627-4.904
	c0.418-1.238,1.039-2.193,1.863-2.865s1.86-1.008,3.11-1.008c0.923,0,1.73,0.186,2.427,0.557c0.695,0.371,1.27,0.906,1.723,1.605
	c0.453,0.699,0.809,1.551,1.066,2.555c0.257,1.004,0.387,2.357,0.387,4.061c0,2.016-0.207,3.643-0.621,4.881
	s-1.033,2.195-1.857,2.871c-0.823,0.676-1.864,1.014-3.123,1.014C397.301,48.614,396,48.02,395.055,46.833L395.055,46.833z
	 M396.614,34.047c-0.727,1.047-1.09,2.98-1.09,5.801c0,2.821,0.33,4.697,0.99,5.631s1.475,1.4,2.442,1.4
	c0.969,0,1.783-0.469,2.443-1.406s0.99-2.813,0.99-5.625c0-2.828-0.33-4.707-0.99-5.637c-0.66-0.93-1.481-1.395-2.467-1.395
	C397.965,32.817,397.192,33.227,396.614,34.047L396.614,34.047z"/>
<path style="fill:#007AC2;" d="M407.84,48.321v-2.402h2.401v2.402c0,0.883-0.155,1.596-0.469,2.139
	c-0.313,0.543-0.809,0.963-1.488,1.26l-0.586-0.902c0.445-0.195,0.773-0.482,0.984-0.861s0.328-0.924,0.352-1.635h-1.194V48.321z"/>
<path style="fill:#007AC2;" d="M413.371,43.821l2.216-0.188c0.164,1.078,0.545,1.889,1.143,2.432s1.318,0.814,2.162,0.814
	c1.016,0,1.875-0.383,2.578-1.148s1.055-1.781,1.055-3.047c0-1.203-0.338-2.152-1.014-2.848c-0.676-0.696-1.562-1.043-2.654-1.043
	c-0.68,0-1.293,0.154-1.84,0.463c-0.547,0.309-0.978,0.709-1.289,1.201l-1.98-0.258l1.664-8.824h8.543v2.016H417.1l-0.926,4.617
	c1.03-0.719,2.112-1.078,3.246-1.078c1.5,0,2.766,0.52,3.797,1.559c1.03,1.039,1.547,2.375,1.547,4.008
	c0,1.555-0.453,2.898-1.359,4.031c-1.102,1.391-2.604,2.086-4.512,2.086c-1.563,0-2.838-0.438-3.826-1.313
	S413.512,45.266,413.371,43.821z"/>
<path style="fill:#007AC2;" d="M427.645,48.321v-17.18h2.273v7.055h8.93v-7.055h2.272v17.18h-2.272v-8.098h-8.93v8.098H427.645z"/>
<path style="fill:#007AC2;" d="M452.758,43.762l2.073,0.27c-0.227,1.43-0.807,2.549-1.739,3.357
	c-0.934,0.808-2.08,1.213-3.439,1.213c-1.703,0-3.072-0.557-4.106-1.67c-1.035-1.113-1.554-2.709-1.554-4.787
	c0-1.344,0.224-2.52,0.668-3.527c0.445-1.007,1.123-1.764,2.033-2.268s1.9-0.756,2.971-0.756c1.353,0,2.457,0.342,3.316,1.025
	c0.859,0.683,1.41,1.654,1.652,2.912l-2.051,0.316c-0.195-0.836-0.541-1.465-1.037-1.887s-1.097-0.633-1.8-0.633
	c-1.063,0-1.926,0.381-2.59,1.143c-0.664,0.762-0.996,1.967-0.996,3.615c0,1.672,0.32,2.887,0.961,3.645
	c0.642,0.758,1.478,1.137,2.509,1.137c0.828,0,1.52-0.254,2.073-0.762C452.257,45.597,452.61,44.817,452.758,43.762z"/>
<ellipse style="fill:#343895;stroke:#005FAD;" cx="380.602" cy="54.994" rx="4.057" ry="3.605"/>
<ellipse style="fill:#343895;stroke:#005FAD;" cx="359.102" cy="54.994" rx="4.057" ry="3.605"/>
<line style="fill:none;stroke:#0398D6;" x1="711.602" y1="56.945" x2="846.102" y2="56.945"/>
<line style="fill:none;stroke:#0398D6;" x1="742.704" y1="42.928" x2="742.704" y2="122.889"/>
<line style="fill:none;stroke:#0398D6;" x1="764.092" y1="42.928" x2="764.092" y2="121.266"/>
<path style="fill:#007AC2;" d="M774.39,49.166c-1.133-1.43-1.699-3.758-1.699-6.984c0-2.031,0.209-3.666,0.627-4.904
	c0.418-1.238,1.039-2.193,1.863-2.865s1.861-1.008,3.111-1.008c0.922,0,1.729,0.186,2.426,0.557s1.27,0.906,1.723,1.605
	c0.453,0.699,0.81,1.551,1.066,2.555s0.387,2.357,0.387,4.061c0,2.016-0.207,3.643-0.621,4.881s-1.033,2.195-1.856,2.871
	c-0.824,0.676-1.865,1.014-3.123,1.014C776.636,50.947,775.335,50.353,774.39,49.166L774.39,49.166z M775.948,36.38
	c-0.727,1.047-1.09,2.98-1.09,5.801c0,2.821,0.33,4.697,0.99,5.631s1.475,1.4,2.442,1.4c0.969,0,1.783-0.469,2.443-1.406
	s0.99-2.813,0.99-5.625c0-2.828-0.33-4.707-0.99-5.637c-0.66-0.93-1.482-1.395-2.467-1.395C777.3,35.15,776.527,35.56,775.948,36.38
	L775.948,36.38z"/>
<path style="fill:#007AC2;" d="M787.175,50.654v-2.402h2.401v2.402c0,0.883-0.155,1.596-0.469,2.139
	c-0.313,0.543-0.809,0.963-1.488,1.26l-0.586-0.902c0.445-0.195,0.773-0.482,0.984-0.861s0.328-0.924,0.352-1.635h-1.194V50.654z"/>
<path style="fill:#007AC2;" d="M792.706,46.154l2.216-0.188c0.164,1.078,0.545,1.889,1.143,2.432s1.318,0.814,2.162,0.814
	c1.016,0,1.875-0.383,2.578-1.148s1.055-1.781,1.055-3.047c0-1.203-0.338-2.152-1.014-2.848c-0.676-0.696-1.562-1.043-2.654-1.043
	c-0.68,0-1.293,0.154-1.84,0.463c-0.547,0.309-0.977,0.709-1.289,1.201l-1.98-0.258l1.664-8.824h8.543v2.016h-6.854l-0.926,4.617
	c1.03-0.719,2.112-1.078,3.246-1.078c1.5,0,2.766,0.52,3.797,1.559c1.03,1.039,1.547,2.375,1.547,4.008
	c0,1.555-0.453,2.898-1.359,4.031c-1.102,1.391-2.604,2.086-4.512,2.086c-1.563,0-2.838-0.438-3.826-1.313
	S792.847,47.599,792.706,46.154z"/>
<path style="fill:#007AC2;" d="M806.98,50.654v-17.18h2.273v7.055h8.93v-7.055h2.272v17.18h-2.272v-8.098h-8.93v8.098H806.98z"/>
<path style="fill:#007AC2;" d="M832.093,46.095l2.073,0.271c-0.227,1.43-0.807,2.549-1.739,3.357
	c-0.934,0.808-2.08,1.213-3.439,1.213c-1.703,0-3.072-0.557-4.106-1.67c-1.035-1.113-1.554-2.709-1.554-4.787
	c0-1.344,0.224-2.52,0.668-3.527c0.445-1.007,1.123-1.764,2.033-2.268s1.9-0.756,2.972-0.756c1.352,0,2.457,0.342,3.315,1.025
	c0.859,0.683,1.41,1.654,1.652,2.912l-2.052,0.316c-0.194-0.836-0.541-1.465-1.036-1.887c-0.496-0.422-1.097-0.633-1.8-0.633
	c-1.063,0-1.926,0.381-2.59,1.143c-0.664,0.762-0.996,1.967-0.996,3.615c0,1.672,0.32,2.887,0.961,3.645
	c0.642,0.758,1.478,1.137,2.509,1.137c0.827,0,1.52-0.254,2.073-0.762C831.592,47.93,831.945,47.15,832.093,46.095z"/>
<ellipse style="fill:#343895;stroke:#005FAD;" cx="763.992" cy="56.222" rx="4.058" ry="3.605"/>
<ellipse style="fill:#343895;stroke:#005FAD;" cx="742.103" cy="57.055" rx="4.057" ry="3.605"/>
<line style="fill:none;stroke:#0398D6;" x1="83.659" y1="105.778" x2="256.659" y2="105.778"/>
<line style="fill:none;stroke:#0398D6;" x1="82.659" y1="200.777" x2="254.659" y2="200.777"/>
<line style="fill:none;stroke:#0398D6;" x1="14.659" y1="84.778" x2="255.659" y2="84.778"/>
<line style="fill:none;stroke:#0398D6;" x1="14.659" y1="219.777" x2="253.659" y2="219.777"/>
<line style="fill:none;stroke:#0398D6;" x1="103.482" y1="16.889" x2="103.482" y2="272.889"/>
<line style="fill:none;stroke:#0398D6;" x1="27.482" y1="72.889" x2="27.482" y2="227.889"/>
<path style="fill:#007AC2;" d="M93.223,172.07h2.027v11.354c-0.508,0.017-0.996-0.065-1.465-0.245
	c-0.773-0.289-1.535-0.753-2.285-1.39c-0.75-0.638-1.617-1.558-2.603-2.76c-1.53-1.867-2.744-3.13-3.639-3.785
	c-0.896-0.656-1.74-0.984-2.537-0.984c-0.836,0-1.541,0.3-2.115,0.896c-0.573,0.597-0.86,1.377-0.86,2.338
	c0,1.016,0.305,1.828,0.914,2.438c0.608,0.609,1.452,0.918,2.53,0.926l-0.223,2.168c-1.617-0.148-2.85-0.707-3.697-1.676
	c-0.847-0.97-1.271-2.27-1.271-3.902c0-1.648,0.457-2.953,1.371-3.914s2.047-1.441,3.397-1.441c0.688,0,1.363,0.141,2.027,0.422
	s1.363,0.748,2.098,1.4c0.735,0.652,1.742,1.736,3.023,3.252c1.063,1.266,1.783,2.078,2.162,2.438
	c0.379,0.36,0.76,0.656,1.143,0.892L93.223,172.07L93.223,172.07z"/>
<path style="fill:#007AC2;" d="M95.25,168.672h-2.402v-2.402h2.402c0.883,0,1.596,0.156,2.139,0.47
	c0.543,0.313,0.963,0.809,1.26,1.487l-0.901,0.586c-0.195-0.444-0.482-0.772-0.861-0.983s-0.924-0.328-1.635-0.353L95.25,168.672
	L95.25,168.672z"/>
<path style="fill:#007AC2;" d="M90.75,163.141l-0.188-2.215c1.078-0.164,1.89-0.545,2.433-1.143s0.813-1.318,0.813-2.162
	c0-1.016-0.383-1.875-1.147-2.578c-0.766-0.703-1.781-1.055-3.048-1.055c-1.202,0-2.151,0.338-2.848,1.014s-1.043,1.561-1.043,2.654
	c0,0.68,0.154,1.293,0.463,1.84c0.31,0.547,0.709,0.977,1.201,1.289l-0.258,1.98l-8.824-1.664v-8.543h2.016v6.854l4.617,0.926
	c-0.719-1.03-1.078-2.112-1.078-3.246c0-1.5,0.521-2.766,1.56-3.797c1.039-1.031,2.375-1.547,4.008-1.547
	c1.555,0,2.898,0.453,4.031,1.358c1.391,1.103,2.086,2.605,2.086,4.513c0,1.563-0.438,2.838-1.313,3.825
	C93.355,162.434,92.195,163,90.75,163.141z"/>
<path style="fill:#007AC2;" d="M95.25,142.199H78.07v-2.273h7.056v-8.93H78.07v-2.273H95.25v2.273h-8.099v8.93h8.099V142.199z"/>
<path style="fill:#007AC2;" d="M90.691,117.086l0.271-2.074c1.43,0.227,2.549,0.807,3.356,1.74c0.809,0.933,1.213,2.08,1.213,3.439
	c0,1.703-0.557,3.072-1.67,4.107c-1.112,1.035-2.709,1.553-4.786,1.553c-1.345,0-2.521-0.223-3.527-0.668s-1.764-1.123-2.269-2.033
	c-0.504-0.91-0.756-1.9-0.756-2.971c0-1.352,0.343-2.457,1.025-3.316c0.683-0.859,1.654-1.41,2.912-1.652l0.315,2.051
	c-0.836,0.195-1.465,0.541-1.887,1.037s-0.633,1.096-0.633,1.799c0,1.063,0.381,1.926,1.143,2.59
	c0.763,0.664,1.968,0.996,3.615,0.996c1.672,0,2.887-0.32,3.646-0.961c0.758-0.641,1.137-1.477,1.137-2.508
	c0-0.828-0.254-1.52-0.762-2.074C92.526,117.587,91.746,117.234,90.691,117.086z"/>
<path style="fill:#007AC2;" d="M12.715,170.813l-0.281-2.108c1.195-0.242,2.058-0.654,2.584-1.236
	c0.527-0.581,0.791-1.291,0.791-2.127c0-0.991-0.344-1.83-1.031-2.514c-0.687-0.685-1.539-1.025-2.555-1.025
	c-0.969,0-1.768,0.316-2.396,0.949s-0.943,1.438-0.943,2.414c0,0.397,0.078,0.896,0.234,1.488l-1.853-0.234
	c0.017-0.141,0.023-0.254,0.023-0.34c0-0.897-0.234-1.707-0.703-2.426c-0.469-0.72-1.191-1.078-2.168-1.078
	c-0.773,0-1.414,0.262-1.922,0.784c-0.509,0.523-0.763,1.199-0.763,2.027c0,0.82,0.259,1.504,0.773,2.051s1.289,0.898,2.32,1.056
	l-0.375,2.108c-1.414-0.258-2.511-0.844-3.287-1.758C0.388,167.93,0,166.793,0,165.434c0-0.938,0.201-1.801,0.604-2.59
	c0.403-0.789,0.951-1.393,1.646-1.811c0.694-0.418,1.434-0.627,2.215-0.627c0.742,0,1.418,0.199,2.027,0.598
	c0.608,0.398,1.094,0.988,1.452,1.77c0.234-1.016,0.722-1.805,1.459-2.366c0.738-0.563,1.662-0.845,2.771-0.845
	c1.5,0,2.771,0.547,3.813,1.642c1.044,1.094,1.564,2.478,1.564,4.147c0,1.508-0.449,2.76-1.348,3.756
	C15.306,170.104,14.145,170.672,12.715,170.813z"/>
<path style="fill:#007AC2;" d="M17.25,149.883H0.07v-2.273h7.056v-8.93H0.07v-2.273H17.25v2.273H9.152v8.93h8.099V149.883z"/>
<path style="fill:#007AC2;" d="M12.691,124.77l0.271-2.074c1.43,0.227,2.549,0.807,3.356,1.74c0.809,0.933,1.213,2.08,1.213,3.439
	c0,1.703-0.557,3.072-1.67,4.107c-1.112,1.035-2.709,1.553-4.786,1.553c-1.345,0-2.521-0.223-3.527-0.668
	c-1.007-0.445-1.764-1.123-2.269-2.033c-0.504-0.91-0.756-1.9-0.756-2.971c0-1.352,0.343-2.457,1.025-3.316
	c0.683-0.859,1.654-1.41,2.912-1.652l0.315,2.051c-0.836,0.195-1.465,0.541-1.887,1.037s-0.633,1.096-0.633,1.799
	c0,1.063,0.381,1.926,1.143,2.59c0.763,0.664,1.968,0.996,3.615,0.996c1.672,0,2.887-0.32,3.646-0.961
	c0.758-0.641,1.137-1.477,1.137-2.508c0-0.828-0.254-1.52-0.762-2.074C14.526,125.271,13.746,124.918,12.691,124.77z"/>
<path style="fill:#007AC2;" d="M91.762,73.125c-1.43,1.133-3.758,1.699-6.984,1.699c-2.03,0-3.666-0.209-4.903-0.627
	c-1.238-0.418-2.193-1.039-2.865-1.863S76,70.473,76,69.223c0-0.922,0.186-1.73,0.557-2.426c0.371-0.696,0.906-1.27,1.605-1.723
	c0.698-0.453,1.551-0.809,2.555-1.066c1.004-0.257,2.357-0.387,4.061-0.387c2.017,0,3.644,0.207,4.882,0.621
	c1.237,0.414,2.194,1.033,2.87,1.857c0.677,0.824,1.015,1.865,1.015,3.123C93.543,70.879,92.949,72.18,91.762,73.125L91.762,73.125z
	 M78.977,71.566c1.047,0.727,2.98,1.09,5.801,1.09c2.821,0,4.697-0.33,5.632-0.99c0.934-0.66,1.399-1.475,1.399-2.443
	c0-0.968-0.469-1.783-1.406-2.443c-0.937-0.66-2.813-0.99-5.625-0.99c-2.827,0-4.707,0.33-5.637,0.99
	c-0.93,0.66-1.395,1.482-1.395,2.467C77.746,70.215,78.156,70.988,78.977,71.566L78.977,71.566z"/>
<path style="fill:#007AC2;" d="M93.25,60.34h-2.402v-2.402h2.402c0.883,0,1.596,0.156,2.139,0.469
	c0.543,0.313,0.963,0.809,1.26,1.488l-0.901,0.586c-0.195-0.445-0.482-0.773-0.861-0.984s-0.924-0.328-1.635-0.352L93.25,60.34
	L93.25,60.34z"/>
<path style="fill:#007AC2;" d="M91.223,43.723h2.027v11.355c-0.508,0.016-0.996-0.066-1.465-0.246
	c-0.773-0.289-1.535-0.752-2.285-1.389c-0.75-0.637-1.617-1.557-2.603-2.76c-1.53-1.867-2.744-3.129-3.639-3.785
	c-0.896-0.656-1.74-0.984-2.537-0.984c-0.836,0-1.541,0.299-2.115,0.896c-0.573,0.597-0.86,1.377-0.86,2.338
	c0,1.016,0.305,1.828,0.914,2.438c0.608,0.61,1.452,0.918,2.53,0.926l-0.223,2.168c-1.617-0.148-2.85-0.707-3.697-1.676
	C76.424,52.035,76,50.734,76,49.102c0-1.648,0.457-2.953,1.371-3.914s2.047-1.441,3.397-1.441c0.688,0,1.363,0.141,2.027,0.422
	c0.664,0.281,1.363,0.748,2.098,1.4c0.735,0.652,1.742,1.736,3.023,3.252c1.063,1.266,1.783,2.078,2.162,2.438
	c0.379,0.36,0.76,0.656,1.143,0.891L91.223,43.723L91.223,43.723z"/>
<path style="fill:#007AC2;" d="M88.75,41.461l-0.188-2.215c1.078-0.164,1.89-0.545,2.433-1.143s0.813-1.318,0.813-2.162
	c0-1.016-0.383-1.875-1.147-2.578c-0.766-0.703-1.781-1.055-3.048-1.055c-1.202,0-2.151,0.338-2.848,1.014
	c-0.696,0.676-1.043,1.561-1.043,2.654c0,0.68,0.154,1.293,0.463,1.84c0.31,0.547,0.709,0.977,1.201,1.289l-0.258,1.98l-8.824-1.664
	v-8.543h2.016v6.855l4.617,0.926c-0.719-1.031-1.078-2.113-1.078-3.246c0-1.5,0.521-2.766,1.56-3.797
	c1.039-1.031,2.375-1.547,4.008-1.547c1.555,0,2.898,0.453,4.031,1.359c1.391,1.102,2.086,2.605,2.086,4.512
	c0,1.563-0.438,2.838-1.313,3.826C91.355,40.754,90.195,41.32,88.75,41.461z"/>
<path style="fill:#007AC2;" d="M93.25,27.188H76.07v-2.273h7.056v-8.93H76.07v-2.273H93.25v2.273h-8.099v8.93h8.099V27.188z"/>
<path style="fill:#007AC2;" d="M88.691,2.074L88.961,0c1.43,0.227,2.549,0.807,3.356,1.74c0.809,0.933,1.213,2.08,1.213,3.439
	c0,1.703-0.557,3.072-1.67,4.107c-1.112,1.035-2.709,1.553-4.786,1.553c-1.345,0-2.521-0.223-3.527-0.668
	c-1.007-0.445-1.764-1.123-2.269-2.033c-0.504-0.91-0.756-1.9-0.756-2.971c0-1.352,0.343-2.457,1.025-3.316s1.654-1.41,2.912-1.652
	l0.315,2.051c-0.836,0.195-1.465,0.541-1.887,1.037s-0.633,1.096-0.633,1.799c0,1.063,0.381,1.926,1.143,2.59
	c0.763,0.664,1.968,0.996,3.615,0.996c1.672,0,2.887-0.32,3.646-0.961c0.758-0.641,1.137-1.477,1.137-2.508
	c0-0.828-0.254-1.52-0.762-2.074C90.526,2.575,89.746,2.223,88.691,2.074z"/>
<path style="fill:#007AC2;" d="M92.762,301.125c-1.43,1.133-3.758,1.699-6.984,1.699c-2.03,0-3.666-0.209-4.903-0.627
	c-1.238-0.418-2.193-1.039-2.865-1.863S77,298.473,77,297.223c0-0.922,0.186-1.729,0.557-2.426c0.371-0.695,0.906-1.27,1.605-1.723
	c0.698-0.453,1.551-0.809,2.555-1.066c1.004-0.257,2.357-0.387,4.061-0.387c2.017,0,3.644,0.207,4.882,0.621
	c1.237,0.414,2.194,1.033,2.87,1.857c0.677,0.823,1.015,1.864,1.015,3.123C94.543,298.879,93.949,300.18,92.762,301.125
	L92.762,301.125z M79.977,299.566c1.047,0.727,2.98,1.09,5.801,1.09c2.821,0,4.697-0.33,5.632-0.99
	c0.934-0.66,1.399-1.475,1.399-2.443c0-0.968-0.469-1.783-1.406-2.442c-0.937-0.66-2.813-0.99-5.625-0.99
	c-2.827,0-4.707,0.33-5.637,0.99c-0.93,0.659-1.395,1.481-1.395,2.467C78.746,298.215,79.156,298.988,79.977,299.566L79.977,299.566
	z"/>
<path style="fill:#007AC2;" d="M94.25,288.34h-2.402v-2.402h2.402c0.883,0,1.596,0.156,2.139,0.47
	c0.543,0.313,0.963,0.809,1.26,1.487l-0.901,0.586c-0.195-0.444-0.482-0.772-0.861-0.983s-0.924-0.328-1.635-0.353L94.25,288.34
	L94.25,288.34z"/>
<path style="fill:#007AC2;" d="M92.223,271.723h2.027v11.355c-0.508,0.016-0.996-0.066-1.465-0.246
	c-0.773-0.289-1.535-0.752-2.285-1.389s-1.617-1.558-2.603-2.76c-1.53-1.867-2.744-3.13-3.639-3.785
	c-0.896-0.656-1.74-0.984-2.537-0.984c-0.836,0-1.541,0.299-2.115,0.896c-0.573,0.597-0.86,1.377-0.86,2.338
	c0,1.016,0.305,1.828,0.914,2.438c0.608,0.609,1.452,0.918,2.53,0.926l-0.223,2.168c-1.617-0.147-2.85-0.707-3.697-1.676
	c-0.847-0.969-1.271-2.27-1.271-3.902c0-1.647,0.457-2.953,1.371-3.914s2.047-1.44,3.397-1.44c0.688,0,1.363,0.141,2.027,0.422
	s1.363,0.748,2.098,1.399c0.735,0.652,1.742,1.736,3.023,3.252c1.063,1.267,1.783,2.078,2.162,2.438s0.76,0.656,1.143,0.892
	L92.223,271.723L92.223,271.723z"/>
<path style="fill:#007AC2;" d="M89.75,269.461l-0.188-2.215c1.078-0.164,1.89-0.545,2.433-1.143
	c0.543-0.599,0.813-1.318,0.813-2.162c0-1.017-0.383-1.875-1.147-2.578c-0.766-0.703-1.781-1.055-3.048-1.055
	c-1.202,0-2.151,0.338-2.848,1.014s-1.043,1.561-1.043,2.654c0,0.68,0.154,1.293,0.463,1.84c0.31,0.547,0.709,0.977,1.201,1.289
	l-0.258,1.979l-8.824-1.664v-8.543h2.016v6.854l4.617,0.927c-0.719-1.031-1.078-2.113-1.078-3.246c0-1.5,0.521-2.767,1.56-3.797
	c1.039-1.031,2.375-1.548,4.008-1.548c1.555,0,2.898,0.453,4.031,1.359c1.391,1.103,2.086,2.605,2.086,4.512
	c0,1.563-0.438,2.839-1.313,3.826C92.355,268.754,91.195,269.32,89.75,269.461z"/>
<path style="fill:#007AC2;" d="M94.25,255.188H77.07v-2.272h7.056v-8.931H77.07v-2.272H94.25v2.272h-8.099v8.931h8.099V255.188z"/>
<path style="fill:#007AC2;" d="M89.691,230.074L89.961,228c1.43,0.227,2.549,0.807,3.356,1.74c0.809,0.933,1.213,2.08,1.213,3.439
	c0,1.702-0.557,3.071-1.67,4.106c-1.112,1.034-2.709,1.553-4.786,1.553c-1.345,0-2.521-0.223-3.527-0.668
	c-1.007-0.444-1.764-1.123-2.269-2.032c-0.504-0.91-0.756-1.9-0.756-2.972c0-1.353,0.343-2.457,1.025-3.315
	c0.683-0.859,1.654-1.41,2.912-1.652l0.315,2.051c-0.836,0.195-1.465,0.541-1.887,1.037s-0.633,1.096-0.633,1.799
	c0,1.063,0.381,1.926,1.143,2.59c0.763,0.664,1.968,0.996,3.615,0.996c1.672,0,2.887-0.32,3.646-0.961
	c0.758-0.641,1.137-1.477,1.137-2.508c0-0.828-0.254-1.52-0.762-2.074C91.526,230.575,90.746,230.223,89.691,230.074z"/>
<ellipse style="fill:#343895;stroke:#005FAD;" cx="103.159" cy="105.889" rx="4.057" ry="3.605"/>
<ellipse style="fill:#343895;stroke:#005FAD;" cx="102.659" cy="84.283" rx="4.057" ry="3.605"/>
<ellipse style="fill:#343895;stroke:#005FAD;" cx="102.659" cy="199.283" rx="4.057" ry="3.605"/>
<ellipse style="fill:#343895;stroke:#005FAD;" cx="102.659" cy="219.283" rx="4.057" ry="3.605"/>
<ellipse style="fill:#343895;stroke:#005FAD;" cx="26.659" cy="84.889" rx="4.057" ry="3.605"/>
<ellipse style="fill:#343895;stroke:#005FAD;" cx="25.659" cy="219.283" rx="4.057" ry="3.605"/>
<g>
	<rect x="291.049" y="107.467" style="fill:none;" width="420.553" height="74.844"/>
	<path style="fill:#FFFAFA;" d="M410.965,107.58v7.986h-9.678v33.56h-8.985v-33.645h-10.339v-7.901H410.965z"/>
	<path style="fill:#FFFAFA;" d="M439.993,107.099c5.329,0.699,9.271,3.398,11.826,8.1c2.18,3.474,3.27,7.741,3.27,12.801v0.51
		c0,6.325-1.795,11.706-5.384,16.143c-2.555,2.983-6.166,4.654-10.835,5.013c-0.484,0.038-0.958,0.057-1.42,0.057
		c-4.845,0-8.908-1.756-12.189-5.268c-3.392-4.682-5.109-9.487-5.153-14.415c-0.022-0.415-0.033-0.831-0.033-1.246
		c0-6.665,1.729-12.178,5.186-16.539c2.313-2.379,4.724-3.898,7.234-4.56c1.739-0.472,3.479-0.708,5.219-0.708
		C438.486,106.985,439.245,107.023,439.993,107.099z M437.45,142.471c2.555-0.113,4.712-1.614,6.475-4.503
		c1.276-1.926,2.081-4.758,2.411-8.496c0.066-4.758-0.914-8.656-2.94-11.696c-1.651-2.114-3.479-3.294-5.483-3.54
		c-2.643,0.113-4.845,1.596-6.606,4.446c-1.255,2.001-2.07,4.871-2.444,8.609c-0.044,4.758,0.958,8.647,3.006,11.668
		C433.497,141.074,435.358,142.244,437.45,142.471z"/>
	<path style="fill:#FFFAFA;" d="M474.704,107.665v28.094c0.418,3.587,2.775,5.589,7.069,6.004c4.229-0.396,6.606-2.369,7.135-5.919
		v-28.179h9.349v30.274c-0.815,3.701-2.853,6.58-6.111,8.638c-2.906,1.756-5.88,2.681-8.919,2.775
		c-0.484,0.038-0.958,0.057-1.42,0.057c-4.515,0-8.247-1.123-11.198-3.37c-3.369-2.794-5.153-5.645-5.352-8.553v-29.821H474.704z"/>
	<path style="fill:#FFFAFA;" d="M517.54,107.552l0.033,34.154h18.729l-0.032,7.42h-27.88v-41.574H517.54z"/>
	<path style="fill:#FFFAFA;" d="M562.591,107.099c5.329,0.699,9.271,3.398,11.825,8.1c2.181,3.474,3.271,7.741,3.271,12.801v0.51
		c0,6.325-1.795,11.706-5.385,16.143c-2.555,2.983-6.166,4.654-10.834,5.013c-0.485,0.038-0.958,0.057-1.421,0.057
		c-4.845,0-8.908-1.756-12.189-5.268c-3.391-4.682-5.108-9.487-5.152-14.415c-0.022-0.415-0.033-0.831-0.033-1.246
		c0-6.665,1.729-12.178,5.186-16.539c2.313-2.379,4.725-3.898,7.234-4.56c1.739-0.472,3.479-0.708,5.22-0.708
		C561.082,106.985,561.842,107.023,562.591,107.099z M560.047,142.471c2.555-0.113,4.713-1.614,6.475-4.503
		c1.276-1.926,2.081-4.758,2.411-8.496c0.066-4.758-0.914-8.656-2.939-11.696c-1.652-2.114-3.48-3.294-5.483-3.54
		c-2.643,0.113-4.846,1.596-6.606,4.446c-1.256,2.001-2.07,4.871-2.445,8.609c-0.044,4.758,0.958,8.647,3.007,11.668
		C556.094,141.074,557.954,142.244,560.047,142.471z"/>
	<path style="fill:#FFFAFA;" d="M599.283,107.552l12.156,22.146v-22.146h8.984l0.033,41.574h-8.819l-14.766-26.196l-0.033,26.225
		h-9.084v-41.603H599.283z"/>
</g>
<g>
	<rect x="351.788" y="165.467" style="fill:none;" width="403.731" height="74.844"/>
	<path style="fill:#FFFAFA;" d="M388.067,165.552h11.955l9.355,22.005l9.577-22.005h11.924v41.574h-8.848v-26.253l-11.575,26.253
		h-2.315L396.66,181.1l0.095,26.026h-8.689V165.552z"/>
	<path style="fill:#FFFAFA;" d="M462.994,165.552l11.987,41.489h-9.102l-1.997-7.052h-12.844l-2.029,7.052h-9.196l11.86-41.489
		H462.994z M452.783,192.088h9.165l-4.439-16.199L452.783,192.088z"/>
	<path style="fill:#FFFAFA;" d="M498.696,165.467c4.884,0,8.699,1.567,11.447,4.701c2.41,2.757,3.615,5.862,3.615,9.317
		c0,0.623-0.042,1.359-0.127,2.209c-0.507,4.21-2.864,7.693-7.071,10.45l7.737,14.953h-10.021l-6.628-12.376h-5.739v12.461h-8.784
		l0.031-41.716H498.696z M497.427,186.735l2.601-0.283c1.479-0.358,2.716-1.104,3.71-2.237c0.846-1.114,1.353-2.445,1.522-3.993
		c0.084-1.926-0.551-3.606-1.903-5.041c-1.142-1.171-2.801-1.831-4.979-1.982h-6.374v13.537H497.427z"/>
	<path style="fill:#FFFAFA;" d="M521.996,198.658v-0.057c0-0.208,0.243-0.35,0.729-0.425c3.742-1.076,6.173-1.851,7.294-2.322
		c0.57,0.698,1.32,1.331,2.251,1.897c1.501,0.793,3.107,1.274,4.82,1.444c1.818,0.038,2.949,0,3.394-0.113
		c2.093-0.528,3.382-1.066,3.868-1.614c0.486-0.378,0.909-1.293,1.269-2.747c0.084-0.566,0-1.199-0.254-1.897
		c-0.316-0.472-0.655-0.868-1.015-1.189l-1.078-0.736l-1.205-0.481c-6.702-1.869-10.391-2.964-11.067-3.285
		c-3.107-1.114-5.423-2.955-6.944-5.522c-0.994-1.718-1.438-3.805-1.332-6.259c0.401-3.059,1.808-5.484,4.218-7.278
		c2.706-1.756,5.528-2.709,8.467-2.86h0.824c2.093,0,3.826,0.142,5.201,0.425c2.79,0.698,4.968,1.671,6.532,2.917
		c1.564,1.151,2.854,2.719,3.869,4.701l-0.096,0.312l-6.532,2.804l-0.317-0.142c-0.401-1.151-1.533-2.086-3.393-2.804
		c-2.094-0.698-4.546-0.718-7.357-0.057c-1.205,0.358-2.051,0.821-2.537,1.388c-0.169,0.151-0.392,0.623-0.666,1.416
		c-0.042,0.925,0,1.463,0.127,1.614c0.274,0.642,0.824,1.218,1.649,1.728l0.824,0.312c6.004,1.586,10.073,2.737,12.209,3.455
		c1.839,0.755,3.245,1.586,4.218,2.492l1.775,2.152c1.311,1.944,2.009,4.068,2.094,6.372c0.021,0.151,0.031,0.33,0.031,0.538
		c0,0.736-0.127,1.728-0.381,2.974c-0.528,1.756-1.163,3.049-1.902,3.88c-1.269,1.397-2.188,2.237-2.759,2.521
		c-3.107,1.907-6.311,2.936-9.608,3.087h-2.886c-2.156-0.188-3.976-0.566-5.455-1.133c-2.367-0.981-4.28-2.077-5.739-3.285
		C523.931,201.896,522.884,200.489,521.996,198.658z"/>
	<path style="fill:#FFFAFA;" d="M590.487,165.637v7.59H571.27v9.063h14.08v7.675h-14.08v9.487h20.042v7.675h-28.984l0.031-41.489
		H590.487z"/>
	<path style="fill:#FFFAFA;" d="M610.015,165.608v41.518h-8.815v-41.518H610.015z"/>
	<path style="fill:#FFFAFA;" d="M629.226,165.552l0.031,34.154h17.98l-0.031,7.42h-26.765v-41.574H629.226z"/>
	<path style="fill:#FFFAFA;" d="M665.053,165.552l0.031,34.154h17.98l-0.031,7.42h-26.765v-41.574H665.053z"/>
	<path style="fill:#FFFAFA;" d="M719.779,165.637v7.59h-19.217v9.063h14.08v7.675h-14.08v9.487h20.042v7.675h-28.984l0.031-41.489
		H719.779z"/>
</g>
</svg>
