<?xml version="1.0" encoding="utf-8"?>
<!-- Generator: Adobe Illustrator 13.0.0, SVG Export Plug-In  -->
<!DOCTYPE svg PUBLIC "-//W3C//DTD SVG 1.1//EN" "http://www.w3.org/Graphics/SVG/1.1/DTD/svg11.dtd" [
	<!ENTITY ns_flows "http://ns.adobe.com/Flows/1.0/">
]>
<svg version="1.1"
	 xmlns="http://www.w3.org/2000/svg" xmlns:xlink="http://www.w3.org/1999/xlink" xmlns:a="http://ns.adobe.com/AdobeSVGViewerExtensions/3.0/"
	 x="0px" y="0px" width="788px" height="212px" viewBox="-0.085 -0.167 788 212" enable-background="new -0.085 -0.167 788 212"
	 xml:space="preserve">
<defs>
</defs>
<path stroke="#000000" d="M104.521,60.929c-6.321,5.478-10.657,7.123-10.602,15.632c0.038,5.884,0.077,11.768,0.115,17.652
	c0.161,24.6,0.321,49.2,0.482,73.8c0.04,6.324-5.168,36.154,4.294,40.071c7.771,3.217,14.194,2.695,23.047,2.686
	c103.359-0.125,206.72-0.246,310.08-0.369c57.026-0.066,114.052-0.137,171.078-0.203c18.157-0.02,36.312-0.043,54.467-0.064
	c5.71-0.006,14.863,1.477,20.381-0.023c4.857-1.322,10.602-6.849,14.56-9.407c11.867-7.664,23.732-15.328,35.599-22.994
	c16.631-10.744,34.262-20.912,50.156-32.402c15.091-10.909,8.286-18.673-6.082-27.566c-20.942-12.962-41.883-25.925-62.823-38.885
	c-7.157-4.43-21.651-17.927-31.132-17.927c-10.642,0-21.284,0-31.926,0c-48.607,0-97.216,0-145.822,0
	c-115.647,0-231.294,0-346.941,0C137.143,60.929,120.831,60.929,104.521,60.929"/>
<polygon fill="#FFFFFF" stroke="#000000" points="672.969,69.704 742.293,135.856 675.417,202.009 110.23,202.009 106.151,201.333 
	103.706,198.632 103.706,75.105 106.151,73.755 108.599,71.055 113.493,70.379 "/>
<path stroke="#000000" d="M134.384,95.448h29.666c5.873,0,10.252,0.245,13.137,0.734c2.886,0.489,5.468,1.511,7.746,3.063
	c2.278,1.553,4.177,3.62,5.695,6.202c1.519,2.582,2.278,5.476,2.278,8.682c0,3.477-0.937,6.666-2.81,9.568
	c-1.873,2.903-4.413,5.08-7.619,6.53c4.522,1.316,7.999,3.562,10.429,6.733c2.43,3.173,3.645,6.902,3.645,11.188
	c0,3.375-0.785,6.657-2.354,9.847s-3.713,5.738-6.429,7.644c-2.717,1.907-6.067,3.081-10.049,3.519
	c-2.498,0.271-8.522,0.439-18.073,0.506h-25.262V95.448z M149.369,107.8v17.162h9.821c5.838,0,9.467-0.084,10.884-0.253
	c2.564-0.304,4.582-1.189,6.05-2.658s2.202-3.4,2.202-5.796c0-2.295-0.633-4.159-1.898-5.594c-1.266-1.434-3.147-2.304-5.645-2.607
	c-1.485-0.168-5.755-0.253-12.808-0.253H149.369z M149.369,137.315v19.845h13.872c5.399,0,8.825-0.152,10.277-0.456
	c2.228-0.405,4.041-1.392,5.442-2.961c1.4-1.569,2.101-3.67,2.101-6.303c0-2.228-0.54-4.118-1.62-5.67
	c-1.081-1.552-2.641-2.683-4.683-3.392c-2.042-0.709-6.472-1.063-13.289-1.063H149.369z"/>
<path stroke="#000000" d="M209.208,169.664V95.448h55.029v12.555h-40.044v16.453h37.26v12.504h-37.26v20.199h41.462v12.504H209.208z
	"/>
<path stroke="#000000" d="M345.288,169.664h-16.301l-6.48-16.858H292.84l-6.125,16.858h-15.896l28.907-74.216h15.846
	L345.288,169.664z M317.697,140.302l-10.226-27.54l-10.024,27.54H317.697z"/>
<path stroke="#000000" d="M353.134,95.448h14.985v40.196c0,6.379,0.185,10.514,0.557,12.403c0.641,3.037,2.168,5.476,4.582,7.315
	c2.413,1.84,5.712,2.759,9.897,2.759c4.253,0,7.459-0.869,9.619-2.607c2.159-1.738,3.459-3.873,3.898-6.404
	c0.438-2.531,0.658-6.733,0.658-12.605V95.448h14.985v38.981c0,8.91-0.405,15.205-1.215,18.883c-0.81,3.679-2.304,6.784-4.48,9.315
	s-5.088,4.548-8.733,6.049s-8.404,2.253-14.276,2.253c-7.088,0-12.462-0.819-16.124-2.456c-3.663-1.636-6.556-3.763-8.683-6.378
	c-2.126-2.615-3.527-5.357-4.202-8.227c-0.979-4.252-1.468-10.53-1.468-18.833V95.448z"/>
<path stroke="#000000" d="M447.044,169.664l-26.528-74.216h16.251l18.782,54.928l18.174-54.928h15.896l-26.578,74.216H447.044z"/>
<path stroke="#000000" d="M556.518,169.664h-16.302l-6.479-16.858H504.07l-6.126,16.858h-15.896l28.907-74.216h15.846
	L556.518,169.664z M528.927,140.302l-10.227-27.54l-10.023,27.54H528.927z"/>
<path stroke="#000000" d="M564.01,169.664V95.448h14.985v74.216H564.01z"/>
<path stroke="#000000" d="M589.474,145.516l14.58-1.417c0.878,4.894,2.658,8.488,5.341,10.783c2.684,2.296,6.304,3.443,10.859,3.443
	c4.826,0,8.463-1.021,10.91-3.063c2.446-2.042,3.67-4.43,3.67-7.164c0-1.754-0.515-3.248-1.544-4.48
	c-1.03-1.232-2.827-2.304-5.392-3.215c-1.755-0.607-5.755-1.688-11.998-3.24c-8.033-1.991-13.669-4.438-16.909-7.34
	c-4.556-4.083-6.834-9.062-6.834-14.935c0-3.779,1.071-7.315,3.215-10.606c2.143-3.291,5.23-5.796,9.265-7.518
	c4.032-1.721,8.9-2.582,14.604-2.582c9.315,0,16.327,2.042,21.035,6.125c4.708,4.084,7.18,9.535,7.416,16.352l-14.984,0.658
	c-0.642-3.813-2.018-6.556-4.126-8.227c-2.109-1.671-5.273-2.506-9.492-2.506c-4.354,0-7.764,0.895-10.227,2.683
	c-1.587,1.147-2.379,2.683-2.379,4.607c0,1.755,0.741,3.257,2.228,4.505c1.89,1.587,6.479,3.24,13.77,4.961
	s12.682,3.502,16.175,5.341c3.493,1.84,6.227,4.354,8.201,7.543s2.962,7.13,2.962,11.821c0,4.252-1.182,8.235-3.544,11.947
	c-2.363,3.713-5.704,6.472-10.023,8.277c-4.321,1.805-9.704,2.708-16.149,2.708c-9.384,0-16.589-2.168-21.617-6.505
	C593.457,160.139,590.453,153.818,589.474,145.516z"/>
<line fill="none" stroke="#0398D6" x1="105.35" y1="3.816" x2="105.35" y2="93.422"/>
<line fill="none" stroke="#0398D6" x1="133.238" y1="3.816" x2="133.238" y2="82.154"/>
<line fill="none" stroke="#0398D6" x1="44.915" y1="36.833" x2="143.915" y2="36.833"/>
<line fill="none" stroke="#0398D6" x1="634.915" y1="44.833" x2="777.915" y2="44.833"/>
<path fill="#007AC2" d="M2.549,23.643C0.85,21.498,0,18.006,0,13.166c0-3.047,0.313-5.499,0.94-7.356s1.559-3.29,2.795-4.298
	S6.527,0,8.402,0c1.383,0,2.596,0.278,3.639,0.835s1.904,1.359,2.584,2.408s1.213,2.326,1.6,3.832s0.58,3.536,0.58,6.091
	c0,3.023-0.311,5.464-0.932,7.321s-1.55,3.293-2.786,4.307s-2.798,1.521-4.685,1.521C5.918,26.314,3.967,25.424,2.549,23.643
	L2.549,23.643z M4.887,4.465c-1.09,1.57-1.635,4.471-1.635,8.701s0.495,7.046,1.485,8.446s2.212,2.101,3.665,2.101
	s2.675-0.703,3.665-2.109s1.485-4.219,1.485-8.438c0-4.242-0.495-7.061-1.485-8.455s-2.224-2.092-3.7-2.092
	C6.914,2.619,5.754,3.234,4.887,4.465L4.887,4.465z"/>
<path fill="#007AC2" d="M21.727,25.875v-3.604h3.604v3.604c0,1.324-0.234,2.394-0.703,3.208s-1.213,1.444-2.232,1.89l-0.879-1.354
	c0.668-0.293,1.16-0.724,1.477-1.292s0.492-1.386,0.527-2.452H21.727z"/>
<path fill="#007AC2" d="M30.023,19.125l3.322-0.281c0.246,1.617,0.817,2.833,1.714,3.647s1.978,1.222,3.243,1.222
	c1.523,0,2.813-0.574,3.867-1.723s1.582-2.672,1.582-4.57c0-1.805-0.507-3.229-1.521-4.271s-2.341-1.564-3.981-1.564
	c-1.02,0-1.939,0.231-2.76,0.694s-1.465,1.063-1.934,1.802l-2.971-0.387l2.496-13.236h12.814V3.48H35.613l-1.389,6.926
	c1.547-1.078,3.17-1.617,4.869-1.617c2.25,0,4.148,0.779,5.695,2.338s2.32,3.563,2.32,6.012c0,2.332-0.68,4.348-2.039,6.047
	c-1.652,2.086-3.908,3.129-6.768,3.129c-2.344,0-4.257-0.656-5.739-1.969S30.234,21.293,30.023,19.125z"/>
<path fill="#007AC2" d="M51.434,25.875V0.105h3.41v10.582h13.395V0.105h3.41v25.77h-3.41V13.729H54.844v12.146H51.434z"/>
<path fill="#007AC2" d="M89.104,19.037l3.111,0.404c-0.34,2.145-1.21,3.823-2.61,5.036s-3.12,1.819-5.159,1.819
	c-2.555,0-4.608-0.835-6.161-2.505s-2.329-4.063-2.329-7.181c0-2.016,0.334-3.779,1.002-5.291s1.685-2.646,3.05-3.401
	s2.851-1.134,4.456-1.134c2.027,0,3.686,0.513,4.975,1.538s2.115,2.481,2.479,4.368l-3.076,0.475
	c-0.293-1.254-0.812-2.197-1.556-2.83s-1.644-0.949-2.698-0.949c-1.594,0-2.889,0.571-3.885,1.714s-1.494,2.95-1.494,5.423
	c0,2.508,0.48,4.33,1.441,5.467s2.215,1.705,3.762,1.705c1.242,0,2.279-0.381,3.111-1.143S88.881,20.619,89.104,19.037z"/>
<line fill="none" stroke="#0398D6" x1="648.435" y1="17.651" x2="648.435" y2="131.239"/>
<line fill="none" stroke="#0398D6" x1="674.915" y1="17.562" x2="674.915" y2="119.971"/>
<path fill="#007AC2" d="M692.069,33.952c-1.699-2.145-2.549-5.637-2.549-10.477c0-3.047,0.313-5.499,0.94-7.356
	s1.559-3.29,2.795-4.298s2.792-1.512,4.667-1.512c1.383,0,2.596,0.278,3.639,0.835s1.904,1.359,2.584,2.408s1.213,2.326,1.6,3.832
	s0.58,3.536,0.58,6.091c0,3.023-0.311,5.464-0.932,7.321s-1.55,3.293-2.786,4.307s-2.798,1.521-4.685,1.521
	C695.438,36.624,693.487,35.733,692.069,33.952L692.069,33.952z M694.407,14.774c-1.09,1.57-1.635,4.471-1.635,8.701
	s0.495,7.046,1.485,8.446s2.212,2.101,3.665,2.101s2.675-0.703,3.665-2.109s1.485-4.219,1.485-8.438
	c0-4.242-0.495-7.061-1.485-8.455s-2.224-2.092-3.7-2.092C696.434,12.929,695.274,13.544,694.407,14.774L694.407,14.774z"/>
<path fill="#007AC2" d="M711.247,36.185v-3.604h3.604v3.604c0,1.324-0.234,2.394-0.703,3.208s-1.213,1.444-2.232,1.89l-0.879-1.354
	c0.668-0.293,1.16-0.724,1.477-1.292s0.492-1.386,0.527-2.452H711.247z"/>
<path fill="#007AC2" d="M719.543,29.435l3.322-0.281c0.246,1.617,0.817,2.833,1.714,3.647s1.978,1.222,3.243,1.222
	c1.523,0,2.813-0.574,3.867-1.723s1.582-2.672,1.582-4.57c0-1.805-0.507-3.229-1.521-4.271s-2.341-1.564-3.981-1.564
	c-1.02,0-1.939,0.231-2.76,0.694s-1.465,1.063-1.934,1.802l-2.971-0.387l2.496-13.236h12.814v3.023h-10.283l-1.389,6.926
	c1.547-1.078,3.17-1.617,4.869-1.617c2.25,0,4.148,0.779,5.695,2.338s2.32,3.563,2.32,6.012c0,2.332-0.68,4.348-2.039,6.047
	c-1.652,2.086-3.908,3.129-6.768,3.129c-2.344,0-4.257-0.656-5.739-1.969S719.754,31.603,719.543,29.435z"/>
<path fill="#007AC2" d="M740.954,36.185v-25.77h3.41v10.582h13.395V10.415h3.41v25.77h-3.41V24.038h-13.395v12.146H740.954z"/>
<path fill="#007AC2" d="M778.624,29.347l3.111,0.404c-0.34,2.145-1.21,3.823-2.61,5.036s-3.12,1.819-5.159,1.819
	c-2.555,0-4.608-0.835-6.161-2.505s-2.329-4.063-2.329-7.181c0-2.016,0.334-3.779,1.002-5.291s1.685-2.646,3.05-3.401
	s2.851-1.134,4.456-1.134c2.027,0,3.686,0.513,4.975,1.538s2.115,2.481,2.479,4.368l-3.076,0.475
	c-0.293-1.254-0.812-2.197-1.556-2.83s-1.644-0.949-2.698-0.949c-1.594,0-2.889,0.571-3.885,1.714s-1.494,2.95-1.494,5.423
	c0,2.508,0.48,4.33,1.441,5.467s2.215,1.705,3.762,1.705c1.242,0,2.279-0.381,3.111-1.143S778.401,30.929,778.624,29.347z"/>
<ellipse fill="#343895" stroke="#005FAD" cx="647.915" cy="45.548" rx="4.057" ry="3.605"/>
<ellipse fill="#343895" stroke="#005FAD" cx="674.915" cy="44.943" rx="4.057" ry="3.605"/>
<ellipse fill="#343895" stroke="#005FAD" cx="132.915" cy="36.943" rx="4.057" ry="3.605"/>
<ellipse fill="#343895" stroke="#005FAD" cx="104.915" cy="36.943" rx="4.057" ry="3.605"/>
</svg>
