<?xml version="1.0" encoding="UTF-8" standalone="no"?>
<!-- Generator: Adobe Illustrator 13.0.0, SVG Export Plug-In  -->

<svg
   xmlns:dc="http://purl.org/dc/elements/1.1/"
   xmlns:cc="http://creativecommons.org/ns#"
   xmlns:rdf="http://www.w3.org/1999/02/22-rdf-syntax-ns#"
   xmlns:svg="http://www.w3.org/2000/svg"
   xmlns="http://www.w3.org/2000/svg"
   xmlns:sodipodi="http://sodipodi.sourceforge.net/DTD/sodipodi-0.dtd"
   xmlns:inkscape="http://www.inkscape.org/namespaces/inkscape"
   version="1.1"
   x="0px"
   y="0px"
   width="556.125"
   height="233.71875"
   viewBox="0 -0.11 556.125 233.71875"
   enable-background="new 0 -0.11 600 379"
   xml:space="preserve"
   id="svg5457"
   inkscape:version="0.48.4 r9939"
   sodipodi:docname="E43m.svg"><metadata
     id="metadata5545"><rdf:RDF><cc:Work
         rdf:about=""><dc:format>image/svg+xml</dc:format><dc:type
           rdf:resource="http://purl.org/dc/dcmitype/StillImage" /><dc:title></dc:title></cc:Work></rdf:RDF></metadata><sodipodi:namedview
     pagecolor="#ffffff"
     bordercolor="#666666"
     borderopacity="1"
     objecttolerance="10"
     gridtolerance="10"
     guidetolerance="10"
     inkscape:pageopacity="0"
     inkscape:pageshadow="2"
     inkscape:window-width="1366"
     inkscape:window-height="744"
     id="namedview5543"
     showgrid="false"
     showguides="true"
     inkscape:guide-bbox="true"
     inkscape:zoom="2.0956097"
     inkscape:cx="242.8201"
     inkscape:cy="123.58119"
     inkscape:window-x="0"
     inkscape:window-y="24"
     inkscape:window-maximized="1"
     inkscape:current-layer="svg5457"
     fit-margin-top="0"
     fit-margin-left="0"
     fit-margin-right="0"
     fit-margin-bottom="0"><sodipodi:guide
       orientation="0,1"
       position="379.15081,186.8955"
       id="guide5547" /><sodipodi:guide
       orientation="0,1"
       position="221.63524,49.536646"
       id="guide5549" /><sodipodi:guide
       orientation="1,0"
       position="502.18674,258.06392"
       id="guide5551" /><sodipodi:guide
       orientation="1,0"
       position="55.304908,190.29248"
       id="guide5553" /><sodipodi:guide
       orientation="1,0"
       position="556.40925,248.10936"
       id="guide5600" /><sodipodi:guide
       orientation="1,0"
       position="133.10423,241.41093"
       id="guide5606" /><sodipodi:guide
       orientation="1,0"
       position="227.58747,200.84994"
       id="guide5608" /></sodipodi:namedview><defs
     id="defs5459" /><path
     d="m 555.14037,205.19216 c 0,15.14401 -14.18673,27.42174 -31.68623,27.42174 H 32.692356 c -17.499498,0 -31.685009,-12.27773 -31.685009,-27.42174 V 28.300773 c 0,-15.145006 14.185511,-27.42173169 31.685009,-27.42173169 H 523.45414 c 17.4995,0 31.68623,12.27772969 31.68623,27.42173169 V 205.19216 z"
     id="path5461"
     inkscape:connector-curvature="0"
     style="fill:#aa0000;fill-opacity:1;stroke:#999999;stroke-width:2;stroke-miterlimit:4;stroke-dasharray:none" /><g
     style="font-size:172.44425964px;font-style:normal;font-variant:normal;font-weight:500;font-stretch:normal;text-align:start;line-height:125%;letter-spacing:0px;word-spacing:0px;text-anchor:start;fill:#ffffff;fill-opacity:1;stroke:none;font-family:Caracteres L1;-inkscape-font-specification:Caracteres L1 Medium"
     id="text6310"><path
       d="m 78.380953,47.421966 35.196147,88.579764 0,-88.579764 19.19789,0 0,136.658704 -20.71352,0 -36.795965,-91.779412 0,91.863612 -19.703104,0 0,-136.742904 22.818552,0"
       style="letter-spacing:11.46999836px;fill:#ffffff;font-family:Caracteres L2;-inkscape-font-specification:Caracteres L2 Medium"
       id="path6497" /><path
       d="m 274.35461,47.337764 0,136.742906 -19.5347,0 -0.0842,-106.430438 c -8.42016,6.567801 -17.28936,11.36727 -26.60761,14.398422 l 0,-20.460916 C 239.24265,66.928717 247.52243,58.8454 252.96748,47.337764 l 21.38713,0"
       style="letter-spacing:11.46999836px;fill:#ffffff;font-family:Caracteres L2;-inkscape-font-specification:Caracteres L2 Medium"
       id="path6499" /><path
       d="m 353.10145,163.95656 c 8.19554,-0.56132 14.11769,-4.12584 17.76647,-10.69356 2.0769,-4.88364 3.31185,-11.03033 3.70486,-18.44009 1.01035,-17.12086 1.06648,-30.34045 0.1684,-39.658808 -0.33687,-8.532301 -2.04896,-14.735124 -5.13627,-18.608487 -4.6592,-6.511453 -10.18842,-9.570764 -16.58766,-9.177942 -8.08336,-0.05602 -13.83711,3.396233 -17.26127,10.35676 -2.4138,4.996045 -3.78908,11.058533 -4.12586,18.187481 -0.84204,12.068926 -0.87011,24.755246 -0.0842,38.058986 -3e-5,8.58857 1.79626,15.60534 5.38888,21.05033 2.86281,5.16437 8.25169,8.13947 16.16665,8.92533 m -42.43745,-49.93137 0,-2.86284 c -10e-6,-10.72155 0.64553,-20.909897 1.93663,-30.565073 1.62788,-7.970945 4.35039,-14.370237 8.16752,-19.197896 6.00634,-7.465718 13.92125,-12.096785 23.74477,-13.893214 1.96465,-0.280534 4.01355,-0.42087 6.14669,-0.421007 1.96465,1.37e-4 4.04162,0.112406 6.2309,0.336806 10.83384,0.280807 20.03984,5.108343 27.61803,14.482623 4.09771,4.546988 6.90442,11.226951 8.42013,20.039909 1.40326,8.532492 2.13301,18.945372 2.18923,31.238682 l 0,6.3151 c -9e-5,13.97746 -1.31924,25.90597 -3.95746,35.78555 -3.4804,9.14989 -7.24139,15.63339 -11.28298,19.4505 -7.69045,6.96064 -16.02637,10.44096 -25.00778,10.44096 l -1.34722,0 c -11.73209,-0.39294 -20.91002,-3.70485 -27.53383,-9.93575 -5.22049,-4.88366 -9.26215,-11.31102 -12.12498,-19.2821 -2.24538,-9.0937 -3.36806,-20.2644 -3.36806,-33.51212 0,-2.75051 0.0561,-5.55722 0.16841,-8.42013"
       style="letter-spacing:11.46999836px;fill:#ffffff;font-family:Caracteres L2;-inkscape-font-specification:Caracteres L2 Medium"
       id="path6501" /><path
       d="m 467.04443,46.579953 c 9.37434,1.066686 16.50338,4.294399 21.38713,9.683149 4.88359,4.827664 8.44811,10.300743 10.69356,16.419253 1.1226,4.097904 1.85234,8.223763 2.18924,12.377591 0.11218,1.23505 0.16831,2.470001 0.1684,3.704857 -9e-5,7.522071 -2.46999,14.763377 -7.40971,21.723937 l -47.15273,51.19439 55.65706,0 0,22.39754 -83.44349,0 0.0842,-22.73435 58.94091,-63.235173 c 2.35757,-3.424096 3.48025,-7.016682 3.36805,-10.777766 -0.11234,-3.817025 -1.59989,-8.139354 -4.46267,-12.967 -3.64878,-5.2765 -9.54287,-7.999006 -17.68227,-8.167526 -11.33914,1.066667 -17.7665,7.634361 -19.2821,19.703104 l -20.20831,-0.0842 c -1e-5,-8.64456 2.69443,-17.036614 8.08333,-25.176189 5.7818,-6.904376 12.46176,-11.226705 20.0399,-12.967 3.87322,-0.898009 7.97102,-1.347083 12.29339,-1.34722 2.13305,1.37e-4 4.37842,0.08434 6.73611,0.252604"
       style="letter-spacing:11.46999836px;fill:#ffffff;font-family:Caracteres L2;-inkscape-font-specification:Caracteres L2 Medium"
       id="path6503" /></g></svg>