<?xml version="1.0" encoding="UTF-8" standalone="no"?>
<!-- Generator: Adobe Illustrator 13.0.0, SVG Export Plug-In  -->

<svg
   xmlns:dc="http://purl.org/dc/elements/1.1/"
   xmlns:cc="http://creativecommons.org/ns#"
   xmlns:rdf="http://www.w3.org/1999/02/22-rdf-syntax-ns#"
   xmlns:svg="http://www.w3.org/2000/svg"
   xmlns="http://www.w3.org/2000/svg"
   xmlns:sodipodi="http://sodipodi.sourceforge.net/DTD/sodipodi-0.dtd"
   xmlns:inkscape="http://www.inkscape.org/namespaces/inkscape"
   version="1.1"
   x="0px"
   y="0px"
   width="503.72067"
   height="233.83542"
   viewBox="0 -0.11 503.72067 233.83542"
   enable-background="new 0 -0.11 600 379"
   xml:space="preserve"
   id="svg5457"
   inkscape:version="0.48.4 r9939"
   sodipodi:docname="E43.svg"><metadata
     id="metadata5545"><rdf:RDF><cc:Work
         rdf:about=""><dc:format>image/svg+xml</dc:format><dc:type
           rdf:resource="http://purl.org/dc/dcmitype/StillImage" /><dc:title /></cc:Work></rdf:RDF></metadata><sodipodi:namedview
     pagecolor="#ffffff"
     bordercolor="#666666"
     borderopacity="1"
     objecttolerance="10"
     gridtolerance="10"
     guidetolerance="10"
     inkscape:pageopacity="0"
     inkscape:pageshadow="2"
     inkscape:window-width="1366"
     inkscape:window-height="744"
     id="namedview5543"
     showgrid="false"
     showguides="true"
     inkscape:guide-bbox="true"
     inkscape:zoom="1.5863252"
     inkscape:cx="285.1547"
     inkscape:cy="195.38292"
     inkscape:window-x="0"
     inkscape:window-y="24"
     inkscape:window-maximized="1"
     inkscape:current-layer="svg5457"
     fit-margin-top="0"
     fit-margin-left="0"
     fit-margin-right="0"
     fit-margin-bottom="0"><sodipodi:guide
       orientation="0,1"
       position="379.19374,186.95093"
       id="guide5547" /><sodipodi:guide
       orientation="0,1"
       position="221.67817,49.592079"
       id="guide5549" /><sodipodi:guide
       orientation="1,0"
       position="449.58325,29.600703"
       id="guide5551" /><sodipodi:guide
       orientation="1,0"
       position="55.34784,190.34791"
       id="guide5553" /><sodipodi:guide
       orientation="1,0"
       position="503.7966,342.90342"
       id="guide5600" /><sodipodi:guide
       orientation="1,0"
       position="150.64907,229.53705"
       id="guide5606" /><sodipodi:guide
       orientation="1,0"
       position="222.51327,177.21487"
       id="guide5608" /></sodipodi:namedview><defs
     id="defs5459" /><path
     d="m 502.72068,205.29178 c 0,15.15058 -12.84489,27.43364 -28.6892,27.43364 H 29.688101 C 13.843783,232.72542 1,220.44236 1,205.29178 V 28.32363 C 1,13.172053 13.843783,0.88999947 29.688101,0.88999947 H 474.03148 c 15.84431,0 28.6892,12.28305753 28.6892,27.43363053 v 176.96815 z"
     id="path5461"
     inkscape:connector-curvature="0"
     style="fill:#ffe72c;fill-opacity:1;stroke:#999999;stroke-width:2;stroke-miterlimit:4;stroke-dasharray:none" /><g
     style="font-size:161.00213623px;font-style:normal;font-variant:normal;font-weight:normal;font-stretch:normal;text-align:start;line-height:125%;letter-spacing:0px;word-spacing:0px;text-anchor:start;fill:#000000;fill-opacity:1;stroke:none;font-family:Cabin;-inkscape-font-specification:Cabin"
     id="text6227"
     transform="matrix(1.1813979,0,0,1.1813979,-18.868698,-102.67051)"><path
       d="m 111.30792,126.71079 c 7.54692,0.89108 13.94088,3.90462 19.1819,9.04065 5.29328,5.13624 9.11918,11.21574 11.47769,18.23852 1.10051,3.09225 1.91286,7.15399 2.43704,12.18522 l 0,35.37645 c -0.78623,11.9494 -4.55971,21.59275 -11.32046,28.93007 -6.70849,7.33734 -14.88437,11.24185 -24.52767,11.71353 l -45.596307,0 0.07861,-115.48444 48.269197,0 m -25.7855,92.7649 18.39576,0 c 3.72102,-0.57648 6.8918,-1.93912 9.51233,-4.08794 2.62042,-2.20117 4.84782,-6.02707 6.68222,-11.47769 0.99572,-3.35417 1.28397,-15.56558 0.86475,-36.63428 -2.4633,-10.9011 -8.14974,-17.16403 -17.0593,-18.78882 l -18.39576,0 0,70.98873"
       style="font-weight:500;letter-spacing:6.35999966px;font-family:Caracteres L1;-inkscape-font-specification:Caracteres L1 Medium"
       id="path6232"
       inkscape:connector-curvature="0" /><path
       d="m 286.9168,126.86802 0,69.25922 11.39908,0 0,22.79815 -11.47769,0 0,23.11262 -22.95539,0 0,-23.19123 -46.6969,0 0,-24.1346 47.40443,-67.84416 22.32647,0 m -44.25986,69.10199 22.01201,0 0,-31.8388 -22.01201,31.8388"
       style="font-weight:500;letter-spacing:6.35999966px;font-family:Caracteres L1;-inkscape-font-specification:Caracteres L1 Medium"
       id="path6234"
       inkscape:connector-curvature="0" /><path
       d="m 347.83513,126.86802 0,0.15723 c 2.98731,-0.31434 5.81742,-0.47157 8.49035,-0.47169 8.80475,1.2e-4 15.85383,1.70343 21.14725,5.10993 6.86558,4.45492 11.53002,9.93171 13.99335,16.4304 2.51558,6.49887 4.08786,14.12445 4.71686,22.87677 0.26196,3.61632 0.39299,7.31119 0.39307,11.08462 -8e-5,5.34583 -0.26213,10.87503 -0.78614,16.58762 -0.89105,9.64339 -3.19706,18.08132 -6.91806,25.31381 -7.02295,11.00601 -16.45666,17.24274 -28.30116,18.71021 -0.99583,0.0524 -1.9392,0.0786 -2.83011,0.0786 -22.85059,0 -36.66049,-9.19786 -41.42975,-27.59362 l 21.85478,-5.81746 1.25783,2.35843 c 2.51563,5.39821 7.8614,8.09729 16.03732,8.09727 7.18006,-0.36684 11.97553,-3.35418 14.38642,-8.96203 1.25777,-2.46322 2.5418,-9.90536 3.85211,-22.32647 -10.95365,7.59943 -22.56236,9.22413 -34.82615,4.87409 -11.58253,-4.87404 -18.63161,-12.34239 -21.14725,-22.40508 -0.4717,-2.93486 -0.70754,-5.76498 -0.70753,-8.49035 -1e-5,-9.01435 2.69908,-16.87578 8.09727,-23.5843 5.92226,-6.86554 13.41682,-10.87487 22.4837,-12.02799 l 0.23584,0 m 5.26716,47.32582 c 11.16318,0.41935 17.42612,-3.6948 18.78883,-12.34245 -0.15729,-8.38543 -4.69072,-13.10229 -13.60028,-14.15057 -11.21568,-0.94328 -17.55723,2.90882 -19.02467,11.5563 -0.26208,8.96211 4.34996,13.94101 13.83612,14.93672"
       style="font-weight:500;letter-spacing:6.35999966px;font-family:Caracteres L1;-inkscape-font-specification:Caracteres L1 Medium"
       id="path6236"
       inkscape:connector-curvature="0" /></g></svg>