<?xml version="1.0" encoding="UTF-8" standalone="no"?>
<!-- Generator: Adobe Illustrator 13.0.0, SVG Export Plug-In  -->

<svg
   xmlns:dc="http://purl.org/dc/elements/1.1/"
   xmlns:cc="http://creativecommons.org/ns#"
   xmlns:rdf="http://www.w3.org/1999/02/22-rdf-syntax-ns#"
   xmlns:svg="http://www.w3.org/2000/svg"
   xmlns="http://www.w3.org/2000/svg"
   xmlns:sodipodi="http://sodipodi.sourceforge.net/DTD/sodipodi-0.dtd"
   xmlns:inkscape="http://www.inkscape.org/namespaces/inkscape"
   version="1.1"
   x="0px"
   y="0px"
   width="503.72067"
   height="233.83542"
   viewBox="0 -0.11 503.72067 233.83542"
   enable-background="new 0 -0.11 600 379"
   xml:space="preserve"
   id="svg5457"
   inkscape:version="0.48.4 r9939"
   sodipodi:docname="E43.svg"><metadata
     id="metadata5545"><rdf:RDF><cc:Work
         rdf:about=""><dc:format>image/svg+xml</dc:format><dc:type
           rdf:resource="http://purl.org/dc/dcmitype/StillImage" /><dc:title></dc:title></cc:Work></rdf:RDF></metadata><sodipodi:namedview
     pagecolor="#ffffff"
     bordercolor="#666666"
     borderopacity="1"
     objecttolerance="10"
     gridtolerance="10"
     guidetolerance="10"
     inkscape:pageopacity="0"
     inkscape:pageshadow="2"
     inkscape:window-width="1366"
     inkscape:window-height="744"
     id="namedview5543"
     showgrid="false"
     showguides="true"
     inkscape:guide-bbox="true"
     inkscape:zoom="1.5863252"
     inkscape:cx="264.92602"
     inkscape:cy="107.90375"
     inkscape:window-x="0"
     inkscape:window-y="24"
     inkscape:window-maximized="1"
     inkscape:current-layer="svg5457"
     fit-margin-top="0"
     fit-margin-left="0"
     fit-margin-right="0"
     fit-margin-bottom="0"><sodipodi:guide
       orientation="0,1"
       position="379.19374,186.95093"
       id="guide5547" /><sodipodi:guide
       orientation="0,1"
       position="221.67817,49.592079"
       id="guide5549" /><sodipodi:guide
       orientation="1,0"
       position="449.58325,29.600703"
       id="guide5551" /><sodipodi:guide
       orientation="1,0"
       position="55.34784,190.34791"
       id="guide5553" /><sodipodi:guide
       orientation="1,0"
       position="503.7966,342.90342"
       id="guide5600" /><sodipodi:guide
       orientation="1,0"
       position="150.64907,229.53705"
       id="guide5606" /><sodipodi:guide
       orientation="1,0"
       position="222.51327,177.21487"
       id="guide5608" /></sodipodi:namedview><defs
     id="defs5459" /><path
     d="m 502.72068,205.29178 c 0,15.15058 -12.84489,27.43364 -28.6892,27.43364 H 29.688101 C 13.843783,232.72542 1,220.44236 1,205.29178 V 28.32363 C 1,13.172053 13.843783,0.88999947 29.688101,0.88999947 H 474.03148 c 15.84431,0 28.6892,12.28305753 28.6892,27.43363053 v 176.96815 z"
     id="path5461"
     inkscape:connector-curvature="0"
     style="fill:#ffffff;fill-opacity:1;stroke:#999999;stroke-width:2;stroke-miterlimit:4;stroke-dasharray:none" /><g
     style="font-size:190.00508118px;font-style:normal;font-variant:normal;font-weight:500;font-stretch:normal;text-align:start;line-height:125%;letter-spacing:0px;word-spacing:0px;text-anchor:start;fill:#000000;fill-opacity:1;stroke:none;font-family:Caracteres L1;-inkscape-font-specification:Caracteres L1 Medium"
     id="text6310"
     transform="matrix(0.99092826,0,0,0.99092826,-77.470312,65.37912)"><path
       d="m 190.03278,-18.399464 c 17.99845,3.092665 29.78098,13.8237354 35.34763,32.193243 l 0.83498,4.54602 -23.47231,4.917124 c -1.91744,-7.916774 -5.19552,-13.174071 -9.83425,-15.7719061 -4.63885,-2.5976113 -10.0817,-2.3502091 -16.32856,0.7422074 -4.14403,3.5255927 -7.60766,8.3499357 -10.3909,14.4730437 -2.72146,6.123301 -4.51513,14.411274 -5.381,24.863946 -0.37114,11.133171 1.08235,20.812782 4.36046,29.038862 3.27805,8.164316 7.23648,13.576239 11.87532,16.235786 4.70059,2.6596 9.49401,3.030703 14.38027,1.113311 4.88613,-1.236986 8.78271,-6.277806 11.68976,-15.122475 l 23.47231,7.236522 c -3.15447,12.431994 -9.24675,21.43125 -18.27685,26.99779 -6.61809,4.20585 -14.41126,6.58709 -23.37954,7.14375 -16.88525,-0.37111 -29.50276,-7.26744 -37.85257,-20.689032 -8.7828,-14.59671 -13.29789,-30.399526 -13.54528,-47.408494 0.12369,-21.276522 4.70063,-38.687452 13.73083,-52.23284239 5.69023,-7.48379721 12.06084,-12.64831861 19.11184,-15.49357861 5.31911,-2.102784 11.10214,-3.154243 17.3491,-3.154381 2.04101,1.38e-4 4.14393,0.123839 6.30876,0.371104"
       style="letter-spacing:9.8399992px;fill:#000000"
       id="path6315"
       inkscape:connector-curvature="0" /><path
       d="m 386.822,-17.007826 0,136.287826 -25.88448,0 0.0928,-96.208629 -0.37111,0 c -0.1856,0.804154 -2.41222,2.566894 -6.67986,5.288228 l -8.07151,4.267692 -7.23652,2.783277 c -2.90701,0.61859 -4.4842,1.082469 -4.73157,1.391639 l 0,-28.7605346 5.7521,-2.6905016 c 9.58681,-6.12309056 16.48314,-13.5760819 20.68903,-22.3589968 l 26.44114,0"
       style="letter-spacing:9.8399992px;fill:#000000"
       id="path6317"
       inkscape:connector-curvature="0" /><path
       d="m 491.0151,-16.91505 c 6.12314,0.989745 12.89578,4.113198 20.31793,9.3703681 2.22653,1.7937928 4.66963,4.6079929 7.3293,8.44260862 l 3.24715,5.93765878 1.20609,2.8760535 -0.27833,0.2783277 c 1.54617,4.2059463 2.3193,8.2262323 2.3194,12.0608693 -0.3712,7.422163 -1.05156,12.215581 -2.04107,14.380268 -1.67006,4.453322 -3.15447,7.638625 -4.45324,9.555919 l -2.13385,3.061605 -4.73157,5.195452 -38.68756,38.502006 54.08836,0 0,26.533914 -91.38428,0 0.0928,-26.812242 57.05719,-57.613845 c 1.7936,-2.164685 3.06153,-4.143903 3.80381,-5.937659 1.9173,-6.246815 1.02046,-11.504112 -2.6905,-15.771906 -3.40185,-3.2779731 -8.19527,-4.9170127 -14.38027,-4.9171237 l -5.47378,0.7422073 -2.50495,1.2060874 -1.57719,0.09277 -3.43271,2.690502 -1.94829,2.319398 c -1.23705,2.226724 -2.07203,3.958539 -2.50495,5.195452 l -0.55666,3.247157 c -0.24743,0.680451 -0.40206,0.927853 -0.46388,0.742207 l -25.04949,0.09278 -0.18556,-0.649431 0.18556,-4.54602 0.3711,-0.556656 c 0.24739,-3.896484 1.51533,-8.256948 3.80381,-13.0814045 l 4.26769,-7.1437457 3.43271,-3.8038127 0.55666,-0.1855518 c 6.55613,-5.8756773 13.8545,-9.5248603 21.89512,-10.9475583 4.70059,-0.803922 8.96828,-1.20595 12.80307,-1.206087 2.84507,1.37e-4 5.41187,0.216614 7.7004,0.649431"
       style="letter-spacing:9.8399992px;fill:#000000"
       id="path6319"
       inkscape:connector-curvature="0" /></g></svg>