<?xml version="1.0" encoding="UTF-8" standalone="no"?>
<!-- Generator: Adobe Illustrator 13.0.0, SVG Export Plug-In  -->

<svg
   xmlns:dc="http://purl.org/dc/elements/1.1/"
   xmlns:cc="http://creativecommons.org/ns#"
   xmlns:rdf="http://www.w3.org/1999/02/22-rdf-syntax-ns#"
   xmlns:svg="http://www.w3.org/2000/svg"
   xmlns="http://www.w3.org/2000/svg"
   xmlns:sodipodi="http://sodipodi.sourceforge.net/DTD/sodipodi-0.dtd"
   xmlns:inkscape="http://www.inkscape.org/namespaces/inkscape"
   version="1.1"
   x="0px"
   y="0px"
   width="503.71875"
   height="233.8125"
   viewBox="0 -0.11 503.71875 233.8125"
   enable-background="new 0 -0.11 600 379"
   xml:space="preserve"
   id="svg5457"
   inkscape:version="0.48.4 r9939"
   sodipodi:docname="E44.svg"><metadata
     id="metadata5545"><rdf:RDF><cc:Work
         rdf:about=""><dc:format>image/svg+xml</dc:format><dc:type
           rdf:resource="http://purl.org/dc/dcmitype/StillImage" /><dc:title></dc:title></cc:Work></rdf:RDF></metadata><sodipodi:namedview
     pagecolor="#ffffff"
     bordercolor="#666666"
     borderopacity="1"
     objecttolerance="10"
     gridtolerance="10"
     guidetolerance="10"
     inkscape:pageopacity="0"
     inkscape:pageshadow="2"
     inkscape:window-width="1366"
     inkscape:window-height="744"
     id="namedview5543"
     showgrid="false"
     showguides="true"
     inkscape:guide-bbox="true"
     inkscape:zoom="0.5"
     inkscape:cx="52.112094"
     inkscape:cy="55.752612"
     inkscape:window-x="0"
     inkscape:window-y="24"
     inkscape:window-maximized="1"
     inkscape:current-layer="svg5457"
     fit-margin-top="0"
     fit-margin-left="0"
     fit-margin-right="0"
     fit-margin-bottom="0"><sodipodi:guide
       orientation="0,1"
       position="379.18206,186.94175"
       id="guide5547" /><sodipodi:guide
       orientation="0,1"
       position="221.66649,49.582896"
       id="guide5549" /><sodipodi:guide
       orientation="1,0"
       position="449.57157,29.59152"
       id="guide5551" /><sodipodi:guide
       orientation="1,0"
       position="55.336158,190.33873"
       id="guide5553" /><sodipodi:guide
       orientation="1,0"
       position="503.78492,342.89424"
       id="guide5600" /><sodipodi:guide
       orientation="1,0"
       position="150.63739,229.52787"
       id="guide5606" /><sodipodi:guide
       orientation="1,0"
       position="222.50159,177.20569"
       id="guide5608" /></sodipodi:namedview><defs
     id="defs5459" /><path
     d="m 502.709,205.27804 c 0,15.15058 -12.84489,27.43364 -28.6892,27.43364 H 29.676419 c -15.844318,0 -28.688101,-12.28306 -28.688101,-27.43364 V 28.309893 c 0,-15.151577 12.843783,-27.43363064 28.688101,-27.43363064 H 474.0198 c 15.84431,0 28.6892,12.28305764 28.6892,27.43363064 V 205.27804 z"
     id="path5461"
     inkscape:connector-curvature="0"
     style="fill:#ffffff;fill-opacity:1;stroke:#999999;stroke-width:2;stroke-miterlimit:4;stroke-dasharray:none" /><g
     style="font-size:190.00508118px;font-style:normal;font-variant:normal;font-weight:500;font-stretch:normal;text-align:start;line-height:125%;letter-spacing:0px;word-spacing:0px;text-anchor:start;fill:#000000;fill-opacity:1;stroke:none;font-family:Caracteres L1;-inkscape-font-specification:Caracteres L1 Medium"
     id="text6310"><path
       d="m 100.86547,47.646237 c 14.28743,1.37e-4 25.45146,5.133733 33.49211,15.400803 7.05088,9.030301 10.57636,19.204717 10.57646,30.523277 -1e-4,2.041159 -0.1238,4.45333 -0.37111,7.236523 -1.48451,13.79275 -8.38084,25.20418 -20.68903,34.23431 l 22.63733,48.98569 -29.31719,0 -19.390171,-40.54308 -16.792441,0 0,40.82141 -25.698929,0 0.09278,-136.658933 45.460195,0 m -3.711032,69.674713 7.607622,-0.92776 c 4.32949,-1.17509 7.94774,-3.61819 10.85479,-7.32929 2.47395,-3.64911 3.95837,-8.00958 4.45324,-13.081409 0.24733,-6.308668 -1.60818,-11.813367 -5.56656,-16.514113 -3.33999,-3.83463 -8.19526,-5.999399 -14.565814,-6.494315 l -18.64796,0 0,44.346887 15.864682,0"
       style="letter-spacing:9.8399992px;fill:#000000"
       id="path6427" /><path
       d="m 293.01591,47.553462 c 5.07168,1.051595 9.89602,3.092664 14.47304,6.12321 l 6.30876,5.381003 c 2.78319,3.340055 4.57686,5.690376 5.38101,7.05097 l 2.87605,5.752107 c 1.60802,4.700754 2.47393,9.494172 2.59773,14.380268 l -0.46388,7.050969 -1.57719,5.195452 c -1.79376,4.453329 -4.57704,8.968419 -8.34984,13.545279 l 0.46388,1.20609 4.45325,4.91713 2.87605,4.36046 2.59773,6.49432 c 1.42246,4.51514 2.13374,8.93746 2.13384,13.26695 -10e-5,8.78282 -2.938,17.13265 -8.81371,25.0495 -8.90657,10.70016 -20.4417,16.29764 -34.60542,16.79244 -5.13365,0 -9.37041,-0.30925 -12.7103,-0.92776 -4.32958,-1.17516 -7.39118,-2.16476 -9.18481,-2.96882 l -5.56656,-2.78328 -4.73157,-3.43271 -4.26769,-3.80381 -4.36047,-5.65934 c -2.53589,-4.14396 -4.32955,-8.07147 -5.381,-11.78254 l -0.0928,-0.83498 24.40007,-6.67987 c 1.17512,4.63883 4.11302,8.16432 8.81371,10.57646 2.90693,1.17519 7.20554,1.82462 12.89585,1.94829 l 4.36047,-0.46388 3.52548,-1.11331 2.69051,-1.57719 c 1.85545,-1.23698 3.52541,-3.06157 5.0099,-5.47378 0.74213,-1.54623 1.29879,-3.64915 1.66996,-6.30876 0.12363,-2.16473 -7e-5,-3.40174 -0.3711,-3.71104 0.12363,-0.98956 -0.30933,-2.5049 -1.29886,-4.54602 l -2.3194,-3.24715 c -1.67004,-1.66992 -3.12352,-2.81415 -4.36047,-3.43271 -1.54633,-0.86585 -3.61832,-1.57714 -6.21599,-2.13385 l -10.11257,-0.27833 0,-25.14227 c 1.36066,0.12378 4.05116,-0.0618 8.0715,-0.556656 l 0.18555,0.185552 c 7.36016,-0.865824 11.99895,-4.88611 13.91639,-12.06087 l -0.18555,-4.174916 0.18555,-0.649432 -0.3711,-1.298863 -1.76274,-3.432708 c -1.73189,-2.164664 -3.30908,-3.587227 -4.73158,-4.267693 -0.24746,-0.185441 -2.35038,-0.742096 -6.30876,-1.669966 l -5.84488,0.185552 0,-0.185552 -5.75211,0.927759 -4.08214,1.762742 -1.66996,1.298863 -1.85552,2.690502 -1.39164,3.432709 -24.12174,-7.236522 1.57719,-4.174916 0.55666,-0.556656 c -0.12372,-0.309139 0.58756,-1.855403 2.13384,-4.638796 l 2.59773,-4.174916 3.71103,-4.267692 c 1.36069,-0.74208 2.04105,-1.298735 2.04107,-1.669967 l 1.9483,-1.391638 c 4.82431,-3.587203 10.45271,-5.875673 16.88522,-6.865418 3.21618,-0.494668 7.08184,-0.74207 11.59699,-0.742208 3.27802,1.38e-4 6.58702,0.24754 9.92702,0.742208"
       style="letter-spacing:9.8399992px;fill:#000000"
       id="path6429" /><path
       d="m 411.31097,47.924565 c 6.12314,0.989745 12.89578,4.113198 20.31793,9.370368 2.22653,1.793793 4.66963,4.607993 7.3293,8.442609 l 3.24715,5.937658 1.20609,2.876054 -0.27833,0.278328 c 1.54617,4.205946 2.3193,8.226232 2.3194,12.060869 -0.3712,7.422163 -1.05156,12.215581 -2.04107,14.380269 -1.67006,4.45332 -3.15448,7.63862 -4.45324,9.55592 l -2.13385,3.0616 -4.73157,5.19545 -38.68756,38.50201 54.08836,0 0,26.53391 -91.38428,0 0.0928,-26.81224 57.05719,-57.613842 c 1.79359,-2.164685 3.06153,-4.143903 3.80381,-5.937659 1.91729,-6.246815 1.02046,-11.504112 -2.6905,-15.771906 -3.40185,-3.277973 -8.19527,-4.917013 -14.38027,-4.917124 l -5.47378,0.742207 -2.50495,1.206087 -1.57719,0.09278 -3.43271,2.690502 -1.94829,2.319398 c -1.23705,2.226724 -2.07204,3.958539 -2.50495,5.195451 l -0.55666,3.247158 c -0.24744,0.680451 -0.40206,0.927853 -0.46388,0.742207 l -25.0495,0.09278 -0.18555,-0.649432 0.18555,-4.54602 0.37111,-0.556655 c 0.24739,-3.896484 1.51533,-8.256948 3.80381,-13.081405 l 4.26769,-7.143745 3.43271,-3.803813 0.55666,-0.185552 c 6.55613,-5.875677 13.8545,-9.52486 21.89511,-10.947558 4.7006,-0.803922 8.96829,-1.20595 12.80308,-1.206087 2.84507,1.37e-4 5.41187,0.216614 7.7004,0.649431"
       style="letter-spacing:9.8399992px;fill:#000000"
       id="path6431" /></g></svg>