<?xml version="1.0" encoding="UTF-8" standalone="no"?>
<!-- Generator: Adobe Illustrator 13.0.0, SVG Export Plug-In  -->

<svg
   xmlns:dc="http://purl.org/dc/elements/1.1/"
   xmlns:cc="http://creativecommons.org/ns#"
   xmlns:rdf="http://www.w3.org/1999/02/22-rdf-syntax-ns#"
   xmlns:svg="http://www.w3.org/2000/svg"
   xmlns="http://www.w3.org/2000/svg"
   xmlns:sodipodi="http://sodipodi.sourceforge.net/DTD/sodipodi-0.dtd"
   xmlns:inkscape="http://www.inkscape.org/namespaces/inkscape"
   version="1.1"
   x="0px"
   y="0px"
   width="450.41333"
   height="233.93495"
   viewBox="0 -0.11 450.41333 233.93495"
   enable-background="new 0 -0.11 600 379"
   xml:space="preserve"
   id="svg5457"
   inkscape:version="0.48.4 r9939"
   sodipodi:docname="E41.svg"><metadata
     id="metadata5545"><rdf:RDF><cc:Work
         rdf:about=""><dc:format>image/svg+xml</dc:format><dc:type
           rdf:resource="http://purl.org/dc/dcmitype/StillImage" /><dc:title></dc:title></cc:Work></rdf:RDF></metadata><sodipodi:namedview
     pagecolor="#ffffff"
     bordercolor="#666666"
     borderopacity="1"
     objecttolerance="10"
     gridtolerance="10"
     guidetolerance="10"
     inkscape:pageopacity="0"
     inkscape:pageshadow="2"
     inkscape:window-width="1366"
     inkscape:window-height="744"
     id="namedview5543"
     showgrid="false"
     showguides="true"
     inkscape:guide-bbox="true"
     inkscape:zoom="2.4220325"
     inkscape:cx="225.29815"
     inkscape:cy="123.35528"
     inkscape:window-x="0"
     inkscape:window-y="24"
     inkscape:window-maximized="1"
     inkscape:current-layer="svg5457"
     fit-margin-top="0"
     fit-margin-left="0"
     fit-margin-right="0"
     fit-margin-bottom="0"><sodipodi:guide
       orientation="0,1"
       position="379.24351,187.0007"
       id="guide5547" /><sodipodi:guide
       orientation="0,1"
       position="221.72794,49.641846"
       id="guide5549" /><sodipodi:guide
       orientation="1,0"
       position="396.15882,209.59078"
       id="guide5551" /><sodipodi:guide
       orientation="1,0"
       position="55.397608,190.39768"
       id="guide5553" /><sodipodi:guide
       orientation="1,0"
       position="126.02,139.65742"
       id="guide5606" /><sodipodi:guide
       orientation="1,0"
       position="219.33006,242.46364"
       id="guide5608" /><sodipodi:guide
       orientation="1,0"
       position="450.31108,247.96226"
       id="guide6571" /></sodipodi:namedview><defs
     id="defs5459" /><path
     d="m 449.41332,205.37954 c 0,15.15708 -11.48013,27.44542 -25.641,27.44542 H 26.640016 C 12.479143,232.82496 1,220.53662 1,205.37954 V 28.33541 C 1,13.177326 12.479143,0.89 26.640016,0.89 H 423.77232 c 14.16087,0 25.641,12.288331 25.641,27.44541 v 177.04413 z"
     id="path5461"
     inkscape:connector-curvature="0"
     style="fill:#008000;fill-opacity:1;stroke:#999999;stroke-width:2;stroke-miterlimit:4;stroke-dasharray:none" /><g
     style="font-size:172.44425964px;font-style:normal;font-variant:normal;font-weight:500;font-stretch:normal;text-align:start;line-height:125%;letter-spacing:0px;word-spacing:0px;text-anchor:start;fill:#ffffff;fill-opacity:1;stroke:none;font-family:Caracteres L1;-inkscape-font-specification:Caracteres L1 Medium"
     id="text6310"
     transform="translate(0.09270037,0.11100606)"><path
       d="m 123.00218,47.497591 0,20.292513 -47.405327,0 0,37.637976 31.575487,0 0,19.4505 -31.575487,0 0,59.19352 -20.124111,0 0,-136.574509 67.529438,0"
       style="letter-spacing:11.46999836px;fill:#ffffff;font-family:Caracteres L2;-inkscape-font-specification:Caracteres L2 Medium"
       id="path6600"
       inkscape:connector-curvature="0" /><path
       d="m 257.67731,46.571377 c 9.37434,1.066686 16.50338,4.2944 21.38713,9.683149 4.88359,4.827665 8.44811,10.300743 10.69356,16.419254 1.1226,4.097903 1.85234,8.223763 2.18923,12.377591 0.11218,1.23505 0.16832,2.470001 0.16841,3.704857 -9e-5,7.52207 -2.47,14.763372 -7.40972,21.723932 l -47.15272,51.19439 55.65705,0 0,22.39755 -83.44348,0 0.0842,-22.73435 58.94091,-63.235178 c 2.35756,-3.424097 3.48025,-7.016682 3.36805,-10.777766 -0.11234,-3.817025 -1.59989,-8.139354 -4.46267,-12.967 -3.64878,-5.2765 -9.54287,-7.999006 -17.68227,-8.167526 -11.33915,1.066666 -17.76651,7.634361 -19.2821,19.703104 l -20.20831,-0.0842 c -10e-6,-8.64456 2.69443,-17.036614 8.08332,-25.176188 5.7818,-6.904376 12.46177,-11.226705 20.03991,-12.967 3.87322,-0.89801 7.97101,-1.347083 12.29339,-1.347221 2.13305,1.38e-4 4.37842,0.08434 6.73611,0.252604"
       style="letter-spacing:11.46999836px;fill:#ffffff;font-family:Caracteres L2;-inkscape-font-specification:Caracteres L2 Medium"
       id="path6602"
       inkscape:connector-curvature="0" /><path
       d="m 397.13327,47.665994 0,22.734351 c -13.36002,14.202051 -23.54836,31.912375 -30.56507,53.131015 -6.68002,19.75928 -9.79547,39.88337 -9.34635,60.37234 l -19.6189,0 c -0.4491,-43.3917 11.25487,-81.73132 35.11194,-115.018979 l -55.23605,0 0,-21.218727 79.65443,0"
       style="letter-spacing:11.46999836px;fill:#ffffff;font-family:Caracteres L2;-inkscape-font-specification:Caracteres L2 Medium"
       id="path6604"
       inkscape:connector-curvature="0" /></g></svg>