<?xml version="1.0" encoding="UTF-8" standalone="no"?>
<!-- Generator: Adobe Illustrator 13.0.0, SVG Export Plug-In  -->

<svg
   xmlns:dc="http://purl.org/dc/elements/1.1/"
   xmlns:cc="http://creativecommons.org/ns#"
   xmlns:rdf="http://www.w3.org/1999/02/22-rdf-syntax-ns#"
   xmlns:svg="http://www.w3.org/2000/svg"
   xmlns="http://www.w3.org/2000/svg"
   xmlns:xlink="http://www.w3.org/1999/xlink"
   xmlns:sodipodi="http://sodipodi.sourceforge.net/DTD/sodipodi-0.dtd"
   xmlns:inkscape="http://www.inkscape.org/namespaces/inkscape"
   version="1.1"
   x="0px"
   y="0px"
   width="576.53827"
   height="507.94376"
   viewBox="-0.781 -0.08 576.53826 507.94375"
   enable-background="new -0.781 -0.08 576 506"
   xml:space="preserve"
   id="svg2"
   inkscape:version="0.92.5 (2060ec1f9f, 2020-04-08)"
   sodipodi:docname="France_road_sign_XA1b.svg"><metadata
   id="metadata18"><rdf:RDF><cc:Work
       rdf:about=""><dc:format>image/svg+xml</dc:format><dc:type
         rdf:resource="http://purl.org/dc/dcmitype/StillImage" /><dc:title></dc:title></cc:Work></rdf:RDF></metadata><sodipodi:namedview
   pagecolor="#ffffff"
   bordercolor="#666666"
   borderopacity="1"
   objecttolerance="10"
   gridtolerance="10"
   guidetolerance="10"
   inkscape:pageopacity="0"
   inkscape:pageshadow="2"
   inkscape:window-width="1920"
   inkscape:window-height="1057"
   id="namedview16"
   showgrid="false"
   fit-margin-top="0.3"
   fit-margin-left="0.3"
   fit-margin-right="0.3"
   fit-margin-bottom="0.3"
   inkscape:zoom="1.2913894"
   inkscape:cx="335.31049"
   inkscape:cy="241.2807"
   inkscape:window-x="-8"
   inkscape:window-y="-8"
   inkscape:window-maximized="1"
   inkscape:current-layer="svg2"
   showguides="true"
   inkscape:guide-bbox="true"
   inkscape:snap-page="true" />
<defs
   id="defs4">
<pattern
   patternTransform="translate(-27.409414,37.156688)"
   id="pattern12437"
   xlink:href="#pattern12310-9"
   inkscape:collect="always" /><pattern
   patternUnits="userSpaceOnUse"
   width="7"
   height="7"
   patternTransform="translate(-27.409426,37.156635)"
   id="pattern12310-9"><path
     inkscape:connector-curvature="0"
     id="rect12307-0"
     d="M 0,0 V 3.5 A 3.5,3.5 0 0 1 3.5,0 Z M 3.5,0 A 3.5,3.5 0 0 1 7,3.5 V 0 Z M 7,3.5 A 3.5,3.5 0 0 1 3.5,7 H 7 Z M 3.5,7 A 3.5,3.5 0 0 1 0,3.5 V 7 Z"
     style="opacity:1;fill:#1a1a1a;fill-opacity:1;fill-rule:evenodd;stroke:none;stroke-width:1.50953102;stroke-linecap:round;stroke-miterlimit:4;stroke-dasharray:1.50953107, 1.50953107;stroke-dashoffset:0;stroke-opacity:1;paint-order:markers stroke fill" /></pattern></defs>





<rect
   style="display:inline;opacity:1;fill:#000000;fill-opacity:1;fill-rule:evenodd;stroke:none;stroke-width:1.5;stroke-linecap:round;stroke-miterlimit:4;stroke-dasharray:1.5, 1.5;stroke-dashoffset:0;stroke-opacity:1;paint-order:markers stroke fill"
   id="rect19"
   width="576.53827"
   height="507.94376"
   x="-0.78102547"
   y="-0.079999998" /><path
   style="fill:#f91a0e;stroke:none"
   d="M 288.26562 13.640625 C 281.64663 13.640625 275.5307 17.170344 272.2207 22.902344 L 16.125 466.47266 C 12.815 472.20366 12.815 479.26705 16.125 484.99805 C 19.435 490.73105 25.551922 494.26172 32.169922 494.26172 L 544.35938 494.26172 C 550.97838 494.26172 557.0953 490.73105 560.4043 484.99805 C 563.7143 479.26705 563.7143 472.20366 560.4043 466.47266 L 304.30859 22.902344 C 300.99959 17.170344 294.88463 13.640625 288.26562 13.640625 z M 288.26367 69.425781 L 512.0918 457.10547 L 64.4375 457.10547 L 288.26367 69.425781 z "
   transform="translate(-0.781,-0.08)"
   id="path8" /><path
   inkscape:connector-curvature="0"
   d="m 258.31324,255.67776 -33.37699,-23.325 33.39799,-19.875 c 2.314,0.003 4.627,0.176 6.917,0.514 77.023,11.383 134.074,77.485 134.074,155.344 v 78.33899 l -20.942,-32.27299 -21.962,32.47099 -0.235,-90.19699 c -5.303,-51.79 -45.073,-93.379 -96.574,-100.989 -0.431,-0.065 -0.868,-0.068 -1.299,-0.009 z"
   id="path12"
   style="fill:#ffffff;stroke:none" /><rect
   style="display:inline;opacity:1;fill:url(#pattern12437);fill-opacity:1;fill-rule:evenodd;stroke:none;stroke-width:1.5;stroke-linecap:round;stroke-miterlimit:4;stroke-dasharray:1.5, 1.5;stroke-dashoffset:0;stroke-opacity:1;paint-order:markers stroke fill"
   id="rect12317-3"
   width="576.53827"
   height="507.94376"
   x="-0.78100002"
   y="-0.079999998" /></svg>