<?xml version="1.0" encoding="UTF-8" standalone="no"?>
<svg
   xmlns:dc="http://purl.org/dc/elements/1.1/"
   xmlns:cc="http://creativecommons.org/ns#"
   xmlns:rdf="http://www.w3.org/1999/02/22-rdf-syntax-ns#"
   xmlns:svg="http://www.w3.org/2000/svg"
   xmlns="http://www.w3.org/2000/svg"
   xmlns:sodipodi="http://sodipodi.sourceforge.net/DTD/sodipodi-0.dtd"
   xmlns:inkscape="http://www.inkscape.org/namespaces/inkscape"
   sodipodi:docname="France_road_sign_M9e.svg"
   inkscape:version="1.0 (4035a4f, 2020-05-01)"
   version="1.1"
   id="svg3859"
   height="319.9321"
   width="600">
  <defs
     id="defs3861" />
  <sodipodi:namedview
     inkscape:document-rotation="0"
     inkscape:window-maximized="1"
     inkscape:window-y="23"
     inkscape:window-x="0"
     inkscape:window-height="780"
     inkscape:window-width="1434"
     inkscape:guide-bbox="true"
     showguides="true"
     inkscape:snap-page="true"
     inkscape:snap-bbox-edge-midpoints="true"
     inkscape:bbox-nodes="true"
     inkscape:bbox-paths="true"
     inkscape:snap-bbox="true"
     inkscape:snap-center="true"
     showgrid="false"
     inkscape:current-layer="layer1"
     inkscape:document-units="px"
     inkscape:cy="75.834918"
     inkscape:cx="51.502771"
     inkscape:zoom="0.49497475"
     inkscape:pageshadow="2"
     inkscape:pageopacity="0.0"
     borderopacity="1.0"
     bordercolor="#666666"
     pagecolor="#ffffff"
     id="base" />
  <metadata
     id="metadata3864">
    <rdf:RDF>
      <cc:Work
         rdf:about="">
        <dc:format>image/svg+xml</dc:format>
        <dc:type
           rdf:resource="http://purl.org/dc/dcmitype/StillImage" />
        <dc:title />
      </cc:Work>
    </rdf:RDF>
  </metadata>
  <g
     transform="translate(1.0038375,-952.25299)"
     id="layer1"
     inkscape:groupmode="layer"
     inkscape:label="Calque 1">
    <rect
       ry="58.251732"
       y="953.75299"
       x="0.49616253"
       height="316.9321"
       width="597"
       id="rect3016"
       style="fill:#ffffff;stroke:#000000;stroke-width:3;stroke-miterlimit:4;stroke-dasharray:none;stroke-opacity:1" />
    <g
       style="opacity:1;stroke-width:0.309939"
       id="g60"
       transform="matrix(3.2211973,0,0,3.2316914,-1.1020748,-2128.4825)">
      <path
         id="path62"
         d="m 171.3167,1016.6733 c -2.82958,-7.3891 -7.02332,-15.6133 -12.43337,-21.48431 -5.71559,-6.2022 -11.67447,-13.26531 -18.64792,-18.10034 -1.63191,-1.13168 -3.26457,-2.2631 -4.89622,-3.39504 l -11.41907,-7.15581 c -2.38426,-0.97677 -4.91789,-1.7601 -7.1465,-2.68625 -3.62853,-1.50799 -6.84851,-2.17067 -10.67552,-1.07727 -3.54919,1.01405 -6.173487,5.61104 -8.304607,8.29781 l -0.67177,1.51125 -0.16799,2.68677 0.67175,2.35076 1.67926,2.18302 6.884537,4.36577 9.06755,5.03753 2.18301,1.00751 2.01501,0.50374 1.51126,-0.50374 1.0075,-0.50376 7.12735,-6.82409 5.01965,5.56269 c 0.22039,0.302 0.45186,0.59569 0.69795,0.87779 2.15202,2.47116 4.11541,4.78313 6.66716,6.82484 4.68591,3.74843 8.65598,7.99553 13.56758,11.52613 -2.45454,2.3455 -4.90883,4.6909 -7.36361,7.0364 -0.63272,0.6048 -2.1669,1.4584 -1.95255,2.423 0.22392,1.006 0.13375,2.776 0.66772,3.5981 2.00091,3.0784 4.00182,6.1566 6.00248,9.2348 1.48631,2.2868 2.87894,5.5043 4.82896,7.4291 2.60542,2.5719 5.59922,2.1354 8.33359,0.3662 1.88152,-1.2173 5.35665,-2.6878 6.56541,-4.5887 3.62248,-5.6939 1.4037,-10.7012 -0.8186,-16.5039 z"
         style="color:#000000;font-style:normal;font-variant:normal;font-weight:normal;font-stretch:normal;font-size:medium;line-height:normal;font-family:sans-serif;font-variant-ligatures:normal;font-variant-position:normal;font-variant-caps:normal;font-variant-numeric:normal;font-variant-alternates:normal;font-variant-east-asian:normal;font-feature-settings:normal;font-variation-settings:normal;text-indent:0;text-align:start;text-decoration:none;text-decoration-line:none;text-decoration-style:solid;text-decoration-color:#000000;letter-spacing:normal;word-spacing:normal;text-transform:none;writing-mode:lr-tb;direction:ltr;text-orientation:mixed;dominant-baseline:auto;baseline-shift:baseline;text-anchor:start;white-space:normal;shape-padding:0;shape-margin:0;inline-size:0;clip-rule:nonzero;display:inline;overflow:visible;visibility:visible;isolation:auto;mix-blend-mode:normal;color-interpolation:sRGB;color-interpolation-filters:linearRGB;solid-color:#000000;solid-opacity:1;vector-effect:none;fill:#000000;fill-opacity:1;fill-rule:nonzero;stroke:none;stroke-width:0.309939;stroke-linecap:butt;stroke-linejoin:miter;stroke-miterlimit:4;stroke-dasharray:none;stroke-dashoffset:0;stroke-opacity:1;color-rendering:auto;image-rendering:auto;shape-rendering:auto;text-rendering:auto;enable-background:accumulate;stop-color:#000000;stop-opacity:1" />
      <path
         sodipodi:nodetypes="sssccccccccccccccccccccscscssccccsccccccccs"
         id="path64"
         d="m 108.83008,961.77344 c -0.92954,0.0695 -1.88175,0.23743 -2.86914,0.51953 -1.9352,0.55291 -3.53404,2.03529 -4.92774,3.67969 -1.393693,1.64439 -2.589479,3.47616 -3.630856,4.78906 l -0.03906,0.0488 -0.734375,1.65234 -0.179687,2.86133 0.722656,2.52539 1.791016,2.33008 6.970696,4.41992 9.09766,5.05469 2.24219,1.0332 2.20117,0.55078 1.68359,-0.56055 1.10742,-0.55273 6.8086,-6.52148 4.66992,5.17578 0.006,0.006 c 0.21846,0.29724 0.44605,0.58983 0.69141,0.87109 2.1495,2.46827 4.13459,4.80814 6.73242,6.88672 4.49461,3.59542 8.39193,7.66902 13.12695,11.16012 -2.31935,2.2164 -4.63745,4.4341 -6.95703,6.6504 -0.25538,0.2441 -0.81241,0.6245 -1.29102,1.0742 -0.2393,0.2249 -0.46543,0.4718 -0.6289,0.7696 -0.16347,0.2978 -0.2582,0.6691 -0.17383,1.0488 0.0954,0.4284 0.13267,1.1214 0.20703,1.8125 0.0744,0.6911 0.16602,1.3899 0.5293,1.9492 2.00091,3.0784 4.0013,6.1562 6.00195,9.2344 1.4473,2.2268 2.83291,5.4768 4.89649,7.5137 1.38091,1.3631 2.92901,1.9646 4.47265,1.955 1.54364,-0.01 3.06306,-0.6057 4.48438,-1.5254 0.89998,-0.5822 2.24371,-1.2581 3.52148,-2.0293 1.27777,-0.7711 2.50389,-1.6266 3.19336,-2.7109 1.87169,-2.942 2.24752,-5.7722 1.85547,-8.5488 -0.39206,-2.7766 -1.52045,-5.5081 -2.62891,-8.4024 -2.84427,-7.4274 -7.05077,-15.6971 -12.53125,-21.64448 -5.70475,-6.19044 -11.6812,-13.28292 -18.73242,-18.17188 -1.632,-1.13174 -3.26302,-2.26268 -4.89453,-3.39453 l -0.01,-0.008 -11.46679,-7.18359 -0.0391,-0.0176 c -2.41247,-0.98833 -4.94768,-1.77064 -7.14454,-2.6836 -2.75804,-1.14622 -5.34616,-1.82572 -8.13476,-1.61718 z"
         style="color:#000000;font-style:normal;font-variant:normal;font-weight:normal;font-stretch:normal;font-size:medium;line-height:normal;font-family:sans-serif;font-variant-ligatures:normal;font-variant-position:normal;font-variant-caps:normal;font-variant-numeric:normal;font-variant-alternates:normal;font-variant-east-asian:normal;font-feature-settings:normal;font-variation-settings:normal;text-indent:0;text-align:start;text-decoration:none;text-decoration-line:none;text-decoration-style:solid;text-decoration-color:#000000;letter-spacing:normal;word-spacing:normal;text-transform:none;writing-mode:lr-tb;direction:ltr;text-orientation:mixed;dominant-baseline:auto;baseline-shift:baseline;text-anchor:start;white-space:normal;shape-padding:0;shape-margin:0;inline-size:0;clip-rule:nonzero;display:inline;overflow:visible;visibility:visible;isolation:auto;mix-blend-mode:normal;color-interpolation:sRGB;color-interpolation-filters:linearRGB;solid-color:#000000;solid-opacity:1;vector-effect:none;fill-opacity:1;fill-rule:nonzero;stroke:none;stroke-width:0.309939;stroke-linecap:butt;stroke-linejoin:miter;stroke-miterlimit:4;stroke-dasharray:none;stroke-dashoffset:0;stroke-opacity:1;color-rendering:auto;image-rendering:auto;shape-rendering:auto;text-rendering:auto;enable-background:accumulate;stop-color:#000000;stop-opacity:1" />
    </g>
    <path
       style="color:#000000;font-style:normal;font-variant:normal;font-weight:normal;font-stretch:normal;font-size:medium;line-height:normal;font-family:sans-serif;font-variant-ligatures:normal;font-variant-position:normal;font-variant-caps:normal;font-variant-numeric:normal;font-variant-alternates:normal;font-variant-east-asian:normal;font-feature-settings:normal;font-variation-settings:normal;text-indent:0;text-align:start;text-decoration:none;text-decoration-line:none;text-decoration-style:solid;text-decoration-color:#000000;letter-spacing:normal;word-spacing:normal;text-transform:none;writing-mode:lr-tb;direction:ltr;text-orientation:mixed;dominant-baseline:auto;baseline-shift:baseline;text-anchor:start;white-space:normal;shape-padding:0;shape-margin:0;inline-size:0;clip-rule:nonzero;display:inline;overflow:visible;visibility:visible;isolation:auto;mix-blend-mode:normal;color-interpolation:sRGB;color-interpolation-filters:linearRGB;solid-color:#000000;solid-opacity:1;vector-effect:none;fill:#000000;fill-opacity:1;fill-rule:nonzero;stroke:none;stroke-width:1.4355;stroke-linecap:butt;stroke-linejoin:miter;stroke-miterlimit:10;stroke-dasharray:none;stroke-dashoffset:0;stroke-opacity:1;color-rendering:auto;image-rendering:auto;shape-rendering:auto;text-rendering:auto;enable-background:accumulate;stop-color:#000000"
       d="m 128.74615,1203.3345 v 26.5289 h 26.29806 v -26.5289 z"
       id="path52"
       sodipodi:nodetypes="ccccc" />
    <g
       style="opacity:1;stroke-width:0.309939"
       id="g30"
       transform="matrix(3.2211973,0,0,3.2316914,-1.1020748,-2128.4825)">
      <path
         id="path32"
         d="m 65.499492,1005.187 c 3.618895,0.5532 6.295145,2.6916 8.029707,6.4148 1.480478,2.7514 2.220718,6.131 2.220718,10.1385 v 0.4038 c 0,5.0094 -1.21874,9.271 -3.656218,12.7851 -1.734562,2.3628 -4.186874,3.6859 -7.356936,3.9701 -0.329208,0.03 -0.650281,0.045 -0.964656,0.045 -3.289686,0 -6.048717,-1.3906 -8.276612,-4.1721 -2.30302,-3.7084 -3.469124,-7.5139 -3.49927,-11.4165 -0.01483,-0.3292 -0.02249,-0.6579 -0.02249,-0.9872 0,-5.2783 1.17376,-9.6446 3.52128,-13.0989 1.569958,-1.8843 3.207385,-3.0877 4.91228,-3.6112 1.180938,-0.3737 2.362833,-0.5608 3.54377,-0.5608 0.523958,0 1.039781,0.03 1.548426,0.089 z m -1.727385,28.0148 c 1.734562,-0.09 3.199729,-1.2786 4.396457,-3.5663 0.867042,-1.5254 1.413011,-3.7682 1.637427,-6.7291 0.04498,-3.7682 -0.620614,-6.856 -1.996302,-9.2633 -1.121603,-1.6748 -2.362832,-2.6093 -3.723207,-2.8035 -1.794375,0.09 -3.289687,1.2637 -4.485937,3.5212 -0.852208,1.5853 -1.405832,3.8582 -1.659916,6.8187 -0.03015,3.7682 0.650282,6.8487 2.041281,9.2412 1.106292,1.6748 2.369531,2.6016 3.790197,2.7811 z"
         style="color:#000000;font-style:normal;font-variant:normal;font-weight:normal;font-stretch:normal;font-size:medium;line-height:normal;font-family:sans-serif;font-variant-ligatures:normal;font-variant-position:normal;font-variant-caps:normal;font-variant-numeric:normal;font-variant-alternates:normal;font-variant-east-asian:normal;font-feature-settings:normal;font-variation-settings:normal;text-indent:0;text-align:start;text-decoration:none;text-decoration-line:none;text-decoration-style:solid;text-decoration-color:#000000;letter-spacing:normal;word-spacing:normal;text-transform:none;writing-mode:lr-tb;direction:ltr;text-orientation:mixed;dominant-baseline:auto;baseline-shift:baseline;text-anchor:start;white-space:normal;shape-padding:0;shape-margin:0;inline-size:0;clip-rule:nonzero;display:inline;overflow:visible;visibility:visible;isolation:auto;mix-blend-mode:normal;color-interpolation:sRGB;color-interpolation-filters:linearRGB;solid-color:#000000;solid-opacity:1;vector-effect:none;fill:#000000;fill-opacity:1;fill-rule:nonzero;stroke:none;stroke-width:0.444918;stroke-linecap:butt;stroke-linejoin:miter;stroke-miterlimit:10;stroke-dasharray:none;stroke-dashoffset:0;stroke-opacity:1;color-rendering:auto;image-rendering:auto;shape-rendering:auto;text-rendering:auto;enable-background:accumulate;stop-color:#000000;stop-opacity:1" />
      <path
         sodipodi:nodetypes="sccccsccccsccccsscccccsccccccccccccc"
         id="path34"
         d="m 63.951172,1004.3789 c -1.254736,0 -2.509301,0.2005 -3.753906,0.5938 -1.876674,0.5762 -3.623044,1.8804 -5.253907,3.8378 l -0.02148,0.027 -0.01953,0.027 c -2.443048,3.5949 -3.646485,8.1192 -3.646485,13.5039 0,0.3313 0.0089,0.6618 0.02344,0.9922 0.03122,4.042 1.245587,7.986 3.607422,11.7891 l 0.02148,0.037 0.02734,0.033 c 2.335679,2.9161 5.343982,4.4414 8.835937,4.4414 0.336569,0 0.680306,-0.017 1.029297,-0.049 3.334602,-0.299 6.0212,-1.7399 7.871094,-4.2598 l 0.0059,-0.01 0.0059,-0.01 c 2.528504,-3.6453 3.783203,-8.0676 3.783203,-13.1934 v -0.4043 c 0,-4.0874 -0.753961,-7.5829 -2.296875,-10.459 -1.708397,-3.6548 -4.434733,-5.8939 -7.955078,-6.6328 v -0.1015 l -0.607422,-0.07 h -0.02539 c -0.536152,-0.062 -1.079504,-0.094 -1.630859,-0.094 z m 0.105469,7.2031 c 1.069636,0.1789 2.112129,0.9195 3.136718,2.4395 1.284159,2.257 1.933293,5.1975 1.892579,8.8555 -0.221281,2.8859 -0.761987,5.0337 -1.541016,6.4042 l -0.0059,0.01 -0.0059,0.012 c -1.1165,2.1344 -2.338887,3.0608 -3.742187,3.1582 -1.135256,-0.1684 -2.188052,-0.8996 -3.197266,-2.4199 -1.297714,-2.2411 -1.959352,-5.1737 -1.933594,-8.8301 0.250502,-2.8866 0.797125,-5.0678 1.572266,-6.5097 h 0.002 v 0 c 1.1106,-2.0959 2.351384,-3.0141 3.822266,-3.1153 z"
         style="color:#000000;font-style:normal;font-variant:normal;font-weight:normal;font-stretch:normal;font-size:medium;line-height:normal;font-family:sans-serif;font-variant-ligatures:normal;font-variant-position:normal;font-variant-caps:normal;font-variant-numeric:normal;font-variant-alternates:normal;font-variant-east-asian:normal;font-feature-settings:normal;font-variation-settings:normal;text-indent:0;text-align:start;text-decoration:none;text-decoration-line:none;text-decoration-style:solid;text-decoration-color:#000000;letter-spacing:normal;word-spacing:normal;text-transform:none;writing-mode:lr-tb;direction:ltr;text-orientation:mixed;dominant-baseline:auto;baseline-shift:baseline;text-anchor:start;white-space:normal;shape-padding:0;shape-margin:0;inline-size:0;clip-rule:nonzero;display:inline;overflow:visible;visibility:visible;isolation:auto;mix-blend-mode:normal;color-interpolation:sRGB;color-interpolation-filters:linearRGB;solid-color:#000000;solid-opacity:1;vector-effect:none;fill:#000000;fill-opacity:1;fill-rule:nonzero;stroke:none;stroke-width:0.444918;stroke-linecap:butt;stroke-linejoin:miter;stroke-miterlimit:10;stroke-dasharray:none;stroke-dashoffset:0;stroke-opacity:1;color-rendering:auto;image-rendering:auto;shape-rendering:auto;text-rendering:auto;enable-background:accumulate;stop-color:#000000;stop-opacity:1" />
    </g>
    <g
       style="opacity:1;stroke-width:0.309939"
       id="g54"
       transform="matrix(3.2211973,0,0,3.2316914,-1.1020748,-2128.4825)">
      <path
         id="path56"
         d="m 78.912322,1031.6993 h 6.729144 v 6.7736 h -6.729144 z"
         style="color:#000000;font-style:normal;font-variant:normal;font-weight:normal;font-stretch:normal;font-size:medium;line-height:normal;font-family:sans-serif;font-variant-ligatures:normal;font-variant-position:normal;font-variant-caps:normal;font-variant-numeric:normal;font-variant-alternates:normal;font-variant-east-asian:normal;font-feature-settings:normal;font-variation-settings:normal;text-indent:0;text-align:start;text-decoration:none;text-decoration-line:none;text-decoration-style:solid;text-decoration-color:#000000;letter-spacing:normal;word-spacing:normal;text-transform:none;writing-mode:lr-tb;direction:ltr;text-orientation:mixed;dominant-baseline:auto;baseline-shift:baseline;text-anchor:start;white-space:normal;shape-padding:0;shape-margin:0;inline-size:0;clip-rule:nonzero;display:inline;overflow:visible;visibility:visible;isolation:auto;mix-blend-mode:normal;color-interpolation:sRGB;color-interpolation-filters:linearRGB;solid-color:#000000;solid-opacity:1;vector-effect:none;fill:#000000;fill-opacity:1;fill-rule:nonzero;stroke:none;stroke-width:0.444918;stroke-linecap:butt;stroke-linejoin:miter;stroke-miterlimit:10;stroke-dasharray:none;stroke-dashoffset:0;stroke-opacity:1;color-rendering:auto;image-rendering:auto;shape-rendering:auto;text-rendering:auto;enable-background:accumulate;stop-color:#000000;stop-opacity:1" />
      <path
         sodipodi:nodetypes="ccccc"
         id="path58"
         d="m 78.195312,1030.9824 v 8.209 h 8.164063 v -8.209 z"
         style="color:#000000;font-style:normal;font-variant:normal;font-weight:normal;font-stretch:normal;font-size:medium;line-height:normal;font-family:sans-serif;font-variant-ligatures:normal;font-variant-position:normal;font-variant-caps:normal;font-variant-numeric:normal;font-variant-alternates:normal;font-variant-east-asian:normal;font-feature-settings:normal;font-variation-settings:normal;text-indent:0;text-align:start;text-decoration:none;text-decoration-line:none;text-decoration-style:solid;text-decoration-color:#000000;letter-spacing:normal;word-spacing:normal;text-transform:none;writing-mode:lr-tb;direction:ltr;text-orientation:mixed;dominant-baseline:auto;baseline-shift:baseline;text-anchor:start;white-space:normal;shape-padding:0;shape-margin:0;inline-size:0;clip-rule:nonzero;display:inline;overflow:visible;visibility:visible;isolation:auto;mix-blend-mode:normal;color-interpolation:sRGB;color-interpolation-filters:linearRGB;solid-color:#000000;solid-opacity:1;vector-effect:none;fill:#000000;fill-opacity:1;fill-rule:nonzero;stroke:none;stroke-width:0.444918;stroke-linecap:butt;stroke-linejoin:miter;stroke-miterlimit:10;stroke-dasharray:none;stroke-dashoffset:0;stroke-opacity:1;color-rendering:auto;image-rendering:auto;shape-rendering:auto;text-rendering:auto;enable-background:accumulate;stop-color:#000000;stop-opacity:1" />
    </g>
    <g
       style="opacity:1;stroke-width:0.309939"
       id="g24"
       transform="matrix(3.2211973,0,0,3.2316914,-1.1020748,-2128.4825)">
      <path
         id="path26"
         d="m 89.611101,1031.7663 v -0.045 c 0,-0.1646 0.171782,-0.2766 0.515823,-0.3364 2.646583,-0.8522 4.366312,-1.4656 5.158708,-1.8393 0.403854,0.5531 0.93451,1.0541 1.592447,1.5029 1.061792,0.6283 2.198229,1.0092 3.409311,1.1441 1.28621,0.03 2.08578,0 2.40016,-0.09 1.48048,-0.4187 2.3925,-0.8451 2.73654,-1.2786 0.34404,-0.299 0.6431,-1.0245 0.89718,-2.1757 0.0598,-0.4489 0,-0.9494 -0.17943,-1.503 -0.22442,-0.3737 -0.46367,-0.6881 -0.71775,-0.9422 l -0.76273,-0.5832 -0.85221,-0.3814 c -4.74002,-1.4805 -7.34928,-2.3475 -7.82778,-2.6021 -2.198228,-0.8823 -3.835655,-2.3403 -4.912279,-4.374 -0.702917,-1.3608 -1.016813,-3.0131 -0.942167,-4.9567 0.283751,-2.4227 1.278552,-4.3439 2.982969,-5.7645 1.913999,-1.3906 3.910301,-2.1456 5.988904,-2.2652 h 0.583292 c 1.480481,0 2.706391,0.1119 3.678711,0.3363 1.97381,0.5532 3.5141,1.3236 4.62039,2.3102 1.10677,0.9121 2.01879,2.1533 2.73654,3.7232 l -0.0675,0.2469 -4.62039,2.2208 -0.22442,-0.112 c -0.28423,-0.912 -1.08428,-1.6523 -2.40015,-2.2207 -1.48048,-0.5532 -3.21504,-0.5685 -5.20369,-0.045 -0.852208,0.2842 -1.450333,0.6503 -1.794375,1.0991 -0.119625,0.1196 -0.276573,0.4933 -0.470844,1.1216 -0.03015,0.7326 0,1.1589 0.08996,1.2786 0.194271,0.5086 0.583292,0.9646 1.166583,1.368 l 0.583292,0.2469 c 4.246684,1.2561 7.125344,2.1681 8.635484,2.7365 1.30104,0.5982 2.29537,1.2561 2.98297,1.9739 l 1.25606,1.7049 c 0.92733,1.5402 1.42067,3.2222 1.48048,5.0467 0.0148,0.1196 0.0225,0.2617 0.0225,0.4263 0,0.5833 -0.09,1.3681 -0.2694,2.3552 -0.3737,1.3905 -0.82254,2.415 -1.34602,3.0729 -0.89718,1.1068 -1.54746,1.7719 -1.95132,1.9963 -2.19823,1.5102 -4.46345,2.3251 -6.79613,2.4447 h -2.041281 c -1.525458,-0.1498 -2.811187,-0.4488 -3.858144,-0.8972 -1.67475,-0.7776 -3.027948,-1.6451 -4.059594,-2.6021 -0.852208,-0.7771 -1.592447,-1.891 -2.220718,-3.3418 z"
         style="color:#000000;font-style:normal;font-variant:normal;font-weight:normal;font-stretch:normal;font-size:medium;line-height:normal;font-family:sans-serif;font-variant-ligatures:normal;font-variant-position:normal;font-variant-caps:normal;font-variant-numeric:normal;font-variant-alternates:normal;font-variant-east-asian:normal;font-feature-settings:normal;font-variation-settings:normal;text-indent:0;text-align:start;text-decoration:none;text-decoration-line:none;text-decoration-style:solid;text-decoration-color:#000000;letter-spacing:normal;word-spacing:normal;text-transform:none;writing-mode:lr-tb;direction:ltr;text-orientation:mixed;dominant-baseline:auto;baseline-shift:baseline;text-anchor:start;white-space:normal;shape-padding:0;shape-margin:0;inline-size:0;clip-rule:nonzero;display:inline;overflow:visible;visibility:visible;isolation:auto;mix-blend-mode:normal;color-interpolation:sRGB;color-interpolation-filters:linearRGB;solid-color:#000000;solid-opacity:1;vector-effect:none;fill:#000000;fill-opacity:1;fill-rule:nonzero;stroke:none;stroke-width:0.444918;stroke-linecap:butt;stroke-linejoin:miter;stroke-miterlimit:10;stroke-dasharray:none;stroke-dashoffset:0;stroke-opacity:1;color-rendering:auto;image-rendering:auto;shape-rendering:auto;text-rendering:auto;enable-background:accumulate;stop-color:#000000;stop-opacity:1" />
      <path
         sodipodi:nodetypes="cccccccccccsccccccccccccccccccccccccccccccccccsccccccccccccccscccccccccccccccccscc"
         id="path28"
         d="m 99.056641,1004.5586 c -2.225235,0.128 -4.363087,0.9449 -6.369141,2.4023 l -0.01953,0.014 -0.01758,0.016 c -1.843385,1.5365 -2.935131,3.6608 -3.236329,6.2325 l -0.0039,0.027 v 0.027 c -0.07821,2.0363 0.24983,3.8206 1.021485,5.3145 h 0.002 0.002 c 1.145351,2.1635 2.927461,3.7474 5.248047,4.6875 0.42075,0.2193 1.095981,0.444 2.386718,0.873 1.300079,0.4321 3.133709,1.0186 5.474609,1.75 l 0.7461,0.332 0.63867,0.4883 c 0.17991,0.1823 0.36186,0.4267 0.53906,0.709 0.13034,0.4319 0.17532,0.7999 0.13867,1.0957 -0.24174,1.054 -0.59013,1.6942 -0.6543,1.75 l -0.0508,0.043 -0.041,0.051 c -0.10255,0.1292 -0.93718,0.6301 -2.36914,1.0351 h -0.002 c -0.0444,0.013 -0.91456,0.085 -2.13867,0.061 -1.098295,-0.1247 -2.118885,-0.4646 -3.085936,-1.0332 -0.590485,-0.4059 -1.055607,-0.8443 -1.400391,-1.3165 l -0.349609,-0.4804 -0.537109,0.2539 -6.297433,2.2372 0.272042,0.9174 c 0.655906,1.5146 1.4406,2.7165 2.390625,3.584 5.9e-4,5e-4 0.0014,0 0.002,0 5.98e-4,6e-4 0.0014,0 0.002,0 1.102014,1.0214 2.51829,1.9222 4.242188,2.7226 h 0.0098 0.0098 c 1.1363,0.4867 2.491444,0.7981 4.070313,0.9532 h 0.03516 2.09375 0.0195 c 2.45826,-0.126 4.84295,-0.9932 7.11719,-2.5449 0.64097,-0.3593 1.23908,-1.0359 2.15039,-2.1602 h 0.002 0.002 c 0.62506,-0.7856 1.09036,-1.8897 1.47851,-3.334 l 0.008,-0.027 0.004,-0.029 c 0.18382,-1.0114 0.28125,-1.8273 0.28125,-2.4844 0,-0.1635 -0.009,-0.3083 -0.0234,-0.4492 v 0 c -0.0642,-1.9378 -0.59429,-3.7501 -1.58204,-5.3907 l -0.0176,-0.027 -1.30274,-1.7695 -0.0332,-0.033 c -0.77516,-0.8093 -1.84477,-1.5072 -3.20117,-2.1309 l -0.0234,-0.01 -0.0234,-0.01 c -1.54625,-0.582 -4.42192,-1.4891 -8.63672,-2.7364 l -0.447266,-0.1914 c -0.475411,-0.3361 -0.754663,-0.6723 -0.882812,-1.0078 l -0.03711,-0.094 -0.06055,-0.08 c 0.177743,0.2365 0.06454,0.1383 0.05273,-0.029 -0.01044,-0.1481 -0.0076,-0.404 0.002,-0.6973 0.07827,-0.2455 0.151556,-0.4635 0.207031,-0.5957 0.06384,-0.152 0.14626,-0.2341 0.05273,-0.1406 l 0.0332,-0.033 0.0293,-0.037 c 0.211775,-0.2763 0.677712,-0.5898 1.433594,-0.8457 1.866943,-0.4872 3.425433,-0.4576 4.728513,0.025 1.18895,0.5181 1.78054,1.1159 1.98242,1.7636 l 0.0898,0.293 0.8125,0.4043 5.23242,-2.5137 0.22266,-0.8144 -0.10743,-0.2363 c -0.75212,-1.6451 -1.72557,-2.9792 -2.92578,-3.9707 -1.21357,-1.0781 -2.85019,-1.8833 -4.89062,-2.4551 l -0.0156,-0.01 h -0.0176 c -1.05018,-0.2424 -2.32319,-0.3535 -3.839838,-0.3535 h -0.603516 z"
         style="color:#000000;font-style:normal;font-variant:normal;font-weight:normal;font-stretch:normal;font-size:medium;line-height:normal;font-family:sans-serif;font-variant-ligatures:normal;font-variant-position:normal;font-variant-caps:normal;font-variant-numeric:normal;font-variant-alternates:normal;font-variant-east-asian:normal;font-feature-settings:normal;font-variation-settings:normal;text-indent:0;text-align:start;text-decoration:none;text-decoration-line:none;text-decoration-style:solid;text-decoration-color:#000000;letter-spacing:normal;word-spacing:normal;text-transform:none;writing-mode:lr-tb;direction:ltr;text-orientation:mixed;dominant-baseline:auto;baseline-shift:baseline;text-anchor:start;white-space:normal;shape-padding:0;shape-margin:0;inline-size:0;clip-rule:nonzero;display:inline;overflow:visible;visibility:visible;isolation:auto;mix-blend-mode:normal;color-interpolation:sRGB;color-interpolation-filters:linearRGB;solid-color:#000000;solid-opacity:1;vector-effect:none;fill:#000000;fill-opacity:1;fill-rule:nonzero;stroke:none;stroke-width:0.444918;stroke-linecap:butt;stroke-linejoin:miter;stroke-miterlimit:10;stroke-dasharray:none;stroke-dashoffset:0;stroke-opacity:1;color-rendering:auto;image-rendering:auto;shape-rendering:auto;text-rendering:auto;enable-background:accumulate;stop-color:#000000;stop-opacity:1" />
    </g>
    <path
       id="path21-7"
       d="m 369.33391,1205.7162 h 21.67589 v 21.8905 h -21.67589 z"
       style="stroke:#000000;stroke-width:1.4355;stroke-miterlimit:10"
       inkscape:connector-curvature="0" />
    <g
       transform="matrix(3.2211973,0,0,3.2316914,-238.82571,-2128.4825)"
       id="g46"
       style="opacity:1;fill:#000000;stroke-width:0.309939">
      <path
         style="color:#000000;font-style:normal;font-variant:normal;font-weight:normal;font-stretch:normal;font-size:medium;line-height:normal;font-family:sans-serif;font-variant-ligatures:normal;font-variant-position:normal;font-variant-caps:normal;font-variant-numeric:normal;font-variant-alternates:normal;font-variant-east-asian:normal;font-feature-settings:normal;font-variation-settings:normal;text-indent:0;text-align:start;text-decoration:none;text-decoration-line:none;text-decoration-style:solid;text-decoration-color:#000000;letter-spacing:normal;word-spacing:normal;text-transform:none;writing-mode:lr-tb;direction:ltr;text-orientation:mixed;dominant-baseline:auto;baseline-shift:baseline;text-anchor:start;white-space:normal;shape-padding:0;shape-margin:0;inline-size:0;clip-rule:nonzero;display:inline;overflow:visible;visibility:visible;isolation:auto;mix-blend-mode:normal;color-interpolation:sRGB;color-interpolation-filters:linearRGB;solid-color:#000000;solid-opacity:1;vector-effect:none;fill:#000000;fill-opacity:1;fill-rule:nonzero;stroke:none;stroke-width:0.444918;stroke-linecap:butt;stroke-linejoin:miter;stroke-miterlimit:10;stroke-dasharray:none;stroke-dashoffset:0;stroke-opacity:1;color-rendering:auto;image-rendering:auto;shape-rendering:auto;text-rendering:auto;enable-background:accumulate;stop-color:#000000;stop-opacity:1"
         d="m 89.611101,1031.7663 v -0.045 c 0,-0.1646 0.171782,-0.2766 0.515823,-0.3364 2.646583,-0.8522 4.366312,-1.4656 5.158708,-1.8393 0.403854,0.5531 0.93451,1.0541 1.592447,1.5029 1.061792,0.6283 2.198229,1.0092 3.409311,1.1441 1.28621,0.03 2.08578,0 2.40016,-0.09 1.48048,-0.4187 2.3925,-0.8451 2.73654,-1.2786 0.34404,-0.299 0.6431,-1.0245 0.89718,-2.1757 0.0598,-0.4489 0,-0.9494 -0.17943,-1.503 -0.22442,-0.3737 -0.46367,-0.6881 -0.71775,-0.9422 l -0.76273,-0.5832 -0.85221,-0.3814 c -4.74002,-1.4805 -7.34928,-2.3475 -7.82778,-2.6021 -2.198228,-0.8823 -3.835655,-2.3403 -4.912279,-4.374 -0.702917,-1.3608 -1.016813,-3.0131 -0.942167,-4.9567 0.283751,-2.4227 1.278552,-4.3439 2.982969,-5.7645 1.913999,-1.3906 3.910301,-2.1456 5.988904,-2.2652 h 0.583292 c 1.480481,0 2.706391,0.1119 3.678711,0.3363 1.97381,0.5532 3.5141,1.3236 4.62039,2.3102 1.10677,0.9121 2.01879,2.1533 2.73654,3.7232 l -0.0675,0.2469 -4.62039,2.2208 -0.22442,-0.112 c -0.28423,-0.912 -1.08428,-1.6523 -2.40015,-2.2207 -1.48048,-0.5532 -3.21504,-0.5685 -5.20369,-0.045 -0.852208,0.2842 -1.450333,0.6503 -1.794375,1.0991 -0.119625,0.1196 -0.276573,0.4933 -0.470844,1.1216 -0.03015,0.7326 0,1.1589 0.08996,1.2786 0.194271,0.5086 0.583292,0.9646 1.166583,1.368 l 0.583292,0.2469 c 4.246684,1.2561 7.125344,2.1681 8.635484,2.7365 1.30104,0.5982 2.29537,1.2561 2.98297,1.9739 l 1.25606,1.7049 c 0.92733,1.5402 1.42067,3.2222 1.48048,5.0467 0.0148,0.1196 0.0225,0.2617 0.0225,0.4263 0,0.5833 -0.09,1.3681 -0.2694,2.3552 -0.3737,1.3905 -0.82254,2.415 -1.34602,3.0729 -0.89718,1.1068 -1.54746,1.7719 -1.95132,1.9963 -2.19823,1.5102 -4.46345,2.3251 -6.79613,2.4447 h -2.041281 c -1.525458,-0.1498 -2.811187,-0.4488 -3.858144,-0.8972 -1.67475,-0.7776 -3.027948,-1.6451 -4.059594,-2.6021 -0.852208,-0.7771 -1.592447,-1.891 -2.220718,-3.3418 z"
         id="path42" />
      <path
         style="color:#000000;font-style:normal;font-variant:normal;font-weight:normal;font-stretch:normal;font-size:medium;line-height:normal;font-family:sans-serif;font-variant-ligatures:normal;font-variant-position:normal;font-variant-caps:normal;font-variant-numeric:normal;font-variant-alternates:normal;font-variant-east-asian:normal;font-feature-settings:normal;font-variation-settings:normal;text-indent:0;text-align:start;text-decoration:none;text-decoration-line:none;text-decoration-style:solid;text-decoration-color:#000000;letter-spacing:normal;word-spacing:normal;text-transform:none;writing-mode:lr-tb;direction:ltr;text-orientation:mixed;dominant-baseline:auto;baseline-shift:baseline;text-anchor:start;white-space:normal;shape-padding:0;shape-margin:0;inline-size:0;clip-rule:nonzero;display:inline;overflow:visible;visibility:visible;isolation:auto;mix-blend-mode:normal;color-interpolation:sRGB;color-interpolation-filters:linearRGB;solid-color:#000000;solid-opacity:1;vector-effect:none;fill:#000000;fill-opacity:1;fill-rule:nonzero;stroke:none;stroke-width:0.444918;stroke-linecap:butt;stroke-linejoin:miter;stroke-miterlimit:10;stroke-dasharray:none;stroke-dashoffset:0;stroke-opacity:1;color-rendering:auto;image-rendering:auto;shape-rendering:auto;text-rendering:auto;enable-background:accumulate;stop-color:#000000;stop-opacity:1"
         d="m 99.056641,1004.5586 c -2.225235,0.128 -4.363087,0.9449 -6.369141,2.4023 l -0.01953,0.014 -0.01758,0.016 c -1.843385,1.5365 -2.935131,3.6608 -3.236329,6.2325 l -0.0039,0.027 v 0.027 c -0.07821,2.0363 0.24983,3.8206 1.021485,5.3145 h 0.002 0.002 c 1.145351,2.1635 2.927461,3.7474 5.248047,4.6875 0.42075,0.2193 1.095981,0.444 2.386718,0.873 1.300079,0.4321 3.133709,1.0186 5.474609,1.75 l 0.7461,0.332 0.63867,0.4883 c 0.17991,0.1823 0.36186,0.4267 0.53906,0.709 0.13034,0.4319 0.17532,0.7999 0.13867,1.0957 -0.24174,1.054 -0.59013,1.6942 -0.6543,1.75 l -0.0508,0.043 -0.041,0.051 c -0.10255,0.1292 -0.93718,0.6301 -2.36914,1.0351 h -0.002 c -0.0444,0.013 -0.91456,0.085 -2.13867,0.061 -1.098295,-0.1247 -2.118885,-0.4646 -3.085936,-1.0332 -0.590485,-0.4059 -1.055607,-0.8443 -1.400391,-1.3165 l -0.349609,-0.4804 -0.537109,0.2539 -6.297433,2.2372 0.272042,0.9174 c 0.655906,1.5146 1.4406,2.7165 2.390625,3.584 5.9e-4,5e-4 0.0014,0 0.002,0 5.98e-4,6e-4 0.0014,0 0.002,0 1.102014,1.0214 2.51829,1.9222 4.242188,2.7226 h 0.0098 0.0098 c 1.1363,0.4867 2.491444,0.7981 4.070313,0.9532 h 0.03516 2.09375 0.0195 c 2.45826,-0.126 4.84295,-0.9932 7.11719,-2.5449 0.64097,-0.3593 1.23908,-1.0359 2.15039,-2.1602 h 0.002 0.002 c 0.62506,-0.7856 1.09036,-1.8897 1.47851,-3.334 l 0.008,-0.027 0.004,-0.029 c 0.18382,-1.0114 0.28125,-1.8273 0.28125,-2.4844 0,-0.1635 -0.009,-0.3083 -0.0234,-0.4492 v 0 c -0.0642,-1.9378 -0.59429,-3.7501 -1.58204,-5.3907 l -0.0176,-0.027 -1.30274,-1.7695 -0.0332,-0.033 c -0.77516,-0.8093 -1.84477,-1.5072 -3.20117,-2.1309 l -0.0234,-0.01 -0.0234,-0.01 c -1.54625,-0.582 -4.42192,-1.4891 -8.63672,-2.7364 l -0.447266,-0.1914 c -0.475411,-0.3361 -0.754663,-0.6723 -0.882812,-1.0078 l -0.03711,-0.094 -0.06055,-0.08 c 0.177743,0.2365 0.06454,0.1383 0.05273,-0.029 -0.01044,-0.1481 -0.0076,-0.404 0.002,-0.6973 0.07827,-0.2455 0.151556,-0.4635 0.207031,-0.5957 0.06384,-0.152 0.14626,-0.2341 0.05273,-0.1406 l 0.0332,-0.033 0.0293,-0.037 c 0.211775,-0.2763 0.677712,-0.5898 1.433594,-0.8457 1.866943,-0.4872 3.425433,-0.4576 4.728513,0.025 1.18895,0.5181 1.78054,1.1159 1.98242,1.7636 l 0.0898,0.293 0.8125,0.4043 5.23242,-2.5137 0.22266,-0.8144 -0.10743,-0.2363 c -0.75212,-1.6451 -1.72557,-2.9792 -2.92578,-3.9707 -1.21357,-1.0781 -2.85019,-1.8833 -4.89062,-2.4551 l -0.0156,-0.01 h -0.0176 c -1.05018,-0.2424 -2.32319,-0.3535 -3.839838,-0.3535 h -0.603516 z"
         id="path44"
         sodipodi:nodetypes="cccccccccccsccccccccccccccccccccccccccccccccccsccccccccccccccscccccccccccccccccscc" />
    </g>
  </g>
</svg>
