<?xml version="1.0" encoding="UTF-8" standalone="no"?>
<!-- Generator: Adobe Illustrator 13.0.0, SVG Export Plug-In  -->

<svg
   xmlns:dc="http://purl.org/dc/elements/1.1/"
   xmlns:cc="http://creativecommons.org/ns#"
   xmlns:rdf="http://www.w3.org/1999/02/22-rdf-syntax-ns#"
   xmlns:svg="http://www.w3.org/2000/svg"
   xmlns="http://www.w3.org/2000/svg"
   xmlns:xlink="http://www.w3.org/1999/xlink"
   xmlns:sodipodi="http://sodipodi.sourceforge.net/DTD/sodipodi-0.dtd"
   xmlns:inkscape="http://www.inkscape.org/namespaces/inkscape"
   version="1.1"
   x="0px"
   y="0px"
   width="576.53827"
   height="507.94376"
   viewBox="-0.781 -0.08 576.53826 507.94375"
   enable-background="new -0.781 -0.08 576 506"
   xml:space="preserve"
   id="svg2"
   inkscape:version="0.92.5 (2060ec1f9f, 2020-04-08)"
   sodipodi:docname="France_road_sign_XA6.svg"><metadata
   id="metadata18"><rdf:RDF><cc:Work
       rdf:about=""><dc:format>image/svg+xml</dc:format><dc:type
         rdf:resource="http://purl.org/dc/dcmitype/StillImage" /><dc:title></dc:title></cc:Work></rdf:RDF></metadata><sodipodi:namedview
   pagecolor="#ffffff"
   bordercolor="#666666"
   borderopacity="1"
   objecttolerance="10"
   gridtolerance="10"
   guidetolerance="10"
   inkscape:pageopacity="0"
   inkscape:pageshadow="2"
   inkscape:window-width="1920"
   inkscape:window-height="1057"
   id="namedview16"
   showgrid="false"
   fit-margin-top="0.3"
   fit-margin-left="0.3"
   fit-margin-right="0.3"
   fit-margin-bottom="0.3"
   inkscape:zoom="0.35355339"
   inkscape:cx="1123.117"
   inkscape:cy="29.846851"
   inkscape:window-x="-8"
   inkscape:window-y="-8"
   inkscape:window-maximized="1"
   inkscape:current-layer="svg2"
   showguides="true"
   inkscape:guide-bbox="true"
   inkscape:snap-page="true"
   inkscape:snap-text-baseline="true"
   inkscape:snap-center="true"
   inkscape:snap-object-midpoints="true" />
<defs
   id="defs4">
<pattern
   patternTransform="translate(-27.411993,37.134952)"
   id="pattern12479"
   xlink:href="#pattern12310-9"
   inkscape:collect="always" /><pattern
   patternUnits="userSpaceOnUse"
   width="7"
   height="7"
   patternTransform="translate(-27.409426,37.156635)"
   id="pattern12310-9"><path
     inkscape:connector-curvature="0"
     id="rect12307-0"
     d="M 0,0 V 3.5 A 3.5,3.5 0 0 1 3.5,0 Z M 3.5,0 A 3.5,3.5 0 0 1 7,3.5 V 0 Z M 7,3.5 A 3.5,3.5 0 0 1 3.5,7 H 7 Z M 3.5,7 A 3.5,3.5 0 0 1 0,3.5 V 7 Z"
     style="opacity:1;fill:#1a1a1a;fill-opacity:1;fill-rule:evenodd;stroke:none;stroke-width:1.50953102;stroke-linecap:round;stroke-miterlimit:4;stroke-dasharray:1.50953107, 1.50953107;stroke-dashoffset:0;stroke-opacity:1;paint-order:markers stroke fill" /></pattern></defs>





<rect
   style="display:inline;opacity:1;fill:#000000;fill-opacity:1;fill-rule:evenodd;stroke:none;stroke-width:1.5;stroke-linecap:round;stroke-miterlimit:4;stroke-dasharray:1.5, 1.5;stroke-dashoffset:0;stroke-opacity:1;paint-order:markers stroke fill"
   id="rect19"
   width="576.53827"
   height="507.94376"
   x="-0.78100002"
   y="-0.079999998" /><path
   style="fill:#ff0000;stroke:none"
   d="M 288.26562 13.638672 C 281.64663 13.638672 275.53166 17.170344 272.22266 22.902344 L 16.126953 466.47266 C 12.816953 472.20366 12.816953 479.26705 16.126953 484.99805 C 19.435953 490.73005 25.552875 494.26172 32.171875 494.26172 L 544.36133 494.26172 C 550.97933 494.26172 557.09625 490.73105 560.40625 484.99805 C 563.71625 479.26705 563.71625 472.20366 560.40625 466.47266 L 304.31055 22.902344 C 301.00055 17.170344 294.88463 13.638672 288.26562 13.638672 z M 288.26562 69.425781 L 512.09375 457.10547 L 64.439453 457.10547 L 288.26562 69.425781 z "
   transform="translate(-0.781,-0.08)"
   id="path8" /><polygon
   transform="translate(0.01624894,0.7257614)"
   points="384.6,439.488 384.6,348.951 432.433,348.951 482.797,439.488 "
   id="polygon12"
   style="fill:#ffffff;stroke:none" /><path
   style="fill:#ffffff;stroke:none"
   d="M 312.92969 201.13281 L 163.33984 321.69531 L 192.07617 354.48047 L 329.4668 244.91406 L 329.48242 244.93359 L 330.5918 244.01758 L 335.77344 239.88477 L 335.70898 239.78906 L 340.64258 235.71289 L 331.55273 224.70898 L 312.92969 201.13281 z M 192.07617 354.48047 L 191.3418 355.06445 L 141.57422 355.26758 L 86.953125 445.35352 L 191.22852 444.31641 L 192.07617 354.48047 z "
   transform="translate(-0.781,-0.08)"
   id="polygon14" /><polyline
   transform="translate(0.01624894,0.7257614)"
   points="190.428,437.328   203.072,432.216 216.336,422.529 225.916,418.223 236.233,416.07 242.864,416.07 251.708,417.146 261.287,420.375 270.129,424.681   278.973,428.987 290.025,433.293 301.08,433.293 312.133,430.064 320.239,423.605 329.818,418.223 340.872,414.993 349.714,417.146   358.558,424.681 365.927,431.14 375.506,435.446 384.6,436.523 "
   id="polyline16"
   style="fill:none;stroke:#ffffff;stroke-width:6;stroke-linecap:round;stroke-linejoin:round;stroke-opacity:1" /><polyline
   transform="translate(0.01624894,0.7257614)"
   points="190.428,418.801   203.072,413.691 216.336,404.002 225.916,399.697 236.233,397.544 242.864,397.544 251.708,398.621 261.287,401.849   270.129,406.156 278.973,410.46 290.025,414.767 301.08,414.767 312.133,411.538 320.239,405.08 329.818,399.697 340.872,396.467   349.714,398.621 358.558,406.156 365.927,412.615 375.506,416.919 384.6,417.997 "
   id="polyline18"
   style="fill:none;stroke:#ffffff;stroke-width:6;stroke-linecap:round;stroke-linejoin:round;stroke-opacity:1" /><polyline
   transform="translate(0.01624894,0.7257614)"
   points="190.428,400.276   203.072,395.165 216.336,385.477 225.916,381.17 236.233,379.018 242.864,379.018 251.708,380.094 261.287,383.324 270.129,387.629   278.973,391.935 290.025,396.241 301.08,396.241 312.133,393.012 320.239,386.553 329.818,381.17 340.872,377.942 349.714,380.094   358.558,387.629 365.927,394.088 375.506,398.394 384.6,399.471 "
   id="polyline20"
   style="fill:none;stroke:#ffffff;stroke-width:6;stroke-linecap:round;stroke-linejoin:round;stroke-opacity:1" /><rect
   style="display:inline;opacity:1;fill:url(#pattern12479);fill-opacity:1;fill-rule:evenodd;stroke:none;stroke-width:1.5;stroke-linecap:round;stroke-miterlimit:4;stroke-dasharray:1.5, 1.5;stroke-dashoffset:0;stroke-opacity:1;paint-order:markers stroke fill"
   id="rect12317-3"
   width="576.53827"
   height="507.94376"
   x="-0.78353304"
   y="-0.10168205" /></svg>