<?xml version="1.0" encoding="UTF-8" standalone="no"?>
<!-- Created with Inkscape (http://www.inkscape.org/) -->

<svg
   xmlns:dc="http://purl.org/dc/elements/1.1/"
   xmlns:cc="http://creativecommons.org/ns#"
   xmlns:rdf="http://www.w3.org/1999/02/22-rdf-syntax-ns#"
   xmlns:svg="http://www.w3.org/2000/svg"
   xmlns="http://www.w3.org/2000/svg"
   xmlns:sodipodi="http://sodipodi.sourceforge.net/DTD/sodipodi-0.dtd"
   xmlns:inkscape="http://www.inkscape.org/namespaces/inkscape"
   width="300"
   height="304.54999"
   id="svg3907"
   version="1.1"
   inkscape:version="0.48.4 r9939"
   sodipodi:docname="M4k.svg">
  <defs
     id="defs3909" />
  <sodipodi:namedview
     id="base"
     pagecolor="#ffffff"
     bordercolor="#666666"
     borderopacity="1.0"
     inkscape:pageopacity="0.0"
     inkscape:pageshadow="2"
     inkscape:zoom="0.98994949"
     inkscape:cx="249.96017"
     inkscape:cy="179.8624"
     inkscape:document-units="px"
     inkscape:current-layer="layer1"
     showgrid="false"
     inkscape:snap-bbox="true"
     inkscape:bbox-nodes="true"
     inkscape:bbox-paths="true"
     inkscape:snap-bbox-midpoints="true"
     inkscape:snap-bbox-edge-midpoints="true"
     inkscape:object-paths="true"
     inkscape:snap-intersection-paths="true"
     inkscape:object-nodes="true"
     inkscape:snap-smooth-nodes="true"
     inkscape:snap-midpoints="true"
     inkscape:snap-object-midpoints="true"
     inkscape:snap-center="true"
     inkscape:snap-page="true"
     showguides="true"
     inkscape:guide-bbox="true"
     inkscape:window-width="1366"
     inkscape:window-height="745"
     inkscape:window-x="-8"
     inkscape:window-y="-8"
     inkscape:window-maximized="1" />
  <metadata
     id="metadata3912">
    <rdf:RDF>
      <cc:Work
         rdf:about="">
        <dc:format>image/svg+xml</dc:format>
        <dc:type
           rdf:resource="http://purl.org/dc/dcmitype/StillImage" />
        <dc:title></dc:title>
      </cc:Work>
    </rdf:RDF>
  </metadata>
  <g
     inkscape:label="Calque 1"
     inkscape:groupmode="layer"
     id="layer1"
     transform="translate(0,-747.81217)">
    <g
       transform="matrix(0.50372367,0,0,0.50372367,-427.73823,976.95041)"
       id="g3874">
      <rect
         ry="65.451103"
         y="-452.08929"
         x="851.85663"
         height="599.09375"
         width="590.15643"
         id="rect2995"
         style="fill:#ffffff;stroke:#000000;stroke-width:5.40820599;stroke-miterlimit:4;stroke-opacity:1;stroke-dasharray:none" />
      <g
         transform="translate(847.16351,-429.66106)"
         id="g3866">
        <g
           id="g3858">
          <path
             style="fill:none;stroke:#000000;stroke-width:15;stroke-linecap:butt;stroke-linejoin:miter;stroke-miterlimit:4;stroke-opacity:1;stroke-dasharray:none"
             d="m 78.425932,402.36217 c 5.965599,-0.45215 18.557406,-3.56983 29.315738,-2.18131 32.54649,4.20062 62.42662,15.14849 88.02104,15.23024 33.82733,2.06358 63.57905,-17.52909 95.00108,-16.13215 46.10819,-0.0985 50.15768,17.07323 102.68963,16.73849 21.94807,0.943 54.65605,-9.06431 82.43011,-15.06238 13.1364,-2.83693 23.22253,-1.42985 37.29645,0.11064 3.68767,0.40364 10.91423,0.34143 10.91423,0.34143"
             id="path3015"
             inkscape:connector-curvature="0"
             sodipodi:nodetypes="cscccssc" />
          <path
             sodipodi:nodetypes="cscccssc"
             inkscape:connector-curvature="0"
             id="path3015-1"
             d="m 77.801453,449.16774 c 5.965599,-0.45215 18.557406,-3.56983 29.315737,-2.18131 32.54649,4.20062 62.42662,15.14849 88.02104,15.23024 33.82733,2.06358 63.57905,-17.52909 95.00108,-16.13215 46.10819,-0.0985 50.15768,17.07323 102.68963,16.73849 21.94807,0.943 54.65605,-9.06431 82.43011,-15.06238 13.1364,-2.83693 23.22253,-1.42985 37.29645,0.11064 3.68767,0.40364 10.91423,0.34143 10.91423,0.34143"
             style="fill:none;stroke:#000000;stroke-width:15;stroke-linecap:butt;stroke-linejoin:miter;stroke-miterlimit:4;stroke-opacity:1;stroke-dasharray:none" />
          <path
             sodipodi:nodetypes="cc"
             inkscape:connector-curvature="0"
             id="path3803"
             d="m 142.69068,348.30508 315.73093,0"
             style="fill:none;stroke:#000000;stroke-width:7;stroke-linecap:butt;stroke-linejoin:miter;stroke-miterlimit:4;stroke-opacity:1;stroke-dasharray:none" />
          <path
             sodipodi:nodetypes="ccccccccccccccccccccccccccc"
             inkscape:connector-curvature="0"
             id="path3823"
             d="m 154.13136,338.76749 c 0.19183,3.67259 1.52419,6.3136 3.58825,6.21504 l 20.59265,0 c 1.59917,0.16968 4.19409,-1.37571 5.05638,-5.05639 l 0,-24.03631 97.41418,0 c 12.92078,22.43128 32.34204,12.43435 38.87589,0 l 96.01926,0 0,23.55181 c 0.28625,2.73868 2.83775,5.87619 5.7537,5.7537 l 18.1131,0 c 2.05269,0.15662 6.32225,-1.37103 6.95947,-6.95947 l 0,-66.88322 c 0.13288,-1.95421 -1.38941,-5.05082 -5.28083,-5.28083 l -20.77951,0 c -1.8143,-0.0933 -4.9887,1.55761 -4.76593,4.76593 l 0,21.85293 -48.04237,0 0,-15.57204 -135.72854,0 0,15.57204 -48.53842,0 0,-21.22567 -5.39319,-5.39319 -17.52813,0 -6.31596,6.31596 z"
             style="fill:#000000;fill-opacity:1;stroke:none" />
        </g>
        <path
           sodipodi:type="arc"
           style="fill:#ff0000;stroke:none"
           id="path3864"
           sodipodi:cx="300.31781"
           sodipodi:cy="249.494"
           sodipodi:rx="146.18645"
           sodipodi:ry="43.196678"
           d="m 446.50426,249.494 c 0,23.85687 -65.4499,43.19668 -146.18645,43.19668 -80.73655,0 -146.18645,-19.33981 -146.18645,-43.19668 0,-23.85686 65.4499,-43.19667 146.18645,-43.19667 80.73655,0 146.18645,19.33981 146.18645,43.19667 z"
           transform="matrix(0.99999995,0,0,1.9676022,4.6167523e-6,-283.20814)" />
      </g>
    </g>
  </g>
</svg>
