<?xml version="1.0" encoding="UTF-8" standalone="no"?>
<!-- Generator: Adobe Illustrator 13.0.0, SVG Export Plug-In  -->

<svg
   xmlns:dc="http://purl.org/dc/elements/1.1/"
   xmlns:cc="http://creativecommons.org/ns#"
   xmlns:rdf="http://www.w3.org/1999/02/22-rdf-syntax-ns#"
   xmlns:svg="http://www.w3.org/2000/svg"
   xmlns="http://www.w3.org/2000/svg"
   xmlns:xlink="http://www.w3.org/1999/xlink"
   xmlns:sodipodi="http://sodipodi.sourceforge.net/DTD/sodipodi-0.dtd"
   xmlns:inkscape="http://www.inkscape.org/namespaces/inkscape"
   version="1.1"
   x="0px"
   y="0px"
   width="576.53827"
   height="507.94376"
   viewBox="-0.781 -0.08 576.53826 507.94375"
   enable-background="new -0.781 -0.08 576 506"
   xml:space="preserve"
   id="svg2"
   inkscape:version="0.92.5 (2060ec1f9f, 2020-04-08)"
   sodipodi:docname="France_road_sign_XA7.svg"><metadata
   id="metadata18"><rdf:RDF><cc:Work
       rdf:about=""><dc:format>image/svg+xml</dc:format><dc:type
         rdf:resource="http://purl.org/dc/dcmitype/StillImage" /><dc:title></dc:title></cc:Work></rdf:RDF></metadata><sodipodi:namedview
   pagecolor="#ffffff"
   bordercolor="#666666"
   borderopacity="1"
   objecttolerance="10"
   gridtolerance="10"
   guidetolerance="10"
   inkscape:pageopacity="0"
   inkscape:pageshadow="2"
   inkscape:window-width="1920"
   inkscape:window-height="1057"
   id="namedview16"
   showgrid="false"
   fit-margin-top="0.3"
   fit-margin-left="0.3"
   fit-margin-right="0.3"
   fit-margin-bottom="0.3"
   inkscape:zoom="0.45657509"
   inkscape:cx="974.74126"
   inkscape:cy="49.485102"
   inkscape:window-x="-8"
   inkscape:window-y="-8"
   inkscape:window-maximized="1"
   inkscape:current-layer="svg2"
   showguides="true"
   inkscape:guide-bbox="true"
   inkscape:snap-object-midpoints="true"
   inkscape:snap-center="true"
   inkscape:snap-text-baseline="true"
   inkscape:snap-page="true" />
<defs
   id="defs4">
<pattern
   patternTransform="translate(-27.409489,37.156649)"
   id="pattern12479"
   xlink:href="#pattern12310-9"
   inkscape:collect="always" /><pattern
   patternUnits="userSpaceOnUse"
   width="7"
   height="7"
   patternTransform="translate(-27.409426,37.156635)"
   id="pattern12310-9"><path
     inkscape:connector-curvature="0"
     id="rect12307-0"
     d="M 0,0 V 3.5 A 3.5,3.5 0 0 1 3.5,0 Z M 3.5,0 A 3.5,3.5 0 0 1 7,3.5 V 0 Z M 7,3.5 A 3.5,3.5 0 0 1 3.5,7 H 7 Z M 3.5,7 A 3.5,3.5 0 0 1 0,3.5 V 7 Z"
     style="opacity:1;fill:#1a1a1a;fill-opacity:1;fill-rule:evenodd;stroke:none;stroke-width:1.50953102;stroke-linecap:round;stroke-miterlimit:4;stroke-dasharray:1.50953107, 1.50953107;stroke-dashoffset:0;stroke-opacity:1;paint-order:markers stroke fill" /></pattern></defs>





<rect
   style="display:inline;opacity:1;fill:#000000;fill-opacity:1;fill-rule:evenodd;stroke:none;stroke-width:1.5;stroke-linecap:round;stroke-miterlimit:4;stroke-dasharray:1.5, 1.5;stroke-dashoffset:0;stroke-opacity:1;paint-order:markers stroke fill"
   id="rect19"
   width="576.53827"
   height="507.94376"
   x="-0.78100002"
   y="-0.079999998" /><path
   style="fill:#f41a0e;stroke:none"
   d="M 288.26758 13.638672 C 281.64858 13.638672 275.53166 17.170344 272.22266 22.902344 L 16.126953 466.47266 C 12.817953 472.20466 12.817953 479.26705 16.126953 484.99805 C 19.436953 490.73005 25.551875 494.26272 32.171875 494.26172 L 544.36133 494.26172 C 550.98033 494.26172 557.09625 490.73105 560.40625 484.99805 C 563.71625 479.26705 563.71625 472.20366 560.40625 466.47266 L 304.31055 22.902344 C 301.00055 17.170344 294.88558 13.638672 288.26758 13.638672 z M 288.26562 69.425781 L 512.09375 457.10547 L 64.439453 457.10547 L 288.26562 69.425781 z "
   transform="translate(-0.781,-0.08)"
   id="path8" /><polygon
   transform="translate(0.01612389,0.7257561)"
   points="212.878,401.688 229.2,401.704 229.2,423.541 257.564,423.541 257.418,401.729 274.876,401.745 274.876,423.541 303.241,423.541 303.095,401.77 320.081,401.786 320.081,423.541 348.445,423.541 348.3,401.811 367.666,401.829 367.666,423.541 396.031,423.541 395.886,401.855 411.705,401.87 411.705,380.784 395.744,380.784 395.218,302.274 411.854,302.274 395.068,279.889 381.169,260.522 367.666,278.674 367.666,279.731 347.285,279.614 333.584,260.522 320.081,278.674 320.081,279.457 301.892,279.351 288.379,260.522 274.876,278.674 274.876,279.195 256.026,279.086 242.703,260.522 229.2,278.674 229.2,278.931 211.3,278.829 198.163,260.522 184.66,278.674 167.169,302.274 184.66,302.274 184.66,380.784 170.394,380.784 170.394,401.65 184.66,401.663 184.66,423.541 213.025,423.541 "
   id="polygon12"
   style="fill:#ffffff;stroke:none" /><polygon
   transform="translate(0.01612389,0.7257561)"
   points="348.159,380.784 367.666,380.784 367.666,302.274 347.633,302.274 "
   id="polygon14"
   style="fill:#000000;stroke:none" /><polygon
   transform="translate(0.01612389,0.7257561)"
   points="302.954,380.784 320.081,380.784 320.081,302.274 302.428,302.274 "
   id="polygon16"
   style="fill:#000000;stroke:none" /><polygon
   transform="translate(0.01612389,0.7257561)"
   points="257.278,380.784 274.876,380.784 274.876,302.274 256.752,302.274 "
   id="polygon18"
   style="fill:#000000;stroke:none" /><polygon
   transform="translate(0.01612389,0.7257561)"
   points="212.738,380.784 229.2,380.784 229.2,302.274 212.212,302.274 "
   id="polygon20"
   style="fill:#000000;stroke:none" /><rect
   style="display:inline;opacity:1;fill:url(#pattern12479);fill-opacity:1;fill-rule:evenodd;stroke:none;stroke-width:1.5;stroke-linecap:round;stroke-miterlimit:4;stroke-dasharray:1.5, 1.5;stroke-dashoffset:0;stroke-opacity:1;paint-order:markers stroke fill"
   id="rect12317-3"
   width="576.53827"
   height="507.94376"
   x="-0.78100002"
   y="-0.079999998" /></svg>