<?xml version="1.0" encoding="UTF-8" standalone="no"?>
<!-- Generator: Adobe Illustrator 16.0.3, SVG Export Plug-In . SVG Version: 6.00 Build 0)  -->

<svg
   version="1.1"
   id="France_road_signs_B14"
   x="0px"
   y="0px"
   width="581px"
   height="581px"
   viewBox="1.56 1.561 581 581"
   enable-background="new 1.56 1.561 581 581"
   xml:space="preserve"
   sodipodi:docname="France_road_sign_B14_(50).svg"
   inkscape:version="1.1.1 (3bf5ae0d25, 2021-09-20)"
   xmlns:inkscape="http://www.inkscape.org/namespaces/inkscape"
   xmlns:sodipodi="http://sodipodi.sourceforge.net/DTD/sodipodi-0.dtd"
   xmlns="http://www.w3.org/2000/svg"
   xmlns:svg="http://www.w3.org/2000/svg"><defs
   id="defs13" /><sodipodi:namedview
   id="namedview11"
   pagecolor="#ffffff"
   bordercolor="#666666"
   borderopacity="1.0"
   inkscape:pageshadow="2"
   inkscape:pageopacity="0.0"
   inkscape:pagecheckerboard="0"
   showgrid="false"
   inkscape:zoom="0.5"
   inkscape:cx="865"
   inkscape:cy="505"
   inkscape:window-width="1920"
   inkscape:window-height="991"
   inkscape:window-x="-9"
   inkscape:window-y="-9"
   inkscape:window-maximized="1"
   inkscape:current-layer="France_road_signs_B14" />
<circle
   fill="#FFFFFF"
   stroke="#000000"
   stroke-width="0.9931"
   stroke-linecap="round"
   stroke-linejoin="round"
   cx="291.56"
   cy="291.561"
   r="285"
   id="circle2" />
<circle
   fill="#FF0000"
   stroke="#FF0000"
   stroke-width="0.1752"
   stroke-linecap="round"
   stroke-linejoin="round"
   cx="291.56"
   cy="291.561"
   r="272.101"
   id="circle4" />
<circle
   fill="#FFFFFF"
   stroke="#FF0000"
   stroke-width="0.1752"
   stroke-linecap="round"
   stroke-linejoin="round"
   cx="291.56"
   cy="291.562"
   r="191.118"
   id="circle6" />

<path
   id="rect5362"
   style="fill:#000000;stroke-width:6.36384;stroke-linecap:round;stroke-linejoin:round;stroke-dashoffset:6.67087;paint-order:stroke fill markers"
   d="m 369.7178,181.67387 c -63.15824,0 -78.34527,52.46518 -78.34527,114.66749 0,57.0168 15.18703,105.10879 78.34527,105.10879 63.15823,0 78.34527,-48.09199 78.34527,-105.10879 0,-62.20231 -15.18704,-114.66749 -78.34527,-114.66749 z m 0,42.26484 c 32.04978,0 35.40948,28.03757 35.40948,67.69736 0,39.65978 -3.3597,67.6952 -35.40948,67.6952 -32.04978,0 -35.40949,-28.03542 -35.40949,-67.6952 0,-39.65979 3.35971,-67.69736 35.40949,-67.69736 z" /><path
   id="path4505"
   style="font-size:301.474px;line-height:1.25;font-family:'Caracteres L1';-inkscape-font-specification:'Caracteres L1';fill:#000000;stroke-width:16.1503"
   d="m 206.85186,182.51416 c -29.4171,0 -56.18481,10.1614 -67.08399,45.42578 l 38.27344,11.48047 c 3.9093,-14.09177 14.82206,-15.99805 27.74414,-15.99805 15.95373,0 25.75781,8.06965 25.75781,20.35547 -0.35989,22.62201 -20.44319,24.16016 -35.10156,24.16016 v 39.63867 c 18.50186,0 38.5627,1.66572 38.96875,28.19727 0,12.49384 -12.37698,23.01562 -29.8457,23.01562 -14.14919,0 -27.51244,-4.75897 -31.79297,-19.85742 l -38.71485,10.59766 c 11.93419,37.78357 41.24449,51.08007 73.45508,51.08007 59.2683,0 92.85472,-69.89058 49.01758,-114.37695 36.91921,-40.58829 9.20046,-103.71875 -50.67773,-103.71875 z"
   sodipodi:nodetypes="sccsccccsccscs" /></svg>
