<?xml version="1.0" encoding="UTF-8" standalone="no"?>
<!-- Generator: Adobe Illustrator 13.0.0, SVG Export Plug-In  -->

<svg
   xmlns:osb="http://www.openswatchbook.org/uri/2009/osb"
   xmlns:dc="http://purl.org/dc/elements/1.1/"
   xmlns:cc="http://creativecommons.org/ns#"
   xmlns:rdf="http://www.w3.org/1999/02/22-rdf-syntax-ns#"
   xmlns:svg="http://www.w3.org/2000/svg"
   xmlns="http://www.w3.org/2000/svg"
   xmlns:sodipodi="http://sodipodi.sourceforge.net/DTD/sodipodi-0.dtd"
   xmlns:inkscape="http://www.inkscape.org/namespaces/inkscape"
   version="1.1"
   x="0px"
   y="0px"
   width="576.53827"
   height="507.94376"
   viewBox="-0.781 -0.08 576.53826 507.94375"
   enable-background="new -0.781 -0.08 576 506"
   xml:space="preserve"
   id="svg2"
   inkscape:version="0.92.5 (2060ec1f9f, 2020-04-08)"
   sodipodi:docname="France_road_sign_XA1a.svg"><metadata
     id="metadata18"><rdf:RDF><cc:Work
         rdf:about=""><dc:format>image/svg+xml</dc:format><dc:type
           rdf:resource="http://purl.org/dc/dcmitype/StillImage" /><dc:title /></cc:Work></rdf:RDF></metadata><sodipodi:namedview
     pagecolor="#ffffff"
     bordercolor="#666666"
     borderopacity="1"
     objecttolerance="10"
     gridtolerance="10"
     guidetolerance="10"
     inkscape:pageopacity="0"
     inkscape:pageshadow="2"
     inkscape:window-width="1920"
     inkscape:window-height="1057"
     id="namedview16"
     showgrid="false"
     fit-margin-top="0.3"
     fit-margin-left="0.3"
     fit-margin-right="0.3"
     fit-margin-bottom="0.3"
     inkscape:zoom="1.2913894"
     inkscape:cx="392.15703"
     inkscape:cy="220.97287"
     inkscape:window-x="-8"
     inkscape:window-y="-8"
     inkscape:window-maximized="1"
     inkscape:current-layer="svg2"
     showguides="true"
     inkscape:guide-bbox="true"
     inkscape:snap-bbox="true"
     inkscape:bbox-paths="true"
     inkscape:bbox-nodes="true"
     inkscape:snap-bbox-edge-midpoints="true"
     inkscape:snap-bbox-midpoints="true"
     inkscape:object-paths="true"
     inkscape:snap-intersection-paths="true"
     inkscape:snap-smooth-nodes="true"
     inkscape:snap-midpoints="true"
     inkscape:snap-object-midpoints="true"
     inkscape:snap-center="true"
     inkscape:snap-text-baseline="true"
     inkscape:snap-page="true"
     inkscape:snap-global="true"
     inkscape:snap-others="true"
     inkscape:object-nodes="true" /><defs
     id="defs4"><linearGradient
       id="linearGradient2461"
       osb:paint="solid"><stop
         style="stop-color:#ff0000;stop-opacity:1;"
         offset="0"
         id="stop2459" /></linearGradient><pattern
       patternUnits="userSpaceOnUse"
       width="20"
       height="19.999999"
       patternTransform="translate(-30.724401,3.7843332)"
       id="pattern12100"><circle
         id="circle12019"
         r="5"
         cy="14.999999"
         cx="5"
         style="fill:#1a1a1a;stroke:none;stroke-width:10" /><circle
         id="circle12021"
         r="5"
         cy="14.999999"
         cx="15"
         style="fill:#1a1a1a;stroke:none;stroke-width:10" /><circle
         id="circle12023"
         r="5"
         cy="5"
         cx="15"
         style="fill:#1a1a1a;stroke:none;stroke-width:10" /><circle
         id="circle12025"
         r="5"
         cy="5"
         cx="5"
         style="fill:#1a1a1a;stroke:none;stroke-width:10" /></pattern><pattern
       patternUnits="userSpaceOnUse"
       width="16"
       height="16"
       patternTransform="translate(-30.147202,33.281971)"
       id="pattern12158"><circle
         r="4"
         id="circle12019-8-4"
         cy="4"
         cx="4"
         style="fill:#4d4d4d;stroke:none;stroke-width:8" /><circle
         r="4"
         id="circle12019-8-4-5"
         cy="4"
         cx="12"
         style="fill:#4d4d4d;stroke:none;stroke-width:8" /><circle
         r="4"
         id="circle12019-8-4-1"
         cy="12"
         cx="4"
         style="fill:#4d4d4d;stroke:none;stroke-width:8" /><circle
         r="4"
         id="circle12019-8-4-5-4"
         cy="12"
         cx="12"
         style="fill:#4d4d4d;stroke:none;stroke-width:8" /></pattern><pattern
       patternUnits="userSpaceOnUse"
       width="7"
       height="7"
       patternTransform="translate(-27.409426,37.156635)"
       id="pattern12310"><path
         inkscape:connector-curvature="0"
         id="rect12307"
         d="M 0,0 V 3.5 A 3.5,3.5 0 0 1 3.5,0 Z M 3.5,0 A 3.5,3.5 0 0 1 7,3.5 V 0 Z M 7,3.5 A 3.5,3.5 0 0 1 3.5,7 H 7 Z M 3.5,7 A 3.5,3.5 0 0 1 0,3.5 V 7 Z"
         style="opacity:1;fill:#1a1a1a;fill-opacity:1;fill-rule:evenodd;stroke:none;stroke-width:1.50953102;stroke-linecap:round;stroke-miterlimit:4;stroke-dasharray:1.50953107, 1.50953107;stroke-dashoffset:0;stroke-opacity:1;paint-order:markers stroke fill" /></pattern><pattern
       patternUnits="userSpaceOnUse"
       width="10"
       height="10"
       patternTransform="translate(-46.855219,10.822344)"
       id="pattern12339"><path
         id="rect12321"
         d="M 0,0 V 5 A 5,5 0 0 1 5,0 Z m 5,0 a 5,5 0 0 1 5,5 V 0 Z m 5,5 a 5,5 0 0 1 -5,5 h 5 z M 5,10 A 5,5 0 0 1 0,5 v 5 z"
         style="opacity:1;fill:#1a1a1a;fill-opacity:1;fill-rule:evenodd;stroke:none;stroke-width:1.37814915;stroke-linecap:round;stroke-miterlimit:4;stroke-dasharray:1.37814914, 1.37814914;stroke-dashoffset:0;stroke-opacity:1;paint-order:markers stroke fill"
         inkscape:connector-curvature="0" /></pattern><pattern
       patternUnits="userSpaceOnUse"
       width="7"
       height="7"
       patternTransform="translate(-27.409426,37.156635)"
       id="pattern12310-9"><path
         inkscape:connector-curvature="0"
         id="rect12307-0"
         d="M 0,0 V 3.5 A 3.5,3.5 0 0 1 3.5,0 Z M 3.5,0 A 3.5,3.5 0 0 1 7,3.5 V 0 Z M 7,3.5 A 3.5,3.5 0 0 1 3.5,7 H 7 Z M 3.5,7 A 3.5,3.5 0 0 1 0,3.5 V 7 Z"
         style="opacity:1;fill:#1a1a1a;fill-opacity:1;fill-rule:evenodd;stroke:none;stroke-width:1.50953102;stroke-linecap:round;stroke-miterlimit:4;stroke-dasharray:1.50953107, 1.50953107;stroke-dashoffset:0;stroke-opacity:1;paint-order:markers stroke fill" /></pattern><pattern
       patternUnits="userSpaceOnUse"
       width="10"
       height="10"
       patternTransform="translate(-85.652094,48.105547)"
       id="pattern12373"><path
         id="rect12370"
         d="M 0,0 V 5 A 5,5 0 0 1 5,0 Z m 5,0 a 5,5 0 0 1 5,5 V 0 Z m 5,5 a 5,5 0 0 1 -5,5 h 5 z M 5,10 A 5,5 0 0 1 0,5 v 5 z"
         style="opacity:1;fill:#666666;fill-opacity:1;fill-rule:evenodd;stroke:none;stroke-width:0.71994275;stroke-linecap:round;stroke-miterlimit:4;stroke-dasharray:0.71994272, 0.71994272;stroke-dashoffset:0;stroke-opacity:1;paint-order:markers stroke fill"
         inkscape:connector-curvature="0" /></pattern></defs><rect
     style="display:inline;opacity:1;fill:#000000;fill-opacity:1;fill-rule:evenodd;stroke:none;stroke-width:1.5;stroke-linecap:round;stroke-miterlimit:4;stroke-dasharray:1.5, 1.5;stroke-dashoffset:0;stroke-opacity:1;paint-order:markers stroke fill"
     id="rect19"
     width="576.53827"
     height="507.94376"
     x="-0.78100002"
     y="-0.079999998"
     sodipodi:insensitive="true" /><path
     style="display:inline;opacity:1;fill:#f91a0e;stroke:none"
     d="m 288.26562,13.640625 c -6.61899,0 -12.73396,3.529719 -16.04296,9.261719 L 16.126953,466.47266 c -3.31,5.731 -3.31,12.79439 0,18.52539 3.309,5.733 9.423969,9.26367 16.042969,9.26367 H 544.36133 c 6.618,0 12.73297,-3.53067 16.04297,-9.26367 3.31,-5.731 3.31,-12.79439 0,-18.52539 L 304.30859,22.902344 c -3.31,-5.732 -9.42396,-9.261719 -16.04297,-9.261719 z m 0,55.785156 L 512.0918,457.10547 H 64.4375 Z"
     id="path8"
     inkscape:connector-curvature="0"
     transform="translate(-0.781,-0.08)" /><path
     inkscape:connector-curvature="0"
     d="m 316.65525,255.67776 33.37699,-23.325 -33.39799,-19.875 c -2.314,0.003 -4.627,0.176 -6.917,0.514 -77.023,11.383 -134.074,77.485 -134.074,155.344 v 78.33899 l 20.942,-32.27299 21.962,32.47099 0.235,-90.19699 c 5.303,-51.79 45.073,-93.379 96.574,-100.989 0.431,-0.065 0.868,-0.068 1.299,-0.009 z"
     id="path12"
     style="display:inline;opacity:1;fill:#ffffff;stroke:none" /><rect
     style="display:inline;opacity:1;fill:url(#pattern12310-9);fill-opacity:1;fill-rule:evenodd;stroke:none;stroke-width:1.5;stroke-linecap:round;stroke-miterlimit:4;stroke-dasharray:1.5, 1.5;stroke-dashoffset:0;stroke-opacity:1;paint-order:markers stroke fill"
     id="rect12317-3"
     width="576.53827"
     height="507.94376"
     x="-0.78100002"
     y="-0.079999998" /></svg>