<?xml version="1.0" encoding="UTF-8" standalone="no"?>
<!-- Generator: Adobe Illustrator 13.0.0, SVG Export Plug-In  -->

<svg
   xmlns:dc="http://purl.org/dc/elements/1.1/"
   xmlns:cc="http://creativecommons.org/ns#"
   xmlns:rdf="http://www.w3.org/1999/02/22-rdf-syntax-ns#"
   xmlns:svg="http://www.w3.org/2000/svg"
   xmlns="http://www.w3.org/2000/svg"
   xmlns:xlink="http://www.w3.org/1999/xlink"
   xmlns:sodipodi="http://sodipodi.sourceforge.net/DTD/sodipodi-0.dtd"
   xmlns:inkscape="http://www.inkscape.org/namespaces/inkscape"
   version="1.1"
   x="0px"
   y="0px"
   width="576.53827"
   height="507.94376"
   viewBox="-0.781 -0.08 576.53826 507.94375"
   enable-background="new -0.781 -0.08 576 506"
   xml:space="preserve"
   id="svg2"
   inkscape:version="0.92.5 (2060ec1f9f, 2020-04-08)"
   sodipodi:docname="France_road_sign_XA13a.svg"><metadata
   id="metadata18"><rdf:RDF><cc:Work
       rdf:about=""><dc:format>image/svg+xml</dc:format><dc:type
         rdf:resource="http://purl.org/dc/dcmitype/StillImage" /><dc:title></dc:title></cc:Work></rdf:RDF></metadata><sodipodi:namedview
   pagecolor="#ffffff"
   bordercolor="#666666"
   borderopacity="1"
   objecttolerance="10"
   gridtolerance="10"
   guidetolerance="10"
   inkscape:pageopacity="0"
   inkscape:pageshadow="2"
   inkscape:window-width="1920"
   inkscape:window-height="1057"
   id="namedview16"
   showgrid="false"
   fit-margin-top="0.3"
   fit-margin-left="0.3"
   fit-margin-right="0.3"
   fit-margin-bottom="0.3"
   inkscape:zoom="0.91315019"
   inkscape:cx="563.01987"
   inkscape:cy="164.57408"
   inkscape:window-x="-8"
   inkscape:window-y="-8"
   inkscape:window-maximized="1"
   inkscape:current-layer="svg2"
   showguides="true"
   inkscape:guide-bbox="true"
   inkscape:snap-object-midpoints="true"
   inkscape:snap-center="true"
   inkscape:snap-text-baseline="true"
   inkscape:snap-page="true" />
<defs
   id="defs4">
<pattern
   patternTransform="translate(-27.409432,37.156636)"
   id="pattern12479"
   xlink:href="#pattern12310-9"
   inkscape:collect="always" /><pattern
   patternUnits="userSpaceOnUse"
   width="7"
   height="7"
   patternTransform="translate(-27.409426,37.156635)"
   id="pattern12310-9"><path
     inkscape:connector-curvature="0"
     id="rect12307-0"
     d="M 0,0 V 3.5 A 3.5,3.5 0 0 1 3.5,0 Z M 3.5,0 A 3.5,3.5 0 0 1 7,3.5 V 0 Z M 7,3.5 A 3.5,3.5 0 0 1 3.5,7 H 7 Z M 3.5,7 A 3.5,3.5 0 0 1 0,3.5 V 7 Z"
     style="opacity:1;fill:#1a1a1a;fill-opacity:1;fill-rule:evenodd;stroke:none;stroke-width:1.50953102;stroke-linecap:round;stroke-miterlimit:4;stroke-dasharray:1.50953107, 1.50953107;stroke-dashoffset:0;stroke-opacity:1;paint-order:markers stroke fill" /></pattern></defs>





<rect
   style="display:inline;opacity:1;fill:#000000;fill-opacity:1;fill-rule:evenodd;stroke:none;stroke-width:1.5;stroke-linecap:round;stroke-miterlimit:4;stroke-dasharray:1.5, 1.5;stroke-dashoffset:0;stroke-opacity:1;paint-order:markers stroke fill"
   id="rect19"
   width="576.53827"
   height="507.94376"
   x="-0.78100002"
   y="-0.079999998" /><path
   style="fill:#f81a0e;stroke:none"
   d="M 288.26562 13.638672 C 281.64663 13.638672 275.53166 17.170344 272.22266 22.902344 L 16.126953 466.47266 C 12.816953 472.20366 12.816953 479.26705 16.126953 484.99805 C 19.435953 490.73005 25.552875 494.26172 32.171875 494.26172 L 544.36133 494.26172 C 550.97933 494.26172 557.09625 490.73105 560.40625 484.99805 C 563.71625 479.26705 563.71625 472.20366 560.40625 466.47266 L 304.31055 22.902344 C 301.00055 17.170344 294.88463 13.638672 288.26562 13.638672 z M 288.26562 69.425781 L 512.09375 457.10547 L 64.439453 457.10547 L 288.26562 69.425781 z "
   transform="translate(-0.781,-0.08)"
   id="path8" /><path
   inkscape:connector-curvature="0"
   d="m 374.52624,300.03976 -1.415,-8.267 c 6.903,-2.968 10.73,-10.416 9.124,-17.756 -1.606,-7.34 -8.194,-12.509 -15.706,-12.322 -7.511,0.187 -13.834,5.676 -15.074,13.087 -1.239,7.411 2.953,14.659 9.995,17.28 l -0.27,3.771 -25.397,20.238 -27.53499,0.389 -2.438,-25.175 -2.507,-4.986 -36.974,-22.672 -3.083,-2.975 -4.944,-5.883 3.007,-8.056 c 8.635,-5.184 12.602,-15.605 9.599,-25.219 -3.003,-9.614 -12.194,-15.925 -22.246,-15.274 -10.051,0.651 -18.351,8.097 -20.087,18.018 -1.736,9.921 3.542,19.743 12.775,23.769 l -0.066,7.78 -11.834,7.01 -8.792,13.288 -12.677,15.626 -29.018,16.154 -1.555,6.954 4.337,5.377 33.224,-15 18.413,-19.408 -1.024,37.796 -16.85,41.084 -5.435,38.291 -6.646,3.037 -1.885,4.014 24.883,6.186 9.697,-41.541 17.271,-30.802 18.709,30.151 21.963,19.546 -3.785,9.129 5.271,4.104 4.942,0.979 18.391,-17.572 -31.546,-31.046 -16.468,-33.242 0.836,-37.432 23.027,7.813 -0.347,27.71 4.704,5.382 4.067,-2.336 31.01699,0.022 17.922,-9.503 -11.847,51.976 3.987,4.088 -7.985,7.425 -1.696,32.831 -4.588,-0.057 -1.14,3.10599 1.947,5.714 13.761,0.355 7.224,-34.59799 10.805,-12.712 15.81,-2.005 12.324,12.451 27.393,10.988 -0.971,4.209 -0.037,2.937 7.123,2.843 6.407,-13.318 -37.021,-19.001 -0.504,-3.677 6.226,1.179 -20.265,-52.562 17.15,8.107 2.481,21.688 5.656,2.641 3.164,-3.447 1.634,-27.877 -31.508,-19.482 -3.1,-1.32 0.141,-0.306"
   id="path12"
   style="fill:#ffffff;stroke:none" /><polyline
   style="fill:none;stroke:#000000;stroke-width:0.17640001;stroke-linecap:round;stroke-linejoin:round"
   transform="translate(0.01624894,0.72576)"
   points="  259.884,207.787 259.855,207.026 258.495,207.147 "
   id="polyline14" /><rect
   style="display:inline;opacity:1;fill:url(#pattern12479);fill-opacity:1;fill-rule:evenodd;stroke:none;stroke-width:1.5;stroke-linecap:round;stroke-miterlimit:4;stroke-dasharray:1.5, 1.5;stroke-dashoffset:0;stroke-opacity:1;paint-order:markers stroke fill"
   id="rect12317-3"
   width="576.53827"
   height="507.94376"
   x="-0.78100002"
   y="-0.079999998" /></svg>