<?xml version="1.0" encoding="UTF-8" standalone="no"?>
<!-- Generator: Adobe Illustrator 13.0.0, SVG Export Plug-In  -->

<svg
   xmlns:dc="http://purl.org/dc/elements/1.1/"
   xmlns:cc="http://creativecommons.org/ns#"
   xmlns:rdf="http://www.w3.org/1999/02/22-rdf-syntax-ns#"
   xmlns:svg="http://www.w3.org/2000/svg"
   xmlns="http://www.w3.org/2000/svg"
   xmlns:xlink="http://www.w3.org/1999/xlink"
   xmlns:sodipodi="http://sodipodi.sourceforge.net/DTD/sodipodi-0.dtd"
   xmlns:inkscape="http://www.inkscape.org/namespaces/inkscape"
   version="1.1"
   x="0px"
   y="0px"
   width="576.53827"
   height="507.94376"
   viewBox="-0.781 -0.08 576.53826 507.94375"
   enable-background="new -0.781 -0.08 576 506"
   xml:space="preserve"
   id="svg2"
   inkscape:version="0.92.5 (2060ec1f9f, 2020-04-08)"
   sodipodi:docname="France_road_sign_XA13b.svg"><metadata
   id="metadata18"><rdf:RDF><cc:Work
       rdf:about=""><dc:format>image/svg+xml</dc:format><dc:type
         rdf:resource="http://purl.org/dc/dcmitype/StillImage" /><dc:title></dc:title></cc:Work></rdf:RDF></metadata><sodipodi:namedview
   pagecolor="#ffffff"
   bordercolor="#666666"
   borderopacity="1"
   objecttolerance="10"
   gridtolerance="10"
   guidetolerance="10"
   inkscape:pageopacity="0"
   inkscape:pageshadow="2"
   inkscape:window-width="1920"
   inkscape:window-height="1057"
   id="namedview16"
   showgrid="false"
   fit-margin-top="0.3"
   fit-margin-left="0.3"
   fit-margin-right="0.3"
   fit-margin-bottom="0.3"
   inkscape:zoom="0.91315019"
   inkscape:cx="295.92655"
   inkscape:cy="78.602217"
   inkscape:window-x="-8"
   inkscape:window-y="-8"
   inkscape:window-maximized="1"
   inkscape:current-layer="svg2"
   showguides="true"
   inkscape:guide-bbox="true"
   inkscape:snap-text-baseline="true"
   inkscape:snap-page="true"
   inkscape:snap-object-midpoints="true"
   inkscape:snap-center="true" />
<defs
   id="defs4">
<pattern
   patternTransform="translate(-27.409426,37.156635)"
   id="pattern12479"
   xlink:href="#pattern12310-9"
   inkscape:collect="always" /><pattern
   patternUnits="userSpaceOnUse"
   width="7"
   height="7"
   patternTransform="translate(-27.409426,37.156635)"
   id="pattern12310-9"><path
     inkscape:connector-curvature="0"
     id="rect12307-0"
     d="M 0,0 V 3.5 A 3.5,3.5 0 0 1 3.5,0 Z M 3.5,0 A 3.5,3.5 0 0 1 7,3.5 V 0 Z M 7,3.5 A 3.5,3.5 0 0 1 3.5,7 H 7 Z M 3.5,7 A 3.5,3.5 0 0 1 0,3.5 V 7 Z"
     style="opacity:1;fill:#1a1a1a;fill-opacity:1;fill-rule:evenodd;stroke:none;stroke-width:1.50953102;stroke-linecap:round;stroke-miterlimit:4;stroke-dasharray:1.50953107, 1.50953107;stroke-dashoffset:0;stroke-opacity:1;paint-order:markers stroke fill" /></pattern></defs>





<rect
   style="display:inline;opacity:1;fill:#000000;fill-opacity:1;fill-rule:evenodd;stroke:none;stroke-width:1.5;stroke-linecap:round;stroke-miterlimit:4;stroke-dasharray:1.5, 1.5;stroke-dashoffset:0;stroke-opacity:1;paint-order:markers stroke fill"
   id="rect19"
   width="576.53827"
   height="507.94376"
   x="-0.78100002"
   y="-0.079999998" /><path
   style="fill:#f91a0e;stroke:none"
   d="M 288.26562 13.638672 C 281.64663 13.638672 275.53166 17.170344 272.22266 22.902344 L 16.126953 466.47266 C 12.816953 472.20366 12.816953 479.26705 16.126953 484.99805 C 19.435953 490.73005 25.552875 494.26172 32.171875 494.26172 L 544.36133 494.26172 C 550.97933 494.26172 557.09625 490.73105 560.40625 484.99805 C 563.71625 479.26705 563.71625 472.20366 560.40625 466.47266 L 304.31055 22.902344 C 301.00055 17.170344 294.88463 13.638672 288.26562 13.638672 z M 288.26562 69.425781 L 512.09375 457.10547 L 64.439453 457.10547 L 288.26562 69.425781 z "
   transform="translate(-0.781,-0.08)"
   id="path8" /><ellipse
   sodipodi:ry="21.5"
   sodipodi:rx="20.5"
   sodipodi:cy="166.67"
   sodipodi:cx="277.96899"
   transform="translate(0.01624894,0.72576)"
   cx="277.96899"
   cy="166.67"
   rx="20.5"
   ry="21.5"
   id="ellipse12"
   style="fill:#fffffe;stroke:none;fill-opacity:1" /><polygon
   transform="translate(0.01624894,0.72576)"
   points="132.469,352.17 230.469,352.817 265.469,353.048 435.469,354.17 479.469,437.17 260.469,437.17 89.469,437.17 "
   id="polygon14"
   style="fill:#ffffff;stroke:none;fill-opacity:1" /><polygon
   style="fill:#000000;fill-opacity:1"
   transform="translate(0.01624894,0.72576)"
   points="132.469,438.17 167.469,349.217 199.469,348.17 175.469,438.17 "
   id="polygon16" /><polygon
   style="fill:#000000;fill-opacity:1"
   transform="translate(0.01624894,0.72576)"
   points="338.218,350.65 301.699,353.167 308.287,436.929 351.197,437.188 "
   id="polygon18" /><polygon
   style="fill:#000000;fill-opacity:1"
   transform="translate(0.01624894,0.72576)"
   points="392.469,439.17 369.469,349.17 402.469,349.17 433.469,439.17 "
   id="polygon20" /><polygon
   style="fill:#000000;fill-opacity:1"
   transform="translate(0.01624894,0.72576)"
   points="230.469,349.817 265.469,350.056 260.469,437.17 220.469,437.17 "
   id="polygon22" /><path
   inkscape:connector-curvature="0"
   d="m 268.48525,237.89576 c -5.712,5.077 -49.284,45.526 -55.469,35.219 -1.889,-3.147 -4.961,-11.933 -0.753,-14.737 4.909,-3.272 9.703,-6.718 14.535,-10.101 5.714,-4 11.428,-8 17.142,-11.999 3.717,-2.602 5.512,-8.793 8.36,-12.419 7.999,-10.181 17.829,-18.362 25.685,-28.463 4.34,-5.58 8.636,-6.426 15.352,-8.944 6.267,-2.35 9.141,2.185 14.148,6.444 8.782,7.47 16.184,15.881 23.66799,24.612 6.709,7.827 16.711,14.775 19.461,24.86 2.697,9.892 5.924,20.272 6.871,30.527 0.511,5.529 0.521,9.493 -4.888,11.296 -6.878,2.293 -6.154,-0.352 -9.581,-4.921 -5.646,-7.528 -1.342,-18.813 -5.531,-27.375 -2.604,-5.324 -6.188,-7.094 -11.37599,-9.688 -4.038,-2.019 -7.58,-7.964 -10.624,-11.312 -0.585,13.746 -1.17,27.491 -1.755,41.237 -0.452,10.619 5.736,17.612 7.014,27.837 1.28,10.236 5.696,17.314 11.38399,25.588 9.594,13.954 19.187,27.907 28.779,41.86 5.335,7.76 13.249,15.083 6.578,24.478 -3.638,5.123 -6.779,4 -12.781,4 -5.462,0 -8.491,-3.521 -11.584,-7.958 -14.076,-20.197 -29.35599,-40.485 -40.40999,-62.593 -4.408,-8.816 -8.816,-17.633 -13.225,-26.449 -8.067,10.648 -16.134,21.297 -24.201,31.944 -2.886,3.81 -6.352,7.226 -9.547,10.775 -0.99,1.1 0.134,3.412 -0.502,4.844 -1.299,2.923 -2.598,5.847 -3.897,8.77 -5.545,12.478 -10.989,24.941 -17.095,37.152 -1.738,3.477 -10.149,2.667 -13.757,2.515 -6.946,-0.293 -10,-0.193 -10,-7.963 0,-3.388 0.095,-11.745 1.883,-14.299 3.095,-4.422 5.959,-8.384 8.136,-13.281 5.121,-11.521 9.088,-24.933 16.686,-35.063 6.562,-8.749 13.348,-17.319 19.202,-26.562 4.321,-6.822 8.642,-13.646 12.963,-20.469 2.737,-4.321 1.844,-6.796 1.405,-12.063 -0.76,-9.098 -1.518,-18.198 -2.276,-27.299"
   id="path24"
   style="fill:#ffffff;stroke:#000000;stroke-width:1.5;stroke-miterlimit:4;stroke-opacity:1;stroke-dasharray:none;fill-opacity:1" /><rect
   style="display:inline;opacity:1;fill:url(#pattern12479);fill-opacity:1;fill-rule:evenodd;stroke:none;stroke-width:1.5;stroke-linecap:round;stroke-miterlimit:4;stroke-dasharray:1.5, 1.5;stroke-dashoffset:0;stroke-opacity:1;paint-order:markers stroke fill"
   id="rect12317-3"
   width="576.53827"
   height="507.94376"
   x="-0.78100002"
   y="-0.079999998" /></svg>