<?xml version="1.0" encoding="UTF-8" standalone="no"?>
<!-- Generator: Adobe Illustrator 16.0.3, SVG Export Plug-In . SVG Version: 6.00 Build 0)  -->

<svg
   version="1.1"
   id="France_road_signs_B14"
   x="0px"
   y="0px"
   width="581px"
   height="581px"
   viewBox="1.56 1.561 581 581"
   enable-background="new 1.56 1.561 581 581"
   xml:space="preserve"
   sodipodi:docname="France_road_sign_B14_(90).svg"
   inkscape:version="1.2.2 (732a01da63, 2022-12-09)"
   xmlns:inkscape="http://www.inkscape.org/namespaces/inkscape"
   xmlns:sodipodi="http://sodipodi.sourceforge.net/DTD/sodipodi-0.dtd"
   xmlns="http://www.w3.org/2000/svg"
   xmlns:svg="http://www.w3.org/2000/svg"><defs
   id="defs13" /><sodipodi:namedview
   id="namedview11"
   pagecolor="#ffffff"
   bordercolor="#666666"
   borderopacity="1.0"
   inkscape:pageshadow="2"
   inkscape:pageopacity="0.0"
   inkscape:pagecheckerboard="0"
   showgrid="false"
   inkscape:zoom="0.43752993"
   inkscape:cx="164.56017"
   inkscape:cy="401.11542"
   inkscape:window-width="1600"
   inkscape:window-height="837"
   inkscape:window-x="-8"
   inkscape:window-y="-8"
   inkscape:window-maximized="1"
   inkscape:current-layer="France_road_signs_B14"
   inkscape:showpageshadow="0"
   inkscape:deskcolor="#d1d1d1" />
<circle
   fill="#FFFFFF"
   stroke="#000000"
   stroke-width="0.9931"
   stroke-linecap="round"
   stroke-linejoin="round"
   cx="291.56"
   cy="291.561"
   r="285"
   id="circle2" />
<circle
   fill="#FF0000"
   stroke="#FF0000"
   stroke-width="0.1752"
   stroke-linecap="round"
   stroke-linejoin="round"
   cx="291.56"
   cy="291.561"
   r="272.101"
   id="circle4" />
<circle
   fill="#FFFFFF"
   stroke="#FF0000"
   stroke-width="0.1752"
   stroke-linecap="round"
   stroke-linejoin="round"
   cx="291.56"
   cy="291.562"
   r="191.118"
   id="circle6" />

<g
   id="g8164"
   transform="translate(-3.9191374,2.3774546)"><path
     id="rect5362"
     style="opacity:1;fill:#000000;stroke-width:6.36384;stroke-linecap:round;stroke-linejoin:round;stroke-dashoffset:6.67087;paint-order:stroke fill markers"
     d="m 375.7199,179.29541 c -63.15824,0 -78.34527,52.46518 -78.34527,114.66749 0,57.0168 15.18703,105.10879 78.34527,105.10879 63.15823,0 78.34527,-48.09199 78.34527,-105.10879 0,-62.20231 -15.18704,-114.66749 -78.34527,-114.66749 z m 0,42.26484 c 32.04978,0 35.40948,28.03757 35.40948,67.69736 0,39.65978 -3.3597,67.6952 -35.40948,67.6952 -32.04978,0 -35.40949,-28.03542 -35.40949,-67.6952 0,-39.65979 3.35971,-67.69736 35.40949,-67.69736 z" /></g><text
   xml:space="preserve"
   style="font-size:168.903px;font-family:'Caracteres L1';-inkscape-font-specification:'Caracteres L1, Normal';text-align:center;text-anchor:middle;fill:#000000;stroke-width:2.244;stroke-linejoin:round;stroke-miterlimit:2.9"
   x="-197.28354"
   y="330.68134"
   id="text388"><tspan
     sodipodi:role="line"
     id="tspan386"></tspan></text><path
   style="fill:#000000;stroke-width:0.119772"
   d="m 209.4506,398.89829 c -14.9363,-0.49092 -27.95137,-4.19114 -39.03724,-11.09837 -5.57272,-3.47217 -11.14431,-8.29086 -14.98293,-12.95825 -5.28873,-6.43057 -9.10369,-12.93787 -11.78499,-20.10207 -1.79907,-4.807 -2.81892,-8.94364 -3.66612,-14.87026 -0.25265,-1.76743 -0.36219,-8.9147 -0.1792,-11.69314 0.34411,-5.22462 1.02214,-9.64838 2.11795,-13.81828 2.67099,-10.16389 7.36806,-18.53134 14.54648,-25.91327 1.05146,-1.08126 1.91173,-1.9948 1.91173,-2.03008 0,-0.0353 -0.66024,-0.94513 -1.46719,-2.02188 -2.75373,-3.67436 -4.78762,-6.75618 -6.96417,-10.55234 -3.66839,-6.39812 -5.97213,-12.66801 -6.83484,-18.60162 -0.78128,-5.3735 -0.16091,-15.0716 1.44261,-22.5521 1.96464,-9.16528 5.48908,-17.03584 10.81308,-24.14716 3.21957,-4.30042 9.25553,-10.00989 14.69563,-13.90078 7.46156,-5.33668 14.737,-8.45147 23.04872,-9.86773 6.31753,-1.07646 10.67847,-1.45731 16.7082,-1.45912 5.35209,-0.002 9.37808,0.29475 14.13309,1.04041 16.6051,2.60396 30.43413,11.09261 40.83184,25.06378 9.00465,12.09937 13.02035,27.47702 11.62508,44.51697 -0.17553,2.14404 -0.63796,4.30147 -1.72465,8.04684 -2.62152,9.03531 -6.52506,16.29361 -12.11444,22.52569 -1.18936,1.32612 -1.31272,1.50488 -1.16222,1.6846 0.0926,0.11059 0.56974,0.65918 1.06029,1.21911 7.34986,8.38925 12.55001,17.71624 15.20527,27.27234 1.72332,6.20201 2.35024,11.27386 2.23855,18.10936 -0.0919,5.62631 -0.67737,9.89615 -2.13645,15.5822 -1.3106,5.10746 -3.82352,11.82154 -5.42744,14.50116 -6.06101,10.12606 -13.87171,18.55768 -22.61953,24.41774 -3.46443,2.32077 -8.58522,5.00524 -12.42175,6.51187 -6.80207,2.67118 -14.67771,4.42452 -22.39733,4.98624 -2.58179,0.18786 -2.86301,0.19344 -5.45803,0.10814 z m 1.80499,-44.54272 c 7.32097,-0.62888 12.74937,-2.55048 17.13736,-6.0665 3.30752,-2.65026 5.76596,-6.45496 7.16335,-11.08621 0.76923,-2.54942 0.83359,-3.01069 0.75482,-5.41119 -0.28598,-8.71565 -3.47929,-14.9865 -9.78462,-19.2146 -3.01502,-2.02173 -6.64408,-3.49361 -10.95292,-4.44233 -2.75307,-0.60617 -3.19458,-0.64526 -6.3921,-0.56598 -3.20922,0.0796 -4.8607,0.26074 -7.26814,0.79733 -3.50019,0.78017 -6.67648,2.17702 -9.16253,4.0294 -1.84869,1.37751 -4.08357,3.82739 -5.45045,5.97479 -1.14684,1.80171 -2.41822,4.72895 -3.10591,7.15094 -0.79619,2.80409 -0.8232,3.00935 -0.7532,5.72029 0.0719,2.78312 0.32801,4.54334 1.00235,6.88857 1.42084,4.94151 4.53997,9.0143 8.9697,11.71225 3.59464,2.18932 7.84494,3.61118 13.47059,4.50635 0.93183,0.14828 2.69348,0.15106 4.3717,0.007 z m 1.79656,-90.00106 c 8.3781,-0.94862 14.22319,-4.6103 17.40049,-10.9006 0.86767,-1.71782 1.28748,-2.85864 1.87318,-5.09029 0.35618,-1.35723 0.38353,-1.58111 0.29273,-2.39544 -0.58115,-5.21136 -2.34018,-9.11625 -5.44927,-12.09709 -2.88715,-2.76806 -6.56715,-4.38809 -11.84147,-5.21297 -3.2529,-0.50873 -8.87979,-0.29551 -12.63953,0.47896 -4.85595,1.00027 -8.24494,2.65417 -10.90347,5.32114 -2.52157,2.52952 -3.81902,5.12814 -4.55074,9.11452 -0.36616,1.99471 0.12679,5.5524 1.14412,8.25765 2.30837,6.13837 7.44564,10.15874 15.63118,12.23279 0.82343,0.20864 1.90139,0.42224 2.39546,0.47467 1.17007,0.12417 4.82083,0.0235 6.64732,-0.18334 z"
   id="path485" /></svg>
