<?xml version="1.0" encoding="UTF-8" standalone="no"?>
<svg
   xmlns:dc="http://purl.org/dc/elements/1.1/"
   xmlns:cc="http://creativecommons.org/ns#"
   xmlns:rdf="http://www.w3.org/1999/02/22-rdf-syntax-ns#"
   xmlns:svg="http://www.w3.org/2000/svg"
   xmlns="http://www.w3.org/2000/svg"
   xmlns:sodipodi="http://sodipodi.sourceforge.net/DTD/sodipodi-0.dtd"
   xmlns:inkscape="http://www.inkscape.org/namespaces/inkscape"
   sodipodi:docname="France_road_sign_M9k1.svg"
   inkscape:version="0.92.4 (5da689c313, 2019-01-14)"
   version="1.1"
   id="svg3859"
   height="319.9321"
   width="600">
  <defs
     id="defs3861" />
  <sodipodi:namedview
     inkscape:document-rotation="0"
     inkscape:window-maximized="1"
     inkscape:window-y="23"
     inkscape:window-x="0"
     inkscape:window-height="780"
     inkscape:window-width="1434"
     inkscape:guide-bbox="true"
     showguides="true"
     inkscape:snap-page="true"
     inkscape:snap-bbox-edge-midpoints="true"
     inkscape:bbox-nodes="true"
     inkscape:bbox-paths="true"
     inkscape:snap-bbox="true"
     inkscape:snap-center="true"
     showgrid="false"
     inkscape:current-layer="text27"
     inkscape:document-units="px"
     inkscape:cy="-85.789488"
     inkscape:cx="51.502771"
     inkscape:zoom="0.49497475"
     inkscape:pageshadow="2"
     inkscape:pageopacity="0.0"
     borderopacity="1.0"
     bordercolor="#666666"
     pagecolor="#ffffff"
     id="base" />
  <metadata
     id="metadata3864">
    <rdf:RDF>
      <cc:Work
         rdf:about="">
        <dc:format>image/svg+xml</dc:format>
        <dc:type
           rdf:resource="http://purl.org/dc/dcmitype/StillImage" />
        <dc:title></dc:title>
      </cc:Work>
    </rdf:RDF>
  </metadata>
  <g
     transform="translate(1.0038375,-952.25299)"
     id="layer1"
     inkscape:groupmode="layer"
     inkscape:label="Calque 1">
    <rect
       ry="58.251732"
       y="953.75299"
       x="0.49616253"
       height="316.9321"
       width="597"
       id="rect3016"
       style="fill:#ffffff;stroke:#000000;stroke-width:3;stroke-miterlimit:4;stroke-dasharray:none;stroke-opacity:1" />
    <g
       aria-label="VOIE
RÉSERVÉE"
       style="font-style:normal;font-variant:normal;font-weight:bold;font-stretch:normal;font-size:113.33333588px;line-height:1.25;font-family:'Trebuchet MS';-inkscape-font-specification:'Trebuchet MS Bold';text-align:center;letter-spacing:0px;word-spacing:0px;text-anchor:middle;fill:#000000;fill-opacity:1;stroke:none"
       id="text27">
      <path
         d="m 212.35878,1081.275 h -7.91341 l -30.32552,-82.17775 h 15.82682 l 18.75977,54.78515 19.8112,-54.78515 h 15.49479 z"
         style="font-size:113.33333588px"
         id="path52" />
      <path
         d="m 248.66087,1038.941 q 0,-17.321 9.46289,-29.2741 9.51823,-12.00845 25.40039,-12.00845 17.48698,0 26.72851,10.84635 9.24154,10.8464 9.24154,30.4362 0,19.5898 -9.68424,31.1003 -9.62891,11.5104 -27.39258,11.5104 -16.32487,0 -25.06836,-11.3998 -8.68815,-11.3997 -8.68815,-31.2109 z m 14.9414,0 q 0,14.222 4.81446,22.0247 4.81445,7.8028 14.00065,7.8028 10.79101,0 16.43554,-7.6367 5.69987,-7.6368 5.69987,-22.1908 0,-28.4994 -21.02864,-28.4994 -9.62891,0 -14.77539,7.7474 -5.14649,7.6921 -5.14649,20.752 z"
         style="font-size:113.33333588px"
         id="path54" />
      <path
         d="m 332.49876,1080.1682 v -81.07095 h 14.38802 v 81.07095 z"
         style="font-size:113.33333588px"
         id="path56" />
      <path
         d="m 378.26373,1011.8805 v 18.9811 h 26.78385 v 12.2298 h -26.78385 v 24.2936 h 36.74479 v 12.7832 H 363.8757 v -81.07095 h 51.74154 v 12.78325 z"
         style="font-size:113.33333588px"
         id="path58" />
      <path
         d="m 90.613989,1221.8349 -21.637371,-33.4798 q -3.264974,-0.055 -9.130859,-0.3874 v 33.8672 H 44.904352 v -81.071 q 1.217448,0 9.352214,-0.3874 8.134766,-0.4427 13.115235,-0.4427 30.878907,0 30.878907,23.9063 0,7.194 -4.261068,13.1152 -4.261068,5.9212 -10.735678,8.3561 l 23.961588,36.5235 z m -30.76823,-68.5645 v 22.5228 q 3.984375,0.332 6.08724,0.332 9.020182,0 13.170573,-2.5455 4.205729,-2.5456 4.205729,-9.9056 0,-5.9766 -4.482422,-8.3561 -4.482422,-2.3796 -14.111328,-2.3796 -2.324219,0 -4.869792,0.332 z"
         style="font-size:113.33333588px"
         id="path60" />
      <path
         d="m 128.57623,1153.5471 v 18.9811 h 26.78386 v 12.2299 h -26.78386 v 24.2936 h 36.7448 v 12.7832 h -51.13282 v -81.071 h 51.74154 v 12.7832 z m 25.8431,-35.638 -12.50651,16.2142 H 131.3985 l 9.35221,-16.2142 z"
         style="font-size:113.33333588px"
         id="path62" />
      <path
         d="m 174.72858,1217.3525 5.3125,-12.8939 q 8.52213,5.9765 16.76757,5.9765 12.67253,0 12.67253,-8.8541 0,-4.1504 -2.98828,-7.9134 -2.98828,-3.7631 -12.3405,-8.4115 -9.29687,-4.7038 -12.56184,-7.6921 -3.20964,-3.0436 -4.98047,-7.194 -1.7155,-4.1504 -1.7155,-9.1862 0,-9.4075 6.86198,-15.6054 6.91732,-6.1979 17.70833,-6.1979 14.05599,0 20.64128,5.2571 l -4.37174,12.3958 q -7.58138,-5.4231 -15.99284,-5.4231 -4.98047,0 -7.7474,2.6562 -2.71159,2.6009 -2.71159,6.8067 0,6.9726 15.43946,14.4987 8.13476,3.9843 11.73177,7.36 3.597,3.3203 5.47851,7.8027 1.88151,4.4271 1.88151,9.9056 0,9.8503 -7.80273,16.2142 -7.7474,6.3639 -20.80729,6.3639 -11.3444,0 -20.47526,-5.8658 z"
         style="font-size:113.33333588px"
         id="path64" />
      <path
         d="m 250.98509,1153.5471 v 18.9811 h 26.78386 v 12.2299 h -26.78386 v 24.2936 h 36.74479 v 12.7832 h -51.13281 v -81.071 h 51.74154 v 12.7832 z"
         style="font-size:113.33333588px"
         id="path66" />
      <path
         d="m 346.72077,1221.8349 -21.63737,-33.4798 q -3.26497,-0.055 -9.13086,-0.3874 v 33.8672 h -14.94141 v -81.071 q 1.21745,0 9.35222,-0.3874 8.13476,-0.4427 13.11523,-0.4427 30.87891,0 30.87891,23.9063 0,7.194 -4.26107,13.1152 -4.26107,5.9212 -10.73568,8.3561 l 23.96159,36.5235 z m -30.76823,-68.5645 v 22.5228 q 3.98437,0.332 6.08724,0.332 9.02018,0 13.17057,-2.5455 4.20573,-2.5456 4.20573,-9.9056 0,-5.9766 -4.48242,-8.3561 -4.48242,-2.3796 -14.11133,-2.3796 -2.32422,0 -4.86979,0.332 z"
         style="font-size:113.33333588px"
         id="path68" />
      <path
         d="m 396.52545,1222.9417 h -7.91341 l -30.32553,-82.1778 h 15.82683 l 18.75976,54.7852 19.8112,-54.7852 h 15.49479 z"
         style="font-size:113.33333588px"
         id="path70" />
      <path
         d="m 451.08925,1153.5471 v 18.9811 h 26.78385 v 12.2299 h -26.78385 v 24.2936 h 36.74479 v 12.7832 h -51.13281 v -81.071 h 51.74153 v 12.7832 z m 25.8431,-35.638 -12.50651,16.2142 h -10.51433 l 9.35222,-16.2142 z"
         style="font-size:113.33333588px"
         id="path72" />
      <path
         d="m 515.50331,1153.5471 v 18.9811 h 26.78386 v 12.2299 h -26.78386 v 24.2936 h 36.74479 v 12.7832 h -51.13281 v -81.071 h 51.74154 v 12.7832 z"
         style="font-size:113.33333588px"
         id="path74" />
    </g>
  </g>
</svg>
