<?xml version="1.0" encoding="UTF-8" standalone="no"?>
<!-- Generator: Adobe Illustrator 13.0.0, SVG Export Plug-In  -->

<svg
   version="1.1"
   x="0px"
   y="0px"
   width="639.99902"
   height="187.42299"
   viewBox="-0.082 -0.083 639.99902 187.42299"
   enable-background="new -0.082 -0.083 390 198"
   xml:space="preserve"
   id="svg2"
   inkscape:version="1.2.2 (732a01da63, 2022-12-09)"
   sodipodi:docname="France_road_sign_M2.svg"
   xmlns:inkscape="http://www.inkscape.org/namespaces/inkscape"
   xmlns:sodipodi="http://sodipodi.sourceforge.net/DTD/sodipodi-0.dtd"
   xmlns="http://www.w3.org/2000/svg"
   xmlns:svg="http://www.w3.org/2000/svg"
   xmlns:rdf="http://www.w3.org/1999/02/22-rdf-syntax-ns#"
   xmlns:cc="http://creativecommons.org/ns#"
   xmlns:dc="http://purl.org/dc/elements/1.1/"><metadata
     id="metadata52"><rdf:RDF><cc:Work
         rdf:about=""><dc:format>image/svg+xml</dc:format><dc:type
           rdf:resource="http://purl.org/dc/dcmitype/StillImage" /><dc:title /></cc:Work></rdf:RDF></metadata><sodipodi:namedview
     pagecolor="#ffffff"
     bordercolor="#666666"
     borderopacity="1"
     objecttolerance="10"
     gridtolerance="10"
     guidetolerance="10"
     inkscape:pageopacity="0"
     inkscape:pageshadow="2"
     inkscape:window-width="1920"
     inkscape:window-height="991"
     id="namedview50"
     showgrid="false"
     inkscape:zoom="1.61094"
     inkscape:cx="429.2525"
     inkscape:cy="124.4615"
     inkscape:window-x="-9"
     inkscape:window-y="-9"
     inkscape:window-maximized="1"
     inkscape:current-layer="svg2"
     inkscape:showpageshadow="2"
     inkscape:pagecheckerboard="0"
     inkscape:deskcolor="#d1d1d1"
     showguides="false" /><defs
     id="defs4"><inkscape:perspective
       sodipodi:type="inkscape:persp3d"
       inkscape:vp_x="0 : 98.922989 : 1"
       inkscape:vp_y="0 : 1000 : 0"
       inkscape:vp_z="390 : 98.922989 : 1"
       inkscape:persp3d-origin="195 : 65.922989 : 1"
       id="perspective4308" /></defs><path
     style="opacity:1;fill:#ffffff;fill-opacity:1;fill-rule:evenodd;stroke:#000000;stroke-width:3.99998;stroke-linecap:round;stroke-linejoin:round;stroke-miterlimit:4;stroke-dasharray:none;stroke-dashoffset:0;stroke-opacity:1"
     d="M 32.445095,1.91699 H 607.38993 c 16.91202,0 30.52711,13.615089 30.52711,30.527105 V 154.8129 c 0,16.91201 -13.61509,30.5271 -30.52711,30.5271 H 32.445095 C 15.533079,185.34 1.91799,171.72491 1.91799,154.8129 V 32.444095 C 1.91799,15.532079 15.533079,1.91699 32.445095,1.91699 Z"
     id="rect4365" /><g
     id="g2269"
     transform="translate(0.656531)"><path
       d="m 49.776258,64.764101 q 5.527617,0.652568 9.366241,4.414417 3.877008,3.761851 5.604387,8.905605 0.806112,2.264787 1.189973,5.949866 v 17.273801 q -0.575793,8.75206 -5.527615,14.12613 -4.913437,5.37408 -11.976504,5.71955 H 26.168728 l 0.03838,-56.389369 z M 37.185575,110.05985 h 8.982378 q 2.725423,-0.42225 4.644733,-1.99608 1.919311,-1.61222 3.262829,-5.60439 0.729339,-2.45672 0.422248,-17.887983 -1.804151,-7.984336 -8.32981,-9.174309 h -8.982378 z"
       id="path2111"
       style="font-weight:bold;font-size:37.5px;line-height:1.5;font-family:'Caracteres L1';-inkscape-font-specification:'Caracteres L1 Bold';fill:#000000;fill-rule:evenodd;stroke-width:1.0482;stroke-linecap:round;paint-order:stroke fill markers" /><path
       d="m 123.4191,64.99442 v 10.287508 h -23.26205 v 12.283594 h 17.04349 v 10.402667 h -17.04349 v 12.859391 h 24.26009 v 10.40266 H 89.332131 l 0.03838,-56.23582 z"
       id="path2113"
       style="font-weight:bold;font-size:37.5px;line-height:1.5;font-family:'Caracteres L1';-inkscape-font-specification:'Caracteres L1 Bold';fill:#000000;fill-rule:evenodd;stroke-width:1.0482;stroke-linecap:round;paint-order:stroke fill markers" /><path
       d="m 198.7619,64.840876 v 56.389364 h -10.70977 l 0.0384,-39.806514 h -0.15345 q -0.1151,0.499021 -2.76381,2.188015 l -3.33959,1.765766 -2.99412,1.151588 q -1.80416,0.383861 -1.9577,0.575793 V 75.205156 l 2.37994,-1.113201 q 5.94987,-3.800236 8.56012,-9.251079 z"
       id="path2115"
       style="font-weight:bold;font-size:37.5px;line-height:1.5;font-family:'Caracteres L1';-inkscape-font-specification:'Caracteres L1 Bold';fill:#000000;fill-rule:evenodd;stroke-width:1.0482;stroke-linecap:round;paint-order:stroke fill markers" /><path
       d="m 242.63377,110.63565 q 2.37993,0.15354 2.95573,-0.0768 l 0.0384,0.0768 2.11125,-0.46064 q 2.53348,-0.8445 3.877,-3.64669 1.03643,-2.80219 1.53546,-6.679205 l 0.19182,-8.675287 -0.11509,-4.06894 -0.38387,-3.032512 -0.15346,-0.15354 -0.49903,-2.149627 -0.15345,-0.07677 q -0.5758,-2.303174 -2.18801,-4.260872 -1.22837,-0.998041 -1.95771,-1.305132 l -2.22639,-0.537406 -2.34156,-0.115155 q -1.57385,-0.03838 -3.49314,0.652565 -1.76578,0.844497 -2.95576,3.032514 -0.84449,2.03447 -1.53545,5.105367 l 0.0767,0.230318 q -0.23031,0.191926 -0.26869,1.266746 -0.53742,4.491189 -0.1151,13.166475 l 0.61419,4.184101 0.8061,2.95574 q 0.88288,2.30317 2.41833,3.3396 1.3819,0.88288 3.76186,1.22836 z M 223.51741,99.043005 q -0.11509,-2.14963 -0.11509,-4.222485 0,-1.036429 0.0384,-2.072857 0.11509,-4.068941 0.65257,-7.907564 v -0.268702 l 0.15345,-0.345476 0.26872,-2.64865 0.19182,-0.383862 0.38387,-2.149629 0.15346,-0.230317 q 0.5758,-2.76381 2.49509,-6.21857 l 1.11321,-1.688994 2.14963,-2.188015 q 3.41638,-2.763809 8.86723,-3.953783 1.72737,-0.307089 3.56991,-0.307089 h 0.30708 q 2.87897,0.07677 6.02665,0.959657 1.30513,0.15354 4.1841,1.727379 2.95573,1.84254 5.37406,5.028596 l 1.22836,1.880926 0.99806,2.111243 0.42223,1.535449 0.11509,0.115155 v 0.383864 q 0.38388,0.806109 0.46065,1.266745 l 0.15345,0.191925 0.65257,3.416373 0.11509,0.07677 -0.0767,0.499022 0.15346,0.307089 0.38387,4.107326 0.15346,0.383863 -0.11509,0.03838 0.26869,2.418334 -0.0767,0.07677 q 0.15346,0.383861 0,0.460636 l 0.1151,0.383861 -0.0767,0.115155 0.19203,2.610263 -0.0767,0.07677 0.11509,1.1132 -0.0384,0.07677 v 1.535449 q -0.0384,1.42029 -0.23033,3.416368 l -0.19182,1.4203 0.0767,0.0768 -0.19204,0.38386 q -0.11509,1.42029 -0.65256,3.37798 l -0.23031,0.72934 -0.0384,0.42225 -0.99805,2.84058 -0.19203,0.15354 q 0,0.38387 -0.99806,2.34156 l -1.84252,2.64865 q -3.03253,3.49315 -6.7176,5.10537 -2.41832,0.95966 -4.87505,1.26675 l -2.95574,0.19193 -0.69095,-0.0384 q -8.75205,-0.23032 -14.12613,-5.68116 -2.64865,-2.95574 -3.99217,-6.87113 -1.53545,-3.99217 -1.88092,-8.40659 z"
       id="path2117"
       style="font-weight:bold;font-size:37.5px;line-height:1.5;font-family:'Caracteres L1';-inkscape-font-specification:'Caracteres L1 Bold';fill:#000000;fill-rule:evenodd;stroke-width:1.0482;stroke-linecap:round;paint-order:stroke fill markers" /><path
       d="m 393.69741,64.879261 14.50998,56.235829 h -11.01684 l -2.41834,-9.55818 h -15.54642 l -2.45673,9.55818 h -11.13199 l 14.35644,-56.235829 z m -12.36038,35.967899 h 11.09363 l -5.37408,-21.956925 z m 9.36624,-49.940486 5.02861,11.669413 h -12.20683 l -6.14181,-11.669413 z"
       id="path2119"
       style="font-weight:bold;font-size:37.5px;line-height:1.5;font-family:'Caracteres L1';-inkscape-font-specification:'Caracteres L1 Bold';fill:#000000;fill-rule:evenodd;stroke-width:1.0482;stroke-linecap:round;paint-order:stroke fill markers" /><path
       d="m 490.33616,64.840876 v 56.389364 h -10.70977 l 0.0384,-39.806514 h -0.15346 q -0.11509,0.499021 -2.76381,2.188015 l -3.3396,1.765766 -2.99412,1.151588 q -1.80414,0.383861 -1.9577,0.575793 V 75.205156 l 2.37995,-1.113201 q 5.94986,-3.800236 8.56013,-9.251079 z"
       id="path2121"
       style="font-weight:bold;font-size:37.5px;line-height:1.5;font-family:'Caracteres L1';-inkscape-font-specification:'Caracteres L1 Bold';fill:#000000;fill-rule:evenodd;stroke-width:1.0482;stroke-linecap:round;paint-order:stroke fill markers" /><path
       d="m 558.97818,64.802489 v 11.822957 q -8.32981,8.214653 -14.12613,23.761074 -3.56991,11.17039 -3.30122,20.84372 H 529.9582 Q 529.8815,98.659142 545.12075,76.279972 H 523.58609 V 64.802489 Z"
       id="path2123"
       style="font-weight:bold;font-size:37.5px;line-height:1.5;font-family:'Caracteres L1';-inkscape-font-specification:'Caracteres L1 Bold';fill:#000000;fill-rule:evenodd;stroke-width:1.0482;stroke-linecap:round;paint-order:stroke fill markers" /><path
       style="fill:#000000;fill-rule:evenodd;stroke-width:2.4043;stroke-linecap:round;paint-order:stroke fill markers"
       d="m 290.98504,79.143511 v 42.086729 h 4.16997 2.95043 v -17.24305 c 0,-3.6905 2.34161,-6.660911 5.24787,-6.660911 2.9063,0 5.24445,2.970411 5.24445,6.660911 v 17.24305 h 7.01329 v -20.2142 c 0,-5.961057 -4.56308,-10.761797 -10.22974,-10.761797 -2.85402,0 -5.42459,1.218402 -7.27587,3.188806 V 79.143511 Z"
       id="rect1945-6" /><path
       style="fill:#000000;fill-rule:evenodd;stroke-width:2.4043;stroke-linecap:round;paint-order:stroke fill markers"
       d="m 587.72721,79.143511 v 42.086729 h 4.16996 2.95043 v -17.24305 c 0,-3.6905 2.34164,-6.660911 5.2479,-6.660911 2.9063,0 5.24444,2.970411 5.24444,6.660911 v 17.24305 h 7.0133 v -20.2142 c 0,-5.961057 -4.56308,-10.761797 -10.22974,-10.761797 -2.85402,0 -5.42462,1.218402 -7.2759,3.188806 V 79.143511 Z"
       id="path2157" /></g></svg>
