<?xml version="1.0" encoding="UTF-8" standalone="no"?>
<!-- Created with Inkscape (http://www.inkscape.org/) -->

<svg
   xmlns:dc="http://purl.org/dc/elements/1.1/"
   xmlns:cc="http://creativecommons.org/ns#"
   xmlns:rdf="http://www.w3.org/1999/02/22-rdf-syntax-ns#"
   xmlns:svg="http://www.w3.org/2000/svg"
   xmlns="http://www.w3.org/2000/svg"
   xmlns:sodipodi="http://sodipodi.sourceforge.net/DTD/sodipodi-0.dtd"
   xmlns:inkscape="http://www.inkscape.org/namespaces/inkscape"
   width="187"
   height="100"
   id="svg3859"
   version="1.1"
   inkscape:version="0.48.4 r9939"
   sodipodi:docname="M9e.svg">
  <defs
     id="defs3861" />
  <sodipodi:namedview
     id="base"
     pagecolor="#ffffff"
     bordercolor="#666666"
     borderopacity="1.0"
     inkscape:pageopacity="0.0"
     inkscape:pageshadow="2"
     inkscape:zoom="1.979899"
     inkscape:cx="81.793289"
     inkscape:cy="21.606294"
     inkscape:document-units="px"
     inkscape:current-layer="layer1"
     showgrid="false"
     inkscape:snap-center="true"
     inkscape:snap-bbox="true"
     inkscape:bbox-paths="true"
     inkscape:bbox-nodes="true"
     inkscape:snap-bbox-edge-midpoints="true"
     inkscape:snap-page="true"
     showguides="true"
     inkscape:guide-bbox="true"
     inkscape:window-width="1366"
     inkscape:window-height="745"
     inkscape:window-x="-8"
     inkscape:window-y="-8"
     inkscape:window-maximized="1" />
  <metadata
     id="metadata3864">
    <rdf:RDF>
      <cc:Work
         rdf:about="">
        <dc:format>image/svg+xml</dc:format>
        <dc:type
           rdf:resource="http://purl.org/dc/dcmitype/StillImage" />
        <dc:title></dc:title>
      </cc:Work>
    </rdf:RDF>
  </metadata>
  <g
     inkscape:label="Calque 1"
     inkscape:groupmode="layer"
     id="layer1"
     transform="translate(0,-952.36218)">
    <g
       transform="translate(-269.36547,755.35444)"
       id="g3958">
      <rect
         ry="18.025152"
         y="197.50391"
         x="269.86163"
         height="98.07003"
         width="185.33481"
         id="rect3016"
         style="fill:#ffffff;stroke:#000000;stroke-width:0.99232578;stroke-opacity:1" />
      <path
         id="path9"
         d="m 443.98559,261.4505 c -2.70072,-7.05254 -6.70348,-14.90227 -11.86715,-20.50589 -5.4553,-5.91975 -11.14281,-12.6612 -17.79868,-17.27604 -1.55759,-1.08015 -3.1159,-2.16004 -4.67324,-3.24043 l -10.89904,-6.82993 c -2.27568,-0.93229 -4.69393,-1.67995 -6.82105,-2.56392 -3.46328,-1.43931 -6.53662,-2.07181 -10.18935,-1.02821 -3.38756,0.96787 -5.89234,5.35551 -7.92641,7.91992 l -0.64118,1.44243 -0.16034,2.56441 0.64116,2.24371 1.60279,2.0836 6.57101,4.16695 8.65461,4.80812 2.08359,0.96163 1.92325,0.4808 1.44243,-0.4808 0.96162,-0.48082 6.80277,-6.51332 4.79105,5.30936 c 0.21035,0.28825 0.43128,0.56857 0.66617,0.83782 2.05401,2.35862 3.92799,4.5653 6.36353,6.51403 4.47251,3.57773 8.26178,7.63145 12.9497,11.00121 -2.34276,2.23866 -4.68528,4.47732 -7.02826,6.71597 -0.60391,0.57722 -2.06822,1.39196 -1.86363,2.31271 0.21372,0.96018 0.12766,2.64951 0.63731,3.43419 1.90979,2.93825 3.81957,5.87624 5.72912,8.81424 1.41862,2.18264 2.74783,5.25359 4.60905,7.09077 2.48677,2.45479 5.34423,2.03816 7.95407,0.34955 1.79584,-1.16188 5.11271,-2.56537 6.26642,-4.37971 3.45751,-5.43462 1.33977,-10.21388 -0.78132,-15.75235 z"
         inkscape:connector-curvature="0" />
      <g
         id="g11"
         transform="matrix(0.45670872,0,0,0.45670872,257.71886,80.408652)">
        <rect
           id="rect13"
           height="125"
           width="233"
           style="fill:none"
           y="377.18301"
           x="116.266" />
        <path
           id="path15"
           d="m 118.75,432.12 v -0.094 c 0,-0.344 0.359,-0.578 1.078,-0.703 5.531,-1.781 9.125,-3.063 10.781,-3.844 0.844,1.156 1.953,2.203 3.328,3.141 2.219,1.313 4.594,2.109 7.125,2.391 2.688,0.063 4.359,0 5.016,-0.188 3.094,-0.875 5,-1.766 5.719,-2.672 0.719,-0.625 1.343,-2.141 1.875,-4.547 0.125,-0.938 0,-1.984 -0.375,-3.141 -0.469,-0.781 -0.969,-1.438 -1.5,-1.969 l -1.594,-1.219 -1.781,-0.797 c -9.907,-3.094 -15.359,-4.906 -16.359,-5.438 -4.594,-1.844 -8.016,-4.891 -10.266,-9.141 -1.469,-2.844 -2.125,-6.297 -1.969,-10.359 0.593,-5.063 2.672,-9.078 6.234,-12.047 4,-2.906 8.172,-4.484 12.516,-4.734 h 1.219 c 3.094,0 5.656,0.234 7.688,0.703 4.125,1.156 7.343,2.766 9.656,4.828 2.313,1.906 4.219,4.5 5.719,7.781 l -0.141,0.516 -9.656,4.641 -0.469,-0.234 c -0.594,-1.906 -2.266,-3.453 -5.016,-4.641 -3.094,-1.156 -6.719,-1.188 -10.875,-0.094 -1.781,0.594 -3.031,1.359 -3.75,2.297 -0.25,0.25 -0.579,1.031 -0.984,2.344 -0.063,1.531 0,2.422 0.188,2.672 0.406,1.063 1.219,2.016 2.438,2.859 l 1.219,0.516 c 8.875,2.625 14.89,4.531 18.047,5.719 2.719,1.25 4.797,2.625 6.234,4.125 l 2.625,3.563 c 1.938,3.219 2.969,6.734 3.094,10.547 0.031,0.25 0.047,0.547 0.047,0.891 0,1.219 -0.188,2.859 -0.563,4.922 -0.781,2.906 -1.719,5.047 -2.813,6.422 -1.875,2.313 -3.234,3.703 -4.078,4.172 -4.594,3.156 -9.328,4.859 -14.203,5.109 h -4.266 c -3.188,-0.313 -5.875,-0.938 -8.063,-1.875 -3.5,-1.625 -6.328,-3.438 -8.484,-5.438 -1.782,-1.624 -3.328,-3.952 -4.641,-6.984 z"
           style="stroke:#000000;stroke-width:3;stroke-miterlimit:10"
           inkscape:connector-curvature="0" />
        <path
           id="path17"
           d="m 171.672,431.98 h 14.063 v 14.156 H 171.672 V 431.98 z"
           style="stroke:#000000;stroke-width:3;stroke-miterlimit:10"
           inkscape:connector-curvature="0" />
        <path
           id="path19"
           d="m 222.813,376.573 c 7.563,1.156 13.156,5.625 16.781,13.406 3.094,5.75 4.641,12.813 4.641,21.188 v 0.844 c 0,10.469 -2.547,19.375 -7.641,26.719 -3.625,4.938 -8.75,7.703 -15.375,8.297 -0.688,0.063 -1.359,0.094 -2.016,0.094 -6.875,0 -12.641,-2.906 -17.297,-8.719 -4.813,-7.75 -7.25,-15.703 -7.313,-23.859 -0.031,-0.688 -0.047,-1.375 -0.047,-2.063 0,-11.031 2.453,-20.156 7.359,-27.375 3.281,-3.938 6.703,-6.453 10.266,-7.547 2.468,-0.781 4.938,-1.172 7.406,-1.172 1.095,0 2.173,0.062 3.236,0.187 z m -3.61,58.547 c 3.625,-0.188 6.687,-2.672 9.188,-7.453 1.812,-3.188 2.953,-7.875 3.422,-14.063 0.094,-7.875 -1.297,-14.328 -4.172,-19.359 -2.344,-3.5 -4.938,-5.453 -7.781,-5.859 -3.75,0.188 -6.875,2.641 -9.375,7.359 -1.781,3.313 -2.938,8.063 -3.469,14.25 -0.063,7.875 1.359,14.313 4.266,19.313 2.312,3.5 4.952,5.437 7.921,5.812 z"
           style="stroke:#000000;stroke-width:3;stroke-miterlimit:10"
           inkscape:connector-curvature="0" />
        <path
           id="path21"
           d="m 250.844,431.98 h 14.063 v 14.156 H 250.844 V 431.98 z"
           style="stroke:#000000;stroke-width:3;stroke-miterlimit:10"
           inkscape:connector-curvature="0" />
        <path
           id="path23"
           d="m 273.203,432.12 v -0.094 c 0,-0.344 0.359,-0.578 1.078,-0.703 5.531,-1.781 9.125,-3.063 10.781,-3.844 0.844,1.156 1.953,2.203 3.328,3.141 2.219,1.313 4.594,2.109 7.125,2.391 2.688,0.063 4.359,0 5.016,-0.188 3.094,-0.875 5,-1.766 5.719,-2.672 0.719,-0.625 1.344,-2.141 1.875,-4.547 0.125,-0.938 0,-1.984 -0.375,-3.141 -0.469,-0.781 -0.969,-1.438 -1.5,-1.969 l -1.594,-1.219 -1.781,-0.797 c -9.906,-3.094 -15.359,-4.906 -16.359,-5.438 -4.594,-1.844 -8.016,-4.891 -10.266,-9.141 -1.469,-2.844 -2.125,-6.297 -1.969,-10.359 0.593,-5.063 2.672,-9.078 6.234,-12.047 4,-2.906 8.172,-4.484 12.516,-4.734 h 1.219 c 3.094,0 5.656,0.234 7.688,0.703 4.125,1.156 7.344,2.766 9.656,4.828 2.313,1.906 4.219,4.5 5.719,7.781 l -0.141,0.516 -9.656,4.641 -0.469,-0.234 c -0.594,-1.906 -2.266,-3.453 -5.016,-4.641 -3.094,-1.156 -6.719,-1.188 -10.875,-0.094 -1.781,0.594 -3.031,1.359 -3.75,2.297 -0.25,0.25 -0.578,1.031 -0.984,2.344 -0.063,1.531 0,2.422 0.188,2.672 0.406,1.063 1.219,2.016 2.438,2.859 l 1.219,0.516 c 8.875,2.625 14.891,4.531 18.047,5.719 2.719,1.25 4.797,2.625 6.234,4.125 l 2.625,3.563 c 1.938,3.219 2.969,6.734 3.094,10.547 0.031,0.25 0.047,0.547 0.047,0.891 0,1.219 -0.188,2.859 -0.563,4.922 -0.781,2.906 -1.719,5.047 -2.813,6.422 -1.875,2.313 -3.234,3.703 -4.078,4.172 -4.594,3.156 -9.328,4.859 -14.203,5.109 h -4.266 c -3.188,-0.313 -5.875,-0.938 -8.063,-1.875 -3.5,-1.625 -6.328,-3.438 -8.484,-5.438 -1.781,-1.624 -3.328,-3.952 -4.641,-6.984 z"
           style="stroke:#000000;stroke-width:3;stroke-miterlimit:10"
           inkscape:connector-curvature="0" />
        <path
           id="path21-7"
           d="m 326.26125,432.02208 h 14.063 v 14.156 h -14.063 v -14.156 z"
           style="stroke:#000000;stroke-width:3;stroke-miterlimit:10"
           inkscape:connector-curvature="0" />
      </g>
      <g
         id="g3952">
        <rect
           style="fill:#dd0218;fill-opacity:1;stroke:none"
           id="rect3938"
           width="26.615459"
           height="55.539272"
           x="279.39618"
           y="230.13771" />
        <path
           sodipodi:type="arc"
           style="fill:#dd0218;fill-opacity:1;fill-rule:nonzero;stroke:none"
           id="path3940"
           sodipodi:cx="292.70392"
           sodipodi:cy="226.09904"
           sodipodi:rx="13.30773"
           sodipodi:ry="4.0386648"
           d="m 306.01165,226.09904 c 0,2.2305 -5.95808,4.03867 -13.30773,4.03867 -7.34966,0 -13.30773,-1.80817 -13.30773,-4.03867 0,0 0,0 0,0 l 13.30773,0 z"
           sodipodi:start="0"
           sodipodi:end="3.1415927"
           transform="matrix(-1,0,0,-1.9999989,585.40784,682.33554)" />
        <rect
           style="fill:#dd0218;fill-opacity:1;fill-rule:nonzero;stroke:none"
           id="rect3942"
           width="7.2166314"
           height="19.167179"
           x="289.09561"
           y="210.97052" />
        <path
           style="fill:#dd0218;fill-opacity:1;fill-rule:nonzero;stroke:none"
           d="m 275.06452,220.58598 11.60408,-9.61546 4.85402,0 c 5.29481,0 6.31575,0.0982 7.61072,0.73173 0.83196,0.40703 1.57011,1.19227 1.75698,1.86906 0.40244,1.45754 -0.75675,3.11573 -2.73161,3.90745 -0.75788,0.30384 -0.83348,0.14208 -7.12159,0.3479 -2.11865,0.0693 -4.23729,-0.36967 -6.35594,1.05575 l -4.46901,4.29193 -4.6871,4.36676 c -0.27043,0.12329 -0.49931,0.23718 -0.4903,-0.29114 z"
           id="path3950"
           inkscape:connector-curvature="0"
           sodipodi:nodetypes="ccscsssccccc" />
      </g>
    </g>
  </g>
</svg>
