<?xml version="1.0" encoding="UTF-8" standalone="no"?>
<!-- Created with Inkscape (http://www.inkscape.org/) -->

<svg
   xmlns:dc="http://purl.org/dc/elements/1.1/"
   xmlns:cc="http://creativecommons.org/ns#"
   xmlns:rdf="http://www.w3.org/1999/02/22-rdf-syntax-ns#"
   xmlns:svg="http://www.w3.org/2000/svg"
   xmlns="http://www.w3.org/2000/svg"
   xmlns:sodipodi="http://sodipodi.sourceforge.net/DTD/sodipodi-0.dtd"
   xmlns:inkscape="http://www.inkscape.org/namespaces/inkscape"
   width="300"
   height="304.54999"
   id="svg3907"
   version="1.1"
   inkscape:version="0.48.4 r9939"
   sodipodi:docname="M4k.svg">
  <defs
     id="defs3909" />
  <sodipodi:namedview
     id="base"
     pagecolor="#ffffff"
     bordercolor="#666666"
     borderopacity="1.0"
     inkscape:pageopacity="0.0"
     inkscape:pageshadow="2"
     inkscape:zoom="0.7"
     inkscape:cx="166.22455"
     inkscape:cy="115.99036"
     inkscape:document-units="px"
     inkscape:current-layer="layer1"
     showgrid="false"
     inkscape:snap-bbox="true"
     inkscape:bbox-nodes="true"
     inkscape:bbox-paths="true"
     inkscape:snap-bbox-midpoints="true"
     inkscape:snap-bbox-edge-midpoints="true"
     inkscape:object-paths="true"
     inkscape:snap-intersection-paths="true"
     inkscape:object-nodes="true"
     inkscape:snap-smooth-nodes="true"
     inkscape:snap-midpoints="true"
     inkscape:snap-object-midpoints="true"
     inkscape:snap-center="true"
     inkscape:snap-page="true"
     showguides="true"
     inkscape:guide-bbox="true"
     inkscape:window-width="1366"
     inkscape:window-height="745"
     inkscape:window-x="-8"
     inkscape:window-y="-8"
     inkscape:window-maximized="1" />
  <metadata
     id="metadata3912">
    <rdf:RDF>
      <cc:Work
         rdf:about="">
        <dc:format>image/svg+xml</dc:format>
        <dc:type
           rdf:resource="http://purl.org/dc/dcmitype/StillImage" />
        <dc:title />
      </cc:Work>
    </rdf:RDF>
  </metadata>
  <g
     inkscape:label="Calque 1"
     inkscape:groupmode="layer"
     id="layer1"
     transform="translate(0,-747.81217)">
    <rect
       style="fill:#ffffff;stroke:#000000;stroke-width:2.72424150000000020;stroke-miterlimit:4;stroke-opacity:1;stroke-dasharray:none"
       id="rect2995"
       width="297.27576"
       height="301.77771"
       x="1.3621207"
       y="749.22235"
       ry="32.969269" />
    <g
       id="g3861"
       transform="matrix(0.54883723,0,0,0.54883723,-507.16318,1051.4543)">
      <g
         transform="translate(1.0281973,-1.7663722e-6)"
         id="g3843">
        <g
           id="g3813"
           transform="translate(448.07448,-577.25898)">
          <path
             sodipodi:nodetypes="cccccccccccccccccccccccccccc"
             inkscape:connector-curvature="0"
             id="path3785"
             d="m 606.35593,366.10169 47.80225,12.80882 -24.54791,23.3145 77.60084,-19.04195 15.54478,43.92573 17.23397,-25.76397 12.4964,30.9989 10.95914,-33.50898 19.31855,27.65167 6.05407,-42.68482 80.04472,22.07894 -36.89062,-26.55914 64.21432,-13.2197 0,90.88984 c 0.77768,11.64719 -7.77725,18.79831 -16.84322,21.61016 l 0,49.25848 c -0.0479,9.74322 -2.28104,10.63087 -6.05484,10.48729 l -22.22906,0 c -2.75466,-0.0245 -8.24106,-0.0433 -8.26271,-8.26271 l 0,-51.48306 -180.82627,0 0,50.21187 c 0.0938,7.11842 -2.54828,9.24216 -5.5044,9.5339 l -25.79857,0 c -3.09648,-0.21747 -4.00256,0.82064 -5.56144,-5.56144 l 0,-54.18433 c -11.15662,-0.56558 -17.9871,-10.1699 -18.75,-18.75 z"
             style="fill:#000000;stroke:none" />
          <g
             transform="translate(451.66094,0.00652086)"
             id="g3809">
            <path
               sodipodi:type="arc"
               style="fill:#ffffff;fill-opacity:1;fill-rule:nonzero;stroke:none"
               id="path3787"
               sodipodi:cx="191.88914"
               sodipodi:cy="431.68762"
               sodipodi:rx="19.325588"
               sodipodi:ry="19.325588"
               d="m 211.21473,431.68762 c 0,10.67323 -8.65236,19.32559 -19.32559,19.32559 -10.67322,0 -19.32558,-8.65236 -19.32558,-19.32559 0,-10.67323 8.65236,-19.32559 19.32558,-19.32559 10.67323,0 19.32559,8.65236 19.32559,19.32559 z"
               transform="matrix(1.0290698,0,0,1.0290698,-6.6191633,-11.899494)" />
            <path
               sodipodi:type="arc"
               style="fill:#ffffff;fill-opacity:1;fill-rule:nonzero;stroke:none"
               id="path3787-1"
               sodipodi:cx="191.88914"
               sodipodi:cy="431.68762"
               sodipodi:rx="19.325588"
               sodipodi:ry="19.325588"
               d="m 211.21473,431.68762 c 0,10.67323 -8.65236,19.32559 -19.32559,19.32559 -10.67322,0 -19.32558,-8.65236 -19.32558,-19.32559 0,-10.67323 8.65236,-19.32559 19.32558,-19.32559 10.67323,0 19.32559,8.65236 19.32559,19.32559 z"
               transform="matrix(1.0290698,0,0,1.0290698,210.95426,-11.899494)" />
          </g>
        </g>
        <path
           style="fill:#ff0000;stroke:none"
           d="m 1175.927,-406.93856 26.2976,-105.66737 27.9661,109.87817 19.3856,-24.70868 2.2245,30.19068 53.7077,-60.69916 -23.517,60.06356 63.8771,-19.06779 -43.5381,47.66949 30.5085,-1.27119 -49.5763,40.04238 79.1314,-7.62712 -68.1674,52.91313 67.5318,-20.49788 -77.5424,62.92373 84.5339,17.16102 -107.733,24.47033 17.7966,11.75848 -47.6695,-14.30085 -5.0848,32.41526 -15.2542,-21.61017 -9.8517,22.88135 -12.3941,-20.97457 -14.6186,22.24576 -13.9831,-35.27543 -51.8008,12.71187 13.3474,-8.58051 -97.5635,-28.2839 76.7592,-9.70409 -57.3736,-24.61794 50.2118,-6.99153 -33.3686,-28.91949 39.7246,6.99153 -61.3348,-62.28814 74.2361,22.04033 -66.609,-100.21829 85.1695,38.13559 -18.1144,-28.6017 36.2288,19.70339 -5.0847,-58.15678 z"
           id="path3819"
           inkscape:connector-curvature="0"
           sodipodi:nodetypes="ccccccccccccccccccccccccccccccccccccccccc" />
      </g>
      <path
         sodipodi:nodetypes="ccccccccccccccccccccccccccccc"
         inkscape:connector-curvature="0"
         id="path3857"
         d="m 1158.2047,-227.41611 -32.5453,0.46073 19.9997,-16.17957 -27.4154,-9.43807 37.9771,-8.3145 -44.4938,-43.1455 53.4824,13.25825 -37.3029,-48.7634 53.4825,22.47161 20.2244,-80.8978 13.5954,81.68432 40.5612,-15.8425 -10.1122,38.20175 35.5051,-4.71904 -31.2355,24.04463 28.0895,13.70768 -26.2918,22.47161 28.9884,13.70769 -41.7972,-2.02245 17.0784,18.87616 -34.6063,-16.17956 0,18.87615 -16.6289,-18.87615 -4.0449,29.66253 -9.8875,-23.81991 -9.5062,15.51904 -4.7963,-23.1185 -27.0999,12.96539 z"
         style="fill:#fffcfc;fill-opacity:1;stroke:none" />
      <path
         sodipodi:nodetypes="cccccccccccccccccccccccccccccc"
         inkscape:connector-curvature="0"
         id="path3859"
         d="m 1173.0182,-256.84264 -32.5838,-32.35912 44.4938,11.01109 -25.5052,-38.20174 28.8759,14.38183 13.6964,-55.79776 5.2343,55.66378 34.1023,-13.12427 -8.3144,30.56139 18.0454,-0.54017 -15.9822,13.06079 27.1498,13.77117 -21.7974,20.8986 8.7639,4.71904 -11.9099,-1.12358 -14.1572,-2.69659 11.2335,9.38589 -22.2422,-9.69006 2.0201,13.11299 -12.4365,-14.92435 -5.3161,17.17151 -5.8426,-8.08978 -6.8482,7.8378 -3.0393,-15.25344 -14.6066,8.08979 2.9214,-6.74149 -17.7526,0.44943 11.4605,-7.41563 -16.2193,-7.42809 z"
         style="fill:#ffff00;fill-opacity:1;stroke:none" />
    </g>
  </g>
</svg>
