<?xml version="1.0" encoding="UTF-8" standalone="no"?>
<!-- Created with Inkscape (http://www.inkscape.org/) -->

<svg
   xmlns:dc="http://purl.org/dc/elements/1.1/"
   xmlns:cc="http://creativecommons.org/ns#"
   xmlns:rdf="http://www.w3.org/1999/02/22-rdf-syntax-ns#"
   xmlns:svg="http://www.w3.org/2000/svg"
   xmlns="http://www.w3.org/2000/svg"
   xmlns:sodipodi="http://sodipodi.sourceforge.net/DTD/sodipodi-0.dtd"
   xmlns:inkscape="http://www.inkscape.org/namespaces/inkscape"
   width="430"
   height="175"
   id="svg3864"
   version="1.1"
   inkscape:version="0.91 r13725"
   sodipodi:docname="France_road_sign_M4s.svg">
  <defs
     id="defs3866" />
  <sodipodi:namedview
     id="base"
     pagecolor="#ffffff"
     bordercolor="#666666"
     borderopacity="1.0"
     inkscape:pageopacity="0.0"
     inkscape:pageshadow="2"
     inkscape:zoom="1.1521237"
     inkscape:cx="237.56013"
     inkscape:cy="94.356948"
     inkscape:document-units="px"
     inkscape:current-layer="layer1"
     showgrid="false"
     inkscape:snap-bbox="true"
     inkscape:bbox-paths="true"
     inkscape:bbox-nodes="true"
     inkscape:snap-bbox-edge-midpoints="true"
     inkscape:snap-bbox-midpoints="true"
     inkscape:object-paths="true"
     inkscape:snap-intersection-paths="true"
     inkscape:object-nodes="true"
     inkscape:snap-smooth-nodes="true"
     inkscape:snap-midpoints="true"
     inkscape:snap-object-midpoints="true"
     inkscape:snap-center="true"
     inkscape:snap-page="true"
     showguides="true"
     inkscape:guide-bbox="true"
     inkscape:window-width="1440"
     inkscape:window-height="788"
     inkscape:window-x="0"
     inkscape:window-y="1"
     inkscape:window-maximized="1" />
  <metadata
     id="metadata3869">
    <rdf:RDF>
      <cc:Work
         rdf:about="">
        <dc:format>image/svg+xml</dc:format>
        <dc:type
           rdf:resource="http://purl.org/dc/dcmitype/StillImage" />
        <dc:title></dc:title>
      </cc:Work>
    </rdf:RDF>
  </metadata>
  <g
     inkscape:label="Calque 1"
     inkscape:groupmode="layer"
     id="layer1"
     transform="translate(0,-877.36219)">
    <rect
       style="fill:#ffffff;stroke:#000000;stroke-width:1.52710247;stroke-miterlimit:4;stroke-dasharray:none;stroke-opacity:1"
       id="rect2995"
       width="428.47272"
       height="173.4729"
       x="0.76364231"
       y="878.12573"
       ry="30.872192" />
    <path
       style="stroke:#000000;stroke-width:0.20384918;stroke-linecap:round;stroke-linejoin:round"
       mask="none"
       clip-path="none"
       d="m 45.707031,218.39062 17.511719,-3.78906 5.189453,1.89453 9.730469,0.94727 6.484375,4.73633 11.027344,1.89453 12.324219,5.68164 7.13477,5.68359 16.86523,0 10.37695,1.89453 10.37891,-3.78906 7.78515,-1.89453 9.08008,0 11.02735,5.68359 8.43164,10.41797 9.08008,0.94727 6.48828,2.8418 3.89062,4.73632 3.24414,10.41797 2.59375,15.1543 12.97266,7.57617 1.29687,-13.25781 10.37891,0 1.94531,-8.52539 24,0 1.29688,-6.63086 -15.56836,0 0.65039,-3.78711 15.56836,-3.78906 0.64648,-7.57813 6.48633,-6.6289 -1.29687,-9.47266 2.5957,-6.63086 3.89062,-2.8418 5.18946,0 1.94531,3.79102 0.65039,4.73437 -3.24609,8.52539 5.83984,6.63086 0,35.99024 10.37695,2.8418 22.70313,-32.20313 59.02539,9.47266 5.83789,28.41406 9.08203,0.94531 1.29492,39.78125 -59.02344,0.94922 -1.56835,0 c 0.0129,-0.21406 0.0233,-0.42827 0.0312,-0.64258 0,-15.18783 -12.31217,-27.5 -27.5,-27.5 -15.18783,0 -27.5,12.31217 -27.5,27.5 0.005,0.21428 0.0131,0.42849 0.0234,0.64258 l -3.81054,0 -50.59375,0 0.64843,-28.41602 -27.24218,-12.31445 1.29687,5.6836 -1.94531,43.57031 -7.7832,0 -1.29883,-35.99219 -20.10742,-11.36523 1.29687,14.20703 -16.86328,31.25586 -11.02734,0 14.26953,-32.20313 -11.02735,-29.36328 -35.02539,5.68359 -2.59375,53.98828 -9.08203,-0.94726 0,-32.20313 -14.26953,-17.04882 -16.216797,10.41797 6.486328,15.15624 -5.189453,13.25977 -14.269531,-31.25781 20.109375,-18.94141 -4.541016,-19.89062 -18.162109,-8.52344 -16.865235,14.20703 -6.484374,-3.78906 3.242187,-13.25977 -2.59375,-6.63086 5.835937,-10.41797 1.296876,-10.41992 z"
       id="polygon4255"
       inkscape:connector-curvature="0"
       sodipodi:nodetypes="cccccccccccccccccccccccccccccccccccccccccccccccccsccccccccccccccccccccccccccccccccccc"
       transform="translate(0,686.36219)" />
    <circle
       style="stroke:#000000;stroke-width:0.20384987;stroke-linecap:round;stroke-linejoin:round"
       cx="309.854"
       cy="1015.8765"
       r="24.883701"
       id="circle4257" />
  </g>
</svg>
