<?xml version="1.0" encoding="UTF-8" standalone="no"?>
<!-- Generator: Adobe Illustrator 13.0.0, SVG Export Plug-In  -->

<svg
   xmlns:dc="http://purl.org/dc/elements/1.1/"
   xmlns:cc="http://creativecommons.org/ns#"
   xmlns:rdf="http://www.w3.org/1999/02/22-rdf-syntax-ns#"
   xmlns:svg="http://www.w3.org/2000/svg"
   xmlns="http://www.w3.org/2000/svg"
   xmlns:xlink="http://www.w3.org/1999/xlink"
   xmlns:sodipodi="http://sodipodi.sourceforge.net/DTD/sodipodi-0.dtd"
   xmlns:inkscape="http://www.inkscape.org/namespaces/inkscape"
   version="1.1"
   x="0px"
   y="0px"
   width="576.53827"
   height="507.94376"
   viewBox="-0.781 -0.08 576.53826 507.94375"
   enable-background="new -0.781 -0.08 576 506"
   xml:space="preserve"
   id="svg2"
   inkscape:version="0.92.5 (2060ec1f9f, 2020-04-08)"
   sodipodi:docname="France_road_sign_XA4.svg"><metadata
     id="metadata18"><rdf:RDF><cc:Work
         rdf:about=""><dc:format>image/svg+xml</dc:format><dc:type
           rdf:resource="http://purl.org/dc/dcmitype/StillImage" /><dc:title></dc:title></cc:Work></rdf:RDF></metadata><sodipodi:namedview
     pagecolor="#ffffff"
     bordercolor="#666666"
     borderopacity="1"
     objecttolerance="10"
     gridtolerance="10"
     guidetolerance="10"
     inkscape:pageopacity="0"
     inkscape:pageshadow="2"
     inkscape:window-width="1920"
     inkscape:window-height="1057"
     id="namedview16"
     showgrid="false"
     fit-margin-top="0.3"
     fit-margin-left="0.3"
     fit-margin-right="0.3"
     fit-margin-bottom="0.3"
     inkscape:zoom="1.3736857"
     inkscape:cx="291.42415"
     inkscape:cy="217.91334"
     inkscape:window-x="-8"
     inkscape:window-y="-8"
     inkscape:window-maximized="1"
     inkscape:current-layer="svg2"
     showguides="true"
     inkscape:guide-bbox="true"
     inkscape:snap-page="true"
     inkscape:snap-text-baseline="true"
     inkscape:snap-center="true"
     inkscape:snap-object-midpoints="true" /><defs
     id="defs4"><pattern
       patternTransform="translate(-27.409485,37.156642)"
       id="pattern12479"
       xlink:href="#pattern12310-9"
       inkscape:collect="always" /><pattern
       patternUnits="userSpaceOnUse"
       width="7"
       height="7"
       patternTransform="translate(-27.409426,37.156635)"
       id="pattern12310-9"><path
         inkscape:connector-curvature="0"
         id="rect12307-0"
         d="M 0,0 V 3.5 A 3.5,3.5 0 0 1 3.5,0 Z M 3.5,0 A 3.5,3.5 0 0 1 7,3.5 V 0 Z M 7,3.5 A 3.5,3.5 0 0 1 3.5,7 H 7 Z M 3.5,7 A 3.5,3.5 0 0 1 0,3.5 V 7 Z"
         style="opacity:1;fill:#1a1a1a;fill-opacity:1;fill-rule:evenodd;stroke:none;stroke-width:1.50953102;stroke-linecap:round;stroke-miterlimit:4;stroke-dasharray:1.50953107, 1.50953107;stroke-dashoffset:0;stroke-opacity:1;paint-order:markers stroke fill" /></pattern></defs><rect
     style="display:inline;opacity:1;fill:#000000;fill-opacity:1;fill-rule:evenodd;stroke:none;stroke-width:1.5;stroke-linecap:round;stroke-miterlimit:4;stroke-dasharray:1.5, 1.5;stroke-dashoffset:0;stroke-opacity:1;paint-order:markers stroke fill"
     id="rect19"
     width="576.53827"
     height="507.94376"
     x="-0.78100002"
     y="-0.079999998" /><path
     style="fill:#f8190d;stroke:none"
     d="M 288.26562 13.638672 C 281.64663 13.638672 275.53166 17.170344 272.22266 22.902344 L 16.126953 466.47266 C 12.816953 472.20366 12.816953 479.26705 16.126953 484.99805 C 19.435953 490.73005 25.552875 494.26172 32.171875 494.26172 L 544.36133 494.26172 C 550.97933 494.26172 557.09625 490.73105 560.40625 484.99805 C 563.71625 479.26705 563.71625 472.20366 560.40625 466.47266 L 304.31055 22.902344 C 301.00055 17.170344 294.88462 13.638672 288.26562 13.638672 z M 288.26562 69.425781 L 512.09375 457.10547 L 64.439453 457.10547 L 288.26562 69.425781 z "
     transform="translate(-0.781,-0.08)"
     id="path8" /><g
     id="g4255"
     transform="translate(580.56445,111.04893)"
     style="fill:#ffffff"><path
       sodipodi:nodetypes="ccsssccsccc"
       inkscape:connector-curvature="0"
       id="path4251"
       d="m -381.50857,328.78348 46.58999,0 c 7.70191,-8.02921 14.53678,-15.84448 17.5048,-24.65402 4.02448,-11.94525 10.22837,-27.86902 -17.07764,-33.0728 -7.75922,-1.4787 -18.05652,-3.44089 -23.60395,-4.80015 -30.23113,-7.40739 -24.65773,-22.74177 24.99671,-44.12042 l -10.55555,-2.91187 c -22.84086,5.68299 -42.97537,15.79971 -47.26554,29.13535 -3.07654,9.56316 -3.89895,30.38668 48.72148,29.28412 10.59081,-0.2566 13.76411,5.46023 10.89022,10.715 -13.78682,25.26167 -39.77266,34.84985 -50.20052,40.42479 z"
       style="fill:#ffffff;fill-rule:evenodd;stroke:none;stroke-width:0.30000001;stroke-linecap:butt;stroke-linejoin:miter;stroke-miterlimit:4;stroke-dasharray:none;stroke-opacity:1" /><path
       sodipodi:nodetypes="ccccccccccccc"
       inkscape:connector-curvature="0"
       id="path4253"
       d="m -248.6543,255.98663 -44.77007,14.37738 c -8.10485,2.68237 -5.9882,5.112 3.82184,6.09673 l 103.55353,16.10631 c 10.02965,1.39835 16.57126,13.25211 7.82566,23.113 l -12.55746,13.46771 -20.20113,0 16.67299,-15.00272 c 8.90076,-9.44867 -1.64649,-11.31998 -11.48621,-12.93336 l -114.01808,-21.20209 c -5.57706,-7.37893 -1.34448,-17.17543 9.46359,-19.66429 l 55.6896,-9.09047 z"
       style="fill:#ffffff;fill-rule:evenodd;stroke:none;stroke-width:0.30000001;stroke-linecap:butt;stroke-linejoin:miter;stroke-miterlimit:4;stroke-dasharray:none;stroke-opacity:1" /><path
       sodipodi:nodetypes="cccsscssssccsssscssccccccccccccccc"
       style="opacity:1;fill:#ffffff;fill-opacity:1;fill-rule:evenodd;stroke:none;stroke-width:1;stroke-linecap:round;stroke-linejoin:round;stroke-miterlimit:4;stroke-dasharray:none;stroke-dashoffset:0;stroke-opacity:1"
       d="m -289.54679,129.08019 c -7.13922,-2.8416 -13.65378,-1.58761 -19.24913,6.34905 l -14.81984,21.10294 c -3.99203,-1.49365 -8.41698,0.49508 -9.94303,4.48301 l -8.42759,22.02321 c -1.48381,3.87752 0.33974,8.1703 4.09022,9.83297 l -8.6877,22.70294 c -0.63662,1.66365 0.18946,3.51384 1.85309,4.15045 l 9.99202,3.82363 c 1.66363,0.63663 3.51602,-0.18861 4.15265,-1.85225 l 8.68014,-22.68322 68.33908,26.1512 -8.68013,22.68322 c -0.63663,1.66364 0.19165,3.51468 1.85529,4.15129 l 9.992,3.82363 c 1.66364,0.63662 3.51385,-0.18944 4.15047,-1.85309 l 8.68769,-22.70294 c 3.90184,1.26437 8.12609,-0.7137 9.60961,-4.59048 l 8.42758,-22.02323 c 1.52606,-3.98792 -0.44304,-8.42346 -4.41241,-9.97636 l 3.05395,-25.60539 c 1.13239,-9.64447 -2.8786,-14.92627 -10.09104,-17.57658 l -29.28755,-11.20742 z m -0.82343,8.91795 50.24639,19.28304 c 11.50836,4.12065 11.83426,4.52207 10.09106,17.57658 l -1.20275,10.07994 c -0.32048,2.76834 -1.41713,4.65344 -3.49058,5.60727 l -78.09869,-29.88588 c -0.90701,-2.09436 -0.46506,-4.22999 1.14442,-6.50507 l 5.83367,-8.30782 c 6.48995,-9.52306 7.6941,-10.77539 15.47647,-7.84803 z"
       id="rect4200"
       inkscape:connector-curvature="0" /></g><rect
     style="display:inline;opacity:1;fill:url(#pattern12479);fill-opacity:1;fill-rule:evenodd;stroke:none;stroke-width:1.5;stroke-linecap:round;stroke-miterlimit:4;stroke-dasharray:1.5, 1.5;stroke-dashoffset:0;stroke-opacity:1;paint-order:markers stroke fill"
     id="rect12317-3"
     width="576.53827"
     height="507.94376"
     x="-0.78100002"
     y="-0.079999998" /></svg>