<?xml version="1.0" encoding="UTF-8" standalone="no"?>
<!-- Generator: Adobe Illustrator 16.0.3, SVG Export Plug-In . SVG Version: 6.00 Build 0)  -->

<svg
   version="1.1"
   id="France_road_signs_B14"
   x="0px"
   y="0px"
   width="581px"
   height="581px"
   viewBox="1.56 1.561 581 581"
   enable-background="new 1.56 1.561 581 581"
   xml:space="preserve"
   sodipodi:docname="France_road_sign_B14_(50).svg"
   inkscape:version="1.2.2 (732a01da63, 2022-12-09)"
   xmlns:inkscape="http://www.inkscape.org/namespaces/inkscape"
   xmlns:sodipodi="http://sodipodi.sourceforge.net/DTD/sodipodi-0.dtd"
   xmlns="http://www.w3.org/2000/svg"
   xmlns:svg="http://www.w3.org/2000/svg"><defs
   id="defs13" /><sodipodi:namedview
   id="namedview11"
   pagecolor="#ffffff"
   bordercolor="#666666"
   borderopacity="1.0"
   inkscape:pageshadow="2"
   inkscape:pageopacity="0.0"
   inkscape:pagecheckerboard="0"
   showgrid="false"
   inkscape:zoom="1.2375215"
   inkscape:cx="217.77399"
   inkscape:cy="486.86022"
   inkscape:window-width="1920"
   inkscape:window-height="991"
   inkscape:window-x="-9"
   inkscape:window-y="-9"
   inkscape:window-maximized="1"
   inkscape:current-layer="g8718"
   inkscape:showpageshadow="2"
   inkscape:deskcolor="#d1d1d1"
   showguides="true" />
<circle
   fill="#FFFFFF"
   stroke="#000000"
   stroke-width="0.9931"
   stroke-linecap="round"
   stroke-linejoin="round"
   cx="291.56"
   cy="291.561"
   r="285"
   id="circle2" />
<circle
   fill="#FF0000"
   stroke="#FF0000"
   stroke-width="0.1752"
   stroke-linecap="round"
   stroke-linejoin="round"
   cx="291.56"
   cy="291.561"
   r="272.101"
   id="circle4"
   style="fill:#ea190e;fill-opacity:1;stroke:#ea190e;stroke-opacity:1;stroke-width:0.175;stroke-dasharray:none" />
<circle
   fill="#ffffff"
   stroke="#ff0000"
   stroke-width="0.1752"
   stroke-linecap="round"
   stroke-linejoin="round"
   cx="291.56"
   cy="291.561"
   r="191.118"
   id="circle6"
   style="stroke:none" />

<g
   id="g8718"
   transform="matrix(0.88690129,0,0,0.88690129,575.9925,-155.77758)"
   style="fill:#000000"><path
     style="fill:#000000;stroke-width:1.33333"
     d="m -472.31429,477.83161 h 302.47395 c 13.83334,0 26.3802,9.59896 26.3802,26.60937 0,14.77604 -10.92186,26.5677 -26.3802,26.5677 h -302.47395 c -16.25521,0 -25.8177,-15.15625 -25.63021,-26.5677 0.0781,-11.41667 8.54167,-26.60937 25.63021,-26.60937 z"
     id="path8794" /><g
     aria-label="POLICE"
     id="text9416"
     style="font-weight:bold;font-size:83.6991px;line-height:1.25;font-family:'Caracteres L1';-inkscape-font-specification:'Caracteres L1 Bold';text-align:center;text-anchor:middle;fill:#000000;fill-rule:evenodd;stroke-width:0.292951;stroke-linecap:round;stroke-linejoin:round"><g
       aria-label="G"
       id="text9810"
       style="font-size:84.0913px;fill:#ff0000;stroke-width:0.294319"><path
         d="m -253.61445,568.88303 q 11.78428,1.23181 16.75256,15.64394 l -10.67565,2.7921 q -2.87422,-6.32328 -6.56964,-7.59614 -4.80404,-1.80665 -9.2796,5.0504 -2.7921,4.59875 -3.44906,13.42669 -0.12318,9.73127 3.03846,15.11016 3.20269,5.37888 7.51401,5.99479 7.26766,-0.12319 10.26506,-10.96308 h -9.73127 v -10.96307 h 21.43342 v 0.49272 q 0.0411,0.98544 0.0411,2.01195 0,14.33001 -6.85705,23.24007 -4.59874,6.32328 -13.46775,7.06236 h -0.90332 q -19.7089,0 -22.25463,-28.00306 -0.0411,-0.8212 -0.0411,-1.68347 0,-14.41213 6.52857,-24.1434 3.85966,-4.92722 8.33522,-6.36433 3.53118,-1.14969 7.39084,-1.14969 0.94438,0 1.92983,0.0411 z"
         id="path9862"
         style="fill:#000000" /></g><path
       d="m -442.51023,570.32875 q 5.2312,0.57217 9.23633,3.75992 4.046,3.18776 5.80335,7.1929 2.20691,4.29121 2.20691,9.19545 0,2.28865 -0.0409,2.98342 -0.32695,5.63988 -2.32951,9.3998 -2.00257,3.75992 -4.37295,5.76249 -5.14946,4.6999 -10.83021,4.78163 h -11.3615 v 16.79704 h -11.19802 v -59.87265 z m -11.52497,31.14195 h 9.23632 q 2.12518,-0.24521 3.51471,-1.06258 3.75992,-2.24778 4.49556,-7.80593 0.12261,-5.02685 -2.04343,-7.64244 -2.16605,-2.6156 -5.76249,-2.98342 h -9.44067 z"
       id="path9418"
       style="fill:#000000" /><path
       d="m -176.82643,570.39414 v 10.95281 h -24.76643 v 13.07799 h 18.1457 v 11.07541 h -18.1457 v 13.69102 h 25.82902 v 11.07541 h -37.354 l 0.0409,-59.87264 z"
       id="path9428"
       style="fill:#000000" /></g><path
     style="fill:#000000;stroke-width:1.33333"
     d="m -270.07617,441.01911 v -48.41666 h -13.15626 v -11.52604 h 37.83333 v 11.52604 h -13.26563 v 48.41666 z"
     id="path9352" /><path
     style="fill:#000000;stroke-width:1.33333"
     d="m -329.98242,441.01911 v -59.9427 h 11.52604 v 48.53125 h 22.41147 v 11.41145 z"
     id="path9348" /><path
     style="fill:#000000;stroke-width:1.33333"
     d="m -455.00844,441.01911 v -59.9427 h 11.30208 v 23.96355 h 17.72396 v -23.96355 h 11.30209 v 59.9427 h -11.30209 v -24.52604 h -17.72396 v 24.52604 z"
     id="path9344" /><path
     style="fill:#000000;stroke-width:1.33333"
     d="m -395.93553,441.01911 15.15625,-59.97915 h 15.07812 l 15.27084,59.97915 h -11.79166 l -2.60939,-10.43228 h -16.89061 l -2.42188,10.43228 z m 17.19792,-21.88542 h 11.10937 l -5.66666,-23.01561 z"
     id="path9340" /><path
     style="fill:#000000;stroke-width:1.33333"
     d="m -224.04493,441.01911 v -60.05727 h 36.55208 v 11.41666 h -25.25 v 12.66146 h 18.75 v 11.33854 h -18.75 v 13.11457 h 26.15625 v 11.52604 z"
     id="path9336" /><path
     style="fill:#000000;stroke-width:1.33333"
     d="M -354.09699,630.14408 Z"
     id="path9326" /><path
     style="fill:#000000;stroke-width:1.33333"
     d="M -299.44596,630.14408 Z"
     id="path9322" /><path
     style="fill:#000000;stroke-width:1.33333"
     d="M -201.40431,630.14408 Z"
     id="path9310" /><g
     id="g9700"
     transform="matrix(0.88690113,0,0,0.88690113,-451.36581,-2.6451314)"
     style="fill:#000000"><path
       style="fill:#000000;stroke-width:1.50336"
       d="M 64.078539,642.15005"
       id="path9754" /><path
       style="fill:#000000;stroke-width:1.50336"
       d="m 64.078539,642.15005 5.150186,-13.33647 H 84.36218 l -6.864966,13.33647 z"
       id="path9752" /><path
       style="fill:#000000;stroke-width:1.50336"
       d="M 53.889747,713.48337 Z"
       id="path9750" /><path
       style="fill:#000000;stroke-width:1.50336"
       d="m 53.889747,713.48337 v -67.79808 h 41.336565 v 12.87254 H 66.76228 V 672.875 h 20.835645 v 12.69636 H 66.76228 v 15.04535 h 29.526954 v 12.86666 z"
       id="path9748" /><path
       style="fill:#000000;stroke-width:1.50336"
       d="M 268.62968,713.48337 Z"
       id="path9746" /><path
       style="fill:#000000;stroke-width:1.50336"
       d="M 124.50662,713.48337 Z"
       id="path9742" /><path
       style="fill:#000000;stroke-width:1.50336"
       d="M 200.4029,656.84893 Z"
       id="path9740" /><path
       style="fill:#000000;stroke-width:1.50336"
       d="M -16.339565,713.48337 Z"
       id="path9736" /><path
       style="fill:#000000;stroke-width:1.50336"
       d="M 143.89177,688.81298 Z"
       id="path9734" /><path
       style="fill:#000000;stroke-width:1.50336"
       d="m 143.89177,688.81298 h 12.57305 l -6.38929,-25.99759 z m -19.38515,24.67039 17.1301,-67.66888 h 17.00092 l 17.17708,67.66888 h -13.30123 l -2.93625,-11.80373 h -19.05042 l -2.68372,11.80373 z"
       id="path9732" /><path
       style="fill:#000000;stroke-width:1.50336"
       d="M -3.5551133,680.46227 Z"
       id="path9730" /><path
       style="fill:#000000;stroke-width:1.50336"
       d="M 256.30916,500.24092 Z"
       id="path9726" /><path
       style="fill:#000000;stroke-width:1.50336"
       d="M 62.498837,500.24092 Z"
       id="path9722" /><path
       style="fill:#000000;stroke-width:1.50336"
       d="M -4.1071327,500.24092 Z"
       id="path9720" /><path
       style="fill:#000000;stroke-width:1.50336"
       d="M 136.86238,500.24092 Z"
       id="path9716" /><path
       style="fill:#000000;stroke-width:1.50336"
       d="M 204.40795,500.24092 Z"
       id="path9712" /><path
       style="fill:#000000;stroke-width:1.50336"
       d="M 81.889856,475.56465 Z"
       id="path9708" /><path
       style="fill:#000000;stroke-width:1.50336"
       d="M -23.580356,541.7478 Z"
       id="path9704" /></g></g></svg>
