<?xml version="1.0" encoding="utf-8"?>
<!-- Generator: Adobe Illustrator 13.0.0, SVG Export Plug-In  -->
<!DOCTYPE svg PUBLIC "-//W3C//DTD SVG 1.1//EN" "http://www.w3.org/Graphics/SVG/1.1/DTD/svg11.dtd" [
	<!ENTITY ns_flows "http://ns.adobe.com/Flows/1.0/">
]>
<svg version="1.1"
	 xmlns="http://www.w3.org/2000/svg" xmlns:xlink="http://www.w3.org/1999/xlink" xmlns:a="http://ns.adobe.com/AdobeSVGViewerExtensions/3.0/"
	 x="0px" y="0px" width="389px" height="228px" viewBox="-0.833 -0.834 389 228" enable-background="new -0.833 -0.834 389 228"
	 xml:space="preserve">
<defs>
</defs>
<path fill="#FFFFFF" stroke="#000000" d="M387.167,213.43c0,6.85-5.373,12.403-12,12.403H12.5c-6.627,0-12-5.554-12-12.403V12.903
	C0.5,6.054,5.873,0.5,12.5,0.5h362.667c6.627,0,12,5.554,12,12.403V213.43z"/>
<polygon points="43.111,203.564 34.611,184.168 42.063,179.001 48.953,157.284 99.764,133.62 126.2,144.218 158.289,134.67 
	165.627,140.437 165.89,146.577 157.09,152.381 "/>
<ellipse transform="matrix(0.6178 -0.7863 0.7863 0.6178 -71.2037 173.9106)" fill="#FFFFFF" cx="143.31" cy="160.207" rx="14.667" ry="13.134"/>
<ellipse transform="matrix(0.6178 -0.7863 0.7863 0.6178 -71.203 173.9137)" cx="143.31" cy="160.206" rx="11.969" ry="10.717"/>
<polygon fill="#FFFFFF" stroke="#000000" points="51.59,175.466 53.421,158.072 100.004,138.18 118.252,146.239 "/>
<polyline stroke="#000000" points="71.561,149.553 76.993,164.268 80.704,163.004 75.272,148.29 "/>
<ellipse transform="matrix(0.6178 -0.7863 0.7863 0.6178 -129.0871 124.2292)" fill="#FFFFFF" cx="63.259" cy="194.915" rx="14.666" ry="13.134"/>
<ellipse transform="matrix(0.6178 -0.7863 0.7863 0.6178 -129.0868 124.2288)" cx="63.26" cy="194.915" rx="12.207" ry="10.931"/>
<polygon points="285.31,23.998 306.303,15.059 311.958,18.866 323.778,37.691 330.36,40.32 341.354,61.04 338.778,66.011 
	308.522,79.118 "/>
<polygon fill="#FFFFFF" points="289.185,29.587 305.051,22.342 316.93,41.214 297.104,51.07 "/>
<polygon points="169.439,52.5 278.131,4.823 311.482,78.9 200.778,126.724 "/>
<ellipse transform="matrix(0.6178 -0.7863 0.7863 0.6178 -3.1308 227.1423)" fill="#FFFFFF" cx="232.109" cy="116.792" rx="19.067" ry="17.074"/>
<ellipse transform="matrix(0.6178 -0.7863 0.7863 0.6178 -3.1308 227.1413)" cx="232.109" cy="116.792" rx="15.559" ry="13.932"/>
<ellipse transform="matrix(0.6178 -0.7863 0.7863 0.6178 56.4885 278.0906)" fill="#FFFFFF" cx="314.335" cy="80.932" rx="19.067" ry="17.074"/>
<ellipse transform="matrix(0.6178 -0.7863 0.7863 0.6178 56.4903 278.0923)" cx="314.336" cy="80.931" rx="15.559" ry="13.931"/>
<path d="M345.723,88.058c0.948,2.163-1.156,5.173-4.697,6.724L53.834,220.491c-3.542,1.552-7.18,1.054-8.125-1.107l0,0
	c-0.948-2.164,1.156-5.173,4.697-6.725l287.192-125.71C341.14,85.398,344.778,85.896,345.723,88.058L345.723,88.058z"/>
<polygon points="202.827,200.188 202.365,200.77 202.583,201.479 201.887,201.22 201.279,201.646 201.311,200.904 200.718,200.458 
	201.433,200.259 201.674,199.557 202.084,200.176 "/>
<polygon points="172.699,108.476 154.456,91.278 136.213,74.081 133.431,77.621 130.649,81.161 151.674,94.818 "/>
<polygon points="177.109,103.479 166.142,80.934 155.174,58.389 151.318,60.714 147.462,63.039 162.286,83.259 "/>
<polygon points="169.944,112.598 145.444,107.274 120.945,101.951 122.292,97.655 123.639,93.358 146.792,102.978 "/>
</svg>
