<?xml version="1.0" encoding="utf-8"?>
<!-- Generator: Adobe Illustrator 15.0.0, SVG Export Plug-In  -->
<!DOCTYPE svg PUBLIC "-//W3C//DTD SVG 1.1//EN" "http://www.w3.org/Graphics/SVG/1.1/DTD/svg11.dtd" [
	<!ENTITY ns_flows "http://ns.adobe.com/Flows/1.0/">
]>
<svg version="1.1"
	 xmlns="http://www.w3.org/2000/svg" xmlns:xlink="http://www.w3.org/1999/xlink" xmlns:a="http://ns.adobe.com/AdobeSVGViewerExtensions/3.0/"
	 x="0px" y="0px" width="354px" height="253px" viewBox="-0.053 -0.47 354 253" enable-background="new -0.053 -0.47 354 253"
	 xml:space="preserve">
<defs>
</defs>
<path fill="#FFFFFF" stroke="#000000" stroke-width="3" stroke-miterlimit="10" d="M352.305,36.542
	c0-19.035-20.762-34.496-46.544-34.834V1.5h-258v0.212C22.109,2.16,1.5,17.576,1.5,36.542c0,0.268,0.019,0.532,0.027,0.799H1.5
	v178.126h0.003c0.067,19.205,21.261,34.758,47.399,34.758c1.489,0,2.961-0.057,4.416-0.156h247.168
	c1.455,0.099,2.927,0.156,4.416,0.156c26.139,0,47.332-15.554,47.399-34.758h0.003V37.34h-0.027
	C352.286,37.074,352.305,36.81,352.305,36.542z"/>
<path stroke="#000000" stroke-width="0.7087" stroke-linecap="round" stroke-linejoin="round" d="M196.272,15.963
	c44.045,0,79.75,50.397,79.75,112.566s-35.705,112.567-79.75,112.567l-31.529-1.145c-41.655-3.711-74.621-52.302-74.621-111.697
	c0-60.257,33.929-109.392,76.437-111.83L196.272,15.963z"/>
<path fill="#FFFFFF" stroke="#000000" stroke-width="0.7087" stroke-linecap="round" stroke-linejoin="round" d="M211.434,57.243
	c0.256,0.068,0.513,0.142,0.769,0.219"/>
<path stroke="#000000" stroke-width="0.7087" stroke-linecap="round" stroke-linejoin="round" d="M212.647,57.452
	c18.315,5.659,32.82,35.384,33.664,71.535c0.945,40.541-15.647,73.81-37.061,74.31c-21.413,0.5-39.54-31.959-40.485-72.5
	c-0.946-40.541,15.646-73.81,37.061-74.31c2.055-0.048,4.081,0.208,6.063,0.746"/>
<path fill="#FFFFFF" stroke="#000000" stroke-width="0.7087" stroke-linecap="round" stroke-linejoin="round" d="M217.984,201.6
	c15.943-10.768,26.873-38.737,26.114-71.277c-0.924-39.545-18.777-71.543-40.53-73.905l3.979,0.335
	c21.751,2.292,39.585,33.488,40.486,72.054c0.74,31.733-10.206,59.017-26.153,69.527L217.984,201.6z"/>
<path stroke="#000000" stroke-width="3" stroke-linecap="round" stroke-linejoin="round" stroke-dasharray="12" d="M191.09,237.429
	c-33.356-0.748-60.268-49.215-60.268-108.896c0-60.146,27.333-108.904,61.05-108.904"/>
<path fill="#FFFFFF" stroke="#000000" d="M196.265,61.114c-16.905,12.302-28.593,38.685-28.593,69.25
	c0,28.572,10.215,53.489,25.356,66.666c13.754-15.824,22.678-41.269,22.678-69.967C215.706,100.683,208.166,77.052,196.265,61.114z"
	/>
<path opacity="0.28" fill="#FFFFFF" stroke="#000000" stroke-width="0.7087" stroke-linecap="round" stroke-linejoin="round" d="
	M196.265,61.114c-16.905,12.302-28.593,38.685-28.593,69.25c0,28.572,10.215,53.489,25.356,66.666
	c13.754-15.824,22.678-41.269,22.678-69.967C215.706,100.683,208.166,77.052,196.265,61.114z"/>
<path fill="#FFFFFF" stroke="#000000" stroke-miterlimit="10" d="M196.265,58.548c-17.555,12.534-29.692,39.414-29.692,70.557
	c0,29.112,10.606,54.499,26.331,67.925"/>
<path fill="#FFFFFF" stroke="#000000" stroke-miterlimit="10" d="M192.294,197.396c15.756-16.123,25.979-42.049,25.979-71.289
	c0-26.878-8.637-50.956-22.27-67.193"/>
<path opacity="0.99" fill="#FFFFFF" stroke="#000000" d="M125.872,41.629h3.911l0.489-0.734l-1.101-2.933l-11-1.1l-6.966,3.667
	l-2.2,9.166l11.732,0.734l5.134-2.934l0.428-0.642h-0.428V41.629z M122.332,45.31l-2.218,1.267l-5.068-0.317l0.95-3.96l3.01-1.583
	l4.752,0.475l0.476,1.267L122.332,45.31z"/>
<path fill="#FFFFFF" stroke="#000000" d="M151.723,38.513l-11-1.1l-6.967,3.666l-0.132,0.55h-3.841h-3.911v5.225h0.428h6.069
	l-0.813,3.392l11.732,0.733l5.134-2.934l4.4-6.6L151.723,38.513z M144.882,45.859l-2.218,1.267l-5.067-0.317l0.949-3.96l3.01-1.584
	l4.753,0.475l0.475,1.267L144.882,45.859z"/>
<path opacity="0.99" fill="#FFFFFF" stroke="#000000" d="M106.533,89.006l3.66-0.193l0.414-0.856l-1.205-3.274L99.04,83.978
	l-6.3,4.505l-1.511,10.511l11.025,0.253l4.63-3.582l0.361-0.75l-0.4,0.021L106.533,89.006z M103.44,93.357l-2,1.548l-4.764-0.11
	l0.653-4.541l2.723-1.946l4.475,0.304l0.521,1.415L103.44,93.357z"/>
<path fill="#FFFFFF" stroke="#000000" d="M130.541,84.194l-10.362-0.705l-6.3,4.505l-0.091,0.63l-3.595,0.189l-3.66,0.193
	l0.313,5.93l0.4-0.021l5.681-0.299l-0.559,3.889l11.024,0.253l4.63-3.582l3.724-7.707L130.541,84.194z M124.578,92.868l-1.999,1.548
	l-4.764-0.11l0.652-4.541l2.722-1.946l4.477,0.304l0.52,1.415L124.578,92.868z"/>
<path opacity="0.99" fill="#FFFFFF" stroke="#000000" d="M125.481,209.408h0.429l-0.429-0.641l-5.133-2.934l-11.733,0.734
	l2.199,9.167l6.967,3.666l11-1.1l1.1-2.933l-0.488-0.733h-3.911V209.408z M123.842,213.804l-0.475,1.267l-4.752,0.476l-3.01-1.584
	l-0.95-3.96l5.068-0.317l2.218,1.267L123.842,213.804z"/>
<path opacity="0.99" fill="#FFFFFF" stroke="#000000" d="M106.096,159.188l0.399,0.029l-0.346-0.756l-4.554-3.677l-11.028,0.024
	l1.292,10.54l6.206,4.634l10.374-0.491l1.272-3.248l-0.396-0.866l-3.656-0.269L106.096,159.188z M104.196,164.057l-0.549,1.404
	l-4.481,0.211l-2.682-2.001l-0.557-4.553l4.763-0.011l1.968,1.588L104.196,164.057z"/>
<path fill="#FFFFFF" stroke="#000000" d="M130.835,167.17l-3.562-7.782l-4.554-3.678l-11.029,0.025l0.479,3.899l-5.675-0.417
	l-0.399-0.029l-0.436,5.922l3.656,0.269l3.59,0.265l0.077,0.632l6.205,4.634l10.375-0.49L130.835,167.17z M125.32,164.984
	l-0.549,1.403l-4.482,0.212l-2.681-2.002l-0.558-4.553l4.763-0.011l1.969,1.589L125.32,164.984z"/>
<polygon fill="#FFFFFF" stroke="#000000" stroke-width="0.7087" stroke-linecap="round" stroke-linejoin="round" points="
	176.473,54.829 201.772,39.429 202.14,44.195 179.772,58.129 "/>
<polygon fill="#FFFFFF" stroke="#000000" stroke-width="0.7087" stroke-linecap="round" stroke-linejoin="round" points="
	168.892,64.579 155.572,94.795 159.973,95.896 173.906,67.295 "/>
<polyline fill="#FFFFFF" stroke="#000000" stroke-width="0.7087" stroke-linecap="round" stroke-linejoin="round" points="
	154.539,104.163 153.372,151.262 157.04,150.529 157.772,106.896 "/>
<polygon fill="#FFFFFF" stroke="#000000" stroke-width="0.7087" stroke-linecap="round" stroke-linejoin="round" points="
	155.572,162.996 166.875,193.478 171.34,191.962 159.239,161.529 "/>
<polyline fill="#FFFFFF" stroke="#000000" points="175.372,202.229 199.939,218.362 201.04,213.229 178.672,199.296 "/>
<polygon fill="#FFFFFF" stroke="#000000" stroke-width="0.7087" stroke-linecap="round" stroke-linejoin="round" points="
	256.536,106.733 255.672,150.163 259.706,152.729 259.706,107.263 "/>
<polygon fill="#FFFFFF" stroke="#000000" stroke-width="0.7087" stroke-linecap="round" stroke-linejoin="round" points="
	240.432,62.177 254.939,98.463 259.34,97.363 243.572,61.429 "/>
<polyline fill="#FFFFFF" stroke="#000000" points="234.04,57.396 211.306,43.463 211.306,39.063 235.14,54.829 "/>
<path fill="#FFFFFF" stroke="#000000" d="M151.172,213.872l-4.399-6.6l-5.134-2.934l-11.732,0.734l0.813,3.391h-6.069h-0.427v5.225
	h3.911h3.84l0.132,0.55l6.967,3.667l11-1.1L151.172,213.872z M145.133,212.309l-0.475,1.267l-4.752,0.476l-3.011-1.584l-0.949-3.96
	l5.068-0.317l2.217,1.267L145.133,212.309z"/>
<path fill="#FFFFFF" stroke="#000000" stroke-width="0.7087" stroke-linecap="round" stroke-linejoin="round" d="M148.422,234.404
	c7.544,9.16,19.305,7.655,30.429,8.23c5.375,0.278,29.228,2.991,31.722-3.005c-9.338,1.778-19.852,1.223-29.278,0.498
	C170.33,239.284,157.975,240.136,148.422,234.404"/>
<path fill="#FFFFFF" stroke="#000000" stroke-width="0.7087" stroke-linecap="round" stroke-linejoin="round" d="M145.306,155.295
	c-3.524-2.843-9.043,0.757-12.1,2.2c-2.583,3.262-3.069,9.881,1.1,12.65c3.92,2.604,9.436-1.592,12.501-3.368
	C149.415,165.268,146.904,156.585,145.306,155.295z M143.915,165.109c-1.839,1.065-5.149,3.583-7.5,2.021
	c-2.501-1.662-2.21-5.633-0.661-7.591c1.835-0.866,5.146-3.026,7.261-1.319C143.974,158.994,145.479,164.203,143.915,165.109z"/>
<path fill="#FFFFFF" stroke="#000000" stroke-width="0.7087" stroke-linecap="round" stroke-linejoin="round" d="M161.231,150.901
	c-2.854-2.805-7.979-0.058-10.774,0.976c-2.528,2.685-3.493,8.515-0.07,11.307c3.22,2.624,8.392-0.652,11.222-1.979
	C164.016,160.076,162.525,152.174,161.231,150.901z M159.212,159.493c-1.697,0.795-4.8,2.761-6.732,1.187
	c-2.054-1.675-1.475-5.174,0.042-6.785c1.677-0.619,4.753-2.268,6.465-0.584C159.764,154.073,160.656,158.814,159.212,159.493z"/>
<polygon fill="#FFFFFF" stroke="#000000" points="145.672,158.962 149.522,156.946 150.806,161.163 146.59,162.446 "/>
<path fill="#FFFFFF" stroke="#000000" stroke-width="0.7087" stroke-linecap="round" stroke-linejoin="round" d="M162.681,198.02
	c-4.098-1.928-8.605,2.878-11.234,5.004c-1.736,3.781-0.64,10.327,4.065,12.029c4.425,1.601,8.788-3.782,11.348-6.234
	C169.034,206.735,164.539,198.895,162.681,198.02z M163.653,207.883c-1.534,1.471-4.151,4.7-6.807,3.741
	c-2.823-1.022-3.482-4.949-2.441-7.218c1.577-1.276,4.283-4.159,6.742-3.002C162.263,201.928,164.96,206.632,163.653,207.883z"/>
<path fill="#FFFFFF" stroke="#000000" stroke-width="0.7087" stroke-linecap="round" stroke-linejoin="round" d="M177.111,189.977
	c-3.437-2.049-7.766,1.835-10.236,3.501c-1.819,3.207-1.377,9.1,2.61,11.001c3.75,1.787,7.999-2.622,10.433-4.581
	C181.989,198.231,178.67,190.908,177.111,189.977z M177.186,198.802c-1.461,1.175-4.01,3.82-6.261,2.748
	c-2.391-1.14-2.657-4.677-1.566-6.602c1.482-0.999,4.08-3.33,6.143-2.1C176.437,193.407,178.428,197.802,177.186,198.802z"/>
<polygon fill="#FFFFFF" stroke="#000000" points="163.905,201.496 167.167,198.624 169.413,202.417 165.621,204.663 "/>
<path fill="#FFFFFF" stroke="#000000" stroke-width="0.7087" stroke-linecap="round" stroke-linejoin="round" d="M200.222,226.053
	c-3.851,2.381-2.284,8.781-1.938,12.144c2.222,3.519,8.304,6.173,12.3,3.159c3.756-2.833,1.626-9.429,0.969-12.911
	C210.993,225.485,201.97,224.973,200.222,226.053z M209.019,230.62c0.396,2.089,1.672,6.046-0.582,7.746
	c-2.396,1.809-6.046,0.216-7.38-1.895c-0.208-2.018-1.147-5.859,1.165-7.287C203.27,228.536,208.683,228.843,209.019,230.62z"/>
<path fill="#FFFFFF" stroke="#000000" stroke-width="0.7087" stroke-linecap="round" stroke-linejoin="round" d="M201.359,209.571
	c-3.592,1.761-2.701,7.509-2.653,10.488c1.694,3.275,6.873,6.121,10.644,3.817c3.543-2.167,2.168-8.133,1.855-11.243
	C210.938,209.988,202.99,208.772,201.359,209.571z M208.796,214.326c0.187,1.865,1.012,5.444-1.115,6.745
	c-2.262,1.382-5.369-0.325-6.387-2.29c-0.028-1.788-0.563-5.237,1.594-6.293C203.865,212.008,208.635,212.738,208.796,214.326z"/>
<polygon fill="#FFFFFF" stroke="#000000" points="203.803,226.923 203.179,222.623 207.582,222.81 207.394,227.214 "/>
<path fill="#FFFFFF" stroke="#000000" d="M241.048,200.674c0.694-1.869-1.594-3.714-2.634-4.794
	c-0.886-0.919-4.245,0.979-4.624,1.764c-0.834,1.73,1.207,3.636,2.108,4.746C237.51,203.123,240.309,202.661,241.048,200.674z"/>
<path fill="#FFFFFF" stroke="#000000" d="M246.61,206.02c-1.091-0.953-4.648,1.53-4.986,2.456c-0.748,2.041,1.741,3.993,2.87,5.16
	c1.882,0.668,4.964-0.134,5.577-2.456C250.649,208.996,247.89,207.138,246.61,206.02z"/>
<path fill="#FFFFFF" stroke="#000000" d="M247.128,203.398c-0.772-0.675-2.291-0.312-3.824,0.447l-0.631-0.877
	c0.337-0.394,0.619-0.84,0.812-1.355c1.158-3.115-2.655-6.188-4.39-7.99c-1.476-1.532-7.077,1.632-7.706,2.941
	c-1.391,2.884,2.011,6.058,3.513,7.909c1.375,0.626,3.268,0.725,4.954,0.233l0.831,0.791c-0.962,0.75-1.688,1.505-1.869,1.997
	c-1.245,3.401,2.904,6.653,4.785,8.598c3.136,1.116,8.273-0.222,9.297-4.092C253.861,208.36,249.264,205.264,247.128,203.398z
	 M235.898,202.39c-0.901-1.11-2.942-3.016-2.108-4.746c0.379-0.785,3.738-2.683,4.624-1.764c1.04,1.08,3.328,2.925,2.634,4.794
	C240.309,202.661,237.51,203.123,235.898,202.39z M250.071,211.179c-0.613,2.322-3.695,3.125-5.577,2.456
	c-1.129-1.167-3.618-3.119-2.87-5.16c0.338-0.926,3.896-3.408,4.986-2.456C247.89,207.138,250.649,208.996,250.071,211.179z"/>
<path fill="#FFFFFF" stroke="#000000" stroke-width="0.7087" stroke-linecap="round" stroke-linejoin="round" d="M258.925,162.076
	c0.011,3.622,5.029,5.234,7.468,6.406c3.328-0.041,7.684-3.078,7.302-7.063c-0.359-3.747-5.746-5.057-8.395-6.066
	C263.046,154.495,258.92,160.433,258.925,162.076z M265.721,157.992c1.589,0.605,4.821,1.391,5.037,3.639
	c0.229,2.391-2.384,4.212-4.382,4.237c-1.462-0.703-4.474-1.67-4.479-3.844C261.892,161.038,264.369,157.476,265.721,157.992z"/>
<path fill="#FFFFFF" stroke="#000000" stroke-width="0.7087" stroke-linecap="round" stroke-linejoin="round" d="M248.166,154.402
	c-0.306,3.187,3.986,4.984,6.037,6.199c2.943,0.216,7.051-2.125,7.058-5.658c0.006-3.324-4.636-4.883-6.888-5.972
	C252.458,148.046,248.303,152.956,248.166,154.402z M254.519,151.324c1.35,0.652,4.136,1.589,4.133,3.583
	c-0.006,2.121-2.47,3.524-4.236,3.396c-1.23-0.729-3.805-1.809-3.623-3.721C250.875,153.714,253.369,150.768,254.519,151.324z"/>
<polygon fill="#FFFFFF" stroke="#000000" points="261.017,160 257.823,158.625 259.795,155.702 262.718,157.674 "/>
<path fill="#FFFFFF" stroke="#000000" stroke-width="0.7087" stroke-linecap="round" stroke-linejoin="round" d="M144.572,22.387
	c7.543-9.16,19.305-7.655,30.429-8.23c5.375-0.278,29.227-2.991,31.722,3.005c-9.339-1.778-19.852-1.223-29.278-0.498
	C166.479,17.507,154.124,16.655,144.572,22.387"/>
<path fill="#FFFFFF" stroke="#000000" stroke-width="0.7087" stroke-linecap="round" stroke-linejoin="round" d="M148.823,91.28
	c-3.066-1.776-8.581-5.972-12.501-3.368c-4.168,2.768-3.683,9.387-1.1,12.65c3.057,1.442,8.576,5.043,12.1,2.2
	C148.921,101.472,151.431,92.789,148.823,91.28z M145.031,99.838c-2.114,1.706-5.426-0.455-7.26-1.32
	c-1.55-1.957-1.842-5.929,0.659-7.59c2.353-1.562,5.661,0.956,7.5,2.021C147.496,93.854,145.99,99.063,145.031,99.838z"/>
<path fill="#FFFFFF" stroke="#000000" stroke-width="0.7087" stroke-linecap="round" stroke-linejoin="round" d="M163.625,96.853
	c-2.83-1.327-8.001-4.603-11.222-1.979c-3.424,2.792-2.458,8.622,0.069,11.306c2.796,1.033,7.923,3.781,10.776,0.975
	C164.543,105.882,166.032,97.981,163.625,96.853z M161.004,104.747c-1.713,1.685-4.789,0.036-6.465-0.584
	c-1.517-1.611-2.097-5.11-0.043-6.785c1.933-1.575,5.036,0.391,6.733,1.187C162.673,99.243,161.78,103.984,161.004,104.747z"/>
<polygon fill="#FFFFFF" stroke="#000000" points="147.689,99.095 151.54,101.111 152.822,96.895 148.605,95.611 "/>
<path fill="#FFFFFF" stroke="#000000" stroke-width="0.7087" stroke-linecap="round" stroke-linejoin="round" d="M168.875,49.238
	c-2.558-2.451-6.922-7.835-11.347-6.233c-4.705,1.701-5.802,8.248-4.065,12.029c2.628,2.126,7.137,6.932,11.233,5.004
	C166.556,59.163,171.052,51.322,168.875,49.238z M163.164,56.653c-2.458,1.157-5.164-1.727-6.741-3.001
	c-1.041-2.27-0.384-6.197,2.439-7.219c2.655-0.959,5.273,2.27,6.809,3.74C166.978,51.425,164.278,56.129,163.164,56.653z"/>
<path fill="#FFFFFF" stroke="#000000" stroke-width="0.7087" stroke-linecap="round" stroke-linejoin="round" d="M181.936,58.159
	c-2.434-1.959-6.684-6.368-10.433-4.582c-3.987,1.901-4.432,7.794-2.611,11.001c2.471,1.667,6.801,5.551,10.236,3.501
	C180.688,67.149,184.007,59.827,181.936,58.159z M177.519,65.208c-2.063,1.23-4.66-1.101-6.143-2.1
	c-1.091-1.925-0.826-5.461,1.566-6.601c2.249-1.072,4.8,1.572,6.261,2.748C180.444,60.255,178.453,64.651,177.519,65.208z"/>
<polygon fill="#FFFFFF" stroke="#000000" stroke-miterlimit="10" points="165.922,56.562 169.185,59.433 171.43,55.64 
	167.638,53.394 "/>
<path fill="#FFFFFF" stroke="#000000" stroke-width="0.7087" stroke-linecap="round" stroke-linejoin="round" d="M213.569,29.612
	c0.657-3.481,2.786-10.077-0.97-12.911c-3.995-3.013-10.077-0.358-12.299,3.16c-0.348,3.363-1.913,9.763,1.938,12.144
	C203.986,33.085,213.011,32.572,213.569,29.612z M204.238,28.873c-2.312-1.428-1.372-5.269-1.164-7.287
	c1.333-2.111,4.982-3.704,7.38-1.895c2.254,1.701,0.977,5.657,0.582,7.746C210.699,29.214,205.286,29.521,204.238,28.873z"/>
<path fill="#FFFFFF" stroke="#000000" stroke-width="0.7087" stroke-linecap="round" stroke-linejoin="round" d="M213.222,45.424
	c0.313-3.11,1.688-9.076-1.855-11.243c-3.77-2.304-8.949,0.542-10.644,3.817c-0.048,2.979-0.938,8.727,2.654,10.487
	C205.007,49.285,212.955,48.069,213.222,45.424z M204.904,45.569c-2.156-1.056-1.622-4.505-1.594-6.292
	c1.018-1.965,4.125-3.673,6.388-2.291c2.127,1.301,1.302,4.88,1.113,6.745C210.651,45.319,205.882,46.05,204.904,45.569z"/>
<polygon fill="#FFFFFF" stroke="#000000" points="205.82,31.134 205.194,35.434 209.599,35.247 209.41,30.843 "/>
<path fill="#FFFFFF" stroke="#000000" stroke-width="0.7087" stroke-linecap="round" stroke-linejoin="round" d="M249.146,54.658
	c2.134-1.865,6.733-4.96,5.771-8.6c-1.022-3.87-6.162-5.208-9.298-4.093c-1.881,1.944-6.029,5.197-4.783,8.598
	C241.4,52.107,247.33,56.245,249.146,54.658z M243.64,49.582c-0.747-2.041,1.741-3.993,2.87-5.159
	c1.883-0.668,4.965,0.134,5.579,2.457c0.578,2.183-2.183,4.04-3.463,5.158C247.536,52.99,243.979,50.508,243.64,49.582z"/>
<path fill="#FFFFFF" stroke="#000000" stroke-width="0.7087" stroke-linecap="round" stroke-linejoin="round" d="M241.111,64.434
	c1.733-1.802,5.547-4.875,4.389-7.99c-1.231-3.312-5.896-4.082-8.581-2.86c-1.503,1.851-4.904,5.025-3.515,7.909
	C234.035,62.802,239.637,65.966,241.111,64.434z M235.807,60.414c-0.835-1.73,1.206-3.636,2.108-4.747
	c1.611-0.732,4.41-0.271,5.15,1.717c0.693,1.869-1.595,3.713-2.634,4.793C239.546,63.096,236.185,61.198,235.807,60.414z"/>
<polygon fill="#FFFFFF" stroke="#000000" points="243.518,51.786 240.998,54.183 243.862,56.241 245.921,53.377 "/>
<path fill="#FFFFFF" stroke="#000000" stroke-width="0.7087" stroke-linecap="round" stroke-linejoin="round" d="M267.315,102.704
	c2.649-1.01,8.036-2.319,8.396-6.066c0.382-3.984-3.974-7.021-7.302-7.063c-2.438,1.172-7.457,2.785-7.468,6.407
	C260.936,97.624,265.063,103.562,267.315,102.704z M263.912,96.033c0.007-2.174,3.018-3.141,4.481-3.844
	c1.998,0.025,4.61,1.847,4.38,4.237c-0.215,2.248-3.448,3.035-5.035,3.639C266.386,100.581,263.909,97.019,263.912,96.033z"/>
<path fill="#FFFFFF" stroke="#000000" stroke-width="0.7087" stroke-linecap="round" stroke-linejoin="round" d="M256.39,109.086
	c2.252-1.089,6.895-2.648,6.888-5.972c-0.007-3.533-4.114-5.874-7.058-5.658c-2.052,1.215-6.342,3.012-6.038,6.199
	C250.319,105.102,254.476,110.011,256.39,109.086z M252.809,103.476c-0.182-1.912,2.394-2.992,3.624-3.721
	c1.765-0.129,4.23,1.275,4.234,3.396c0.004,1.994-2.782,2.93-4.131,3.583C255.387,107.289,252.893,104.343,252.809,103.476z"/>
<polygon fill="#FFFFFF" stroke="#000000" points="263.033,98.057 259.84,99.432 261.812,102.355 264.734,100.384 "/>
<polygon fill="#FFFFFF" stroke="#000000" points="210.206,218.729 236.605,204.063 232.939,201.496 210.572,215.063 "/>
<polyline fill="#FFFFFF" stroke="#000000" points="241.189,197.646 259.155,158.78 254.387,159.729 239.277,194.387 
	241.189,197.646 "/>
<polygon fill="#FFFFFF" stroke="#000000" points="150.072,43.279 156.122,46.579 154.197,48.504 148.422,46.304 "/>
<polygon fill="#FFFFFF" stroke="#000000" points="129.172,90.304 135.497,91.404 134.397,94.154 128.348,93.604 "/>
<polygon fill="#FFFFFF" stroke="#000000" points="133.297,162.904 133.848,166.754 128.072,166.754 127.797,163.729 "/>
<polygon fill="#FFFFFF" stroke="#000000" points="146.497,209.654 151.723,207.454 153.647,211.579 148.973,212.679 "/>
</svg>
