<?xml version="1.0" encoding="UTF-8" standalone="no"?>
<!-- Generator: Adobe Illustrator 13.0.0, SVG Export Plug-In  -->

<svg
   xmlns:dc="http://purl.org/dc/elements/1.1/"
   xmlns:cc="http://creativecommons.org/ns#"
   xmlns:rdf="http://www.w3.org/1999/02/22-rdf-syntax-ns#"
   xmlns:svg="http://www.w3.org/2000/svg"
   xmlns="http://www.w3.org/2000/svg"
   xmlns:xlink="http://www.w3.org/1999/xlink"
   xmlns:sodipodi="http://sodipodi.sourceforge.net/DTD/sodipodi-0.dtd"
   xmlns:inkscape="http://www.inkscape.org/namespaces/inkscape"
   version="1.1"
   x="0px"
   y="0px"
   width="576.53827"
   height="507.94376"
   viewBox="-0.781 -0.08 576.53826 507.94375"
   enable-background="new -0.781 -0.08 576 506"
   xml:space="preserve"
   id="svg2"
   inkscape:version="0.92.5 (2060ec1f9f, 2020-04-08)"
   sodipodi:docname="France_road_sign_XA20.svg"><metadata
   id="metadata18"><rdf:RDF><cc:Work
       rdf:about=""><dc:format>image/svg+xml</dc:format><dc:type
         rdf:resource="http://purl.org/dc/dcmitype/StillImage" /><dc:title></dc:title></cc:Work></rdf:RDF></metadata><sodipodi:namedview
   pagecolor="#ffffff"
   bordercolor="#666666"
   borderopacity="1"
   objecttolerance="10"
   gridtolerance="10"
   guidetolerance="10"
   inkscape:pageopacity="0"
   inkscape:pageshadow="2"
   inkscape:window-width="1920"
   inkscape:window-height="1057"
   id="namedview16"
   showgrid="false"
   fit-margin-top="0.3"
   fit-margin-left="0.3"
   fit-margin-right="0.3"
   fit-margin-bottom="0.3"
   inkscape:zoom="0.64569469"
   inkscape:cx="263.47888"
   inkscape:cy="233.77155"
   inkscape:window-x="-8"
   inkscape:window-y="-8"
   inkscape:window-maximized="1"
   inkscape:current-layer="svg2"
   showguides="true"
   inkscape:guide-bbox="true"
   inkscape:snap-text-baseline="true"
   inkscape:snap-object-midpoints="true"
   inkscape:snap-center="true"
   inkscape:snap-page="true" />
<defs
   id="defs4">
<pattern
   patternTransform="translate(-27.409397,37.156636)"
   id="pattern12479"
   xlink:href="#pattern12310-9"
   inkscape:collect="always" /><pattern
   patternUnits="userSpaceOnUse"
   width="7"
   height="7"
   patternTransform="translate(-27.409426,37.156635)"
   id="pattern12310-9"><path
     inkscape:connector-curvature="0"
     id="rect12307-0"
     d="M 0,0 V 3.5 A 3.5,3.5 0 0 1 3.5,0 Z M 3.5,0 A 3.5,3.5 0 0 1 7,3.5 V 0 Z M 7,3.5 A 3.5,3.5 0 0 1 3.5,7 H 7 Z M 3.5,7 A 3.5,3.5 0 0 1 0,3.5 V 7 Z"
     style="opacity:1;fill:#1a1a1a;fill-opacity:1;fill-rule:evenodd;stroke:none;stroke-width:1.50953102;stroke-linecap:round;stroke-miterlimit:4;stroke-dasharray:1.50953107, 1.50953107;stroke-dashoffset:0;stroke-opacity:1;paint-order:markers stroke fill" /></pattern></defs>





<rect
   style="display:inline;opacity:1;fill:#000000;fill-opacity:1;fill-rule:evenodd;stroke:none;stroke-width:1.5;stroke-linecap:round;stroke-miterlimit:4;stroke-dasharray:1.5, 1.5;stroke-dashoffset:0;stroke-opacity:1;paint-order:markers stroke fill"
   id="rect19"
   width="576.53827"
   height="507.94376"
   x="-0.78100002"
   y="-0.079999998" /><path
   style="fill:#f91a0e;stroke:none"
   d="M 288.26562 13.640625 C 281.64663 13.640625 275.53166 17.170344 272.22266 22.902344 L 16.126953 466.47266 C 12.816953 472.20366 12.816953 479.26705 16.126953 484.99805 C 19.435953 490.73105 25.550922 494.26172 32.169922 494.26172 L 544.36133 494.26172 C 550.97933 494.26172 557.0943 490.73105 560.4043 484.99805 C 563.7143 479.26705 563.7143 472.20366 560.4043 466.47266 L 304.30859 22.902344 C 300.99859 17.170344 294.88463 13.640625 288.26562 13.640625 z M 288.26562 69.425781 L 512.0918 457.10547 L 64.4375 457.10547 L 288.26562 69.425781 z "
   transform="translate(-0.781,-0.08)"
   id="path8" /><path
   inkscape:connector-curvature="0"
   d="m 249.54825,302.93676 c 2.813,-8.701 -1.54,-18.102 -9.994,-21.587 -8.454,-3.484 -18.167,0.119 -22.302,8.274 l -12.563,-2.821 13.9,-25.051 10.364,2.89 32.561,-14.926 66.048,23.64 16.49199,34.812 42.521,22.229 -6,19.453 -11.831,-2.843 c 3.562,-9.324 -0.824,-19.801 -9.967,-23.807 -9.142,-4.005 -19.817,-0.127 -24.257,8.812 l -84.97199,-29.075 z"
   id="path12"
   style="fill:#ffffff;stroke:none" /><polyline
   transform="translate(0.42724901,1.1377561)"
   points="229.402,417.903   247.429,416.4 269.586,412.457 287.42,407.725 305.196,407.228 316.856,411.485 329.573,421.132 343.092,426.384 359.125,426.384   373.701,419.998 385.361,413.613 397.022,411.485 409.556,414.034 429.088,424.256 442.522,428.229 465.527,426.384 "
   id="polyline14"
   style="fill:none;stroke:#fffffa;stroke-width:5;stroke-linecap:round;stroke-linejoin:round;stroke-opacity:1" /><polyline
   transform="translate(0.42724901,1.1377561)"
   points="229.402,405.553   247.429,404.05 269.586,400.106 287.42,395.374 305.196,394.877 316.856,399.135 329.573,408.781 343.092,414.033 359.125,414.033   373.701,407.647 385.361,401.263 397.022,399.135 409.556,401.684 429.088,411.905 442.522,415.879 465.527,414.033 "
   id="polyline16"
   style="fill:none;stroke:#ffffff;stroke-width:5;stroke-linecap:round;stroke-linejoin:round;stroke-opacity:1" /><polyline
   transform="translate(0.42724901,1.1377561)"
   points="229.402,393.202   247.429,391.699 269.586,387.756 287.42,383.024 305.196,382.527 316.856,386.784 329.573,396.431 343.092,401.683 359.125,401.683   373.701,395.297 385.361,388.912 397.022,386.784 409.556,389.333 429.088,399.555 442.522,403.528 465.527,401.683 "
   id="polyline18"
   style="fill:none;stroke:#ffffff;stroke-width:5;stroke-linecap:round;stroke-linejoin:round;stroke-opacity:1" /><polygon
   transform="translate(0.42724901,1.1377561)"
   points="85.104,437.866 162.193,307.934 229.402,308.032 229.402,437.866 "
   id="polygon20"
   style="fill:#ffffff;stroke:none" /><polygon
   transform="translate(0.42724901,1.1377561)"
   points="328.764,301.068 287.653,286.324 292.989,266.671 320.704,277.771 "
   id="polygon22"
   style="fill:#000000;stroke:none" /><polygon
   transform="translate(0.42724901,1.1377561)"
   points="263.552,257.064 289.602,265.454 283.977,284.88 242.688,270.557 244.022,266.234 "
   id="polygon24"
   style="fill:#000000;stroke:none" /><circle
   sodipodi:ry="13.599"
   sodipodi:rx="13.599"
   sodipodi:cy="294.939"
   sodipodi:cx="233.358"
   transform="translate(0.42724901,1.1377561)"
   cx="233.358"
   cy="294.939"
   r="13.599"
   id="circle26"
   style="fill:#ffffff;stroke:none" /><circle
   sodipodi:ry="14.708"
   sodipodi:rx="14.708"
   sodipodi:cy="338.073"
   sodipodi:cx="350.88"
   transform="translate(0.42724901,1.1377561)"
   cx="350.88"
   cy="338.073"
   r="14.708"
   id="circle28"
   style="fill:#ffffff;stroke:none" /><rect
   style="display:inline;opacity:1;fill:url(#pattern12479);fill-opacity:1;fill-rule:evenodd;stroke:none;stroke-width:1.5;stroke-linecap:round;stroke-miterlimit:4;stroke-dasharray:1.5, 1.5;stroke-dashoffset:0;stroke-opacity:1;paint-order:markers stroke fill"
   id="rect12317-3"
   width="576.53827"
   height="507.94376"
   x="-0.78100002"
   y="-0.079999998" /></svg>