<?xml version="1.0" encoding="UTF-8" standalone="no"?>
<!-- Generator: Adobe Illustrator 13.0.0, SVG Export Plug-In  -->

<svg
   version="1.1"
   x="0px"
   y="0px"
   width="640"
   height="187.5"
   viewBox="-0.082 -0.083 640 187.5"
   enable-background="new -0.082 -0.083 390 198"
   xml:space="preserve"
   id="svg2"
   inkscape:version="1.2.2 (732a01da63, 2022-12-09)"
   sodipodi:docname="France_road_sign_M6b_fin_mois.svg"
   xmlns:inkscape="http://www.inkscape.org/namespaces/inkscape"
   xmlns:sodipodi="http://sodipodi.sourceforge.net/DTD/sodipodi-0.dtd"
   xmlns="http://www.w3.org/2000/svg"
   xmlns:svg="http://www.w3.org/2000/svg"
   xmlns:rdf="http://www.w3.org/1999/02/22-rdf-syntax-ns#"
   xmlns:cc="http://creativecommons.org/ns#"
   xmlns:dc="http://purl.org/dc/elements/1.1/"><metadata
     id="metadata52"><rdf:RDF><cc:Work
         rdf:about=""><dc:format>image/svg+xml</dc:format><dc:type
           rdf:resource="http://purl.org/dc/dcmitype/StillImage" /><dc:title /></cc:Work></rdf:RDF></metadata><sodipodi:namedview
     pagecolor="#ffffff"
     bordercolor="#666666"
     borderopacity="1"
     objecttolerance="10"
     gridtolerance="10"
     guidetolerance="10"
     inkscape:pageopacity="0"
     inkscape:pageshadow="2"
     inkscape:window-width="1920"
     inkscape:window-height="991"
     id="namedview50"
     showgrid="false"
     inkscape:zoom="0.80546875"
     inkscape:cx="271.27061"
     inkscape:cy="328.38021"
     inkscape:window-x="-9"
     inkscape:window-y="-9"
     inkscape:window-maximized="1"
     inkscape:current-layer="svg2"
     inkscape:showpageshadow="2"
     inkscape:pagecheckerboard="0"
     inkscape:deskcolor="#d1d1d1" /><defs
     id="defs4"><inkscape:perspective
       sodipodi:type="inkscape:persp3d"
       inkscape:vp_x="0 : 99 : 1"
       inkscape:vp_y="0 : 1000 : 0"
       inkscape:vp_z="390 : 99 : 1"
       inkscape:persp3d-origin="195 : 66 : 1"
       id="perspective4308" /></defs><path
     style="opacity:1;fill:#ffffff;fill-opacity:1;fill-rule:evenodd;stroke:#000000;stroke-width:3.99998;stroke-linecap:round;stroke-linejoin:round;stroke-miterlimit:4;stroke-dasharray:none;stroke-dashoffset:0;stroke-opacity:1"
     d="M 32.445248,1.9938555 H 607.39008 c 16.91202,0 30.52711,13.6150895 30.52711,30.5271055 V 154.88977 c 0,16.91201 -13.61509,30.5271 -30.52711,30.5271 H 32.445248 c -16.912016,0 -30.5271052,-13.61509 -30.5271052,-30.5271 V 32.520961 c 0,-16.912016 13.6150892,-30.5271055 30.5271052,-30.5271055 z"
     id="rect4365" /><g
     id="g4309"
     transform="matrix(1.2927188,0,0,1.2927188,-77.147454,-49.150682)"><g
       transform="translate(-288)"
       id="g4303"><path
         sodipodi:nodetypes="cccccccccccccccccccc"
         inkscape:connector-curvature="0"
         id="path3765"
         d="M 594.86612,78.460203 H 559.75 l -1.5468,30.678077 10.2343,7.75942 c 2.0899,-3.14672 4.55875,-3.53952 7.11428,-4.33004 4.8881,-0.9271 8.50361,0.73647 11.04473,3.12423 3.66709,4.15262 3.57596,13.89333 -4.31526,16.36206 -7.02578,1.77159 -12.60379,-1.68882 -14.79688,-6.07812 l -11.52366,3.08775 c 2.32927,4.46383 4.86838,7.45875 7.53046,9.59295 4.30563,3.34604 4.20765,2.83779 9.75241,4.43978 11.65423,1.95618 20.58579,-4.19576 24.82315,-11.72979 1.51992,-4.00701 2.66816,-13.99414 -1.20132,-19.63536 -0.8603,-1.71023 -2.50805,-3.38921 -4.69318,-5.09944 -1.24045,-1.14633 -3.39062,-2.41651 -5.59751,-3.24069 -3.61244,-1.62726 -10.42653,-1.68305 -15.30551,0.12083 -1.86452,0.46707 -1.78638,0.57328 -1.66044,-0.53543 L 570.875,90.116834 595,90.07264 Z"
         style="fill:#000000;stroke:#000000;stroke-width:1px;stroke-linecap:butt;stroke-linejoin:miter;stroke-opacity:1" /><path
         sodipodi:nodetypes="cccsscssccscccccscscc"
         inkscape:connector-curvature="0"
         id="path3769"
         d="m 628.875,76.553952 c -9.76384,0.790701 -18.93299,8.908886 -21.25,21.8125 h 0.0312 c -0.12848,0.506523 -0.23203,1.46951 -0.34375,2.874998 -0.11291,1.42055 -0.2501,3.21368 -0.34375,5.21875 -0.18729,4.01014 -0.29236,8.75905 -0.21875,12.5 0.19235,13.45481 10.23968,23.60547 21.09375,25.3125 5.42703,0.85351 11.07474,-0.41351 15.71875,-4.4375 4.63902,-4.01967 8.27866,-10.77701 9.8125,-20.78125 0.002,-0.0108 -0.002,-0.0205 0,-0.0312 0.37847,-2.22663 0.57821,-6.49322 0.59375,-10.65625 0.0156,-4.1752 -0.15003,-8.14254 -0.625,-9.906248 -4.454,-16.076614 -14.70491,-22.696951 -24.46875,-21.90625 z m 10.3855,47.736988 c -2.35838,5.73528 -6.1559,8.49675 -9.85452,7.9025 -4.80334,-1.43671 -7.4663,-4.82533 -8.88644,-9.35289 -1.43051,-4.56064 -1.59998,-10.27691 -1.42579,-16.3179 0.43336,-4.64211 1.10622,-8.286643 2.41274,-10.871362 2.37536,-4.699221 5.59374,-6.412186 8.7432,-6.306766 13.82594,1.2696 11.97335,28.364648 9.01081,34.946418 z"
         style="color:#000000;font-style:normal;font-variant:normal;font-weight:normal;font-stretch:normal;font-size:medium;line-height:normal;font-family:Sans;-inkscape-font-specification:Sans;text-indent:0;text-align:start;text-decoration:none;text-decoration-line:none;letter-spacing:normal;word-spacing:normal;text-transform:none;writing-mode:lr-tb;direction:ltr;baseline-shift:baseline;text-anchor:start;display:inline;overflow:visible;visibility:visible;fill:#000000;fill-opacity:1;stroke:none;stroke-width:1px;marker:none;enable-background:accumulate" /><path
         sodipodi:nodetypes="cccccccccccccccc"
         inkscape:connector-curvature="0"
         id="path3767"
         d="m 706.00504,110.52085 v 33.60159 h 9.13395 V 120.683 c 1.53055,-6.52893 11.40568,-4.63914 11.42372,0 v 23.51234 h 8.45824 v -23.20303 c 1.94234,-6.69226 11.57038,-4.61853 11.87353,0 v 23.17738 h 8.53686 v -25.88453 c -3.97663,-13.28983 -20.19127,-8.17518 -21.05348,-3.09114 -0.61043,-3.20828 -13.81827,-12.78513 -20.42626,3.09114 v -7.75702 z"
         style="fill:#000000;stroke:#000000;stroke-width:0.659854px;stroke-linecap:butt;stroke-linejoin:miter;stroke-opacity:1" /><path
         style="opacity:1;fill:#000000;fill-opacity:1;fill-rule:evenodd;stroke:none;stroke-width:0.3;stroke-linecap:round;stroke-linejoin:round;stroke-miterlimit:4;stroke-dasharray:none;stroke-dashoffset:0;stroke-opacity:1"
         d="m 666.08383,91.719003 v 40.422527 12.38386 h 2.36877 7.40532 v -8.82555 l 3.48228,-4.10991 10.85409,12.93546 h 10.11948 l -14.56318,-19.18088 11.44048,-14.82352 h -12.84139 l -8.49176,9.97256 V 91.719003 Z"
         id="rect4140"
         inkscape:connector-curvature="0"
         sodipodi:nodetypes="ccccccccccccccc" /></g><g
       transform="translate(14,-0.24277878)"
       id="g4249"><rect
         style="opacity:1;fill:none;fill-opacity:1;fill-rule:evenodd;stroke:#000000;stroke-width:2;stroke-linecap:round;stroke-linejoin:round;stroke-miterlimit:4;stroke-dasharray:none;stroke-dashoffset:0;stroke-opacity:1"
         id="rect4170"
         width="85"
         height="85"
         x="134.22894"
         y="68.250992"
         ry="0" /><g
         transform="matrix(1.2137495,0,0,1.2137495,91.671061,39.366269)"
         style="font-style:normal;font-weight:normal;font-size:11.25px;line-height:125%;font-family:sans-serif;letter-spacing:0px;word-spacing:0px;fill:#000000;fill-opacity:1;stroke:none;stroke-width:1px;stroke-linecap:butt;stroke-linejoin:miter;stroke-opacity:1"
         id="flowRoot4172"><path
           inkscape:connector-curvature="0"
           d="m 45.125,50.368566 1.586914,-8.105469 2.587891,5.859375 2.680664,-5.859375 1.425781,8.105469 h -1.166992 l -0.727539,-4.550781 -2.231446,4.897461 -2.167968,-4.902344 -0.810547,4.555664 z"
           style="font-style:normal;font-variant:normal;font-weight:500;font-stretch:normal;font-size:10px;font-family:Futura;-inkscape-font-specification:'Futura Medium';text-align:center;text-anchor:middle"
           id="path4185" /><path
           inkscape:connector-curvature="0"
           d="m 58.293945,45.612707 h 1.103516 v 4.755859 h -1.103516 v -0.498047 q -0.678711,0.634766 -1.459961,0.634766 -0.986328,0 -1.630859,-0.712891 -0.639648,-0.727539 -0.639648,-1.816406 0,-1.069336 0.639648,-1.782227 0.639648,-0.71289 1.601562,-0.71289 0.830079,0 1.489258,0.683594 z m -2.607422,2.363281 q 0,0.683594 0.366211,1.113281 Q 56.428711,49.52384 57,49.52384 q 0.610352,0 0.986328,-0.419922 0.375977,-0.434571 0.375977,-1.103516 0,-0.668945 -0.375977,-1.103516 -0.375976,-0.424804 -0.976562,-0.424804 -0.566407,0 -0.947266,0.429687 -0.375977,0.434571 -0.375977,1.074219 z"
           style="font-style:normal;font-variant:normal;font-weight:500;font-stretch:normal;font-size:10px;font-family:Futura;-inkscape-font-specification:'Futura Medium';text-align:center;text-anchor:middle"
           id="path4187" /><path
           inkscape:connector-curvature="0"
           d="m 60.803711,45.612707 h 1.098633 v 0.424804 q 0.302734,-0.317382 0.537109,-0.43457 0.239258,-0.12207 0.566406,-0.12207 0.434571,0 0.908203,0.283203 l -0.502929,1.005859 q -0.3125,-0.224609 -0.610352,-0.224609 -0.898437,0 -0.898437,1.357422 v 2.46582 h -1.098633 z"
           style="font-style:normal;font-variant:normal;font-weight:500;font-stretch:normal;font-size:10px;font-family:Futura;-inkscape-font-specification:'Futura Medium';text-align:center;text-anchor:middle"
           id="path4189" /><path
           inkscape:connector-curvature="0"
           d="M 67.961914,52.956457 V 49.83634 q -0.654297,0.668945 -1.494141,0.668945 -0.961914,0 -1.596679,-0.708008 -0.639649,-0.712891 -0.639649,-1.782226 0,-1.083985 0.639649,-1.811524 0.644531,-0.722656 1.616211,-0.722656 0.825195,0 1.474609,0.649414 v -0.517578 h 1.103516 v 7.34375 z m -2.607422,-4.990235 q 0,0.688477 0.371094,1.118164 0.371094,0.439454 0.942383,0.439454 0.605468,0 0.981445,-0.419922 0.380859,-0.424805 0.380859,-1.103516 0,-0.668945 -0.375976,-1.103516 -0.375977,-0.424804 -0.976563,-0.424804 -0.566406,0 -0.947265,0.429687 -0.375977,0.434571 -0.375977,1.064453 z"
           style="font-style:normal;font-variant:normal;font-weight:500;font-stretch:normal;font-size:10px;font-family:Futura;-inkscape-font-specification:'Futura Medium';text-align:center;text-anchor:middle"
           id="path4191" /><path
           inkscape:connector-curvature="0"
           d="m 71.6875,45.612707 v 2.729492 q 0,1.181641 0.932617,1.181641 0.932617,0 0.932617,-1.181641 v -2.729492 h 1.098633 v 2.753906 q 0,0.571289 -0.141601,0.986328 -0.136719,0.371094 -0.473633,0.668945 -0.556641,0.483399 -1.416016,0.483399 -0.854492,0 -1.411133,-0.483399 -0.341797,-0.297851 -0.483398,-0.668945 -0.136719,-0.332031 -0.136719,-0.986328 v -2.753906 z"
           style="font-style:normal;font-variant:normal;font-weight:500;font-stretch:normal;font-size:10px;font-family:Futura;-inkscape-font-specification:'Futura Medium';text-align:center;text-anchor:middle"
           id="path4193" /><path
           inkscape:connector-curvature="0"
           d="m 80.369141,48.249426 h -3.408204 q 0.04395,0.585937 0.38086,0.932617 0.336914,0.341797 0.864258,0.341797 0.410156,0 0.678711,-0.195313 0.263671,-0.195312 0.600586,-0.722656 l 0.927734,0.517578 q -0.214844,0.366211 -0.454102,0.629883 -0.239257,0.258789 -0.512695,0.429687 -0.273437,0.166016 -0.59082,0.244141 -0.317383,0.07813 -0.688477,0.07813 -1.064453,0 -1.708984,-0.683594 -0.644531,-0.688476 -0.644531,-1.826172 0,-1.127929 0.625,-1.826172 0.629882,-0.688476 1.669921,-0.688476 1.049805,0 1.660157,0.668945 0.605468,0.664063 0.605468,1.84082 l -0.0049,0.25879 z m -1.12793,-0.898438 q -0.229492,-0.878906 -1.108399,-0.878906 -0.200195,0 -0.375976,0.06348 -0.175781,0.05859 -0.322266,0.175782 -0.141601,0.112304 -0.24414,0.273437 -0.102539,0.161133 -0.15625,0.366211 h 2.207031 z"
           style="font-style:normal;font-variant:normal;font-weight:500;font-stretch:normal;font-size:10px;font-family:Futura;-inkscape-font-specification:'Futura Medium';text-align:center;text-anchor:middle"
           id="path4195" /><path
           inkscape:connector-curvature="0"
           d="m 88.157227,42.121496 h 1.103515 v 8.24707 h -1.103515 v -0.498047 q -0.649415,0.634766 -1.469727,0.634766 -0.976563,0 -1.621094,-0.712891 -0.639648,-0.727539 -0.639648,-1.816406 0,-1.064453 0.639648,-1.777344 0.634766,-0.717773 1.59668,-0.717773 0.834961,0 1.494141,0.683594 z m -2.607422,5.854492 q 0,0.683594 0.366211,1.113281 0.375976,0.434571 0.947265,0.434571 0.610352,0 0.986328,-0.419922 0.375977,-0.434571 0.375977,-1.103516 0,-0.668945 -0.375977,-1.103516 -0.375976,-0.424804 -0.976562,-0.424804 -0.566406,0 -0.947266,0.429687 -0.375976,0.434571 -0.375976,1.074219 z"
           style="font-style:normal;font-variant:normal;font-weight:500;font-stretch:normal;font-size:10px;font-family:Futura;-inkscape-font-specification:'Futura Medium';text-align:center;text-anchor:middle"
           id="path4197" /><path
           inkscape:connector-curvature="0"
           d="m 94.998047,48.249426 h -3.408203 q 0.04394,0.585937 0.380859,0.932617 0.336914,0.341797 0.864258,0.341797 0.410156,0 0.678711,-0.195313 0.263672,-0.195312 0.600586,-0.722656 l 0.927734,0.517578 q -0.214844,0.366211 -0.454101,0.629883 -0.239258,0.258789 -0.512696,0.429687 -0.273437,0.166016 -0.59082,0.244141 -0.317383,0.07813 -0.688477,0.07813 -1.064453,0 -1.708984,-0.683594 -0.644531,-0.688476 -0.644531,-1.826172 0,-1.127929 0.625,-1.826172 0.629883,-0.688476 1.669922,-0.688476 1.049804,0 1.660156,0.668945 0.605469,0.664063 0.605469,1.84082 l -0.0049,0.25879 z m -1.12793,-0.898438 q -0.229492,-0.878906 -1.108398,-0.878906 -0.200196,0 -0.375977,0.06348 -0.175781,0.05859 -0.322265,0.175782 -0.141602,0.112304 -0.244141,0.273437 -0.102539,0.161133 -0.15625,0.366211 h 2.207031 z"
           style="font-style:normal;font-variant:normal;font-weight:500;font-stretch:normal;font-size:10px;font-family:Futura;-inkscape-font-specification:'Futura Medium';text-align:center;text-anchor:middle"
           id="path4199" /><path
           inkscape:connector-curvature="0"
           d="m 48.870117,54.621496 h 1.103516 v 8.24707 h -1.103516 v -0.498047 q -0.649414,0.634766 -1.469726,0.634766 -0.976563,0 -1.621094,-0.712891 -0.639649,-0.727539 -0.639649,-1.816406 0,-1.064453 0.639649,-1.777344 0.634765,-0.717773 1.59668,-0.717773 0.83496,0 1.49414,0.683594 z m -2.607422,5.854492 q 0,0.683594 0.366211,1.113281 0.375977,0.434571 0.947266,0.434571 0.610351,0 0.986328,-0.419922 0.375977,-0.434571 0.375977,-1.103516 0,-0.668945 -0.375977,-1.103516 -0.375977,-0.424804 -0.976563,-0.424804 -0.566406,0 -0.947265,0.429687 -0.375977,0.434571 -0.375977,1.074219 z"
           style="font-style:normal;font-variant:normal;font-weight:500;font-stretch:normal;font-size:10px;font-family:Futura;-inkscape-font-specification:'Futura Medium';text-align:center;text-anchor:middle"
           id="path4201" /><path
           inkscape:connector-curvature="0"
           d="m 52.478516,58.112707 v 4.755859 h -1.098633 v -4.755859 z m -1.264649,-1.977539 q 0,-0.288086 0.209961,-0.498047 0.209961,-0.209961 0.50293,-0.209961 0.297851,0 0.507812,0.209961 0.209961,0.205078 0.209961,0.50293 0,0.297851 -0.209961,0.507812 -0.205078,0.209961 -0.502929,0.209961 -0.297852,0 -0.507813,-0.209961 -0.209961,-0.209961 -0.209961,-0.512695 z"
           style="font-style:normal;font-variant:normal;font-weight:500;font-stretch:normal;font-size:10px;font-family:Futura;-inkscape-font-specification:'Futura Medium';text-align:center;text-anchor:middle"
           id="path4203" /><path
           inkscape:connector-curvature="0"
           d="m 56.624023,58.923254 -0.908203,0.483398 q -0.214843,-0.439453 -0.532226,-0.439453 -0.151367,0 -0.258789,0.102539 -0.107422,0.09766 -0.107422,0.253906 0,0.273438 0.634765,0.541992 0.874024,0.375977 1.176758,0.69336 0.302735,0.317383 0.302735,0.854492 0,0.688477 -0.507813,1.152344 -0.493164,0.439453 -1.191406,0.439453 -1.196289,0 -1.694336,-1.166992 l 0.9375,-0.434571 q 0.195312,0.341797 0.297851,0.434571 0.200196,0.185547 0.478516,0.185547 0.556641,0 0.556641,-0.507813 0,-0.292969 -0.429688,-0.546875 -0.166015,-0.08301 -0.332031,-0.161133 -0.166016,-0.07813 -0.336914,-0.161133 -0.478516,-0.234375 -0.673828,-0.46875 -0.249024,-0.297851 -0.249024,-0.766601 0,-0.620117 0.424805,-1.025391 0.43457,-0.405273 1.054688,-0.405273 0.913085,0 1.357421,0.942383 z"
           style="font-style:normal;font-variant:normal;font-weight:500;font-stretch:normal;font-size:10px;font-family:Futura;-inkscape-font-specification:'Futura Medium';text-align:center;text-anchor:middle"
           id="path4205" /><path
           inkscape:connector-curvature="0"
           d="m 59.055664,59.138097 v 3.730469 h -1.098633 v -3.730469 h -0.46875 v -1.02539 h 0.46875 v -1.743164 h 1.098633 v 1.743164 h 0.854492 v 1.02539 z"
           style="font-style:normal;font-variant:normal;font-weight:500;font-stretch:normal;font-size:10px;font-family:Futura;-inkscape-font-specification:'Futura Medium';text-align:center;text-anchor:middle"
           id="path4207" /><path
           inkscape:connector-curvature="0"
           d="m 60.657227,58.112707 h 1.098632 v 0.424804 q 0.302735,-0.317382 0.53711,-0.43457 0.239258,-0.12207 0.566406,-0.12207 0.43457,0 0.908203,0.283203 l -0.50293,1.005859 q -0.3125,-0.224609 -0.610351,-0.224609 -0.898438,0 -0.898438,1.357422 v 2.46582 h -1.098632 z"
           style="font-style:normal;font-variant:normal;font-weight:500;font-stretch:normal;font-size:10px;font-family:Futura;-inkscape-font-specification:'Futura Medium';text-align:center;text-anchor:middle"
           id="path4209" /><path
           inkscape:connector-curvature="0"
           d="m 65.642578,58.112707 v 4.755859 H 64.543945 V 58.112707 Z M 64.37793,56.135168 q 0,-0.288086 0.209961,-0.498047 0.209961,-0.209961 0.502929,-0.209961 0.297852,0 0.507813,0.209961 0.209961,0.205078 0.209961,0.50293 0,0.297851 -0.209961,0.507812 -0.205078,0.209961 -0.50293,0.209961 -0.297851,0 -0.507812,-0.209961 -0.209961,-0.209961 -0.209961,-0.512695 z"
           style="font-style:normal;font-variant:normal;font-weight:500;font-stretch:normal;font-size:10px;font-family:Futura;-inkscape-font-specification:'Futura Medium';text-align:center;text-anchor:middle"
           id="path4211" /><path
           inkscape:connector-curvature="0"
           d="m 68.123047,54.621496 v 4.042969 q 0.65918,-0.683594 1.49414,-0.683594 0.961915,0 1.601563,0.717773 0.639648,0.712891 0.639648,1.777344 0,1.098633 -0.644531,1.816406 -0.639648,0.712891 -1.616211,0.712891 -0.825195,0 -1.474609,-0.634766 v 0.498047 h -1.098633 v -8.24707 z m 2.612305,5.90332 q 0,-0.683594 -0.371094,-1.113281 -0.375977,-0.439453 -0.942383,-0.439453 -0.605469,0 -0.986328,0.424804 -0.375977,0.419922 -0.375977,1.09375 0,0.69336 0.371094,1.108399 0.371094,0.424805 0.976563,0.424805 0.571289,0 0.947265,-0.424805 0.38086,-0.429688 0.38086,-1.074219 z"
           style="font-style:normal;font-variant:normal;font-weight:500;font-stretch:normal;font-size:10px;font-family:Futura;-inkscape-font-specification:'Futura Medium';text-align:center;text-anchor:middle"
           id="path4213" /><path
           inkscape:connector-curvature="0"
           d="m 74.119141,58.112707 v 2.729492 q 0,1.181641 0.932617,1.181641 0.932617,0 0.932617,-1.181641 v -2.729492 h 1.098633 v 2.753906 q 0,0.571289 -0.141602,0.986328 -0.136719,0.371094 -0.473633,0.668945 -0.55664,0.483399 -1.416015,0.483399 -0.854492,0 -1.411133,-0.483399 -0.341797,-0.297851 -0.483398,-0.668945 -0.136719,-0.332031 -0.136719,-0.986328 v -2.753906 z"
           style="font-style:normal;font-variant:normal;font-weight:500;font-stretch:normal;font-size:10px;font-family:Futura;-inkscape-font-specification:'Futura Medium';text-align:center;text-anchor:middle"
           id="path4215" /><path
           inkscape:connector-curvature="0"
           d="m 79.602539,59.138097 v 3.730469 h -1.098633 v -3.730469 h -0.46875 v -1.02539 h 0.46875 v -1.743164 h 1.098633 v 1.743164 h 0.854492 v 1.02539 z"
           style="font-style:normal;font-variant:normal;font-weight:500;font-stretch:normal;font-size:10px;font-family:Futura;-inkscape-font-specification:'Futura Medium';text-align:center;text-anchor:middle"
           id="path4217" /><path
           inkscape:connector-curvature="0"
           d="m 85.632812,60.749426 h -3.408203 q 0.04395,0.585937 0.38086,0.932617 0.336914,0.341797 0.864258,0.341797 0.410156,0 0.67871,-0.195313 0.263672,-0.195312 0.600586,-0.722656 l 0.927735,0.517578 q -0.214844,0.366211 -0.454102,0.629883 -0.239258,0.258789 -0.512695,0.429687 -0.273438,0.166016 -0.59082,0.244141 -0.317383,0.07813 -0.688477,0.07813 -1.064453,0 -1.708984,-0.683594 -0.644532,-0.688476 -0.644532,-1.826172 0,-1.127929 0.625,-1.826172 0.629883,-0.688476 1.669922,-0.688476 1.049805,0 1.660157,0.668945 0.605468,0.664063 0.605468,1.84082 l -0.0049,0.25879 z m -1.127929,-0.898438 q -0.229492,-0.878906 -1.108399,-0.878906 -0.200195,0 -0.375976,0.06348 -0.175781,0.05859 -0.322266,0.175782 -0.141601,0.112304 -0.24414,0.273437 -0.10254,0.161133 -0.15625,0.366211 h 2.207031 z"
           style="font-style:normal;font-variant:normal;font-weight:500;font-stretch:normal;font-size:10px;font-family:Futura;-inkscape-font-specification:'Futura Medium';text-align:center;text-anchor:middle"
           id="path4219" /><path
           inkscape:connector-curvature="0"
           d="m 87.927734,58.112707 v 2.729492 q 0,1.181641 0.932618,1.181641 0.932617,0 0.932617,-1.181641 v -2.729492 h 1.098633 v 2.753906 q 0,0.571289 -0.141602,0.986328 -0.136719,0.371094 -0.473633,0.668945 -0.55664,0.483399 -1.416015,0.483399 -0.854493,0 -1.411133,-0.483399 -0.341797,-0.297851 -0.483399,-0.668945 -0.136718,-0.332031 -0.136718,-0.986328 v -2.753906 z"
           style="font-style:normal;font-variant:normal;font-weight:500;font-stretch:normal;font-size:10px;font-family:Futura;-inkscape-font-specification:'Futura Medium';text-align:center;text-anchor:middle"
           id="path4221" /><path
           inkscape:connector-curvature="0"
           d="m 92.27832,58.112707 h 1.098633 v 0.424804 q 0.302734,-0.317382 0.537109,-0.43457 0.239258,-0.12207 0.566407,-0.12207 0.43457,0 0.908203,0.283203 l -0.50293,1.005859 q -0.3125,-0.224609 -0.610351,-0.224609 -0.898438,0 -0.898438,1.357422 v 2.46582 H 92.27832 Z"
           style="font-style:normal;font-variant:normal;font-weight:500;font-stretch:normal;font-size:10px;font-family:Futura;-inkscape-font-specification:'Futura Medium';text-align:center;text-anchor:middle"
           id="path4223" /><path
           inkscape:connector-curvature="0"
           d="m 42.913086,67.121496 h 1.103516 v 8.24707 h -1.103516 v -0.498047 q -0.649414,0.634766 -1.469727,0.634766 -0.976562,0 -1.621093,-0.712891 -0.639649,-0.727539 -0.639649,-1.816406 0,-1.064453 0.639649,-1.777344 0.634765,-0.717773 1.596679,-0.717773 0.834961,0 1.494141,0.683594 z m -2.607422,5.854492 q 0,0.683594 0.366211,1.113281 0.375977,0.434571 0.947266,0.434571 0.610351,0 0.986328,-0.419922 0.375976,-0.434571 0.375976,-1.103516 0,-0.668945 -0.375976,-1.103516 -0.375977,-0.424804 -0.976563,-0.424804 -0.566406,0 -0.947265,0.429687 -0.375977,0.434571 -0.375977,1.074219 z"
           style="font-style:normal;font-variant:normal;font-weight:500;font-stretch:normal;font-size:10px;font-family:Futura;-inkscape-font-specification:'Futura Medium';text-align:center;text-anchor:middle"
           id="path4225" /><path
           inkscape:connector-curvature="0"
           d="m 49.753906,73.249426 h -3.408203 q 0.04395,0.585937 0.380859,0.932617 0.336915,0.341797 0.864258,0.341797 0.410157,0 0.678711,-0.195313 0.263672,-0.195312 0.600586,-0.722656 l 0.927735,0.517578 q -0.214844,0.366211 -0.454102,0.629883 -0.239258,0.258789 -0.512695,0.429687 -0.273438,0.166016 -0.590821,0.244141 -0.317382,0.07813 -0.688476,0.07813 -1.064453,0 -1.708985,-0.683594 -0.644531,-0.688476 -0.644531,-1.826172 0,-1.127929 0.625,-1.826172 0.629883,-0.688476 1.669922,-0.688476 1.049805,0 1.660156,0.668945 0.605469,0.664063 0.605469,1.84082 l -0.0049,0.25879 z m -1.127929,-0.898438 q -0.229493,-0.878906 -1.108399,-0.878906 -0.200195,0 -0.375976,0.06348 -0.175782,0.05859 -0.322266,0.175782 -0.141602,0.112304 -0.244141,0.273437 -0.102539,0.161133 -0.15625,0.366211 h 2.207032 z"
           style="font-style:normal;font-variant:normal;font-weight:500;font-stretch:normal;font-size:10px;font-family:Futura;-inkscape-font-specification:'Futura Medium';text-align:center;text-anchor:middle"
           id="path4227" /><path
           inkscape:connector-curvature="0"
           d="m 57.737305,70.817785 v 1.459961 Q 57.361328,71.818761 57.063477,71.647863 56.770508,71.472082 56.375,71.472082 q -0.620117,0 -1.030273,0.43457 -0.410157,0.43457 -0.410157,1.088867 0,0.668946 0.395508,1.098633 0.400391,0.429688 1.020508,0.429688 0.395508,0 0.698242,-0.170899 0.292969,-0.166015 0.688477,-0.644531 v 1.450195 q -0.668946,0.34668 -1.337891,0.34668 -1.103516,0 -1.845703,-0.712891 -0.742188,-0.717773 -0.742188,-1.782226 0,-1.064453 0.751954,-1.796875 0.751953,-0.732422 1.845703,-0.732422 0.703125,0 1.328125,0.336914 z"
           style="font-style:normal;font-variant:normal;font-weight:500;font-stretch:normal;font-size:10px;font-family:Futura;-inkscape-font-specification:'Futura Medium';text-align:center;text-anchor:middle"
           id="path4229" /><path
           inkscape:connector-curvature="0"
           d="m 62.307617,70.612707 h 1.103516 v 4.755859 h -1.103516 v -0.498047 q -0.678711,0.634766 -1.459961,0.634766 -0.986328,0 -1.630859,-0.712891 -0.639649,-0.727539 -0.639649,-1.816406 0,-1.069336 0.639649,-1.782227 0.639648,-0.71289 1.601562,-0.71289 0.830078,0 1.489258,0.683594 z m -2.607422,2.363281 q 0,0.683594 0.366211,1.113281 0.375977,0.434571 0.947266,0.434571 0.610351,0 0.986328,-0.419922 0.375977,-0.434571 0.375977,-1.103516 0,-0.668945 -0.375977,-1.103516 -0.375977,-0.424804 -0.976563,-0.424804 -0.566406,0 -0.947265,0.429687 -0.375977,0.434571 -0.375977,1.074219 z"
           style="font-style:normal;font-variant:normal;font-weight:500;font-stretch:normal;font-size:10px;font-family:Futura;-inkscape-font-specification:'Futura Medium';text-align:center;text-anchor:middle"
           id="path4231" /><path
           inkscape:connector-curvature="0"
           d="m 64.817383,70.612707 h 1.098633 v 0.424804 q 0.302734,-0.317382 0.537109,-0.43457 0.239258,-0.12207 0.566406,-0.12207 0.434571,0 0.908203,0.283203 l -0.502929,1.005859 q -0.3125,-0.224609 -0.610352,-0.224609 -0.898437,0 -0.898437,1.357422 v 2.46582 h -1.098633 z"
           style="font-style:normal;font-variant:normal;font-weight:500;font-stretch:normal;font-size:10px;font-family:Futura;-inkscape-font-specification:'Futura Medium';text-align:center;text-anchor:middle"
           id="path4233" /><path
           inkscape:connector-curvature="0"
           d="m 69.646484,67.121496 v 4.042969 q 0.65918,-0.683594 1.494141,-0.683594 0.961914,0 1.601562,0.717773 0.639649,0.712891 0.639649,1.777344 0,1.098633 -0.644531,1.816406 -0.639649,0.712891 -1.616211,0.712891 -0.825196,0 -1.47461,-0.634766 v 0.498047 h -1.098632 v -8.24707 z m 2.612305,5.90332 q 0,-0.683594 -0.371094,-1.113281 -0.375976,-0.439453 -0.942383,-0.439453 -0.605468,0 -0.986328,0.424804 -0.375976,0.419922 -0.375976,1.09375 0,0.69336 0.371094,1.108399 0.371093,0.424805 0.976562,0.424805 0.571289,0 0.947266,-0.424805 0.380859,-0.429688 0.380859,-1.074219 z"
           style="font-style:normal;font-variant:normal;font-weight:500;font-stretch:normal;font-size:10px;font-family:Futura;-inkscape-font-specification:'Futura Medium';text-align:center;text-anchor:middle"
           id="path4235" /><path
           inkscape:connector-curvature="0"
           d="m 75.642578,70.612707 v 2.729492 q 0,1.181641 0.932617,1.181641 0.932617,0 0.932617,-1.181641 v -2.729492 h 1.098633 v 2.753906 q 0,0.571289 -0.141601,0.986328 -0.136719,0.371094 -0.473633,0.668945 -0.556641,0.483399 -1.416016,0.483399 -0.854492,0 -1.411133,-0.483399 -0.341796,-0.297851 -0.483398,-0.668945 -0.136719,-0.332031 -0.136719,-0.986328 v -2.753906 z"
           style="font-style:normal;font-variant:normal;font-weight:500;font-stretch:normal;font-size:10px;font-family:Futura;-inkscape-font-specification:'Futura Medium';text-align:center;text-anchor:middle"
           id="path4237" /><path
           inkscape:connector-curvature="0"
           d="m 79.993164,70.612707 h 1.098633 v 0.424804 q 0.302734,-0.317382 0.537109,-0.43457 0.239258,-0.12207 0.566406,-0.12207 0.434571,0 0.908204,0.283203 l -0.50293,1.005859 q -0.3125,-0.224609 -0.610352,-0.224609 -0.898437,0 -0.898437,1.357422 v 2.46582 h -1.098633 z"
           style="font-style:normal;font-variant:normal;font-weight:500;font-stretch:normal;font-size:10px;font-family:Futura;-inkscape-font-specification:'Futura Medium';text-align:center;text-anchor:middle"
           id="path4239" /><path
           inkscape:connector-curvature="0"
           d="m 87.170898,70.612707 h 1.103516 v 4.755859 h -1.103516 v -0.498047 q -0.678711,0.634766 -1.459961,0.634766 -0.986328,0 -1.630859,-0.712891 -0.639648,-0.727539 -0.639648,-1.816406 0,-1.069336 0.639648,-1.782227 0.639649,-0.71289 1.601563,-0.71289 0.830078,0 1.489257,0.683594 z m -2.607421,2.363281 q 0,0.683594 0.36621,1.113281 0.375977,0.434571 0.947266,0.434571 0.610352,0 0.986328,-0.419922 0.375977,-0.434571 0.375977,-1.103516 0,-0.668945 -0.375977,-1.103516 -0.375976,-0.424804 -0.976562,-0.424804 -0.566407,0 -0.947266,0.429687 -0.375976,0.434571 -0.375976,1.074219 z"
           style="font-style:normal;font-variant:normal;font-weight:500;font-stretch:normal;font-size:10px;font-family:Futura;-inkscape-font-specification:'Futura Medium';text-align:center;text-anchor:middle"
           id="path4241" /><path
           inkscape:connector-curvature="0"
           d="m 89.680664,70.612707 h 1.103516 v 0.439453 q 0.576172,-0.571289 1.298828,-0.571289 0.830078,0 1.293945,0.522461 0.400391,0.444336 0.400391,1.450195 v 2.915039 h -1.103516 v -2.65625 q 0,-0.703125 -0.195312,-0.97168 -0.19043,-0.273437 -0.69336,-0.273437 -0.546875,0 -0.776367,0.361328 -0.224609,0.356445 -0.224609,1.245117 v 2.294922 h -1.103516 z"
           style="font-style:normal;font-variant:normal;font-weight:500;font-stretch:normal;font-size:10px;font-family:Futura;-inkscape-font-specification:'Futura Medium';text-align:center;text-anchor:middle"
           id="path4243" /><path
           inkscape:connector-curvature="0"
           d="m 96.301758,71.638097 v 3.730469 h -1.098633 v -3.730469 h -0.46875 v -1.02539 h 0.46875 v -1.743164 h 1.098633 v 1.743164 h 0.854492 v 1.02539 z"
           style="font-style:normal;font-variant:normal;font-weight:500;font-stretch:normal;font-size:10px;font-family:Futura;-inkscape-font-specification:'Futura Medium';text-align:center;text-anchor:middle"
           id="path4245" /><path
           inkscape:connector-curvature="0"
           d="m 100.66699,71.423254 -0.908201,0.483398 q -0.214844,-0.439453 -0.532227,-0.439453 -0.151367,0 -0.258789,0.102539 -0.107421,0.09766 -0.107421,0.253906 0,0.273438 0.634765,0.541992 0.874023,0.375977 1.176763,0.69336 0.30273,0.317383 0.30273,0.854492 0,0.688477 -0.50781,1.152344 -0.493167,0.439453 -1.191409,0.439453 -1.196289,0 -1.694336,-1.166992 l 0.9375,-0.434571 q 0.195312,0.341797 0.297851,0.434571 0.200196,0.185547 0.478516,0.185547 0.55664,0 0.55664,-0.507813 0,-0.292969 -0.429687,-0.546875 -0.166016,-0.08301 -0.332031,-0.161133 -0.166016,-0.07813 -0.336914,-0.161133 -0.478516,-0.234375 -0.673828,-0.46875 -0.249024,-0.297851 -0.249024,-0.766601 0,-0.620117 0.424805,-1.025391 0.43457,-0.405273 1.054687,-0.405273 0.91309,0 1.35742,0.942383 z"
           style="font-style:normal;font-variant:normal;font-weight:500;font-stretch:normal;font-size:10px;font-family:Futura;-inkscape-font-specification:'Futura Medium';text-align:center;text-anchor:middle"
           id="path4247" /></g></g></g></svg>
