<?xml version="1.0" encoding="UTF-8" standalone="no"?>
<!-- Generator: Adobe Illustrator 13.0.0, SVG Export Plug-In  -->

<svg
   xmlns:dc="http://purl.org/dc/elements/1.1/"
   xmlns:cc="http://creativecommons.org/ns#"
   xmlns:rdf="http://www.w3.org/1999/02/22-rdf-syntax-ns#"
   xmlns:svg="http://www.w3.org/2000/svg"
   xmlns="http://www.w3.org/2000/svg"
   xmlns:xlink="http://www.w3.org/1999/xlink"
   xmlns:sodipodi="http://sodipodi.sourceforge.net/DTD/sodipodi-0.dtd"
   xmlns:inkscape="http://www.inkscape.org/namespaces/inkscape"
   version="1.1"
   x="0px"
   y="0px"
   width="576.53827"
   height="507.94376"
   viewBox="-0.781 -0.08 576.53826 507.94375"
   enable-background="new -0.781 -0.08 576 506"
   xml:space="preserve"
   id="svg2"
   inkscape:version="0.92.5 (2060ec1f9f, 2020-04-08)"
   sodipodi:docname="France_road_sign_XA2.svg"><metadata
   id="metadata18"><rdf:RDF><cc:Work
       rdf:about=""><dc:format>image/svg+xml</dc:format><dc:type
         rdf:resource="http://purl.org/dc/dcmitype/StillImage" /><dc:title></dc:title></cc:Work></rdf:RDF></metadata><sodipodi:namedview
   pagecolor="#ffffff"
   bordercolor="#666666"
   borderopacity="1"
   objecttolerance="10"
   gridtolerance="10"
   guidetolerance="10"
   inkscape:pageopacity="0"
   inkscape:pageshadow="2"
   inkscape:window-width="1130"
   inkscape:window-height="783"
   id="namedview16"
   showgrid="false"
   fit-margin-top="0.3"
   fit-margin-left="0.3"
   fit-margin-right="0.3"
   fit-margin-bottom="0.3"
   inkscape:zoom="0.81932015"
   inkscape:cx="264.77787"
   inkscape:cy="250.19317"
   inkscape:window-x="637"
   inkscape:window-y="89"
   inkscape:window-maximized="0"
   inkscape:current-layer="svg2"
   showguides="true"
   inkscape:guide-bbox="true"
   inkscape:snap-object-midpoints="true"
   inkscape:snap-center="true"
   inkscape:snap-text-baseline="true"
   inkscape:snap-page="true" />
<defs
   id="defs4">
<pattern
   patternTransform="translate(-27.409422,37.15661)"
   id="pattern12479"
   xlink:href="#pattern12310-9"
   inkscape:collect="always" /><pattern
   patternUnits="userSpaceOnUse"
   width="7"
   height="7"
   patternTransform="translate(-27.409426,37.156635)"
   id="pattern12310-9"><path
     inkscape:connector-curvature="0"
     id="rect12307-0"
     d="M 0,0 V 3.5 A 3.5,3.5 0 0 1 3.5,0 Z M 3.5,0 A 3.5,3.5 0 0 1 7,3.5 V 0 Z M 7,3.5 A 3.5,3.5 0 0 1 3.5,7 H 7 Z M 3.5,7 A 3.5,3.5 0 0 1 0,3.5 V 7 Z"
     style="opacity:1;fill:#1a1a1a;fill-opacity:1;fill-rule:evenodd;stroke:none;stroke-width:1.50953102;stroke-linecap:round;stroke-miterlimit:4;stroke-dasharray:1.50953107, 1.50953107;stroke-dashoffset:0;stroke-opacity:1;paint-order:markers stroke fill" /></pattern></defs>

<rect
   style="display:inline;opacity:1;fill:#000000;fill-opacity:1;fill-rule:evenodd;stroke:none;stroke-width:1.5;stroke-linecap:round;stroke-miterlimit:4;stroke-dasharray:1.5, 1.5;stroke-dashoffset:0;stroke-opacity:1;paint-order:markers stroke fill"
   id="rect19"
   width="576.53827"
   height="507.94376"
   x="-0.78100002"
   y="-0.079999998" /><path
   style="fill:#f8190d;stroke:none"
   d="M 288.26562 13.638672 C 281.64663 13.638672 275.53166 17.170344 272.22266 22.902344 L 16.126953 466.47266 C 12.816953 472.20366 12.816953 479.26705 16.126953 484.99805 C 19.435953 490.73005 25.552875 494.26172 32.171875 494.26172 L 544.36133 494.26172 C 550.97933 494.26172 557.09625 490.73105 560.40625 484.99805 C 563.71625 479.26705 563.71625 472.20366 560.40625 466.47266 L 304.31055 22.902344 C 301.00055 17.170344 294.88462 13.638672 288.26562 13.638672 z M 288.26562 69.425781 L 512.09375 457.10547 L 64.439453 457.10547 L 288.26562 69.425781 z "
   transform="translate(-0.781,-0.08)"
   id="path8" />



<path
   d="m 144.75,421.47675 -0.081,0 0,-40.194 c 13.754,0 26.137,-8.333 31.315,-21.075 6.452,-15.874 21.673,-26.438 38.802,-26.928 17.128,-0.489 32.929,9.187 40.278,24.666 5.293,11.149 16.064,18.69 28.353,19.849 l 8.136,0 c 12.288,-1.158 23.059,-8.699 28.353,-19.849 7.349,-15.479 23.148,-25.155 40.277,-24.665 17.128,0.489 32.34999,11.053 38.80199,26.927 5.179,12.742 17.562,21.075 31.315,21.075 l 0,40.194 z"
   id="path12"
   inkscape:connector-curvature="0"
   style="fill:#ffffff;stroke:none"
   sodipodi:nodetypes="ccccccccccsccc" /><rect
   style="display:inline;opacity:1;fill:url(#pattern12479);fill-opacity:1;fill-rule:evenodd;stroke:none;stroke-width:1.5;stroke-linecap:round;stroke-miterlimit:4;stroke-dasharray:1.5, 1.5;stroke-dashoffset:0;stroke-opacity:1;paint-order:markers stroke fill"
   id="rect12317-3"
   width="576.53827"
   height="507.94376"
   x="-0.78100002"
   y="-0.080030516" /></svg>