<?xml version="1.0" encoding="UTF-8" standalone="no"?>
<!-- Created with Inkscape (http://www.inkscape.org/) -->

<svg
   xmlns:dc="http://purl.org/dc/elements/1.1/"
   xmlns:cc="http://creativecommons.org/ns#"
   xmlns:rdf="http://www.w3.org/1999/02/22-rdf-syntax-ns#"
   xmlns:svg="http://www.w3.org/2000/svg"
   xmlns="http://www.w3.org/2000/svg"
   xmlns:sodipodi="http://sodipodi.sourceforge.net/DTD/sodipodi-0.dtd"
   xmlns:inkscape="http://www.inkscape.org/namespaces/inkscape"
   width="300"
   height="149"
   id="svg3915"
   version="1.1"
   inkscape:version="0.48.4 r9939"
   sodipodi:docname="M11a.svg">
  <defs
     id="defs3917" />
  <sodipodi:namedview
     id="base"
     pagecolor="#ffffff"
     bordercolor="#666666"
     borderopacity="1.0"
     inkscape:pageopacity="0.0"
     inkscape:pageshadow="2"
     inkscape:zoom="1.979899"
     inkscape:cx="166.58755"
     inkscape:cy="72.577798"
     inkscape:document-units="px"
     inkscape:current-layer="g4080"
     showgrid="false"
     inkscape:snap-bbox="true"
     inkscape:bbox-paths="true"
     inkscape:bbox-nodes="true"
     inkscape:snap-bbox-edge-midpoints="true"
     inkscape:snap-bbox-midpoints="true"
     inkscape:object-paths="true"
     inkscape:snap-intersection-paths="true"
     inkscape:object-nodes="true"
     inkscape:snap-smooth-nodes="true"
     inkscape:snap-midpoints="true"
     inkscape:snap-object-midpoints="true"
     inkscape:snap-center="true"
     inkscape:snap-page="true"
     showguides="true"
     inkscape:guide-bbox="true"
     inkscape:window-width="1366"
     inkscape:window-height="745"
     inkscape:window-x="-8"
     inkscape:window-y="-8"
     inkscape:window-maximized="1" />
  <metadata
     id="metadata3920">
    <rdf:RDF>
      <cc:Work
         rdf:about="">
        <dc:format>image/svg+xml</dc:format>
        <dc:type
           rdf:resource="http://purl.org/dc/dcmitype/StillImage" />
        <dc:title />
      </cc:Work>
    </rdf:RDF>
  </metadata>
  <g
     inkscape:label="Calque 1"
     inkscape:groupmode="layer"
     id="layer1"
     transform="translate(0,-903.36218)">
    <g
       id="g4080">
      <g
         id="g3026">
        <path
           inkscape:connector-curvature="0"
           id="rect2987"
           d="m 18.59545,905.80084 262.8091,0 c 8.95085,0 16.15677,7.20592 16.15677,16.15678 l 0,111.80908 c 0,8.9509 -7.20592,16.1568 -16.15677,16.1568 l -262.8091,0 c -8.9508542,0 -16.1567765,-7.2059 -16.1567765,-16.1568 l 0,-111.80908 c 0,-8.95086 7.2059223,-16.15678 16.1567765,-16.15678 z"
           style="fill:#ffffff;stroke:#000000;stroke-width:4.87734699000000040;stroke-linecap:butt;stroke-linejoin:round;stroke-miterlimit:4;stroke-opacity:1;stroke-dashoffset:0" />
        <g
           id="g4070"
           transform="translate(-2.908597e-6,0.88803836)">
          <g
             id="text2989"
             style="font-size:40px;font-style:normal;font-variant:normal;font-weight:normal;font-stretch:normal;text-align:center;line-height:125%;letter-spacing:0px;word-spacing:0px;text-anchor:middle;fill:#000000;fill-opacity:1;stroke:none;font-family:Caracteres L1;-inkscape-font-specification:Caracteres L1">
            <path
               inkscape:connector-curvature="0"
               id="path4103"
               d="m 118.29602,925.36737 5.80078,20.58594 4.98047,-20.58594 5.56641,0 -6.9336,28.63281 -7.24609,0 -7.67578,-28.63281 z" />
            <path
               inkscape:connector-curvature="0"
               id="path4105"
               d="m 153.88196,925.40643 0,5.23438 -11.83594,0 0,6.25 8.67188,0 0,5.29297 -8.67188,0 0,6.54297 12.34375,0 0,5.29296 -17.85156,0 0,-28.61328 z m -4.1211,-7.16797 -3.18359,5.9375 -6.34766,0 2.59766,-5.9375 z" />
            <path
               inkscape:connector-curvature="0"
               id="path4107"
               d="m 162.45618,925.3869 0,11.46485 7.87109,0 0,-11.44532 5.48828,0 0,28.61328 -5.48828,0 0,-11.83593 -7.87109,0 0,11.83593 -5.48828,0 0,-28.63281 z" />
            <path
               inkscape:connector-curvature="0"
               id="path4109"
               d="m 184.31165,925.3869 0,28.63281 -5.42969,0 0,-28.63281 z" />
            <path
               inkscape:connector-curvature="0"
               id="path4111"
               d="m 199.13586,925.03534 c 3.78905,0.65107 6.26952,2.91018 7.44141,6.77734 l 0.17578,0.95703 -4.9414,1.03516 c -0.40367,-1.66664 -1.09377,-2.77341 -2.07032,-3.32031 -0.97657,-0.54685 -2.1224,-0.49477 -3.4375,0.15625 -0.8724,0.74221 -1.59831,1.75783 -2.17773,3.04687 -0.57944,1.28908 -0.96029,3.03387 -1.14258,5.23438 -0.0781,2.34376 0.22786,4.37826 0.91797,6.10351 0.69009,1.72527 1.52668,2.86785 2.50976,3.42774 0.98307,0.5599 1.98892,0.63802 3.01758,0.23437 1.02863,-0.26041 1.84895,-1.3216 2.46094,-3.18359 l 4.94141,1.52344 c -0.66409,2.61719 -1.94664,4.51172 -3.84766,5.68359 -1.39324,0.88542 -3.03387,1.38672 -4.92187,1.50391 -3.5547,-0.0781 -6.21095,-1.52995 -7.96875,-4.35547 -1.84896,-3.07291 -2.79948,-6.39973 -2.85157,-9.98047 0.026,-4.47915 0.98958,-8.14451 2.89063,-10.99609 1.19791,-1.5755 2.53905,-2.66274 4.02344,-3.26172 1.11978,-0.44268 2.33722,-0.66404 3.65234,-0.66407 0.42967,3e-5 0.87238,0.0261 1.32812,0.0781 z" />
            <path
               inkscape:connector-curvature="0"
               id="path4113"
               d="m 214.62415,925.42596 0,19.375 c 0.24738,2.47397 1.64061,3.85418 4.17968,4.14063 2.49999,-0.27343 3.90624,-1.63411 4.21875,-4.08203 l 0,-19.4336 5.52735,0 0,20.87891 c -0.48179,2.55209 -1.68622,4.53776 -3.61328,5.95703 -1.71877,1.21094 -3.47658,1.84896 -5.27344,1.91406 -0.28647,0.026 -0.56642,0.0391 -0.83985,0.0391 -2.66928,0 -4.8763,-0.77474 -6.62109,-2.32422 -1.99219,-1.92708 -3.04688,-3.89323 -3.16406,-5.89844 l 0,-20.56641 z" />
            <path
               inkscape:connector-curvature="0"
               id="path4115"
               d="m 236.77258,925.34784 0.0195,23.55469 11.07422,0 -0.0195,5.11718 -16.48437,0 0,-28.67187 z" />
            <path
               inkscape:connector-curvature="0"
               id="path4117"
               d="m 267.31946,925.40643 0,5.23438 -11.83594,0 0,6.25 8.67188,0 0,5.29297 -8.67188,0 0,6.54297 12.34375,0 0,5.29296 -17.85156,0 0.0195,-28.61328 z" />
            <path
               inkscape:connector-curvature="0"
               id="path4119"
               d="m 269.89758,948.17987 0,-0.0391 c 0,-0.14323 0.14974,-0.24088 0.44922,-0.29297 2.30469,-0.74218 3.80208,-1.27603 4.49219,-1.60156 0.35156,0.48177 0.81379,0.91797 1.38672,1.30859 0.92447,0.54688 1.91405,0.87891 2.96875,0.99609 1.11978,0.026 1.81639,10e-6 2.08984,-0.0781 1.28905,-0.36458 2.08332,-0.73567 2.38281,-1.11328 0.29947,-0.26041 0.55988,-0.89192 0.78125,-1.89453 0.0521,-0.39062 -10e-6,-0.82682 -0.15625,-1.3086 -0.19532,-0.32551 -0.40366,-0.59894 -0.625,-0.82031 l -0.66406,-0.50781 -0.74219,-0.33203 c -4.12761,-1.28905 -6.39974,-2.04426 -6.8164,-2.26563 -1.91407,-0.76821 -3.33985,-2.03774 -4.27735,-3.80859 -0.61198,-1.18488 -0.88541,-2.62368 -0.82031,-4.31641 0.2474,-2.10935 1.11328,-3.78252 2.59766,-5.01953 1.66666,-1.21091 3.40494,-1.86846 5.21484,-1.97266 l 0.50781,0 c 1.28906,3e-5 2.35676,0.0977 3.20313,0.29297 1.71873,0.4818 3.05988,1.15237 4.02344,2.01172 0.96352,0.7943 1.75779,1.87503 2.38281,3.24219 l -0.0586,0.21484 -4.02344,1.9336 -0.19531,-0.0977 c -0.24742,-0.79425 -0.94403,-1.43878 -2.08985,-1.93359 -1.28907,-0.48175 -2.79949,-0.49477 -4.53125,-0.0391 -0.74219,0.24742 -1.26303,0.56643 -1.5625,0.95704 -0.10417,0.10418 -0.24089,0.42971 -0.41015,0.97656 -0.026,0.63804 -1e-5,1.00913 0.0781,1.11328 0.16926,0.44273 0.50781,0.83986 1.01563,1.19141 l 0.50781,0.21484 c 3.6979,1.09377 6.20441,1.88804 7.51953,2.38281 1.13279,0.52085 1.99868,1.09377 2.59766,1.71875 l 1.09375,1.48438 c 0.80727,1.34115 1.23695,2.806 1.28906,4.39453 0.013,0.10417 0.0195,0.22787 0.0195,0.37109 -2e-5,0.50782 -0.0782,1.19142 -0.23438,2.05078 -0.32554,1.21095 -0.71616,2.10287 -1.17187,2.67578 -0.78127,0.96355 -1.34767,1.54298 -1.69922,1.73829 -1.91408,1.3151 -3.88673,2.02474 -5.91797,2.1289 l -1.77734,0 c -1.32814,-0.13021 -2.44793,-0.39062 -3.35938,-0.78125 -1.45834,-0.67708 -2.63672,-1.43229 -3.53515,-2.26562 -0.74219,-0.67708 -1.38672,-1.64713 -1.9336,-2.91016 z" />
          </g>
          <g
             id="text2989-1"
             style="font-size:38.92840195px;font-style:normal;font-variant:normal;font-weight:normal;font-stretch:normal;text-align:center;line-height:125%;letter-spacing:0px;word-spacing:0px;text-anchor:middle;fill:#000000;fill-opacity:1;stroke:none;font-family:Caracteres L1;-inkscape-font-specification:Caracteres L1">
            <path
               inkscape:connector-curvature="0"
               id="path4122"
               d="m 129.19394,964.5172 7.18503,27.84674 -5.4553,0 -1.19751,-4.733 -7.69824,0 -1.21651,4.733 -5.51233,0 7.109,-27.84674 z m -6.12058,17.81051 5.49331,0 -2.66112,-10.87258 z" />
            <path
               inkscape:connector-curvature="0"
               id="path4124"
               d="m 149.30441,964.17506 c 3.63685,0.38019 6.22194,2.7942 7.75527,7.24205 l -4.94208,1.29254 c -0.88706,-1.95146 -1.90082,-3.12362 -3.04128,-3.51648 -1.48264,-0.55754 -2.91457,0.22179 -4.29581,2.33799 -0.86171,1.41928 -1.39393,3.49115 -1.59668,6.21562 -0.038,3.00327 0.43401,5.40145 1.4161,7.19453 0.98207,1.79309 2.13839,2.78468 3.46896,2.97475 2.12889,-0.10137 3.71288,-2.00217 4.752,-5.7024 l -4.50489,0 0,-5.07514 9.92218,0 0,0.2281 c 0.0127,0.30414 0.019,0.6146 0.019,0.93139 -2e-5,4.5746 -1.05813,8.30017 -3.17433,11.17671 -1.41928,1.95149 -3.49749,3.04128 -6.23463,3.26938 l -0.41818,0 c -6.08256,0 -9.51667,-4.38451 -10.30234,-13.15355 -0.0127,-0.25342 -0.019,-0.5132 -0.019,-0.77932 0,-4.44786 1.00743,-8.17343 3.02228,-11.17671 1.19116,-1.52062 2.47737,-2.5027 3.85862,-2.94625 1.08979,-0.35478 2.23027,-0.53219 3.42145,-0.53222 0.29144,3e-5 0.58923,0.006 0.89337,0.019 z" />
            <path
               inkscape:connector-curvature="0"
               id="path4126"
               d="m 169.50993,964.46018 c 2.92722,3e-5 5.21451,1.0518 6.86189,3.15533 1.44459,1.85013 2.16689,3.93468 2.16691,6.25363 -2e-5,0.4182 -0.0254,0.9124 -0.076,1.48263 -0.30415,2.82587 -1.71708,5.16385 -4.23879,7.01395 l 4.63796,10.03623 -6.00653,0 -3.97268,-8.3065 -3.44045,0 0,8.36353 -5.26522,0 0.019,-27.9988 z m -0.76032,14.27501 1.55865,-0.19008 c 0.88703,-0.24075 1.62834,-0.74129 2.22394,-1.50163 0.50687,-0.74763 0.81099,-1.64101 0.91238,-2.68013 0.0507,-1.29252 -0.32948,-2.42033 -1.14048,-3.38342 -0.6843,-0.78565 -1.67905,-1.22917 -2.98425,-1.33057 l -3.82061,0 0,9.08583 z" />
            <path
               inkscape:connector-curvature="0"
               id="path4128"
               d="m 186.5221,964.55522 0,27.86574 -5.28423,0 0,-27.86574 z" />
            <path
               inkscape:connector-curvature="0"
               id="path4130"
               d="m 200.94917,964.21307 c 3.68754,0.63363 6.10155,2.83222 7.24205,6.59578 l 0.17107,0.9314 -4.80902,1.00742 c -0.39285,-1.622 -1.06447,-2.69911 -2.01485,-3.23136 -0.95041,-0.5322 -2.06555,-0.48151 -3.34541,0.15206 -0.84903,0.72233 -1.5555,1.71074 -2.11939,2.96525 -0.56392,1.25455 -0.93457,2.9526 -1.11197,5.09415 -0.076,2.28097 0.22175,4.26097 0.89337,5.94 0.67161,1.67905 1.48579,2.79102 2.44253,3.33591 0.95673,0.5449 1.93564,0.62093 2.93674,0.22809 1.00107,-0.25343 1.79941,-1.2862 2.39501,-3.0983 l 4.80903,1.48262 c -0.6463,2.54708 -1.89449,4.39085 -3.74458,5.53133 -1.35592,0.8617 -2.95259,1.34957 -4.79002,1.46362 -3.45947,-0.076 -6.04455,-1.48896 -7.75527,-4.23879 -1.79942,-2.99058 -2.72448,-6.22828 -2.77517,-9.71309 0.0254,-4.35915 0.96307,-7.92632 2.81319,-10.70151 1.16582,-1.53328 2.47103,-2.5914 3.91565,-3.17434 1.08978,-0.43082 2.27461,-0.64624 3.5545,-0.64627 0.41816,3e-5 0.84901,0.0254 1.29254,0.076 z" />
            <path
               inkscape:connector-curvature="0"
               id="path4132"
               d="m 221.6489,964.21307 c 3.06661,0.4689 5.33489,2.28099 6.80486,5.43629 1.25451,2.33167 1.88177,5.19554 1.8818,8.59162 l 0,0.34215 c -3e-5,4.24513 -1.03279,7.85665 -3.09831,10.83456 -1.46997,2.00218 -3.54818,3.12365 -6.23463,3.36442 -0.27879,0.0254 -0.55124,0.038 -0.81734,0.038 -2.78785,0 -5.12583,-1.1785 -7.01396,-3.53549 -1.95149,-3.14265 -2.9399,-6.36768 -2.96525,-9.67508 -0.0127,-0.27877 -0.019,-0.55755 -0.019,-0.83635 0,-4.4732 0.99475,-8.17342 2.98425,-11.10068 1.33056,-1.59664 2.71814,-2.61674 4.16276,-3.06029 1.00108,-0.31677 2.00216,-0.47517 3.00326,-0.4752 0.44351,3e-5 0.8807,0.0254 1.31156,0.076 z m -1.46362,23.74101 c 1.46994,-0.076 2.71179,-1.08345 3.72557,-3.02228 0.73496,-1.29253 1.19749,-3.19333 1.38758,-5.7024 0.038,-3.19333 -0.5259,-5.81009 -1.69171,-7.85031 -0.95041,-1.41924 -2.00219,-2.21124 -3.15533,-2.376 -1.52065,0.0761 -2.78785,1.07081 -3.8016,2.98426 -0.72231,1.34325 -1.19118,3.26939 -1.40659,5.77843 -0.0254,3.19336 0.55122,5.80379 1.72973,7.8313 0.93772,1.41927 2.0085,2.20494 3.21235,2.357 z" />
            <path
               inkscape:connector-curvature="0"
               id="path4134"
               d="m 238.18586,964.5172 0.019,22.92366 10.77754,0 -0.019,4.9801 -16.04276,0 0,-27.90376 z" />
            <path
               inkscape:connector-curvature="0"
               id="path4136"
               d="m 267.91438,964.57423 0,5.09414 -11.51885,0 0,6.08257 8.43955,0 0,5.15117 -8.43955,0 0,6.36768 12.01306,0 0,5.15117 -17.37332,0 0.019,-27.84673 z" />
            <path
               inkscape:connector-curvature="0"
               id="path4138"
               d="m 270.42344,986.73756 0,-0.038 c 0,-0.13939 0.14573,-0.23443 0.43719,-0.28512 2.24294,-0.7223 3.70022,-1.24185 4.37184,-1.55866 0.34214,0.46887 0.79199,0.89339 1.34957,1.27354 0.8997,0.53223 1.86277,0.85536 2.88922,0.96941 1.08978,0.0254 1.76773,0 2.03385,-0.076 1.25452,-0.35481 2.02751,-0.71596 2.31898,-1.08345 0.29144,-0.25343 0.54488,-0.86803 0.76032,-1.84378 0.0507,-0.38015 -2e-5,-0.80466 -0.15206,-1.27353 -0.1901,-0.3168 -0.39285,-0.58291 -0.60826,-0.79834 l -0.64627,-0.49421 -0.72231,-0.32314 c -4.01703,-1.25451 -6.22829,-1.98949 -6.63379,-2.20492 -1.86279,-0.74764 -3.25037,-1.98316 -4.16276,-3.70657 -0.59558,-1.15313 -0.86169,-2.55339 -0.79833,-4.20077 0.24076,-2.05284 1.08345,-3.68119 2.52806,-4.88505 1.62201,-1.17847 3.31373,-1.81841 5.07514,-1.91981 l 0.49421,0 c 1.25452,2e-5 2.29362,0.0951 3.11731,0.28512 1.67269,0.46889 2.97791,1.1215 3.91565,1.95782 0.93771,0.77302 1.71071,1.82479 2.31898,3.15533 l -0.057,0.20909 -3.91565,1.88179 -0.19008,-0.095 c -0.24079,-0.77297 -0.91874,-1.40023 -2.03386,-1.88179 -1.25454,-0.46884 -2.72449,-0.48151 -4.40986,-0.038 -0.72231,0.24079 -1.22919,0.55126 -1.52064,0.9314 -0.10138,0.10139 -0.23444,0.41819 -0.39917,0.9504 -0.0254,0.62094 0,0.9821 0.076,1.08345 0.16473,0.43087 0.49421,0.81737 0.98842,1.15949 l 0.49421,0.20909 c 3.59884,1.06446 6.0382,1.83746 7.31808,2.31898 1.10245,0.50689 1.94514,1.06446 2.52807,1.6727 l 1.06445,1.44461 c 0.78564,1.30523 1.20382,2.73083 1.25452,4.2768 0.0127,0.10139 0.019,0.22177 0.019,0.36115 -2e-5,0.49422 -0.0761,1.1595 -0.22809,1.99584 -0.31682,1.17851 -0.69698,2.04654 -1.14048,2.6041 -0.76034,0.93773 -1.31157,1.50164 -1.6537,1.69171 -1.8628,1.27988 -3.78261,1.9705 -5.75943,2.07188 l -1.72973,0 c -1.29255,-0.12672 -2.38234,-0.38016 -3.26937,-0.76032 -1.41927,-0.65895 -2.56609,-1.39392 -3.44045,-2.20493 -0.72231,-0.65894 -1.34957,-1.60301 -1.8818,-2.8322 z" />
          </g>
          <g
             id="text2989-4"
             style="font-size:38.77449799px;font-style:normal;font-variant:normal;font-weight:normal;font-stretch:normal;text-align:center;line-height:125%;letter-spacing:0px;word-spacing:0px;text-anchor:middle;fill:#000000;fill-opacity:1;stroke:none;font-family:Caracteres L1;-inkscape-font-specification:Caracteres L1">
            <path
               inkscape:connector-curvature="0"
               id="path4141"
               d="m 128.99477,1005.7331 7.15662,27.7366 -5.43373,0 -1.19277,-4.7143 -7.66781,0 -1.2117,4.7143 -5.49053,0 7.08089,-27.7366 z m -6.09638,17.74 5.47159,0 -2.6506,-10.8296 z" />
            <path
               inkscape:connector-curvature="0"
               id="path4143"
               d="m 143.83813,1005.8088 0,18.7814 c 0.23981,2.3981 1.59035,3.7361 4.05163,4.0137 2.42339,-0.265 3.78656,-1.584 4.0895,-3.9569 l 0,-18.8382 5.358,0 0,20.2392 c -0.46703,2.4739 -1.63456,4.3987 -3.50258,5.7745 -1.66611,1.1739 -3.37006,1.7923 -5.11187,1.8555 -0.2777,0.025 -0.54907,0.038 -0.81412,0.038 -2.58749,0 -4.72691,-0.751 -6.41823,-2.253 -1.93116,-1.868 -2.95353,-3.7739 -3.06713,-5.7177 l 0,-19.9363 z" />
            <path
               inkscape:connector-curvature="0"
               id="path4145"
               d="m 176.57304,1005.752 0,5.339 -5.54732,0 0,22.4355 -5.14974,0 0,-22.4922 -5.92599,0 0,-5.2823 z" />
            <path
               inkscape:connector-curvature="0"
               id="path4147"
               d="m 190.18577,1005.4301 c 3.05449,0.4671 5.31381,2.272 6.77797,5.4148 1.24954,2.3225 1.87433,5.175 1.87435,8.5577 l 0,0.3408 c -2e-5,4.2283 -1.02871,7.8256 -3.08606,10.7917 -1.46416,1.9943 -3.53415,3.1113 -6.20998,3.3511 -0.27769,0.025 -0.54906,0.038 -0.81411,0.038 -2.77683,0 -5.10557,-1.1739 -6.98622,-3.5215 -1.94378,-3.1303 -2.92829,-6.3425 -2.95353,-9.6369 -0.0126,-0.2776 -0.0189,-0.5553 -0.0189,-0.833 0,-4.4555 0.99081,-8.1411 2.97246,-11.0568 1.32529,-1.5903 2.70739,-2.6064 4.14629,-3.0482 0.99712,-0.3155 1.99425,-0.4733 2.99139,-0.4733 0.44176,0 0.87721,0.025 1.30637,0.076 z m -1.45783,23.6472 c 1.46413,-0.076 2.70108,-1.0792 3.71084,-3.0104 0.73206,-1.2874 1.19276,-3.1807 1.3821,-5.6798 0.0379,-3.1807 -0.52382,-5.7871 -1.68502,-7.8193 -0.94666,-1.4136 -1.99428,-2.2025 -3.14286,-2.3666 -1.51464,0.076 -2.77683,1.0666 -3.78657,2.9725 -0.71946,1.3379 -1.18647,3.2564 -1.40103,5.7556 -0.0252,3.1807 0.54904,5.7808 1.72289,7.8003 0.93401,1.4137 2.00056,2.1962 3.19965,2.3477 z" />
            <path
               inkscape:connector-curvature="0"
               id="path4149"
               d="m 210.425,1005.6763 c 2.91564,0 5.1939,1.0476 6.83476,3.1428 1.43888,1.8428 2.15833,3.9191 2.15835,6.2289 -2e-5,0.4166 -0.0253,0.9088 -0.0757,1.4768 -0.30294,2.8147 -1.71028,5.1434 -4.22202,6.9862 l 4.61961,9.9966 -5.98278,0 -3.95697,-8.2737 -3.42685,0 0,8.3305 -5.2444,0 0.0189,-27.8881 z m -0.75732,14.2185 1.5525,-0.1893 c 0.88352,-0.2398 1.6219,-0.7384 2.21514,-1.4957 0.50486,-0.7447 0.80779,-1.6345 0.90878,-2.6695 0.0505,-1.2874 -0.32819,-2.4108 -1.13597,-3.3701 -0.6816,-0.7825 -1.67242,-1.2243 -2.97246,-1.3253 l -3.80551,0 0,9.0499 z" />
            <path
               inkscape:connector-curvature="0"
               id="path4151"
               d="m 227.36991,1005.7709 0,27.7556 -5.26334,0 0,-27.7556 z" />
            <path
               inkscape:connector-curvature="0"
               id="path4153"
               d="m 230.13411,1027.8656 0,-0.038 c 0,-0.1388 0.14515,-0.2335 0.43545,-0.284 2.23408,-0.7194 3.6856,-1.2369 4.35456,-1.5525 0.34079,0.467 0.78886,0.8899 1.34423,1.2685 0.89615,0.5301 1.85542,0.852 2.8778,0.9656 1.08547,0.025 1.76074,0 2.02582,-0.076 1.24955,-0.3535 2.01949,-0.7132 2.3098,-1.0792 0.29029,-0.2524 0.54273,-0.8646 0.75732,-1.8365 0.0505,-0.3787 -2e-5,-0.8015 -0.15146,-1.2685 -0.18935,-0.3155 -0.3913,-0.5806 -0.60586,-0.7952 l -0.64371,-0.4922 -0.71945,-0.3219 c -4.00116,-1.2496 -6.20368,-1.9816 -6.60757,-2.1962 -1.85542,-0.7447 -3.23752,-1.9753 -4.1463,-3.6919 -0.59323,-1.1486 -0.85829,-2.5433 -0.79518,-4.1842 0.23982,-2.0447 1.07917,-3.6666 2.51807,-4.8657 1.6156,-1.1738 3.30063,-1.8112 5.05508,-1.9122 l 0.49225,0 c 1.24956,0 2.28456,0.095 3.10499,0.2839 1.66608,0.4671 2.96613,1.1171 3.90017,1.9501 0.934,0.77 1.70394,1.8176 2.30981,3.1429 l -0.0568,0.2082 -3.90017,1.8744 -0.18933,-0.095 c -0.23983,-0.7699 -0.9151,-1.3947 -2.02581,-1.8743 -1.24958,-0.467 -2.71372,-0.4796 -4.39243,-0.038 -0.71945,0.2399 -1.22433,0.5491 -1.51463,0.9277 -0.10098,0.101 -0.23351,0.4166 -0.39759,0.9467 -0.0252,0.6185 0,0.9782 0.0757,1.0791 0.16407,0.4292 0.49224,0.8142 0.9845,1.155 l 0.49226,0.2082 c 3.58461,1.0603 6.01432,1.8302 7.28915,2.3098 1.09809,0.5049 1.93745,1.0603 2.51807,1.6661 l 1.06024,1.4389 c 0.78254,1.3001 1.19906,2.72 1.24957,4.2599 0.0126,0.101 0.0189,0.2209 0.0189,0.3597 -2e-5,0.4923 -0.0757,1.1549 -0.22719,1.988 -0.31557,1.1738 -0.69423,2.0384 -1.13597,2.5938 -0.75734,0.934 -1.30639,1.4957 -1.64716,1.685 -1.85544,1.2748 -3.76765,1.9627 -5.73666,2.0637 l -1.72289,0 c -1.28744,-0.1262 -2.37293,-0.3787 -3.25645,-0.7573 -1.41366,-0.6564 -2.55594,-1.3884 -3.42685,-2.1962 -0.71945,-0.6564 -1.34423,-1.5967 -1.87435,-2.821 z" />
            <path
               inkscape:connector-curvature="0"
               id="path4155"
               d="m 267.99983,1005.7898 0,5.0741 -11.47331,0 0,6.0585 8.40619,0 0,5.1308 -8.40619,0 0,6.3425 11.96556,0 0,5.1308 -17.30463,0 0,-27.7367 z m -3.99483,-6.94831 -3.08606,5.75561 -6.15318,0 2.51807,-5.75561 z" />
            <path
               inkscape:connector-curvature="0"
               id="path4157"
               d="m 270.49897,1027.8656 0,-0.038 c 0,-0.1388 0.14515,-0.2335 0.43545,-0.284 2.23408,-0.7194 3.6856,-1.2369 4.35456,-1.5525 0.34079,0.467 0.78886,0.8899 1.34424,1.2685 0.89614,0.5301 1.85541,0.852 2.87779,0.9656 1.08547,0.025 1.76074,0 2.02582,-0.076 1.24955,-0.3535 2.01949,-0.7132 2.3098,-1.0792 0.29029,-0.2524 0.54273,-0.8646 0.75732,-1.8365 0.0505,-0.3787 -2e-5,-0.8015 -0.15146,-1.2685 -0.18935,-0.3155 -0.3913,-0.5806 -0.60586,-0.7952 l -0.64371,-0.4922 -0.71945,-0.3219 c -4.00115,-1.2496 -6.20368,-1.9816 -6.60757,-2.1962 -1.85542,-0.7447 -3.23752,-1.9753 -4.1463,-3.6919 -0.59323,-1.1486 -0.85829,-2.5433 -0.79518,-4.1842 0.23982,-2.0447 1.07917,-3.6666 2.51807,-4.8657 1.6156,-1.1738 3.30063,-1.8112 5.05508,-1.9122 l 0.49225,0 c 1.24956,0 2.28456,0.095 3.10499,0.2839 1.66608,0.4671 2.96613,1.1171 3.90017,1.9501 0.934,0.77 1.70394,1.8176 2.30981,3.1429 l -0.0568,0.2082 -3.90017,1.8744 -0.18933,-0.095 c -0.23983,-0.7699 -0.9151,-1.3947 -2.02581,-1.8743 -1.24958,-0.467 -2.71372,-0.4796 -4.39243,-0.038 -0.71945,0.2399 -1.22433,0.5491 -1.51463,0.9277 -0.10098,0.101 -0.23351,0.4166 -0.39759,0.9467 -0.0253,0.6185 0,0.9782 0.0757,1.0791 0.16407,0.4292 0.49224,0.8142 0.98451,1.155 l 0.49225,0.2082 c 3.58461,1.0603 6.01432,1.8302 7.28915,2.3098 1.09809,0.5049 1.93745,1.0603 2.51807,1.6661 l 1.06024,1.4389 c 0.78254,1.3001 1.19906,2.72 1.24957,4.2599 0.0126,0.101 0.0189,0.2209 0.0189,0.3597 -2e-5,0.4923 -0.0758,1.1549 -0.22719,1.988 -0.31557,1.1738 -0.69423,2.0384 -1.13597,2.5938 -0.75734,0.934 -1.30639,1.4957 -1.64716,1.685 -1.85544,1.2748 -3.76765,1.9627 -5.73666,2.0637 l -1.72289,0 c -1.28744,-0.1262 -2.37292,-0.3787 -3.25645,-0.7573 -1.41366,-0.6564 -2.55594,-1.3884 -3.42685,-2.1962 -0.71945,-0.6564 -1.34423,-1.5967 -1.87435,-2.821 z" />
          </g>
        </g>
        <g
           id="g3835"
           transform="translate(0.72170373,905.10584)">
          <g
             id="g3845"
             transform="translate(-109.77671,-10.683761)">
            <g
               id="g3855"
               transform="translate(109.54112,10.878566)">
              <g
                 transform="translate(24.145299,-39.579501)"
                 id="g3829">
                <path
                   inkscape:connector-curvature="0"
                   id="path3023-4"
                   d="m 30.76923,93.444443 c 0,4.720382 -3.826626,8.547007 -8.547009,8.547007 -4.720382,0 -8.547008,-3.826625 -8.547008,-8.547007 0,-4.720383 3.826626,-8.547009 8.547008,-8.547009 4.720383,0 8.547009,3.826626 8.547009,8.547009 z"
                   style="fill:#000000;stroke:none"
                   transform="matrix(2.875,0,0,2.875,-7.9059797,-145.72115)" />
                <path
                   inkscape:connector-curvature="0"
                   id="path3023-9"
                   d="m 30.76923,93.444443 c 0,4.720382 -3.826626,8.547007 -8.547009,8.547007 -4.720382,0 -8.547008,-3.826625 -8.547008,-8.547007 0,-4.720383 3.826626,-8.547009 8.547008,-8.547009 4.720383,0 8.547009,3.826626 8.547009,8.547009 z"
                   style="fill:#ffffff;stroke:none"
                   transform="matrix(1.2625,0,0,1.2625,27.927352,4.9580139)" />
              </g>
              <path
                 inkscape:connector-curvature="0"
                 id="path3023-8"
                 d="m 30.76923,93.444443 c 0,4.720382 -3.826626,8.547007 -8.547009,8.547007 -4.720382,0 -8.547008,-3.826625 -8.547008,-8.547007 0,-4.720383 3.826626,-8.547009 8.547008,-8.547009 4.720383,0 8.547009,3.826626 8.547009,8.547009 z"
                 style="fill:#000000;stroke:none"
                 transform="matrix(0.575,0,0,0.575,56.025641,-9.324572)" />
              <path
                 sodipodi:nodetypes="ccccccccccccccccccccc"
                 inkscape:connector-curvature="0"
                 id="path3825"
                 d="m 9.4017094,81.478632 0,-19.017094 C 9.2414529,60.30698 10.292023,59.25641 12.553419,59.309829 l 42.788461,0 c 0.466619,1.027043 1.068609,1.512605 1.736112,1.736111 3.646258,-2.454199 6.293834,-8.263113 10.2297,-9.80235 l 0,-2.154831 3.685898,0 0,2.158627 c 1.256239,0.248165 1.98399,0.125632 2.411594,1.199975 l 0.01889,8.633532 C 68.36886,59.992782 60.903762,82.020165 56.308901,77.290357 55.471461,76.620849 53.494433,75.969989 51.92308,77.222635 l 0,3.508135 -25.053419,0 0,2.121352 -6.730771,0 0,-2.121352 -10.2029895,0 0,0.761218 C 9.7663656,81.879952 9.595907,82.22529 9.4017094,81.478632 z"
                 style="fill:#000000;stroke:#000000;stroke-width:1px;stroke-linecap:butt;stroke-linejoin:miter;stroke-opacity:1" />
              <path
                 inkscape:connector-curvature="0"
                 id="path3023"
                 d="m 30.76923,93.444443 c 0,4.720382 -3.826626,8.547007 -8.547009,8.547007 -4.720382,0 -8.547008,-3.826625 -8.547008,-8.547007 0,-4.720383 3.826626,-8.547009 8.547008,-8.547009 4.720383,0 8.547009,3.826626 8.547009,8.547009 z"
                 style="fill:#000000;stroke:none"
                 transform="matrix(1.3,0,0,1.3,-5.3846152,-28.033333)" />
              <path
                 inkscape:connector-curvature="0"
                 id="path3827"
                 d="m 58.3212,63.520158 5.344851,-5.344851 1.163069,2.014494 0,2.574901 -2.120776,2.120776 -2.007457,0 z"
                 style="fill:#ffffff;stroke:#000000;stroke-width:1px;stroke-linecap:butt;stroke-linejoin:miter;stroke-opacity:1" />
              <path
                 sodipodi:nodetypes="ccccccc"
                 inkscape:connector-curvature="0"
                 id="path3833"
                 d="m 103.90825,77.13768 1.25122,0 0,-7.007283 c 0.082,-0.849354 3.94492,-0.482792 4.11724,0 l 0,9.632064 -4.83617,0 c -0.3355,-1.981436 -0.39532,-2.033097 -0.53229,-2.624781 z"
                 style="fill:#000000;stroke:#000000;stroke-width:1px;stroke-linecap:butt;stroke-linejoin:miter;stroke-opacity:1" />
            </g>
          </g>
        </g>
      </g>
    </g>
  </g>
</svg>
