<?xml version="1.0" encoding="UTF-8" standalone="no"?>
<!-- Generator: Adobe Illustrator 15.0.0, SVG Export Plug-In  -->

<svg
   version="1.1"
   x="0px"
   y="0px"
   width="564px"
   height="278px"
   viewBox="0 0 564 278"
   enable-background="new 0 0 564 278"
   xml:space="preserve"
   id="svg4006"
   sodipodi:docname="France_road_sign_M11c2.svg"
   inkscape:version="1.2.2 (732a01da63, 2022-12-09)"
   xmlns:inkscape="http://www.inkscape.org/namespaces/inkscape"
   xmlns:sodipodi="http://sodipodi.sourceforge.net/DTD/sodipodi-0.dtd"
   xmlns="http://www.w3.org/2000/svg"
   xmlns:svg="http://www.w3.org/2000/svg"><sodipodi:namedview
   id="namedview4008"
   pagecolor="#ffffff"
   bordercolor="#000000"
   borderopacity="0.25"
   inkscape:showpageshadow="2"
   inkscape:pageopacity="0.0"
   inkscape:pagecheckerboard="0"
   inkscape:deskcolor="#d1d1d1"
   showgrid="false"
   inkscape:zoom="1.6173187"
   inkscape:cx="394.78923"
   inkscape:cy="169.72536"
   inkscape:window-width="1920"
   inkscape:window-height="991"
   inkscape:window-x="-9"
   inkscape:window-y="-9"
   inkscape:window-maximized="1"
   inkscape:current-layer="svg4006" />
<defs
   id="defs3984">
</defs>
<path
   fill="#FFFFFF"
   stroke="#000000"
   stroke-width="2"
   d="M563,265c0,6.627-7.988,12-17.841,12H18.841C8.988,277,1,271.627,1,265  V13C1,6.373,8.988,1,18.841,1h526.318C555.012,1,563,6.373,563,13V265z"
   id="path3986" />
<path
   d="M60.184,63.604h45.355c10.229,0,18.025,0.957,23.392,2.868c7.21,2.595,13.385,7.203,18.528,13.824  c5.142,6.623,9.054,14.73,11.737,24.321c2.683,9.592,4.023,21.42,4.023,35.482c0,12.357-1.257,23.007-3.772,31.95  c-3.074,10.924-7.462,19.764-13.162,26.522c-4.305,5.12-10.117,9.114-17.438,11.981c-5.479,2.117-12.8,3.174-21.966,3.174H60.184  V63.604z M85,89v99.434h18.527c6.93,0,11.933-0.477,15.007-1.434c4.024-1.229,7.363-3.311,10.019-6.247  c2.654-2.935,4.821-7.765,6.498-14.49c1.677-6.723,2.515-15.889,2.515-27.495c0-11.605-0.838-20.514-2.515-26.727  c-1.677-6.211-4.024-11.06-7.043-14.542c-3.018-3.481-6.847-5.837-11.485-7.066C113.057,89.479,106.266,89,96.15,89H85z"
   id="path3988" />








<g
   id="g4331"
   transform="translate(17.196478)"
   style="fill:#000000"><path
     d="m 327.27332,84.331521 q 4.455,0.525939 7.54875,3.557812 3.12468,3.031874 4.51687,7.177496 0.64969,1.825312 0.95906,4.795311 v 13.92187 q -0.46406,7.05374 -4.455,11.38499 -3.95999,4.33125 -9.65249,4.60969 h -17.94374 l 0.0309,-45.447169 z m -10.14749,36.506229 h 7.23937 q 2.19656,-0.34031 3.74343,-1.60874 1.54688,-1.29938 2.62969,-4.51688 0.58781,-1.98 0.34031,-14.41686 -1.45406,-6.435002 -6.71343,-7.394064 h -7.23937 z"
     id="path2111"
     style="font-weight:bold;font-size:37.5px;line-height:1.5;font-family:'Caracteres L1';-inkscape-font-specification:'Caracteres L1 Bold';fill:#000000;fill-rule:evenodd;stroke-width:0.8448;stroke-linecap:round;paint-order:stroke fill markers" /><path
     d="m 386.62597,84.517148 v 8.291245 h -18.74811 v 9.899997 h 13.73624 v 8.38406 h -13.73624 v 10.36406 h 19.55248 v 8.38405 h -28.27686 l 0.0309,-45.323412 z"
     id="path2113"
     style="font-weight:bold;font-size:37.5px;line-height:1.5;font-family:'Caracteres L1';-inkscape-font-specification:'Caracteres L1 Bold';fill:#000000;fill-rule:evenodd;stroke-width:0.8448;stroke-linecap:round;paint-order:stroke fill markers" /></g><g
   id="g4327"
   style="fill:#000000"
   transform="translate(12)"><path
     d="m 341.06564,156.02743 10.64649,41.26234 h -8.08345 l -1.77444,-7.0132 h -11.40698 l -1.80259,7.0132 h -8.16796 l 10.53386,-41.26234 z m -9.06928,26.391 h 8.1398 l -3.94317,-16.11062 z m 6.87234,-36.6432 3.6897,8.56228 h -8.9566 l -4.50648,-8.56228 z"
     id="path2119"
     style="font-weight:bold;font-size:37.5px;line-height:1.5;font-family:'Caracteres L1';-inkscape-font-specification:'Caracteres L1 Bold';fill:#000000;fill-rule:evenodd;stroke-width:0.769104;stroke-linecap:round;paint-order:stroke fill markers" /><g
     aria-label="20"
     id="text4216"
     style="font-weight:bold;font-size:58.5065px;line-height:1.5;font-family:'Caracteres L1';-inkscape-font-specification:'Caracteres L1 Bold';fill-rule:evenodd;stroke-width:0.780087;stroke-linecap:round;paint-order:stroke fill markers"><path
       d="m 389.10604,155.88888 q 2.8282,0.45708 6.25631,2.88533 1.02844,0.82846 2.25685,2.59965 l 0.99986,1.82833 0.37138,0.8856 -0.0857,0.0857 q 0.71419,1.9426 0.71419,3.71379 -0.17141,3.42812 -0.62849,4.42799 -0.77132,2.05686 -1.37124,2.94246 l -0.65706,0.94273 -1.45695,1.59979 -11.9127,11.85557 h 16.65493 v 8.17034 H 372.1083 l 0.0286,-8.25605 17.56909,-17.74049 q 0.82846,-0.99987 1.17128,-1.82833 0.88559,-2.88533 -0.82847,-4.8565 -1.57122,-1.51408 -4.42798,-1.51408 l -1.68549,0.22854 -0.77132,0.37138 -0.48565,0.0286 -1.05701,0.82847 -0.59992,0.71419 q -0.57135,1.02843 -0.77132,1.59978 l -0.17141,0.99987 q -0.11427,0.31424 -0.14284,0.22854 l -7.71326,0.0286 -0.0571,-0.19997 0.0571,-1.39982 0.11428,-0.1714 q 0.11427,-1.79976 1.17127,-4.02804 l 1.31411,-2.19971 1.057,-1.17127 0.17141,-0.0571 q 3.02817,-2.71393 6.74196,-3.37098 2.17114,-0.37138 3.94233,-0.37138 1.31411,0 2.37111,0.19997 z"
       id="path4333" /><path
       d="m 418.75924,189.94149 q 1.77119,0.11427 2.19971,-0.0571 l 0.0286,0.0571 1.57122,-0.34281 q 1.88547,-0.62849 2.88533,-2.71392 0.77133,-2.08544 1.14271,-4.97077 l 0.14284,-6.45629 -0.0857,-3.02816 -0.28567,-2.25685 -0.11427,-0.11427 -0.37138,-1.59978 -0.11427,-0.0571 q -0.42852,-1.71406 -1.62836,-3.17101 -0.91416,-0.74275 -1.45695,-0.9713 l -1.65692,-0.39994 -1.74262,-0.0857 q -1.17128,-0.0286 -2.59966,0.48564 -1.31411,0.62849 -2.19971,2.25685 -0.62848,1.51408 -1.1427,3.79949 l 0.0571,0.17141 q -0.1714,0.14284 -0.19997,0.94273 -0.39995,3.34241 -0.0857,9.7987 l 0.45708,3.11387 0.59992,2.1997 q 0.65706,1.71406 1.79976,2.48539 1.02844,0.65705 2.79963,0.91416 z m -14.22668,-8.62742 q -0.0857,-1.59979 -0.0857,-3.14244 0,-0.77133 0.0286,-1.54265 0.0857,-3.02817 0.48565,-5.88493 v -0.19998 l 0.11427,-0.25711 0.19998,-1.97116 0.14284,-0.28568 0.28567,-1.59979 0.11427,-0.1714 q 0.42852,-2.05687 1.8569,-4.62796 l 0.82846,-1.25697 1.59979,-1.62836 q 2.54252,-2.05687 6.59912,-2.94246 1.28554,-0.22854 2.65679,-0.22854 h 0.22854 q 2.14257,0.0571 4.48512,0.71419 0.9713,0.11427 3.11387,1.28554 2.19971,1.37125 3.99947,3.74236 l 0.91416,1.39981 0.74276,1.57122 0.31424,1.14271 0.0857,0.0857 v 0.28568 q 0.28567,0.59992 0.34281,0.94273 l 0.11427,0.14284 0.48565,2.54252 0.0857,0.0571 -0.0571,0.37138 0.11428,0.22854 0.28567,3.05674 0.11427,0.28567 -0.0857,0.0286 0.19997,1.79976 -0.0571,0.0571 q 0.11427,0.28567 0,0.34281 l 0.0857,0.28567 -0.0571,0.0857 0.14284,1.9426 -0.0571,0.0571 0.0857,0.82846 -0.0286,0.0571 v 1.1427 q -0.0286,1.057 -0.1714,2.54252 l -0.14284,1.057 0.0571,0.0571 -0.14283,0.28568 q -0.0857,1.057 -0.48565,2.51395 l -0.17141,0.54278 -0.0286,0.31425 -0.74276,2.114 -0.14283,0.11427 q 0,0.28568 -0.74276,1.74263 l -1.37125,1.97116 q -2.25684,2.59966 -4.99933,3.7995 -1.79976,0.71419 -3.62809,0.94273 l -2.19971,0.14284 -0.51422,-0.0286 q -6.51341,-0.17141 -10.51288,-4.22801 -1.97117,-2.19971 -2.97104,-5.11361 -1.1427,-2.97103 -1.39981,-6.25631 z"
       id="path4335" /></g><path
     style="fill:#000000;fill-rule:evenodd;stroke-width:1.76412;stroke-linecap:round;paint-order:stroke fill markers"
     d="m 282.01152,166.49366 v 30.8806 h 3.05966 2.16485 v -12.65187 c 0,-2.70786 1.71814,-4.88736 3.85056,-4.88736 2.13247,0 3.84804,2.1795 3.84804,4.88736 v 12.65187 h 5.14591 v -14.83192 c 0,-4.37384 -3.34809,-7.89633 -7.50593,-7.89633 -2.09411,0 -3.98023,0.89399 -5.33858,2.33974 v -10.49209 z"
     id="rect1945-6" /><path
     style="fill:#000000;fill-rule:evenodd;stroke-width:1.76412;stroke-linecap:round;paint-order:stroke fill markers"
     d="m 455.38181,166.49366 v 30.8806 h 3.05965 2.16485 v -12.65187 c 0,-2.70786 1.71814,-4.88736 3.85058,-4.88736 2.13246,0 3.84805,2.1795 3.84805,4.88736 v 12.65187 h 5.14591 v -14.83192 c 0,-4.37384 -3.3481,-7.89633 -7.50595,-7.89633 -2.09409,0 -3.98023,0.89399 -5.33859,2.33974 v -10.49209 z"
     id="path2157" /><g
     aria-label="6"
     id="text4212"
     style="font-weight:bold;font-size:58.5065px;line-height:1.5;font-family:'Caracteres L1';-inkscape-font-specification:'Caracteres L1 Bold';fill-rule:evenodd;stroke-width:0.780087;stroke-linecap:round;paint-order:stroke fill markers"><path
       d="m 250.55969,155.91745 q 8.59885,1.28554 11.05567,9.68442 l -7.97037,2.19971 q -1.14271,-3.14244 -4.19944,-3.54239 -5.25644,-0.65705 -6.85623,2.45682 -1.057,1.71406 -1.65692,8.57029 5.9992,-4.17087 12.99827,-1.54265 5.57068,2.42825 7.1419,7.9418 0.31425,1.65692 0.31425,3.19957 0,4.59939 -2.79963,8.11321 -3.31385,4.1423 -9.25591,4.65652 -1.08557,0.0857 -2.11401,0.0857 -13.45535,0 -14.48378,-15.99787 -0.11427,-2.114 -0.11427,-4.0566 0,-6.25631 1.08557,-10.77 1.45695,-5.94206 5.85636,-8.88453 3.42812,-2.31398 8.19891,-2.31398 1.37124,0 2.79963,0.19998 z m -4.08517,34.19545 q 6.02776,0.25711 6.85623,-4.17088 0.22854,-4.79936 -4.97077,-5.39928 -6.11347,-0.22854 -6.82766,4.45655 0.0571,4.62796 4.9422,5.11361 z"
       id="path4338" /></g></g></svg>
