<?xml version="1.0" encoding="UTF-8" standalone="no"?>
<!-- Created with Inkscape (http://www.inkscape.org/) -->

<svg
   xmlns:dc="http://purl.org/dc/elements/1.1/"
   xmlns:cc="http://creativecommons.org/ns#"
   xmlns:rdf="http://www.w3.org/1999/02/22-rdf-syntax-ns#"
   xmlns:svg="http://www.w3.org/2000/svg"
   xmlns="http://www.w3.org/2000/svg"
   xmlns:sodipodi="http://sodipodi.sourceforge.net/DTD/sodipodi-0.dtd"
   xmlns:inkscape="http://www.inkscape.org/namespaces/inkscape"
   width="430"
   height="366"
   id="svg3864"
   version="1.1"
   inkscape:version="0.91 r13725"
   sodipodi:docname="France_road_sign_M4r.svg">
  <defs
     id="defs3866" />
  <sodipodi:namedview
     id="base"
     pagecolor="#ffffff"
     bordercolor="#666666"
     borderopacity="1.0"
     inkscape:pageopacity="0.0"
     inkscape:pageshadow="2"
     inkscape:zoom="0.6871719"
     inkscape:cx="106.2552"
     inkscape:cy="290.69085"
     inkscape:document-units="px"
     inkscape:current-layer="layer1"
     showgrid="false"
     inkscape:snap-bbox="true"
     inkscape:bbox-paths="true"
     inkscape:bbox-nodes="true"
     inkscape:snap-bbox-edge-midpoints="true"
     inkscape:snap-bbox-midpoints="true"
     inkscape:object-paths="true"
     inkscape:snap-intersection-paths="true"
     inkscape:object-nodes="true"
     inkscape:snap-smooth-nodes="true"
     inkscape:snap-midpoints="true"
     inkscape:snap-object-midpoints="true"
     inkscape:snap-center="true"
     inkscape:snap-page="true"
     showguides="true"
     inkscape:guide-bbox="true"
     inkscape:window-width="1440"
     inkscape:window-height="788"
     inkscape:window-x="0"
     inkscape:window-y="1"
     inkscape:window-maximized="1" />
  <metadata
     id="metadata3869">
    <rdf:RDF>
      <cc:Work
         rdf:about="">
        <dc:format>image/svg+xml</dc:format>
        <dc:type
           rdf:resource="http://purl.org/dc/dcmitype/StillImage" />
        <dc:title />
      </cc:Work>
    </rdf:RDF>
  </metadata>
  <g
     inkscape:label="Calque 1"
     inkscape:groupmode="layer"
     id="layer1"
     transform="translate(0,-686.36219)">
    <rect
       style="fill:#ffffff;stroke:#000000;stroke-width:2.209692;stroke-miterlimit:4;stroke-dasharray:none;stroke-opacity:1"
       id="rect2995"
       width="427.79013"
       height="363.79031"
       x="1.1049371"
       y="687.46704"
       ry="64.742134" />
    <g
       id="g4330"
       transform="matrix(1.2463063,0,0,1.2463063,820.21635,196.00317)">
      <path
         id="path4284"
         d="m -364.27403,600.15424 0,-42.17 -37.333,0 0,44.334 -59.542,0 c -3.587,-9.723 -13.032,-16.667 -24.124,-16.667 -11.092,0 -20.538,6.944 -24.125,16.667 l -60.209,0 0,-44.334 -37.333,0 0,42.17 c -4.913,0.927 -8.667,5.863 -8.667,11.83 0,5.967 3.754,10.902 8.667,11.83 l 0,40.837 37.333,0 0,-43.667 60.746,0 c 3.931,9.018 13.011,15.333 23.587,15.333 10.575,0 19.655,-6.316 23.584,-15.333 l 60.081,0 0,43.667 37.333,0 0,-40.837 c 4.913,-0.928 8.667,-5.863 8.667,-11.83 0,-5.967 -3.751,-10.903 -8.665,-11.83 z"
         inkscape:connector-curvature="0" />
      <path
         inkscape:connector-curvature="0"
         d="m -528.87003,416.49824 c 5.479,0.886 11.538,3.681 18.179,8.384 1.992,1.605 4.178,4.123 6.558,7.554 l 2.905,5.313 1.079,2.573 -0.249,0.249 c 1.383,3.764 2.075,7.36 2.075,10.791 -0.332,6.641 -0.941,10.93 -1.826,12.866 -1.494,3.984 -2.822,6.835 -3.984,8.55 l -1.909,2.739 -4.233,4.648 -34.614,34.448 48.392,0 0,23.74 -81.763,0 0.083,-23.989 51.05,-51.548 c 1.604,-1.937 2.739,-3.707 3.403,-5.313 1.715,-5.589 0.913,-10.293 -2.407,-14.111 -3.044,-2.933 -7.333,-4.399 -12.866,-4.399 l -4.897,0.664 -2.241,1.079 -1.411,0.083 -3.071,2.407 -1.743,2.075 c -1.107,1.992 -1.854,3.542 -2.241,4.648 l -0.498,2.905 c -0.222,0.609 -0.36,0.83 -0.415,0.664 l -22.412,0.083 -0.166,-0.581 0.166,-4.067 0.332,-0.498 c 0.221,-3.486 1.355,-7.388 3.403,-11.704 l 3.818,-6.392 3.071,-3.403 0.498,-0.166 c 5.865,-5.257 12.396,-8.521 19.59,-9.795 4.205,-0.719 8.023,-1.079 11.455,-1.079 2.544,10e-4 4.841,0.196 6.889,0.582 z"
         id="path4290" />
      <path
         inkscape:connector-curvature="0"
         d="m -450.38703,436.64024 21.58,-5.607 0,20.136 16.228,0 0,20.221 -16.228,0 0,44.435 c 0.51,4.532 3.257,6.826 8.241,6.882 3.398,-0.17 6.598,-1.217 9.601,-3.144 l 6.117,17.842 c -5.042,2.663 -11.017,4.163 -17.927,4.503 l -0.34,0 c -8.156,0 -14.67,-2.152 -19.541,-6.457 -4.532,-3.964 -7.137,-10.648 -7.816,-20.051 l 0,-44.01 -10.875,0 -0.085,-20.561 11.13,0 -0.085,-14.189 z"
         id="path4296" />
    </g>
  </g>
</svg>
