<?xml version="1.0" encoding="UTF-8" standalone="no"?>
<!-- Created with Inkscape (http://www.inkscape.org/) -->

<svg
   xmlns:dc="http://purl.org/dc/elements/1.1/"
   xmlns:cc="http://creativecommons.org/ns#"
   xmlns:rdf="http://www.w3.org/1999/02/22-rdf-syntax-ns#"
   xmlns:svg="http://www.w3.org/2000/svg"
   xmlns="http://www.w3.org/2000/svg"
   xmlns:sodipodi="http://sodipodi.sourceforge.net/DTD/sodipodi-0.dtd"
   xmlns:inkscape="http://www.inkscape.org/namespaces/inkscape"
   width="430"
   height="175"
   id="svg3864"
   version="1.1"
   inkscape:version="0.91 r13725"
   sodipodi:docname="France_road_sign_M4t.svg">
  <defs
     id="defs3866" />
  <sodipodi:namedview
     id="base"
     pagecolor="#ffffff"
     bordercolor="#666666"
     borderopacity="1.0"
     inkscape:pageopacity="0.0"
     inkscape:pageshadow="2"
     inkscape:zoom="0.57252121"
     inkscape:cx="537.42984"
     inkscape:cy="94.356948"
     inkscape:document-units="px"
     inkscape:current-layer="layer1"
     showgrid="false"
     inkscape:snap-bbox="true"
     inkscape:bbox-paths="true"
     inkscape:bbox-nodes="true"
     inkscape:snap-bbox-edge-midpoints="true"
     inkscape:snap-bbox-midpoints="true"
     inkscape:object-paths="true"
     inkscape:snap-intersection-paths="true"
     inkscape:object-nodes="true"
     inkscape:snap-smooth-nodes="true"
     inkscape:snap-midpoints="true"
     inkscape:snap-object-midpoints="true"
     inkscape:snap-center="true"
     inkscape:snap-page="true"
     showguides="true"
     inkscape:guide-bbox="true"
     inkscape:window-width="1440"
     inkscape:window-height="788"
     inkscape:window-x="0"
     inkscape:window-y="1"
     inkscape:window-maximized="1" />
  <metadata
     id="metadata3869">
    <rdf:RDF>
      <cc:Work
         rdf:about="">
        <dc:format>image/svg+xml</dc:format>
        <dc:type
           rdf:resource="http://purl.org/dc/dcmitype/StillImage" />
        <dc:title />
      </cc:Work>
    </rdf:RDF>
  </metadata>
  <g
     inkscape:label="Calque 1"
     inkscape:groupmode="layer"
     id="layer1"
     transform="translate(0,-877.36219)">
    <rect
       style="fill:#ffffff;stroke:#000000;stroke-width:1.52710247;stroke-miterlimit:4;stroke-dasharray:none;stroke-opacity:1"
       id="rect2995"
       width="428.47272"
       height="173.4729"
       x="0.76364231"
       y="878.12573"
       ry="30.872192" />
    <path
       inkscape:connector-curvature="0"
       id="circle4269"
       d="m 256.24792,887.36221 c -7.13395,1.2e-4 -12.91714,5.7833 -12.91726,12.91726 1.2e-4,7.13395 5.78331,12.91713 12.91726,12.91725 0.48679,-0.005 0.97291,-0.0375 1.45604,-0.0974 l 3.13254,4.87697 -26.11648,39.60923 -40.18088,6.28045 a 44.544024,44.544024 0 0 0 -31.04985,-12.60705 44.544024,44.544024 0 0 0 -39.2747,23.60043 l -29.624578,4.6309 1.68163,10.7537 23.701708,-3.7055 a 44.544024,44.544024 0 0 0 -1.02795,9.26561 44.544024,44.544024 0 0 0 44.54389,44.54384 44.544024,44.544024 0 0 0 44.54388,-44.54384 44.544024,44.544024 0 0 0 -5.93184,-22.13671 l 40.38212,-6.36891 18.10183,-26.79963 19.01956,28.27748 -19.51943,28.0288 0.60369,32.56231 c -5.53685,-0.1219 -6.79652,3.8313 -6.62781,6.2151 0.23178,3.2748 2.31443,6.5149 7.34943,6.5176 l 15.19103,0 -0.24994,-39.54 13.51326,-21.27032 c 2.06374,-2.91308 4.62007,-2.77864 5.53579,1.28044 l 3.22226,21.24078 16.95854,26.4844 c -4.92341,4.1417 -4.06556,6.9012 -2.93644,8.8324 1.27443,2.1796 4.69897,5.3615 11.25357,1.2201 l 11.5112,-7.257 -21.27156,-34.28375 -6.25611,-33.40824 c -0.9822,-6.33958 -2.37101,-10.55312 -5.00515,-14.13999 l -21.52149,-34.53359 c -3.41202,-3.92215 -9.15701,-3.96185 -12.99928,-2.38402 l -2.9672,-4.94619 c 2.41526,-2.4192 3.77308,-5.69716 3.77597,-9.11564 -1.2e-4,-7.13396 -5.7833,-12.91714 -12.91725,-12.91726 z m -92.75863,72.15487 a 36.285863,36.285863 0 0 1 20.05006,6.06768 l -22.41486,3.50423 -1.33684,-9.34377 a 36.285863,36.285863 0 0 1 3.70164,-0.22814 z m -7.89288,0.91515 1.33171,9.31305 -21.73554,3.39785 a 36.285863,36.285863 0 0 1 20.40383,-12.7109 z m 37.61999,14.63602 a 36.285863,36.285863 0 0 1 5.84852,13.75166 l -17.62119,2.51988 a 18.518302,18.518302 0 0 0 -6.13691,-9.78596 l 3.64907,-4.23614 14.26051,-2.24944 z m -51.81128,8.11979 5.72035,3.97076 a 18.518302,18.518302 0 0 0 -2.15458,8.64525 18.518302,18.518302 0 0 0 0.0269,0.74853 l -17.61863,2.51988 a 36.285863,36.285863 0 0 1 -0.1756,-3.26841 36.285863,36.285863 0 0 1 1.60088,-10.64605 l 12.60066,-1.96996 z m 58.25452,9.83725 a 36.285863,36.285863 0 0 1 0.11664,2.77876 36.285863,36.285863 0 0 1 -6.57014,20.79345 l -14.35535,-10.4614 a 18.518302,18.518302 0 0 0 3.1569,-10.33205 18.518302,18.518302 0 0 0 -0.009,-0.2525 l 17.66092,-2.52626 z m -54.01457,7.72491 a 18.518302,18.518302 0 0 0 4.72189,8.1057 l -10.89084,14.1079 a 36.285863,36.285863 0 0 1 -11.45224,-19.6937 l 17.62119,-2.5199 z m 30.53844,8.5197 14.46943,10.5435 a 36.285863,36.285863 0 0 1 -20.60634,11.6611 l -2.51987,-17.6224 a 18.518302,18.518302 0 0 0 8.65678,-4.5822 z m -22.61223,2.1482 a 18.518302,18.518302 0 0 0 9.73087,2.8954 l 2.53142,17.693 a 36.285863,36.285863 0 0 1 -2.34428,0.083 36.285863,36.285863 0 0 1 -20.79988,-6.5753 l 10.88187,-14.0964 z"
       style="opacity:1;fill:#000000;fill-opacity:1;fill-rule:evenodd;stroke:none;stroke-width:0.30000001;stroke-linecap:round;stroke-linejoin:round;stroke-miterlimit:4;stroke-dasharray:none;stroke-dashoffset:0;stroke-opacity:1" />
  </g>
</svg>
