<?xml version="1.0" encoding="UTF-8" standalone="no"?>
<!-- Generator: Adobe Illustrator 15.0.0, SVG Export Plug-In  -->

<svg
   xmlns:dc="http://purl.org/dc/elements/1.1/"
   xmlns:cc="http://creativecommons.org/ns#"
   xmlns:rdf="http://www.w3.org/1999/02/22-rdf-syntax-ns#"
   xmlns:svg="http://www.w3.org/2000/svg"
   xmlns="http://www.w3.org/2000/svg"
   xmlns:xlink="http://www.w3.org/1999/xlink"
   xmlns:sodipodi="http://sodipodi.sourceforge.net/DTD/sodipodi-0.dtd"
   xmlns:inkscape="http://www.inkscape.org/namespaces/inkscape"
   version="1.1"
   x="0px"
   y="0px"
   width="576px"
   height="576px"
   viewBox="-0.031 -0.031 576 576"
   enable-background="new -0.031 -0.031 576 576"
   xml:space="preserve"
   id="svg2"
   inkscape:version="0.91 r13725"
   sodipodi:docname="France_road_sign_CE51.svg"><metadata
     id="metadata28"><rdf:RDF><cc:Work
         rdf:about=""><dc:format>image/svg+xml</dc:format><dc:type
           rdf:resource="http://purl.org/dc/dcmitype/StillImage" /></cc:Work></rdf:RDF></metadata><sodipodi:namedview
     pagecolor="#ffffff"
     bordercolor="#666666"
     borderopacity="1"
     objecttolerance="10"
     gridtolerance="10"
     guidetolerance="10"
     inkscape:pageopacity="0"
     inkscape:pageshadow="2"
     inkscape:window-width="1440"
     inkscape:window-height="788"
     id="namedview26"
     showgrid="false"
     inkscape:zoom="0.80940231"
     inkscape:cx="498.57251"
     inkscape:cy="245.49075"
     inkscape:window-x="0"
     inkscape:window-y="1"
     inkscape:window-maximized="1"
     inkscape:current-layer="svg2" /><defs
     id="defs4"><linearGradient
       inkscape:collect="always"
       id="linearGradient4234"><stop
         style="stop-color:#0e9f49;stop-opacity:1"
         offset="0"
         id="stop4236" /><stop
         style="stop-color:#6cbe52;stop-opacity:1"
         offset="1"
         id="stop4238" /></linearGradient><linearGradient
       inkscape:collect="always"
       xlink:href="#linearGradient4234"
       id="linearGradient4242"
       x1="394.17169"
       y1="357.19739"
       x2="335.47049"
       y2="195.03288"
       gradientUnits="userSpaceOnUse"
       gradientTransform="translate(-0.031,-0.031)" /></defs><path
     d="M41.996,574.938h491.947  c10.872,0,21.3-4.318,28.988-12.007c7.688-7.688,12.007-18.115,12.007-28.988V41.996c0-10.873-4.319-21.3-12.007-28.988  C555.242,5.319,544.814,1,533.942,1H41.996c-10.873,0-21.3,4.319-28.988,12.007C5.319,20.695,1,31.123,1,41.996v491.947  c0,10.873,4.319,21.3,12.007,28.988C20.695,570.619,31.123,574.938,41.996,574.938z"
     id="path6"
     stroke-linejoin="round"
     stroke-linecap="round"
     stroke-width="2"
     stroke="#000000"
     fill="#FFFFFF" /><polygon
     points="  37.076,538.862 538.862,538.862 538.862,538.862 538.862,37.076 538.862,37.076 37.076,37.076 37.076,37.076 "
     id="polygon8"
     stroke-linejoin="round"
     stroke-linecap="round"
     stroke-width="0.1764"
     stroke="#0000FF"
     fill="#0000FF" /><rect
     style="fill:#ffffff;stroke:#0000ff;stroke-width:0.17640001;stroke-linecap:round;stroke-linejoin:round"
     x="89.262001"
     y="89.262001"
     width="397.414"
     height="397.414"
     id="rect10" /><g
     id="g4289"
     transform="translate(6.9603554,0)"><path
       id="path4217"
       d="m 422.42603,150.39869 c -10.87836,15.26048 -19.10412,28.27689 -25.14844,41.02734 l -11.70117,0 c 2.54328,-5.73525 5.35606,-11.47828 8.48438,-17.19141 4.1127,-7.51085 9.77678,-14.66482 15.66406,-21.78906 -5.14064,3.19091 -10.49763,6.02864 -15.58398,9.22656 -56.57815,35.57223 -89.5995,73.56189 -94.20118,119.49219 -3.6311,36.24272 7.35759,89.02036 63.45313,102.17188 21.97421,72.46079 36.32099,73.72357 51.98047,91.29297 -19.16957,-30.08786 -37.19884,-62.31464 -47.17578,-109.63868 0.0542,-0.0112 0.10604,-0.0239 0.16015,-0.0351 -3.71724,-23.60461 -6.30934,-50.79156 -4.82422,-78.92774 l 21.08399,0 c 2.33011,25.64915 7.22375,51.58452 10.77929,71.71875 31.23456,-10.57425 49.62412,-26.42566 55.56836,-48.32812 3.16645,-11.66724 2.87853,-24.33002 0.72266,-37.70313 -5.607,-34.78083 -26.43444,-51.58317 -28.27734,-107.64648 0.006,-4.72645 -0.62351,-9.19886 -0.98438,-13.66992 z m -38.30859,44.42578 11.59765,0 c -2.10954,4.74187 -3.91971,9.47394 -5.45507,14.29297 l -11.70508,0 c 1.67002,-4.73849 3.53042,-9.50993 5.5625,-14.29297 z m -7.23828,19.23437 11.91015,0 c -1.87123,6.77455 -3.23253,13.79007 -4.14062,21.31446 l -13.79688,0 c 1.65845,-6.95561 3.64605,-14.0831 6.02735,-21.31446 z m -7.42578,27.49024 14.55664,0 c -0.19167,2.23444 -0.34841,4.51537 -0.47071,6.85156 -0.52556,10.03984 -0.22401,20.67802 0.57227,31.44922 l -20.1836,0 c 0.36622,-4.93273 0.84977,-9.88646 1.49414,-14.85156 0.96483,-7.43432 2.28517,-15.3036 4.03126,-23.44922 z"
       style="fill:url(#linearGradient4242);fill-opacity:1;fill-rule:evenodd;stroke:none;stroke-width:1px;stroke-linecap:butt;stroke-linejoin:miter;stroke-opacity:1"
       inkscape:connector-curvature="0" /><g
       id="g4273"><path
         style="opacity:1;fill:#000000;fill-opacity:1;fill-rule:evenodd;stroke:none;stroke-width:2;stroke-linecap:round;stroke-linejoin:round;stroke-miterlimit:4;stroke-dasharray:none;stroke-dashoffset:0;stroke-opacity:1"
         d="m 197.05859,189.91211 c -7.52901,0 -13.58984,6.06083 -13.58984,13.58984 l 0,29.16602 -49.80469,0 -7.20312,55.33984 -1.67383,0 c -4.86759,0 -8.78516,3.91952 -8.78516,8.78711 l 0,45.08203 -7.27929,0 0,16.06055 16.06445,0 11.24219,0 a 42.499874,42.499874 0 0 1 -0.082,-2.32617 42.499874,42.499874 0 0 1 42.5,-42.5 42.499874,42.499874 0 0 1 42.5,42.5 42.499874,42.499874 0 0 1 -0.11719,2.32617 l 21.32422,0 64.10547,0 c -18.76021,-22.14561 -22.66864,-52.99119 -20.28907,-76.74219 3.38614,-33.79767 22.17889,-63.29232 54.4043,-90.6914 l 0,-0.5918 -143.31641,0 z m -53.08593,55.06641 39.49609,0 0,43.02929 -45.09766,0 5.60157,-43.02929 z"
         transform="translate(-0.031,-0.031)"
         id="rect4246"
         inkscape:connector-curvature="0" /><circle
         style="opacity:1;fill:#000000;fill-opacity:1;fill-rule:evenodd;stroke:none;stroke-width:2;stroke-linecap:round;stroke-linejoin:round;stroke-miterlimit:4;stroke-dasharray:none;stroke-dashoffset:0;stroke-opacity:1"
         id="path4248"
         cx="178.41551"
         cy="355.58044"
         r="36.821369" /></g></g></svg>