<?xml version="1.0" encoding="UTF-8" standalone="no"?>
<!-- Generator: Adobe Illustrator 13.0.0, SVG Export Plug-In  -->

<svg
   xmlns:dc="http://purl.org/dc/elements/1.1/"
   xmlns:cc="http://creativecommons.org/ns#"
   xmlns:rdf="http://www.w3.org/1999/02/22-rdf-syntax-ns#"
   xmlns:svg="http://www.w3.org/2000/svg"
   xmlns="http://www.w3.org/2000/svg"
   xmlns:sodipodi="http://sodipodi.sourceforge.net/DTD/sodipodi-0.dtd"
   xmlns:inkscape="http://www.inkscape.org/namespaces/inkscape"
   version="1.1"
   x="0px"
   y="0px"
   width="575.4375"
   height="575.4375"
   viewBox="-0.531 -0.531 575.4375 575.4375"
   enable-background="new -0.531 -0.531 576 576"
   xml:space="preserve"
   id="svg2"
   inkscape:version="0.48.1 "
   sodipodi:docname="AJAX.svg"><metadata
   id="metadata32"><rdf:RDF><cc:Work
       rdf:about=""><dc:format>image/svg+xml</dc:format><dc:type
         rdf:resource="http://purl.org/dc/dcmitype/StillImage" /></cc:Work></rdf:RDF></metadata><sodipodi:namedview
   pagecolor="#ffffff"
   bordercolor="#666666"
   borderopacity="1"
   objecttolerance="10"
   gridtolerance="10"
   guidetolerance="10"
   inkscape:pageopacity="0"
   inkscape:pageshadow="2"
   inkscape:window-width="1280"
   inkscape:window-height="1004"
   id="namedview30"
   showgrid="false"
   fit-margin-top="0"
   fit-margin-left="0"
   fit-margin-right="0"
   fit-margin-bottom="0"
   inkscape:zoom="1.1115723"
   inkscape:cx="258.54644"
   inkscape:cy="334.68188"
   inkscape:window-x="-8"
   inkscape:window-y="-8"
   inkscape:window-maximized="1"
   inkscape:current-layer="svg2" />
<defs
   id="defs4">
</defs>
<path
   d="m 41.21675,574.15875 h 491.947 c 10.872,0 21.3,-4.318 28.988,-12.007 7.688,-7.688 12.007,-18.115 12.007,-28.988 v -491.947 c 0,-10.873 -4.319,-21.3 -12.007,-28.988 -7.689,-7.689 -18.117,-12.008 -28.989,-12.008 h -491.946 c -10.873,0 -21.3,4.319 -28.988,12.007 -7.689,7.688 -12.008,18.116 -12.008,28.989 v 491.947 c 0,10.873 4.319,21.3 12.007,28.988 7.688,7.688 18.116,12.007 28.989,12.007 z"
   id="path6"
   style="fill:#ffffff;stroke:#000000;stroke-width:1.5;stroke-linecap:round;stroke-linejoin:round;stroke-miterlimit:4;stroke-dasharray:none"
   inkscape:connector-curvature="0" />
<path
   d="m 544.63975,529.44075 c 0,6.744 -5.468,12.214 -12.214,12.214 h -490.046 c -6.746,0 -12.214,-5.47 -12.214,-12.214 v -488.547 c 0,-6.746 5.468,-12.214 12.214,-12.214 h 490.046 c 6.746,0 12.214,5.469 12.214,12.214 v 488.547 z"
   id="path8"
   style="fill:#003399;fill-opacity:1;stroke:none"
   inkscape:connector-curvature="0" />
<polygon
   points="168.353,519.69 191.575,479.469 214.795,439.247 188.469,439.247 188.469,190.469 152.469,190.469 152.469,439.247 121.91,439.247 145.13,479.469 "
   id="polygon10"
   style="fill:#ffffff;stroke:none"
   transform="translate(-0.27925,-0.27925)" />
<polygon
   points="273.585,514.247 311.585,514.247 311.585,135.469 338.911,135.469 315.69,95.247 292.469,55.025 269.247,95.247 246.026,135.469 273.585,135.469 "
   id="polygon12"
   style="fill:#ffffff;stroke:none"
   transform="translate(-0.27925,-0.27925)" />
<polygon
   points="436.469,515.969 436.469,137.19 463.795,137.19 440.574,96.969 417.353,56.747 394.131,96.969 370.91,137.19 398.469,137.19 398.469,515.969 "
   id="polygon14"
   style="fill:#ffffff;stroke:none"
   transform="translate(-0.27925,-0.27925)" />
<circle
   cx="292.46899"
   cy="302.46899"
   r="68.873001"
   id="circle16"
   style="fill:#ffffff;stroke:none"
   sodipodi:cx="292.46899"
   sodipodi:cy="302.46899"
   sodipodi:rx="68.873001"
   sodipodi:ry="68.873001"
   transform="translate(-0.27925,-0.27925)" />
<circle
   cx="292.46899"
   cy="302.46899"
   r="65.945999"
   id="circle18"
   style="fill:#d40000;fill-opacity:1;stroke:none"
   sodipodi:cx="292.46899"
   sodipodi:cy="302.46899"
   sodipodi:rx="65.945999"
   sodipodi:ry="65.945999"
   transform="translate(-0.27925,-0.27925)" />
<circle
   cx="292.46899"
   cy="302.46899"
   r="46.185001"
   id="circle20"
   style="fill:#ffffff;stroke:none"
   sodipodi:cx="292.46899"
   sodipodi:cy="302.46899"
   sodipodi:rx="46.185001"
   sodipodi:ry="46.185001"
   transform="translate(-0.27925,-0.27925)" />
<circle
   cx="311.83499"
   cy="314.229"
   r="6.3829999"
   id="circle22"
   style="stroke:none"
   sodipodi:cx="311.83499"
   sodipodi:cy="314.229"
   sodipodi:rx="6.3829999"
   sodipodi:ry="6.3829999"
   transform="translate(-0.27925,-0.27925)" />
<circle
   cx="272.742"
   cy="314.229"
   r="6.3889999"
   id="circle24"
   style="stroke:none"
   sodipodi:cx="272.742"
   sodipodi:cy="314.229"
   sodipodi:rx="6.3889999"
   sodipodi:ry="6.3889999"
   transform="translate(-0.27925,-0.27925)" />
<path
   d="m 304.39475,314.18575 -24.739,-0.307 -0.247,-1.531 -0.287,-1.137 -0.574,-1.017 -0.778,-1.077 -1.434,-1.255 -1.475,-0.718 -1.557,-0.299 -1.516,-0.061 -1.885,0.419 -1.925,1.136 -1.229,1.257 -0.901,1.555 -0.533,1.974 -0.124,1.348 -7.774,-0.283 0.442,-1.936 h 1.325 l 0.884,-9.998 h 1.104 l 1.105,-8.063 1.104,-0.967 8.174,-0.323 v -6.77 c 0,-0.086 0.034,-0.169 0.096,-0.229 0.062,-0.061 0.144,-0.095 0.23,-0.094 l 51.271,0.318 c 0.178,0.001 0.321,0.144 0.322,0.322 l 0.219,27.418 h -4.958 l -0.116,-0.937 -0.273,-1.194 -0.546,-1.139 -0.545,-0.967 -0.819,-0.967 -1.285,-0.91 -1.287,-0.569 -1.403,-0.284 h -1.832 l -1.325,0.228 -1.48,0.626 -1.364,1.137 -0.741,0.911 -0.896,1.422 -0.39,1.707 -0.038,1.254 z"
   id="path26"
   style="stroke:none"
   inkscape:connector-curvature="0" />
<polygon
   points="264.104,294.795 271.615,294.795 271.173,302.857 262.778,302.535 "
   id="polygon28"
   style="fill:#ffffff;stroke:none"
   transform="translate(-0.27925,-0.27925)" />
</svg>