<?xml version="1.0" encoding="UTF-8" standalone="no"?>
<!-- Created with Inkscape (http://www.inkscape.org/) -->

<svg
   xmlns:dc="http://purl.org/dc/elements/1.1/"
   xmlns:cc="http://creativecommons.org/ns#"
   xmlns:rdf="http://www.w3.org/1999/02/22-rdf-syntax-ns#"
   xmlns:svg="http://www.w3.org/2000/svg"
   xmlns="http://www.w3.org/2000/svg"
   xmlns:sodipodi="http://sodipodi.sourceforge.net/DTD/sodipodi-0.dtd"
   xmlns:inkscape="http://www.inkscape.org/namespaces/inkscape"
   width="397"
   height="145"
   id="svg3810"
   version="1.1"
   inkscape:version="0.91 r13725"
   sodipodi:docname="France_road_sign_M1a copie.svg">
  <defs
     id="defs3812" />
  <sodipodi:namedview
     id="base"
     pagecolor="#ffffff"
     bordercolor="#666666"
     borderopacity="1.0"
     inkscape:pageopacity="0.0"
     inkscape:pageshadow="2"
     inkscape:zoom="1.0497677"
     inkscape:cx="53.93943"
     inkscape:cy="-26.099202"
     inkscape:document-units="px"
     inkscape:current-layer="g3789"
     showgrid="false"
     inkscape:snap-page="true"
     inkscape:snap-bbox="true"
     inkscape:bbox-paths="true"
     inkscape:bbox-nodes="true"
     inkscape:snap-bbox-edge-midpoints="true"
     inkscape:snap-bbox-midpoints="true"
     showguides="true"
     inkscape:guide-bbox="true"
     inkscape:window-width="1440"
     inkscape:window-height="788"
     inkscape:window-x="0"
     inkscape:window-y="1"
     inkscape:window-maximized="1" />
  <metadata
     id="metadata3815">
    <rdf:RDF>
      <cc:Work
         rdf:about="">
        <dc:format>image/svg+xml</dc:format>
        <dc:type
           rdf:resource="http://purl.org/dc/dcmitype/StillImage" />
        <dc:title />
      </cc:Work>
    </rdf:RDF>
  </metadata>
  <g
     inkscape:label="Calque 1"
     inkscape:groupmode="layer"
     id="layer1"
     transform="translate(0,-907.36218)">
    <g
       transform="translate(-109.00135,869.36218)"
       id="g3789">
      <rect
         ry="42.176064"
         y="39.625546"
         x="110.61047"
         height="141.76534"
         width="393.08917"
         id="rect2995"
         style="fill:#ffffff;stroke:#000000;stroke-width:3.21825194;stroke-miterlimit:4;stroke-dasharray:none;stroke-opacity:1" />
      <g
         id="g4505"
         transform="matrix(0.67193575,0,0,0.67193575,509.13228,43.83356)">
        <path
           inkscape:connector-curvature="0"
           style="fill:#000000"
           d="m -505.85608,27.67872 13.586,45.804 11.665,-45.804 13.037,0 -16.239,63.708 -16.971,0 -17.978,-63.708 12.9,0 z"
           id="path4419" />
        <path
           inkscape:connector-curvature="0"
           style="fill:#000000"
           d="m -419.74508,27.76572 0,11.646 -27.721,0 0,13.906 20.31,0 0,11.777 -20.31,0 0,14.558 28.91,0 0,11.777 -41.81,0 0.045,-63.665 40.576,0 z"
           id="path4421" />
        <path
           inkscape:connector-curvature="0"
           style="fill:#000000"
           d="m -396.85308,27.72172 0,25.509 18.435,0 0,-25.466 12.854,0 0,63.665 -12.854,0 0,-26.335 -18.435,0 0,26.335 -12.854,0 0,-63.708 12.854,0 z"
           id="path4423" />
        <path
           inkscape:connector-curvature="0"
           style="fill:#000000"
           d="m -342.85408,27.72172 0,63.708 -12.717,0 0,-63.708 12.717,0 z"
           id="path4425" />
        <path
           inkscape:connector-curvature="0"
           style="fill:#000000"
           d="m -305.41508,26.93972 c 8.874,1.449 14.684,6.475 17.429,15.08 l 0.412,2.129 -11.574,2.303 c -0.945,-3.708 -2.562,-6.171 -4.849,-7.388 -2.287,-1.217 -4.971,-1.101 -8.051,0.348 -2.043,1.651 -3.744,3.911 -5.1,6.779 -1.357,2.868 -2.25,6.751 -2.676,11.646 -0.183,5.215 0.533,9.742 2.15,13.58 1.616,3.839 3.575,6.382 5.878,7.627 2.302,1.246 4.658,1.42 7.067,0.521 2.409,-0.579 4.33,-2.94 5.764,-7.083 l 11.572,3.39 c -1.555,5.823 -4.559,10.039 -9.012,12.646 -3.263,1.971 -7.105,3.085 -11.527,3.346 -8.325,-0.174 -14.547,-3.404 -18.664,-9.691 -4.331,-6.837 -6.557,-14.239 -6.679,-22.207 0.061,-9.966 2.317,-18.122 6.77,-24.466 2.806,-3.505 5.947,-5.924 9.423,-7.257 2.623,-0.984 5.474,-1.478 8.554,-1.478 1.008,0.001 2.045,0.06 3.113,0.175 z"
           id="path4427" />
        <path
           inkscape:connector-curvature="0"
           style="fill:#000000"
           d="m -266.33008,27.80872 0,43.109 c 0.58,5.505 3.843,8.576 9.789,9.213 5.855,-0.608 9.149,-3.635 9.881,-9.083 l 0,-43.24 12.946,0 0,46.456 c -1.129,5.679 -3.95,10.097 -8.463,13.254 -4.025,2.694 -8.143,4.113 -12.351,4.259 -0.672,0.058 -1.326,0.087 -1.967,0.087 -6.252,0 -11.422,-1.723 -15.508,-5.171 -4.666,-4.287 -7.137,-8.662 -7.41,-13.124 l 0,-45.76 13.083,0 z"
           id="path4429" />
        <path
           inkscape:connector-curvature="0"
           style="fill:#000000"
           d="m -211.60008,27.63572 0.046,52.409 25.937,0 -0.045,11.386 -38.608,0 0,-63.795 12.67,0 z"
           id="path4431" />
        <path
           inkscape:connector-curvature="0"
           style="fill:#000000"
           d="m -137.24508,27.76572 0,11.646 -27.721,0 0,13.906 20.31,0 0,11.777 -20.31,0 0,14.558 28.91,0 0,11.777 -41.81,0 0.045,-63.665 40.576,0 z"
           id="path4433" />
        <path
           inkscape:connector-curvature="0"
           style="fill:#000000"
           d="m -128.39708,78.43672 0,-0.087 c 0,-0.318 0.352,-0.536 1.053,-0.652 5.398,-1.651 8.904,-2.839 10.521,-3.563 0.823,1.072 1.905,2.042 3.248,2.912 2.164,1.217 4.482,1.956 6.953,2.216 2.622,0.059 4.254,0 4.895,-0.174 3.019,-0.811 4.879,-1.636 5.58,-2.477 0.701,-0.579 1.311,-1.984 1.83,-4.215 0.121,-0.869 0,-1.839 -0.365,-2.912 -0.458,-0.724 -0.946,-1.332 -1.465,-1.825 l -1.555,-1.13 -1.738,-0.739 c -9.668,-2.868 -14.989,-4.548 -15.965,-5.041 -4.482,-1.709 -7.822,-4.534 -10.018,-8.474 -1.435,-2.636 -2.074,-5.837 -1.922,-9.604 0.579,-4.693 2.607,-8.416 6.084,-11.168 3.903,-2.694 7.975,-4.157 12.214,-4.389 l 1.188,0 c 3.02,0 5.52,0.217 7.503,0.652 4.025,1.072 7.166,2.564 9.423,4.476 2.257,1.768 4.117,4.172 5.581,7.214 l -0.138,0.478 -9.423,4.302 -0.458,-0.217 c -0.579,-1.767 -2.211,-3.201 -4.895,-4.302 -3.019,-1.071 -6.557,-1.101 -10.612,-0.087 -1.738,0.551 -2.958,1.26 -3.659,2.129 -0.244,0.232 -0.564,0.956 -0.961,2.173 -0.062,1.42 0,2.246 0.184,2.477 0.396,0.985 1.189,1.869 2.379,2.651 l 1.188,0.478 c 8.661,2.434 14.531,4.201 17.612,5.302 2.652,1.159 4.68,2.434 6.084,3.824 l 2.561,3.303 c 1.891,2.984 2.897,6.244 3.02,9.778 0.03,0.232 0.046,0.507 0.046,0.826 0,1.13 -0.183,2.651 -0.549,4.563 -0.763,2.694 -1.678,4.679 -2.745,5.954 -1.83,2.145 -3.156,3.433 -3.979,3.868 -4.483,2.927 -9.103,4.504 -13.86,4.737 l -4.162,0 c -3.111,-0.289 -5.734,-0.869 -7.869,-1.738 -3.416,-1.506 -6.176,-3.187 -8.279,-5.041 -1.739,-1.509 -3.249,-3.668 -4.53,-6.478 z"
           id="path4435" />
        <path
           inkscape:connector-curvature="0"
           style="fill:#000000"
           d="m -408.67108,107.63472 0.046,52.409 25.834,0 -0.045,11.386 -38.456,0 0,-63.795 12.621,0 z"
           id="path4439" />
        <path
           inkscape:connector-curvature="0"
           style="fill:#000000"
           d="m -334.60908,107.76572 0,11.646 -27.612,0 0,13.906 20.23,0 0,11.776 -20.23,0 0,14.558 28.796,0 0,11.777 -41.646,0 0.046,-63.664 40.416,0 z"
           id="path4441" />
        <path
           inkscape:connector-curvature="0"
           style="fill:#000000"
           d="m -308.57208,107.63472 16.767,33.983 0,-33.983 12.394,0 0.046,63.795 -12.166,0 -20.367,-40.197 -0.045,40.24 -12.53,0 0,-63.838 15.901,0 z"
           id="path4443" />
        <path
           inkscape:connector-curvature="0"
           style="fill:#000000"
           d="m -229.86408,107.67772 0,12.256 -13.35,0 0,51.496 -12.394,0 0,-51.627 -14.262,0 0,-12.125 40.006,0 z"
           id="path4445" />
        <path
           inkscape:connector-curvature="0"
           style="fill:#000000"
           d="m -222.37008,158.43572 0,-0.086 c 0,-0.319 0.349,-0.536 1.048,-0.652 5.377,-1.651 8.869,-2.839 10.479,-3.563 0.82,1.072 1.898,2.042 3.235,2.911 2.156,1.217 4.465,1.956 6.926,2.217 2.612,0.059 4.237,0 4.875,-0.174 3.008,-0.811 4.86,-1.637 5.56,-2.477 0.698,-0.58 1.306,-1.984 1.822,-4.216 0.121,-0.869 0,-1.84 -0.364,-2.911 -0.456,-0.725 -0.942,-1.333 -1.458,-1.826 l -1.55,-1.129 -1.731,-0.739 c -9.63,-2.868 -14.93,-4.548 -15.901,-5.041 -4.466,-1.709 -7.792,-4.534 -9.979,-8.474 -1.429,-2.637 -2.066,-5.838 -1.914,-9.604 0.576,-4.693 2.597,-8.416 6.06,-11.169 3.889,-2.693 7.943,-4.156 12.166,-4.389 l 1.185,0 c 3.008,0 5.498,0.217 7.473,0.652 4.01,1.071 7.138,2.563 9.386,4.476 2.248,1.768 4.102,4.172 5.56,7.214 l -0.137,0.479 -9.387,4.302 -0.455,-0.218 c -0.578,-1.767 -2.203,-3.2 -4.876,-4.302 -3.007,-1.071 -6.531,-1.101 -10.57,-0.087 -1.731,0.551 -2.947,1.26 -3.646,2.129 -0.243,0.232 -0.563,0.957 -0.957,2.174 -0.061,1.419 0,2.245 0.183,2.477 0.395,0.985 1.185,1.869 2.369,2.65 l 1.185,0.479 c 8.627,2.434 14.474,4.201 17.542,5.302 2.644,1.159 4.663,2.434 6.061,3.824 l 2.552,3.303 c 1.883,2.984 2.885,6.243 3.007,9.778 0.03,0.231 0.046,0.507 0.046,0.825 0,1.13 -0.183,2.651 -0.547,4.563 -0.76,2.693 -1.671,4.679 -2.734,5.953 -1.822,2.145 -3.144,3.434 -3.964,3.867 -4.465,2.927 -9.067,4.505 -13.806,4.737 l -4.146,0 c -3.099,-0.289 -5.711,-0.869 -7.837,-1.738 -3.402,-1.506 -6.151,-3.187 -8.247,-5.041 -1.735,-1.506 -3.239,-3.666 -4.514,-6.476 z"
           id="path4447" />
      </g>
    </g>
  </g>
</svg>
