<?xml version="1.0" encoding="UTF-8" standalone="no"?>
<!-- Generator: Adobe Illustrator 13.0.0, SVG Export Plug-In  -->

<svg
   xmlns:dc="http://purl.org/dc/elements/1.1/"
   xmlns:cc="http://creativecommons.org/ns#"
   xmlns:rdf="http://www.w3.org/1999/02/22-rdf-syntax-ns#"
   xmlns:svg="http://www.w3.org/2000/svg"
   xmlns="http://www.w3.org/2000/svg"
   xmlns:xlink="http://www.w3.org/1999/xlink"
   xmlns:sodipodi="http://sodipodi.sourceforge.net/DTD/sodipodi-0.dtd"
   xmlns:inkscape="http://www.inkscape.org/namespaces/inkscape"
   version="1.1"
   x="0px"
   y="0px"
   width="576.53827"
   height="507.94376"
   viewBox="-0.781 -0.08 576.53826 507.94375"
   enable-background="new -0.781 -0.08 576 506"
   xml:space="preserve"
   id="svg2"
   inkscape:version="0.92.5 (2060ec1f9f, 2020-04-08)"
   sodipodi:docname="France_road_sign_XA24.svg"><metadata
   id="metadata18"><rdf:RDF><cc:Work
       rdf:about=""><dc:format>image/svg+xml</dc:format><dc:type
         rdf:resource="http://purl.org/dc/dcmitype/StillImage" /><dc:title></dc:title></cc:Work></rdf:RDF></metadata><sodipodi:namedview
   pagecolor="#ffffff"
   bordercolor="#666666"
   borderopacity="1"
   objecttolerance="10"
   gridtolerance="10"
   guidetolerance="10"
   inkscape:pageopacity="0"
   inkscape:pageshadow="2"
   inkscape:window-width="1920"
   inkscape:window-height="1057"
   id="namedview16"
   showgrid="false"
   fit-margin-top="0.3"
   fit-margin-left="0.3"
   fit-margin-right="0.3"
   fit-margin-bottom="0.3"
   inkscape:zoom="1.2913894"
   inkscape:cx="124.13818"
   inkscape:cy="27.466305"
   inkscape:window-x="-8"
   inkscape:window-y="-8"
   inkscape:window-maximized="1"
   inkscape:current-layer="svg2"
   showguides="true"
   inkscape:guide-bbox="true"
   inkscape:snap-others="true"
   inkscape:snap-nodes="true"
   inkscape:snap-global="true"
   inkscape:snap-bbox="false"
   inkscape:bbox-paths="true"
   inkscape:bbox-nodes="true"
   inkscape:snap-bbox-edge-midpoints="true"
   inkscape:snap-bbox-midpoints="true"
   inkscape:object-paths="true"
   inkscape:snap-intersection-paths="true"
   inkscape:snap-smooth-nodes="true"
   inkscape:snap-midpoints="true"
   inkscape:snap-object-midpoints="true"
   inkscape:snap-center="true"
   inkscape:snap-text-baseline="true"
   inkscape:snap-page="true" />
<defs
   id="defs4">
<pattern
   patternTransform="translate(-27.412923,37.135909)"
   id="pattern12479"
   xlink:href="#pattern12310-9"
   inkscape:collect="always" /><pattern
   patternUnits="userSpaceOnUse"
   width="7"
   height="7"
   patternTransform="translate(-27.409426,37.156635)"
   id="pattern12310-9"><path
     inkscape:connector-curvature="0"
     id="rect12307-0"
     d="M 0,0 V 3.5 A 3.5,3.5 0 0 1 3.5,0 Z M 3.5,0 A 3.5,3.5 0 0 1 7,3.5 V 0 Z M 7,3.5 A 3.5,3.5 0 0 1 3.5,7 H 7 Z M 3.5,7 A 3.5,3.5 0 0 1 0,3.5 V 7 Z"
     style="opacity:1;fill:#1a1a1a;fill-opacity:1;fill-rule:evenodd;stroke:none;stroke-width:1.50953102;stroke-linecap:round;stroke-miterlimit:4;stroke-dasharray:1.50953107, 1.50953107;stroke-dashoffset:0;stroke-opacity:1;paint-order:markers stroke fill" /></pattern></defs>





<rect
   style="display:inline;opacity:1;fill:#000000;fill-opacity:1;fill-rule:evenodd;stroke:none;stroke-width:1.5;stroke-linecap:round;stroke-miterlimit:4;stroke-dasharray:1.5, 1.5;stroke-dashoffset:0;stroke-opacity:1;paint-order:markers stroke fill"
   id="rect19"
   width="576.53827"
   height="507.94376"
   x="-0.78450805"
   y="-0.10070555" /><path
   style="fill:#f91a0e;stroke:none;fill-opacity:1"
   d="M 288.26562 13.640625 C 281.64663 13.640625 275.53166 17.170344 272.22266 22.902344 L 16.126953 466.47266 C 12.816953 472.20366 12.816953 479.26705 16.126953 484.99805 C 19.435953 490.73105 25.550922 494.26172 32.169922 494.26172 L 544.36133 494.26172 C 550.97933 494.26172 557.0943 490.73105 560.4043 484.99805 C 563.7143 479.26705 563.7143 472.20366 560.4043 466.47266 L 304.30859 22.902344 C 300.99859 17.170344 294.88463 13.640625 288.26562 13.640625 z M 288.26562 69.425781 L 512.0918 457.10547 L 64.4375 457.10547 L 288.26562 69.425781 z "
   transform="translate(-0.781,-0.08)"
   id="path8-7" /><polygon
   transform="translate(0.42724901,1.1377561)"
   points="361.264,438.3 361.814,259.328 376.11,259.328 376.11,438.3 "
   id="polygon12-0"
   style="fill:#f91a0e;stroke:none;fill-opacity:1" /><path
   style="fill:none;stroke:#ff0000;stroke-width:3;stroke-linecap:butt;stroke-linejoin:miter;stroke-opacity:1;stroke-miterlimit:4;stroke-dasharray:none"
   d="m 177.71224,299.68776 121.758,-63.009 62.771,23.787 -46.13,44.231 -126.838,18.187 c -14.92004,3.4217 -22.396,-14.09924 -11.561,-23.196 z"
   id="path824"
   inkscape:connector-curvature="0"
   sodipodi:nodetypes="cccccc" /><path
   style="opacity:1;fill:#ff0000;fill-opacity:1;fill-rule:evenodd;stroke:#ff0000;stroke-width:0.27377751;stroke-linecap:round;stroke-miterlimit:4;stroke-dasharray:none;stroke-dashoffset:0;stroke-opacity:1;paint-order:markers stroke fill"
   d="m 290.85053,307.15506 c 1.09118,-3.54099 1.83307,-9.59798 1.83599,-14.98932 0.004,-6.48883 -0.59717,-10.94982 -2.25144,-16.72055 -2.54101,-8.86404 -6.70745,-16.29371 -13.49157,-24.05842 -0.73667,-0.84315 -1.2885,-1.5839 -1.22629,-1.6461 0.0622,-0.0622 5.44267,-2.87365 11.95658,-6.24765 l 11.84348,-6.13453 8.95791,3.39113 c 15.75827,5.96549 13.88602,5.08653 14.96415,7.0252 3.48157,6.26051 6.58497,15.73377 7.82738,23.89349 0.63059,4.14147 1.03523,14.55793 0.6318,16.26415 -0.18746,0.79284 -1.66132,2.34312 -8.1268,8.54815 -6.08131,5.83634 -8.09632,7.61457 -8.76089,7.73139 -1.23154,0.21651 -23.77503,3.42217 -24.06605,3.42217 -0.13304,0 -0.17545,-0.2156 -0.0943,-0.47911 z"
   id="path955"
   inkscape:connector-curvature="0" /><path
   style="opacity:1;fill:#ff0000;fill-opacity:1;fill-rule:evenodd;stroke:#ff0000;stroke-width:0.27377751;stroke-linecap:round;stroke-miterlimit:4;stroke-dasharray:none;stroke-dashoffset:0;stroke-opacity:1;paint-order:markers stroke fill"
   d="m 222.25221,316.4635 c 2.44974,-4.87899 3.12215,-12.00646 1.68532,-17.86398 -0.63667,-2.59551 -2.6967,-7.08471 -4.20646,-9.16672 -1.253,-1.72792 -4.33706,-4.87055 -5.85432,-5.96551 -0.63995,-0.46183 -1.16355,-0.91955 -1.16355,-1.01716 0,-0.0976 4.15578,-2.32512 9.23508,-4.95003 5.07929,-2.62491 11.67008,-6.03257 14.64619,-7.57258 l 5.4111,-2.80003 1.52343,1.8418 c 4.2639,5.15499 7.23226,11.30851 8.65546,17.9431 0.81195,3.7851 0.88207,11.69107 0.13635,15.37319 -0.61914,3.05712 -1.87895,7.02349 -3.03887,9.56759 l -0.88495,1.941 -13.11923,1.8567 c -7.21558,1.02118 -13.21414,1.85278 -13.33014,1.84799 -0.11599,-0.005 0.0211,-0.47069 0.30459,-1.03536 z"
   id="path957"
   inkscape:connector-curvature="0" /><path
   style="opacity:1;fill:#ffffff;fill-opacity:1;fill-rule:evenodd;stroke:#ff0000;stroke-width:3;stroke-linecap:round;stroke-miterlimit:4;stroke-dasharray:none;stroke-dashoffset:0;stroke-opacity:1;paint-order:markers stroke fill"
   d="m 182.05011,322.72322 c -2.41017,-0.77923 -3.83782,-1.63508 -5.49977,-3.29703 -2.45916,-2.45916 -3.81591,-5.73516 -3.80197,-9.1802 0.0138,-3.41992 1.13247,-6.1413 3.61542,-8.79558 7.34915,-7.85627 20.46646,-3.72684 22.1254,6.96524 0.98464,6.34618 -3.24422,12.78326 -9.46197,14.40277 -2.12054,0.55233 -5.10001,0.51168 -6.97711,-0.0952 z"
   id="path959"
   inkscape:connector-curvature="0" /><rect
   style="display:inline;opacity:1;fill:url(#pattern12479);fill-opacity:1;fill-rule:evenodd;stroke:none;stroke-width:1.5;stroke-linecap:round;stroke-miterlimit:4;stroke-dasharray:1.5, 1.5;stroke-dashoffset:0;stroke-opacity:1;paint-order:markers stroke fill"
   id="rect12317-3"
   width="576.53827"
   height="507.94376"
   x="-0.78450805"
   y="-0.10070555" /><path
   style="opacity:1;fill:#ffffff;fill-opacity:1;fill-rule:evenodd;stroke:#ff0000;stroke-width:1.64266515;stroke-linecap:round;stroke-miterlimit:4;stroke-dasharray:none;stroke-dashoffset:0;stroke-opacity:1;paint-order:markers stroke fill"
   d="m 198.48606,318.64866 c 1.36985,-1.92378 2.72669,-5.99696 2.72669,-8.18541 0,-5.1988 -4.00077,-11.20912 -8.91249,-13.38914 l -2.61562,-1.16092 11.87398,-6.15559 c 7.52902,-3.90313 12.23394,-6.04135 12.85769,-5.84337 1.72499,0.54749 6.06014,5.87694 7.91262,9.72745 3.18236,6.61473 3.61079,14.89495 1.08365,20.94327 -0.90855,2.17445 -0.27537,1.99515 -13.43894,3.80549 -5.57138,0.76621 -10.70867,1.52171 -11.41622,1.67887 l -1.28644,0.28577 z"
   id="path1714"
   inkscape:connector-curvature="0"
   transform="translate(-0.781,-0.08)" /><path
   style="opacity:1;fill:#ffffff;fill-opacity:1;fill-rule:evenodd;stroke:#ff0000;stroke-width:1.64266515;stroke-linecap:round;stroke-miterlimit:4;stroke-dasharray:none;stroke-dashoffset:0;stroke-opacity:1;paint-order:markers stroke fill"
   d="m 250.66977,311.72158 c 3.11323,-9.54905 3.19617,-10.05194 2.96363,-17.97112 -0.2056,-7.00161 -0.37917,-8.07965 -2.00338,-12.44283 -0.97805,-2.62739 -3.09605,-6.74585 -4.70667,-9.15213 l -2.92839,-4.37506 12.42042,-6.38689 c 6.83123,-3.51278 14.19689,-7.3525 16.36814,-8.53269 l 3.94771,-2.14582 3.60044,4.54351 c 4.20119,5.30161 9.077,14.78266 10.6435,20.69638 1.66443,6.28338 2.41001,13.34614 2.02784,19.20926 -0.32118,4.92728 -1.18984,10.83495 -1.6627,11.30781 -0.11621,0.11621 -8.55366,1.42322 -18.74989,2.90446 -10.19623,1.48125 -19.37269,2.83917 -20.39214,3.0176 -1.61667,0.28297 -1.812,0.19704 -1.52851,-0.67248 z"
   id="path1716"
   inkscape:connector-curvature="0"
   transform="translate(-0.781,-0.08)" /><path
   style="opacity:1;fill:#ffffff;fill-opacity:1;fill-rule:evenodd;stroke:#ff0000;stroke-width:1.64266515;stroke-linecap:round;stroke-miterlimit:4;stroke-dasharray:none;stroke-dashoffset:0;stroke-opacity:1;paint-order:markers stroke fill"
   d="m 332.99819,279.5645 c -0.50431,-9.95038 -2.69026,-19.30391 -6.46225,-27.65152 -0.87199,-1.92975 -1.50794,-3.58613 -1.41323,-3.68084 0.23513,-0.23513 33.40528,12.34625 33.93413,12.87116 0.3349,0.33239 -19.83524,20.28058 -24.5754,24.30497 l -1.1381,0.96625 z"
   id="path1718"
   inkscape:connector-curvature="0"
   transform="translate(-0.781,-0.08)" /></svg>