<?xml version="1.0" encoding="UTF-8" standalone="no"?>
<!-- Generator: Adobe Illustrator 13.0.0, SVG Export Plug-In  -->

<svg
   xmlns:dc="http://purl.org/dc/elements/1.1/"
   xmlns:cc="http://creativecommons.org/ns#"
   xmlns:rdf="http://www.w3.org/1999/02/22-rdf-syntax-ns#"
   xmlns:svg="http://www.w3.org/2000/svg"
   xmlns="http://www.w3.org/2000/svg"
   xmlns:xlink="http://www.w3.org/1999/xlink"
   xmlns:sodipodi="http://sodipodi.sourceforge.net/DTD/sodipodi-0.dtd"
   xmlns:inkscape="http://www.inkscape.org/namespaces/inkscape"
   version="1.1"
   x="0px"
   y="0px"
   width="576.53827"
   height="507.94376"
   viewBox="-0.781 -0.08 576.53826 507.94375"
   enable-background="new -0.781 -0.08 576 506"
   xml:space="preserve"
   id="svg2"
   inkscape:version="0.92.5 (2060ec1f9f, 2020-04-08)"
   sodipodi:docname="France_road_sign_XA15b.svg"><metadata
   id="metadata18"><rdf:RDF><cc:Work
       rdf:about=""><dc:format>image/svg+xml</dc:format><dc:type
         rdf:resource="http://purl.org/dc/dcmitype/StillImage" /><dc:title></dc:title></cc:Work></rdf:RDF></metadata><sodipodi:namedview
   pagecolor="#ffffff"
   bordercolor="#666666"
   borderopacity="1"
   objecttolerance="10"
   gridtolerance="10"
   guidetolerance="10"
   inkscape:pageopacity="0"
   inkscape:pageshadow="2"
   inkscape:window-width="1920"
   inkscape:window-height="1057"
   id="namedview16"
   showgrid="false"
   fit-margin-top="0.3"
   fit-margin-left="0.3"
   fit-margin-right="0.3"
   fit-margin-bottom="0.3"
   inkscape:zoom="0.64569469"
   inkscape:cx="666.47011"
   inkscape:cy="2.6593414"
   inkscape:window-x="-8"
   inkscape:window-y="-8"
   inkscape:window-maximized="1"
   inkscape:current-layer="svg2"
   showguides="true"
   inkscape:guide-bbox="true"
   inkscape:snap-page="true"
   inkscape:snap-text-baseline="false"
   inkscape:snap-object-midpoints="true" />
<defs
   id="defs4">
<pattern
   patternTransform="translate(-27.409457,37.156637)"
   id="pattern12479"
   xlink:href="#pattern12310-9"
   inkscape:collect="always" /><pattern
   patternUnits="userSpaceOnUse"
   width="7"
   height="7"
   patternTransform="translate(-27.409426,37.156635)"
   id="pattern12310-9"><path
     inkscape:connector-curvature="0"
     id="rect12307-0"
     d="M 0,0 V 3.5 A 3.5,3.5 0 0 1 3.5,0 Z M 3.5,0 A 3.5,3.5 0 0 1 7,3.5 V 0 Z M 7,3.5 A 3.5,3.5 0 0 1 3.5,7 H 7 Z M 3.5,7 A 3.5,3.5 0 0 1 0,3.5 V 7 Z"
     style="opacity:1;fill:#1a1a1a;fill-opacity:1;fill-rule:evenodd;stroke:none;stroke-width:1.50953102;stroke-linecap:round;stroke-miterlimit:4;stroke-dasharray:1.50953107, 1.50953107;stroke-dashoffset:0;stroke-opacity:1;paint-order:markers stroke fill" /></pattern></defs>





<rect
   style="display:inline;opacity:1;fill:#000000;fill-opacity:1;fill-rule:evenodd;stroke:none;stroke-width:1.5;stroke-linecap:round;stroke-miterlimit:4;stroke-dasharray:1.5, 1.5;stroke-dashoffset:0;stroke-opacity:1;paint-order:markers stroke fill"
   id="rect19"
   width="576.53827"
   height="507.94376"
   x="-0.78100002"
   y="-0.079999998" /><path
   style="fill:#f91a0e;stroke:none"
   d="M 288.26562 13.640625 C 281.64663 13.640625 275.53166 17.170344 272.22266 22.902344 L 16.126953 466.47266 C 12.816953 472.20366 12.816953 479.26705 16.126953 484.99805 C 19.435953 490.73105 25.550922 494.26172 32.169922 494.26172 L 544.36133 494.26172 C 550.98033 494.26172 557.0953 490.73105 560.4043 484.99805 C 563.7143 479.26705 563.71525 472.20366 560.40625 466.47266 L 304.31055 22.902344 C 301.00055 17.170344 294.88363 13.640625 288.26562 13.640625 z M 288.26562 69.425781 L 512.0918 457.10547 L 64.4375 457.10547 L 288.26562 69.425781 z "
   transform="translate(-0.781,-0.08)"
   id="path8" /><path
   style="fill:#ff0000"
   inkscape:connector-curvature="0"
   d="M 31.389249,494.26975 H 543.58024 c 6.63,0 12.807,-3.566 16.12,-9.308 3.314,-5.74 3.315,-12.872 10e-4,-18.613 L 303.60525,22.77876 c -3.314,-5.741 -9.492,-9.308 -16.121,-9.308 -6.629,0 -12.806,3.566 -16.12,9.308 L 15.269249,466.34875 c -3.315,5.74 -3.315,12.873 0,18.613 3.314,5.741 9.491,9.308 16.12,9.308 z m -15.968,-9.396 c -3.283,-5.687 -3.283,-12.751 0,-18.438 L 271.51725,22.86676 c 3.283,-5.687 9.401,-9.219 15.968,-9.219 6.566,0 12.685,3.532 15.968,9.219 l 256.09599,443.56999 c 3.282,5.687 3.282,12.751 -0.001,18.438 -3.282,5.687 -9.401,9.22 -15.968,9.22 H 31.389249 c -6.566,-10e-4 -12.685,-3.534 -15.968,-9.221 z"
   id="path10" /><path
   style="fill:#ffffff"
   inkscape:connector-curvature="0"
   d="m 287.40825,69.38976 223.82699,387.67999 c -0.016,-0.027 -0.016,-0.061 0,-0.088 0.016,-0.027 0.045,-0.044 0.076,-0.044 H 63.657239 c 0.032,0 0.061,0.017 0.076,0.044 0.016,0.027 0.016,0.061 0,0.088 L 287.56025,69.38976 c -0.016,0.027 -0.044,0.044 -0.076,0.044 -0.032,0 -0.06,-0.017 -0.076,-0.044 z M 63.657239,457.11375 H 511.31124 c 0.031,0 0.061,-0.017 0.076,-0.044 0.015,-0.027 0.016,-0.061 0,-0.088 L 287.56125,69.30176 c -0.016,-0.027 -0.044,-0.044 -0.076,-0.044 -0.032,0 -0.061,0.017 -0.076,0.044 L 63.581239,456.98175 c -0.016,0.027 -0.016,0.061 0,0.088 0.016,0.027 0.045,0.044 0.076,0.044 z"
   id="path14" /><polygon
   transform="translate(0.42724894,1.13776)"
   points="236.813,296.628 234.387,278.033 231.354,269.179 208.91,264.751 208.304,251.47 233.174,245.271 234.993,239.073 248.338,237.302 250.158,235.531 250.764,216.051 255.01,212.51 256.224,221.364 258.65,222.25 264.109,215.166 266.535,202.77 272.601,197.457 273.208,211.624 274.421,210.738 282.306,196.571 282.913,190.373 286.552,191.259 290.192,195.687 288.373,204.541 284.126,210.738 276.847,220.479 259.256,233.761 258.65,237.302 271.995,239.073 275.027,241.729 275.634,245.271 272.601,247.927 259.256,249.699 256.83,262.98 259.256,271.835 264.715,282.46 273.814,295.742 286.552,307.253 310.816,316.993 320.521,320.534 351.456,318.764 389.064,335.587 390.277,339.129 387.851,342.671 388.458,350.64 391.491,360.38 396.343,370.12 407.868,378.089 427.278,417.049 446.689,431.216 446.083,444.498 416.966,423.247 398.163,389.6 372.08,386.943 356.308,381.631 342.964,372.776 333.866,362.15 330.833,358.609 316.275,356.838 307.176,361.265 294.438,364.808 280.486,364.808 267.749,361.265 262.289,366.578 222.862,357.724 238.026,375.433 251.978,384.287 251.371,394.027 201.024,348.869 201.631,347.099 201.631,343.557 204.058,339.129 242.879,344.441 241.059,312.565 "
   id="polygon16"
   style="fill:#ffffff;stroke:none" /><rect
   style="display:inline;opacity:1;fill:url(#pattern12479);fill-opacity:1;fill-rule:evenodd;stroke:none;stroke-width:1.5;stroke-linecap:round;stroke-miterlimit:4;stroke-dasharray:1.5, 1.5;stroke-dashoffset:0;stroke-opacity:1;paint-order:markers stroke fill"
   id="rect12317-3"
   width="576.53827"
   height="507.94376"
   x="-0.78100002"
   y="-0.079999998" /></svg>