<?xml version="1.0" encoding="UTF-8" standalone="no"?>
<!-- Created with Inkscape (http://www.inkscape.org/) -->

<svg
   xmlns:dc="http://purl.org/dc/elements/1.1/"
   xmlns:cc="http://creativecommons.org/ns#"
   xmlns:rdf="http://www.w3.org/1999/02/22-rdf-syntax-ns#"
   xmlns:svg="http://www.w3.org/2000/svg"
   xmlns="http://www.w3.org/2000/svg"
   xmlns:sodipodi="http://sodipodi.sourceforge.net/DTD/sodipodi-0.dtd"
   xmlns:inkscape="http://www.inkscape.org/namespaces/inkscape"
   width="430"
   height="350"
   id="svg3864"
   version="1.1"
   inkscape:version="0.91 r13725"
   sodipodi:docname="France_road_sign_M4y.svg">
  <defs
     id="defs3866" />
  <sodipodi:namedview
     id="base"
     pagecolor="#ffffff"
     bordercolor="#666666"
     borderopacity="1.0"
     inkscape:pageopacity="0.0"
     inkscape:pageshadow="2"
     inkscape:zoom="0.57252122"
     inkscape:cx="63.519403"
     inkscape:cy="210.58096"
     inkscape:document-units="px"
     inkscape:current-layer="layer1"
     showgrid="false"
     inkscape:snap-bbox="true"
     inkscape:bbox-paths="true"
     inkscape:bbox-nodes="true"
     inkscape:snap-bbox-edge-midpoints="true"
     inkscape:snap-bbox-midpoints="true"
     inkscape:object-paths="true"
     inkscape:snap-intersection-paths="true"
     inkscape:object-nodes="true"
     inkscape:snap-smooth-nodes="true"
     inkscape:snap-midpoints="true"
     inkscape:snap-object-midpoints="true"
     inkscape:snap-center="true"
     inkscape:snap-page="true"
     showguides="true"
     inkscape:guide-bbox="true"
     inkscape:window-width="1440"
     inkscape:window-height="788"
     inkscape:window-x="0"
     inkscape:window-y="1"
     inkscape:window-maximized="1" />
  <metadata
     id="metadata3869">
    <rdf:RDF>
      <cc:Work
         rdf:about="">
        <dc:format>image/svg+xml</dc:format>
        <dc:type
           rdf:resource="http://purl.org/dc/dcmitype/StillImage" />
        <dc:title></dc:title>
      </cc:Work>
    </rdf:RDF>
  </metadata>
  <g
     inkscape:label="Calque 1"
     inkscape:groupmode="layer"
     id="layer1"
     transform="translate(0,-702.36219)">
    <rect
       style="fill:#ffffff;stroke:#000000;stroke-width:2.16100001;stroke-miterlimit:4;stroke-dasharray:none;stroke-opacity:1"
       id="rect2995"
       width="427.83899"
       height="347.83917"
       x="1.0805051"
       y="703.44263"
       ry="61.903381" />
    <path
       style="fill:#000000;stroke-width:2.16100001;stroke-miterlimit:4;stroke-dasharray:none"
       d="m 177.05541,1028.9629 -41.00089,-91.91536 c -6.09905,-13.97311 -7.01072,-15.79527 -7.96788,-15.9255 l -42.659091,24.95894 0,48.78728 -18.778,10.05034 0,-74.74825 50.852741,-33.19331 c -0.0824,-0.67636 -2.83137,-7.78329 -3.67942,-9.51227 -0.2139,-0.43609 -1.01592,-3.24859 -1.78227,-6.25 -1.27693,-5.0011 -1.39159,-6.20917 -1.37209,-14.45711 0.0117,-4.95 0.28348,-10.37056 0.60395,-12.04569 0.65693,-3.43387 0.7317,-3.19032 -3.36302,-10.95431 l -15.942181,-29.10324 -38.24244,19.68289 c -2.49947,1.56845 -3.10012,1.48607 -4.73862,-0.64993 -0.76797,-1.00115 -1.73685,-2.18544 -2.15307,-2.63175 -1.51569,-1.62529 -2.86802,-3.83984 -3.46072,-5.6672 -0.60343,-1.86047 -0.58779,-1.89683 3.33342,-7.75 7.60545,-11.35264 9.51743,-16.52621 8.98838,-24.32145 l -0.27581,-4.06398 3.83574,-4.5977 c 2.10966,-2.52874 5.18575,-6.10425 6.83575,-7.94559 l 3,-3.34787 0.17208,-22.26627 c 0.25927,-0.39664 1.11339,-0.59711 2.13035,-0.5 1.46186,0.13958 1.97527,0.589 3.69757,3.23671 4.18016,6.4262 6.02004,9.30737 6.60852,10.34865 0.58823,1.04082 0.91339,1.07675 9.75,1.07731 8.54803,5e-4 9.431751,0.0897 13.612831,1.37297 6.28185,1.92806 14.51405,6.02554 17.99438,8.95647 0.29385,0.24746 1.75018,1.33873 3.2363,2.42505 1.48611,1.08632 3.75368,2.97083 5.03904,4.18781 2.52228,2.38809 9.59429,10.03911 10.93591,11.83126 0.45266,0.60466 1.49802,1.91535 2.32302,2.91263 0.825,0.99727 1.725,2.18085 2,2.63015 0.275,0.44931 1.4,2.09976 2.5,3.66766 2.97009,4.23346 3.60908,5.26187 5.03135,8.09752 0.7123,1.42015 1.71078,2.95829 2.21884,3.41808 l 27.79779,-16.32782 c 0.16728,-0.27067 -0.40462,-1.82191 -1.27089,-3.4472 -2.34139,-4.39291 -3.19308,-7.69442 -3.07809,-11.93202 0.11633,-4.28697 1.19392,-7.09158 3.85757,-10.03992 1.57341,-1.74159 1.69403,-2.06835 1.14429,-3.1 -1.43886,-2.70023 -3.23358,-4.41016 -4.95087,-4.717 -3.17579,-0.56745 -6.95213,-2.6885 -8.86861,-4.98123 -2.66963,-3.19373 -3.5199,-5.79249 -3.8287,-11.702 -0.14759,-2.82442 -0.36694,-5.23391 -0.48744,-5.35442 -0.12051,-0.1205 -3.33235,-0.60188 -7.13742,-1.06971 -5.23124,-0.64319 -6.95246,-1.03086 -7.05835,-1.58974 -0.10863,-0.57338 1.40392,-1.0402 6.74525,-2.08179 6.1645,-1.20212 6.98996,-1.48566 7.88528,-2.70858 4.68367,-6.6809 11.42588,-9.931 17.24999,-9.94482 4.74082,-0.004 5.51672,0.13006 8,1.37764 4.59745,2.21004 8.86393,6.31361 10.40079,11.11843 1.99054,6.82243 2.06152,9.59898 0.26289,10.28282 -0.64405,0.24487 -1.1238,0.61891 -1.0661,0.8312 0.55356,2.03692 -2.66523,8.11797 -5.67699,10.72515 -1.92206,1.66387 -1.72117,2.90291 0.94519,5.82968 1.81683,1.99426 2.00047,2.07103 5.13422,2.14621 3.37519,0.081 6.57475,1.01423 8.18512,2.3875 0.51432,0.4386 2.18837,2.70994 3.72012,5.04744 l 32.353,50.5643 c 0.20028,0.65213 0.56008,1.43191 0.79955,1.73282 0.96315,1.21031 0.80538,6.55563 -0.3659,12.39664 -1.80481,9.0003 -1.98472,8.61926 2.93311,6.21196 5.73264,-2.80614 8.36701,-3.75078 15.875,-5.69249 4.42705,-1.14492 15.5288,-1.44554 20.25,-0.54835 7.38552,1.40351 13.29115,3.89256 18.38698,7.74957 3.95129,2.99073 4.71185,3.74679 7.31842,7.27518 1.14188,1.5457 2.2907,2.81037 2.55293,2.81037 0.26224,0 2.51926,-0.67858 5.0156,-1.50795 2.49635,-0.82937 7.05595,-1.96729 10.13244,-2.52871 3.0765,-0.56141 6.15613,-1.1795 6.84363,-1.37353 0.6875,-0.19402 5.075,-0.32532 9.75,-0.29176 9.31471,0.0668 13.20344,0.71529 17.63338,2.94032 3.22268,1.61866 8.12644,6.32541 10.47147,10.05076 1.82636,2.90141 3.16178,5.44872 3.72227,7.10024 0.3473,1.02335 0.80486,2.10306 1.01679,2.39936 0.21193,0.29629 0.84119,2.09629 1.39834,4 0.55716,1.9037 1.227,4.13627 1.48853,4.96127 1.44955,4.5726 3.8737,20.84996 4.26162,28.61539 0.13421,2.68653 0.37686,6.73374 0.53923,8.99378 l 0.29521,4.07209 -27.36992,0 c -0.30682,-0.49759 -0.66156,-9.42704 -0.96783,-24.36145 -0.34997,-17.06559 -0.97633,-19.94492 -5.41187,-24.87832 -4.87533,-5.42253 -13.14691,-7.31014 -23.78784,-5.42849 -5.41838,0.95814 -8.03938,1.67118 -8.03938,2.18712 0,0.22636 0.675,1.90025 1.5,3.71974 0.825,1.8195 1.5,3.83063 1.5,4.46916 0,0.63854 0.23901,1.39999 0.53113,1.69211 1.04394,1.04394 1.18307,11.22526 0.22943,16.78893 l -0.88651,5.17201 29.15041,46.24154 c 0.47869,0.70599 1.44037,2.39349 2.13707,3.75 0.84445,1.64419 1.12644,2.21897 1.31409,7.56528 l 1.66818,66.60635 -18.6282,0 -1.9355,-64.56284 c -0.0682,-2.43343 -0.31462,-3.12471 -1.66009,-4.65711 -1.86335,-2.12225 -4.02786,-3.27358 -12.71051,-6.76092 -9.63355,-3.86926 -13.89066,-6.21666 -23.2095,-12.79784 -2.24735,-1.58713 -8.36089,-7.48099 -14.90184,-14.36638 -2.83352,-2.98272 -5.24496,-5.33001 -5.35876,-5.21621 -0.11381,0.1138 0.0299,1.09547 0.31939,2.18149 l 13.66364,47.29047 0.83346,2.81589 -2.29403,4.43411 -27.54796,51.63934 -22.57827,-0.3784 28.27068,-51.57684 c 5.54701,-9.72156 5.53499,-9.90609 -1.157,-17.75 -3.59453,-4.21327 -14.81547,-19.59778 -16.74616,-22.95989 -0.48643,-0.84706 -1.97988,-3.42284 -3.31878,-5.72395 -2.53853,-4.36286 -5.07852,-9.13172 -5.93437,-11.14182 -0.58437,-1.37249 -2.26517,-1.47388 -8,-0.48254 -15.49105,2.6778 -27.53445,3.43084 -40.98984,2.56295 -8.70627,-0.56157 -20.63155,-2.06103 -23.75686,-2.98715 -3.34481,-0.99117 -5.93025,-0.66757 -7.54175,0.94394 -2.15237,2.15237 -1.93069,3.73452 1.30968,9.34725 4.75701,8.23977 5.58643,11.93279 6.18505,27.53915 0.44009,11.47374 0.58832,12.29494 3.32163,18.40206 l 22.72209,54.20524 z m 24.96898,-201.38293 c 0.7723,-0.85338 0.69422,-2.35603 -0.15964,-3.07231 -0.16391,-0.1375 -0.72434,-0.925 -1.24541,-1.75 -1.48215,-2.34669 -7.78993,-10.75 -8.06927,-10.75 l -26.4521,18.38778 c 0.19543,0.47422 0.478,1.31222 0.62795,1.86222 0.14995,0.55 0.74317,1.59667 1.31827,2.32593 0.57511,0.72925 1.53211,1.96676 2.12667,2.75 3.00042,3.95253 5.11589,5.93682 6.05352,6.44286 z"
       id="path4200"
       inkscape:connector-curvature="0"
       sodipodi:nodetypes="ccccccccsssscccssssscssccsssssssssssssccssssssscscsccccscsssscccssssssssscsssscssssccssssssssccsccccssssccccccccssssssssssccccssccscscc" />
  </g>
</svg>
