<?xml version="1.0" encoding="UTF-8" standalone="no"?>
<svg
   xmlns:dc="http://purl.org/dc/elements/1.1/"
   xmlns:cc="http://creativecommons.org/ns#"
   xmlns:rdf="http://www.w3.org/1999/02/22-rdf-syntax-ns#"
   xmlns:svg="http://www.w3.org/2000/svg"
   xmlns="http://www.w3.org/2000/svg"
   xmlns:sodipodi="http://sodipodi.sourceforge.net/DTD/sodipodi-0.dtd"
   xmlns:inkscape="http://www.inkscape.org/namespaces/inkscape"
   sodipodi:docname="France_road_sign_M9l.svg"
   inkscape:version="0.92.4 (5da689c313, 2019-01-14)"
   version="1.1"
   id="svg3859"
   height="170.42953"
   width="600">
  <defs
     id="defs3861" />
  <sodipodi:namedview
     inkscape:document-rotation="0"
     inkscape:window-maximized="1"
     inkscape:window-y="23"
     inkscape:window-x="0"
     inkscape:window-height="780"
     inkscape:window-width="1434"
     inkscape:guide-bbox="true"
     showguides="true"
     inkscape:snap-page="true"
     inkscape:snap-bbox-edge-midpoints="true"
     inkscape:bbox-nodes="true"
     inkscape:bbox-paths="true"
     inkscape:snap-bbox="true"
     inkscape:snap-center="true"
     showgrid="false"
     inkscape:current-layer="text27"
     inkscape:document-units="px"
     inkscape:cy="-235.29206"
     inkscape:cx="-319.22321"
     inkscape:zoom="0.49497475"
     inkscape:pageshadow="2"
     inkscape:pageopacity="0.0"
     borderopacity="1.0"
     bordercolor="#666666"
     pagecolor="#ffffff"
     id="base"
     fit-margin-top="0"
     fit-margin-left="0"
     fit-margin-right="0"
     fit-margin-bottom="0" />
  <metadata
     id="metadata3864">
    <rdf:RDF>
      <cc:Work
         rdf:about="">
        <dc:format>image/svg+xml</dc:format>
        <dc:type
           rdf:resource="http://purl.org/dc/dcmitype/StillImage" />
        <dc:title></dc:title>
      </cc:Work>
    </rdf:RDF>
  </metadata>
  <g
     transform="translate(1.0038375,-952.25299)"
     id="layer1"
     inkscape:groupmode="layer"
     inkscape:label="Calque 1">
    <rect
       y="953.34662"
       x="0.089794278"
       height="168.24226"
       width="597.81274"
       id="rect3016"
       style="fill:#ffffff;stroke:#000000;stroke-width:2.18726349;stroke-miterlimit:4;stroke-dasharray:none;stroke-opacity:1"
       ry="58.251732"
       rx="58.251732" />
    <g
       aria-label="BRUIT"
       style="font-style:normal;font-variant:normal;font-weight:bold;font-stretch:normal;font-size:113.33333588px;line-height:1.25;font-family:'Trebuchet MS';-inkscape-font-specification:'Trebuchet MS Bold';text-align:center;letter-spacing:0px;word-spacing:0px;text-anchor:middle;fill:#000000;fill-opacity:1;stroke:none"
       id="text27">
      <path
         d="m 171.1918,1077.7266 h -24.79167 v -81.01566 q 16.38021,-0.77474 22.9655,-0.77474 12.61719,0 19.70052,5.4232 7.13867,5.3678 7.13867,15.3841 0,9.6289 -10.18229,15.2181 15.10742,5.2571 15.10742,21.6927 0,11.0677 -8.35612,17.5977 -8.35612,6.4746 -21.58203,6.4746 z m -10.40365,-69.5052 v 19.4238 q 3.32032,0.2213 6.97266,0.2213 14.05599,0 14.05599,-10.5696 0,-9.3522 -12.7832,-9.3522 -3.37565,0 -8.24545,0.2767 z m 0,30.6575 v 26.7839 q 4.37175,0.3873 7.08334,0.3873 9.6289,0 13.94531,-3.2649 4.37175,-3.265 4.37175,-10.8464 0,-6.9173 -4.03972,-10.0716 -4.03971,-3.1543 -14.11133,-3.1543 -2.10286,0 -7.24935,0.166 z"
         style="font-size:113.33333588px"
         id="path117" />
      <path
         d="m 259.62279,1077.7266 -21.63737,-33.4799 q -3.26497,-0.055 -9.13086,-0.3873 v 33.8672 h -14.9414 v -81.071 q 1.21744,0 9.35221,-0.38737 8.13477,-0.44271 13.11523,-0.44271 30.87891,0 30.87891,23.90628 0,7.194 -4.26107,13.1152 -4.26106,5.9212 -10.73567,8.3561 l 23.96159,36.5235 z m -30.76823,-68.5645 v 22.5228 q 3.98438,0.332 6.08724,0.332 9.02019,0 13.17058,-2.5455 4.20573,-2.5456 4.20573,-9.9056 0,-5.9766 -4.48243,-8.3562 -4.48242,-2.3795 -14.11133,-2.3795 -2.32421,0 -4.86979,0.332 z"
         style="font-size:113.33333588px"
         id="path119" />
      <path
         d="m 283.19701,996.6556 h 14.38802 v 54.9512 q 0,6.5299 3.98437,10.625 3.98438,4.095 10.95704,4.095 7.80273,0 12.11914,-3.9844 4.37174,-4.0397 4.37174,-11.0123 v -54.6745 h 14.38802 v 55.7812 q 0,12.5066 -8.41146,19.5899 -8.35612,7.0833 -22.35677,7.0833 -14.11133,0 -21.80338,-6.9173 -7.63672,-6.9173 -7.63672,-19.8112 z"
         style="font-size:113.33333588px"
         id="path121" />
      <path
         d="m 360.28361,1077.7266 v -81.071 h 14.38802 v 81.071 z"
         style="font-size:113.33333588px"
         id="path123" />
      <path
         d="m 424.64233,1009.4388 v 68.2878 h -14.38802 v -68.2878 h -25.78777 v -12.7832 h 67.12566 v 12.7832 z"
         style="font-size:113.33333588px"
         id="path125" />
    </g>
  </g>
</svg>
