<?xml version="1.0" encoding="UTF-8" standalone="no"?>
<!-- Created with Inkscape (http://www.inkscape.org/) -->

<svg
   xmlns:dc="http://purl.org/dc/elements/1.1/"
   xmlns:cc="http://creativecommons.org/ns#"
   xmlns:rdf="http://www.w3.org/1999/02/22-rdf-syntax-ns#"
   xmlns:svg="http://www.w3.org/2000/svg"
   xmlns="http://www.w3.org/2000/svg"
   xmlns:sodipodi="http://sodipodi.sourceforge.net/DTD/sodipodi-0.dtd"
   xmlns:inkscape="http://www.inkscape.org/namespaces/inkscape"
   width="500"
   height="200"
   id="svg5483"
   version="1.1"
   inkscape:version="0.48.4 r9939"
   sodipodi:docname="Route_européenne_11.svg">
  <defs
     id="defs5485" />
  <sodipodi:namedview
     id="base"
     pagecolor="#ffffff"
     bordercolor="#666666"
     borderopacity="1.0"
     inkscape:pageopacity="0.0"
     inkscape:pageshadow="2"
     inkscape:zoom="1.4"
     inkscape:cx="215.09854"
     inkscape:cy="91.428571"
     inkscape:document-units="px"
     inkscape:current-layer="g6592"
     showgrid="false"
     inkscape:window-width="1366"
     inkscape:window-height="706"
     inkscape:window-x="-8"
     inkscape:window-y="-8"
     inkscape:window-maximized="1"
     fit-margin-top="0"
     fit-margin-left="0"
     fit-margin-right="0"
     fit-margin-bottom="0" />
  <metadata
     id="metadata5488">
    <rdf:RDF>
      <cc:Work
         rdf:about="">
        <dc:format>image/svg+xml</dc:format>
        <dc:type
           rdf:resource="http://purl.org/dc/dcmitype/StillImage" />
        <dc:title></dc:title>
      </cc:Work>
    </rdf:RDF>
  </metadata>
  <g
     inkscape:label="Layer 1"
     inkscape:groupmode="layer"
     id="layer1"
     transform="translate(-3.421875e-5,-852.36218)">
    <g
       transform="translate(894.38116,2326.4285)"
       id="g6254">
      <g
         transform="translate(-1502.8572,-397.14286)"
         id="g6592">
        <rect
           ry="10"
           rx="12.5"
           y="-1076.9235"
           x="608.47607"
           height="200"
           width="500"
           id="rect2985-8-1-2-1-7-2-3-9-33-7"
           style="fill:#28961e;fill-opacity:1;stroke:none" />
        <g
           id="text2987-8-7-7-4-6-2-1-7-7-9"
           style="font-size:98.11271667px;font-style:normal;font-variant:normal;font-weight:normal;font-stretch:normal;text-align:center;line-height:125%;letter-spacing:0px;word-spacing:0px;text-anchor:middle;fill:#ffffff;fill-opacity:1;stroke:none;font-family:Caracteres L1;-inkscape-font-specification:Caracteres L1"
           transform="matrix(1.8779205,0,0,2.1299744,-607.78432,877.41658)">
          <g
             transform="scale(1.0655322,0.93849815)"
             style="font-size:10.19861889px;fill:#ffffff;font-family:Caracteres L1;-inkscape-font-specification:Caracteres L1"
             id="text2997">
            <path
               d="m 687.72932,-965.16369 0,13.72716 -31.03976,0 0,16.39064 22.742,0 0,13.88082 -22.742,0 0,17.15894 32.3715,0 0,13.88082 -46.81575,0 0.0512,-75.03838 z"
               style="font-size:104.90007019px;fill:#ffffff"
               id="path3770" />
          </g>
          <path
             style="font-size:98.11271667px;font-style:normal;font-variant:normal;font-weight:normal;font-stretch:normal;text-align:center;line-height:125%;letter-spacing:0px;word-spacing:0px;text-anchor:middle;fill:#ffffff;fill-opacity:1;stroke:none;font-family:Caracteres L1;-inkscape-font-specification:Caracteres L1"
             id="path5520"
             d="m 806.61757,-905.80433 0,70.42338 -13.36924,0 0.048,-49.71344 -0.19164,0 c -0.096,0.41552 -1.24591,1.32637 -3.45014,2.73255 l -4.16881,2.20523 -3.73771,1.4382 c -1.50136,0.31963 -2.31606,0.55933 -2.44379,0.71909 l 0,-14.8613 2.97092,-1.39025 c 4.9515,-3.16397 8.51347,-7.01511 10.68579,-11.55346 z"
             inkscape:connector-curvature="0" />
        </g>
        <g
           style="font-size:207.22975159px;font-style:oblique;font-variant:normal;font-weight:normal;font-stretch:normal;line-height:125%;letter-spacing:0px;word-spacing:0px;fill:#ffffff;fill-opacity:1;stroke:none;font-family:Caracteres L4;-inkscape-font-specification:Caracteres L4 Oblique"
           id="text2989" />
        <g
           style="font-size:98.11271667px;font-style:normal;font-variant:normal;font-weight:normal;font-stretch:normal;text-align:center;line-height:125%;letter-spacing:0px;word-spacing:0px;text-anchor:middle;fill:#ffffff;fill-opacity:1;stroke:none;font-family:Caracteres L1;-inkscape-font-specification:Caracteres L1"
           id="g3016"
           transform="matrix(1,0,0,1.0000788,953.35206,-1051.9589)">
          <path
             id="path3018"
             d="m 81.248032,0.03543307 -0.1063,28.70078693 -44.397637,0 -3.047245,25.547244 c 4.216536,-1.38189 8.64567,-1.948819 13.322835,-1.73622 4.358268,-0.141733 8.822835,0.389763 13.393701,1.629921 6.590551,2.374016 12.437008,6.590551 17.610236,12.57874 7.122047,8.858268 11.161417,18.673228 12.11811,29.409448 0.07087,1.559056 0.1063,3.118111 0.1063,4.606297 0,6.55512 -0.744095,12.18898 -2.267717,16.97244 -2.763779,7.26378 -6.519685,13.8189 -11.30315,19.59449 -7.937007,8.46851 -17.574803,12.68504 -28.948818,12.68504 l -1.807087,0 -8.255906,-0.60236 C 29.019685,148.32283 21.543307,144.88583 15.200787,139.0748 6.980315,130.5 1.9133858,121.67716 0,112.64173 l 25.901575,-7.47638 c 0.779527,4.00394 2.799212,7.61811 6.094488,10.84252 4.96063,4.14567 11.976378,4.99607 21.047244,2.55118 7.476378,-3.47244 10.984252,-9.53149 10.488189,-18.17716 C 63.708662,92.515747 60.590551,86.988188 54.212598,83.692913 49.748032,82.204724 44.751969,81.81496 39.188976,82.488188 34.937008,83.515747 31.110236,85.3937 27.779528,88.086613 L 5.3858268,68.173228 12.047244,0.03543307 z"
             style="fill:#ffffff;fill-opacity:1;fill-rule:nonzero;stroke:none"
             inkscape:connector-curvature="0" />
        </g>
      </g>
    </g>
  </g>
</svg>
