<?xml version="1.0" encoding="utf-8"?>
<!-- Generator: Adobe Illustrator 16.0.0, SVG Export Plug-In . SVG Version: 6.00 Build 0)  -->
<!DOCTYPE svg PUBLIC "-//W3C//DTD SVG 1.1//EN" "http://www.w3.org/Graphics/SVG/1.1/DTD/svg11.dtd">
<svg version="1.1"
	 id="svg3193" xmlns:dc="http://purl.org/dc/elements/1.1/" xmlns:cc="http://creativecommons.org/ns#" xmlns:rdf="http://www.w3.org/1999/02/22-rdf-syntax-ns#" xmlns:svg="http://www.w3.org/2000/svg" xmlns:sodipodi="http://sodipodi.sourceforge.net/DTD/sodipodi-0.dtd" xmlns:inkscape="http://www.inkscape.org/namespaces/inkscape" inkscape:version="0.48.4 r9939" sodipodi:docname="Route_métropole_NCA_14.svg"
	 xmlns="http://www.w3.org/2000/svg" xmlns:xlink="http://www.w3.org/1999/xlink" x="0px" y="0px" width="226px" height="100px"
	 viewBox="24 0 226 100" enable-background="new 24 0 226 100" xml:space="preserve">
<sodipodi:namedview  pagecolor="#ffffff" bordercolor="#666666" borderopacity="1.0" id="base" showgrid="true" inkscape:zoom="4" inkscape:cx="109.53125" inkscape:cy="44.765615" inkscape:window-width="1366" inkscape:pageshadow="2" inkscape:window-maximized="1" inkscape:current-layer="g5361" inkscape:window-height="745" inkscape:window-x="-8" inkscape:pageopacity="0.0" inkscape:window-y="-8" showguides="true" inkscape:document-units="px" inkscape:snap-bbox="true" inkscape:guide-bbox="true">
	<inkscape:grid  type="xygrid" id="grid3756"></inkscape:grid>
	<sodipodi:guide  id="guide3760" orientation="0,1" position="34.604038,87.637047"></sodipodi:guide>
</sodipodi:namedview>
<g id="layer1" transform="translate(0,-952.36218)" inkscape:label="Layer 1" inkscape:groupmode="layer">
	<g id="g5361" transform="translate(-838.57141,-378.57141)">
		<path id="rect2985-8-1-2-1-2-6" fill="#2A7FFF" d="M868.821,1330.934h213.5c3.451,0,6.25,2.238,6.25,5v90c0,2.762-2.799,5-6.25,5
			h-213.5c-3.452,0-6.25-2.238-6.25-5v-90C862.571,1333.172,865.37,1330.934,868.821,1330.934z"/>
	</g>
</g>
<g>
	<path fill="#FFFFFF" d="M83.273,12.837v14.32H68.394v60.176H54.582V27.005H38.687V12.837H83.273z"/>
</g>
<g>
	<path fill="#FFFFFF" d="M163.473,12.871v74.598h-14.168l0.051-52.66h-0.203c-0.102,0.44-1.32,1.405-3.656,2.895l-4.418,2.336
		l-3.961,1.523c-1.592,0.339-2.455,0.593-2.59,0.762V26.582l3.148-1.473c5.248-3.352,9.021-7.431,11.324-12.238H163.473z"/>
	<path fill="#FFFFFF" d="M223.242,12.871v74.598h-14.168l0.051-52.66h-0.203c-0.102,0.44-1.32,1.405-3.656,2.895l-4.418,2.336
		l-3.961,1.523c-1.592,0.339-2.455,0.593-2.59,0.762V26.582l3.148-1.473c5.248-3.352,9.021-7.431,11.324-12.238H223.242z"/>
</g>
</svg>
