<?xml version="1.0" encoding="UTF-8" standalone="no"?>
<!-- Created with Inkscape (http://www.inkscape.org/) -->

<svg
   xmlns:dc="http://purl.org/dc/elements/1.1/"
   xmlns:cc="http://creativecommons.org/ns#"
   xmlns:rdf="http://www.w3.org/1999/02/22-rdf-syntax-ns#"
   xmlns:svg="http://www.w3.org/2000/svg"
   xmlns="http://www.w3.org/2000/svg"
   xmlns:sodipodi="http://sodipodi.sourceforge.net/DTD/sodipodi-0.dtd"
   xmlns:inkscape="http://www.inkscape.org/namespaces/inkscape"
   width="301"
   height="301"
   id="svg4088"
   version="1.1"
   inkscape:version="0.48.4 r9939"
   sodipodi:docname="AJAX1.svg">
  <defs
     id="defs4090" />
  <sodipodi:namedview
     id="base"
     pagecolor="#ffffff"
     bordercolor="#666666"
     borderopacity="1.0"
     inkscape:pageopacity="0.0"
     inkscape:pageshadow="2"
     inkscape:zoom="0.78016527"
     inkscape:cx="110.07884"
     inkscape:cy="166.02235"
     inkscape:document-units="px"
     inkscape:current-layer="g4007"
     showgrid="false"
     fit-margin-top="1.5"
     fit-margin-left="1.5"
     fit-margin-right="1.5"
     fit-margin-bottom="1.5"
     inkscape:window-width="1280"
     inkscape:window-height="1004"
     inkscape:window-x="-8"
     inkscape:window-y="-8"
     inkscape:window-maximized="1" />
  <metadata
     id="metadata4093">
    <rdf:RDF>
      <cc:Work
         rdf:about="">
        <dc:format>image/svg+xml</dc:format>
        <dc:type
           rdf:resource="http://purl.org/dc/dcmitype/StillImage" />
        <dc:title />
      </cc:Work>
    </rdf:RDF>
  </metadata>
  <g
     inkscape:label="Ebene 1"
     inkscape:groupmode="layer"
     id="layer1"
     transform="translate(-48.057088,-417.59751)">
    <g
       id="g4007"
       transform="translate(-677.62437,-180.56075)">
      <rect
         style="fill:#ffffff;fill-opacity:1;fill-rule:nonzero;stroke:#000000;stroke-opacity:1;stroke-width:2;stroke-miterlimit:4;stroke-dasharray:none"
         id="rect3991"
         width="298"
         height="298"
         x="727.18146"
         y="599.65826"
         rx="20"
         ry="20" />
      <rect
         ry="5"
         rx="5"
         y="616.15826"
         x="743.68146"
         height="265"
         width="265"
         id="rect3993"
         style="fill:#003399;fill-opacity:1;fill-rule:nonzero;stroke:none" />
      <path
         style="fill:#ffffff;fill-opacity:1;fill-rule:nonzero;stroke:none"
         d="m 822.86892,671.59578 0,0.0312 c -7.67942,1.19074 -13.62027,6.97857 -15.21875,14.3125 l -0.0312,0 -9.46875,41.65625 -0.96875,0 c -6.094,0 -11,4.906 -11,11 l 0,35 c 0,5.72367 4.33109,10.39036 9.90625,10.9375 l 0,34.6875 c 0,3.58985 2.91015,6.5 6.5,6.5 l 14,0 c 3.58985,0 6.5,-2.91015 6.5,-6.5 l 0,-34.625 105.15625,0 0,34.625 c 0,3.58985 2.91015,6.5 6.5,6.5 l 14,0 c 3.58985,0 6.5,-2.91015 6.5,-6.5 l 0,-34.625 c 6.06466,-0.0338 10.9375,-4.92709 10.9375,-11 l 0,-35 c 0,-5.99907 -4.757,-10.85043 -10.71875,-11 l -9.31255,-40.8437 c -1.3198,-7.71681 -7.44356,-13.89034 -15.40625,-15.125 l 0,-0.0312 -107.875,0 z m 2.875,12.875 100,0 c 2.63859,0.73187 4.632,2.80977 5.28125,5.375 l 0.125,0.59375 8.21875,31.09375 c 0.0546,0.29614 0.0937,0.62554 0.0937,0.9375 0,2.76142 -2.23858,5 -5,5 l -117.375,0 c -2.76142,0 -5,-2.23858 -5,-5 0,-0.31332 0.0387,-0.64015 0.0937,-0.9375 l 8.15625,-31.09375 0.25,-1 c 0.74569,-2.38082 2.65621,-4.27531 5.15625,-4.96875 z m -16.0625,61.75 c 5.52285,0 10,4.47715 10,10 0,5.52285 -4.47715,10 -10,10 -5.52285,0 -10,-4.47715 -10,-10 0,-5.52285 4.47715,-10 10,-10 z m 131.8125,0 c 5.52285,0 10,4.47715 10,10 0,5.52285 -4.47715,10 -10,10 -5.52285,0 -10,-4.47715 -10,-10 0,-5.52285 4.47715,-10 10,-10 z"
         id="path3995"
         inkscape:connector-curvature="0" />
      <path
         id="rect3997"
         d="m 984.96875,616.15625 -241.28125,241.25 0,18.75 c 0,2.77 2.23,5 5,5 l 18.75,0 241.25,-241.28125 0,-18.71875 c 0,-2.77 -2.23,-5 -5,-5 l -18.71875,0 z"
         style="fill:#de2126;fill-opacity:1;fill-rule:nonzero;stroke:none"
         inkscape:connector-curvature="0" />
    </g>
  </g>
</svg>
